<svg xmlns="http://www.w3.org/2000/svg" xmlns:xlink="http://www.w3.org/1999/xlink" width="500" zoomAndPan="magnify" viewBox="0 0 375 374.999991" height="500" preserveAspectRatio="xMidYMid meet" version="1.0"><defs><g/><clipPath id="15c659c12e"><path d="M 59.449219 53.441406 L 315.199219 53.441406 L 315.199219 314.441406 L 59.449219 314.441406 Z M 59.449219 53.441406 " clip-rule="nonzero"/></clipPath><clipPath id="23b5f00628"><path d="M 76.699219 53.441406 L 298.289062 53.441406 C 302.863281 53.441406 307.253906 55.257812 310.488281 58.492188 C 313.722656 61.726562 315.539062 66.113281 315.539062 70.6875 L 315.539062 297.203125 C 315.539062 301.777344 313.722656 306.164062 310.488281 309.398438 C 307.253906 312.632812 302.863281 314.453125 298.289062 314.453125 L 76.699219 314.453125 C 72.125 314.453125 67.738281 312.632812 64.503906 309.398438 C 61.269531 306.164062 59.449219 301.777344 59.449219 297.203125 L 59.449219 70.6875 C 59.449219 66.113281 61.269531 61.726562 64.503906 58.492188 C 67.738281 55.257812 72.125 53.441406 76.699219 53.441406 Z M 76.699219 53.441406 " clip-rule="nonzero"/></clipPath><clipPath id="45d063ba49"><path d="M 86 128 L 103 128 L 103 147 L 86 147 Z M 86 128 " clip-rule="nonzero"/></clipPath><clipPath id="e5889b40ae"><path d="M 75.148438 122.3125 L 116.261719 97.539062 L 132.515625 124.519531 L 91.402344 149.292969 Z M 75.148438 122.3125 " clip-rule="nonzero"/></clipPath><clipPath id="96cf64839b"><path d="M 75.148438 122.3125 L 116.261719 97.539062 L 132.515625 124.519531 L 91.402344 149.292969 Z M 75.148438 122.3125 " clip-rule="nonzero"/></clipPath><clipPath id="6db8e3ecb9"><path d="M 83.628906 136.390625 L 101.371094 125.703125 L 109.042969 138.433594 L 91.300781 149.125 Z M 83.628906 136.390625 " clip-rule="nonzero"/></clipPath><clipPath id="90971d29e4"><path d="M 77 101 L 130 101 L 130 132 L 77 132 Z M 77 101 " clip-rule="nonzero"/></clipPath><clipPath id="43750de8d2"><path d="M 75.148438 122.3125 L 116.261719 97.539062 L 132.515625 124.519531 L 91.402344 149.292969 Z M 75.148438 122.3125 " clip-rule="nonzero"/></clipPath><clipPath id="583c9cfd6f"><path d="M 75.148438 122.3125 L 116.261719 97.539062 L 132.515625 124.519531 L 91.402344 149.292969 Z M 75.148438 122.3125 " clip-rule="nonzero"/></clipPath><clipPath id="da4e032b47"><path d="M 75.164062 122.339844 L 116.207031 97.605469 L 130.285156 120.96875 L 89.238281 145.703125 Z M 75.164062 122.339844 " clip-rule="nonzero"/></clipPath><clipPath id="48764cd3d5"><path d="M 132.382812 74.160156 L 244 74.160156 L 244 224.160156 L 132.382812 224.160156 Z M 132.382812 74.160156 " clip-rule="nonzero"/></clipPath><clipPath id="175a17cffe"><path d="M 272 229 L 287 229 L 287 250 L 272 250 Z M 272 229 " clip-rule="nonzero"/></clipPath><clipPath id="28206e64f1"><path d="M 269.941406 195.894531 L 302.3125 231.335938 L 279.054688 252.582031 L 246.683594 217.140625 Z M 269.941406 195.894531 " clip-rule="nonzero"/></clipPath><clipPath id="75b5e34902"><path d="M 302.265625 231.285156 L 269.894531 195.84375 L 246.636719 217.089844 L 279.007812 252.527344 Z M 302.265625 231.285156 " clip-rule="nonzero"/></clipPath><clipPath id="7d87fcc755"><path d="M 290.128906 242.371094 L 276.160156 227.074219 L 265.183594 237.101562 L 279.15625 252.394531 Z M 290.128906 242.371094 " clip-rule="nonzero"/></clipPath><clipPath id="b4aaf36946"><path d="M 250 199 L 300 199 L 300 238 L 250 238 Z M 250 199 " clip-rule="nonzero"/></clipPath><clipPath id="61b4e6a178"><path d="M 269.941406 195.894531 L 302.3125 231.335938 L 279.054688 252.582031 L 246.683594 217.140625 Z M 269.941406 195.894531 " clip-rule="nonzero"/></clipPath><clipPath id="3e3a366f11"><path d="M 302.265625 231.285156 L 269.894531 195.84375 L 246.636719 217.089844 L 279.007812 252.527344 Z M 302.265625 231.285156 " clip-rule="nonzero"/></clipPath><clipPath id="e465be8a17"><path d="M 302.246094 231.304688 L 269.925781 195.921875 L 249.785156 214.320312 L 282.105469 249.699219 Z M 302.246094 231.304688 " clip-rule="nonzero"/></clipPath></defs><g clip-path="url(#15c659c12e)"><g clip-path="url(#23b5f00628)"><path fill="#ffffff" d="M 97.699219 50.441406 L 115.699219 50.441406 L 115.699219 56.441406 L 97.699219 56.441406 Z M 118.699219 50.441406 L 136.699219 50.441406 L 136.699219 56.441406 L 118.699219 56.441406 Z M 139.699219 50.441406 L 157.699219 50.441406 L 157.699219 56.441406 L 139.699219 56.441406 Z M 160.699219 50.441406 L 178.699219 50.441406 L 178.699219 56.441406 L 160.699219 56.441406 Z M 181.699219 50.441406 L 199.699219 50.441406 L 199.699219 56.441406 L 181.699219 56.441406 Z M 202.699219 50.441406 L 220.699219 50.441406 L 220.699219 56.441406 L 202.699219 56.441406 Z M 223.699219 50.441406 L 241.699219 50.441406 L 241.699219 56.441406 L 223.699219 56.441406 Z M 244.699219 50.441406 L 262.699219 50.441406 L 262.699219 56.441406 L 244.699219 56.441406 Z M 265.699219 50.441406 L 283.699219 50.441406 L 283.699219 56.441406 L 265.699219 56.441406 Z M 286.699219 50.441406 L 298.289062 50.441406 C 300.832031 50.441406 303.285156 50.902344 305.65625 51.828125 L 303.472656 57.414062 C 301.804688 56.765625 300.078125 56.441406 298.289062 56.441406 L 286.699219 56.441406 Z M 308.808594 53.386719 C 310.195312 54.230469 311.460938 55.222656 312.609375 56.371094 C 316.5625 60.324219 318.539062 65.097656 318.539062 70.6875 L 318.539062 71.046875 L 312.539062 71.046875 L 312.539062 70.6875 C 312.539062 66.753906 311.148438 63.394531 308.367188 60.613281 C 307.558594 59.804688 306.667969 59.105469 305.691406 58.511719 Z M 318.539062 74.046875 L 318.539062 92.046875 L 312.539062 92.046875 L 312.539062 74.046875 Z M 318.539062 95.046875 L 318.539062 113.046875 L 312.539062 113.046875 L 312.539062 95.046875 Z M 318.539062 116.046875 L 318.539062 134.046875 L 312.539062 134.046875 L 312.539062 116.046875 Z M 318.539062 137.046875 L 318.539062 155.046875 L 312.539062 155.046875 L 312.539062 137.046875 Z M 318.539062 158.046875 L 318.539062 176.046875 L 312.539062 176.046875 L 312.539062 158.046875 Z M 318.539062 179.046875 L 318.539062 197.046875 L 312.539062 197.046875 L 312.539062 179.046875 Z M 318.539062 200.046875 L 318.539062 218.046875 L 312.539062 218.046875 L 312.539062 200.046875 Z M 318.539062 221.046875 L 318.539062 239.046875 L 312.539062 239.046875 L 312.539062 221.046875 Z M 318.539062 242.046875 L 318.539062 260.046875 L 312.539062 260.046875 L 312.539062 242.046875 Z M 318.539062 263.046875 L 318.539062 281.046875 L 312.539062 281.046875 L 312.539062 263.046875 Z M 318.539062 284.046875 L 318.539062 297.203125 C 318.539062 299.113281 318.273438 300.988281 317.742188 302.828125 L 311.980469 301.160156 C 312.351562 299.867188 312.539062 298.546875 312.539062 297.203125 L 312.539062 284.046875 Z M 316.476562 306.109375 C 315.488281 308.128906 314.199219 309.929688 312.609375 311.519531 C 309.042969 315.085938 304.746094 317.046875 299.714844 317.402344 L 299.292969 311.414062 C 302.832031 311.167969 305.855469 309.789062 308.367188 307.277344 C 309.484375 306.160156 310.390625 304.890625 311.085938 303.46875 Z M 296.496094 317.453125 L 278.496094 317.453125 L 278.496094 311.453125 L 296.496094 311.453125 Z M 275.496094 317.453125 L 257.496094 317.453125 L 257.496094 311.453125 L 275.496094 311.453125 Z M 254.496094 317.453125 L 236.496094 317.453125 L 236.496094 311.453125 L 254.496094 311.453125 Z M 233.496094 317.453125 L 215.496094 317.453125 L 215.496094 311.453125 L 233.496094 311.453125 Z M 212.496094 317.453125 L 194.496094 317.453125 L 194.496094 311.453125 L 212.496094 311.453125 Z M 191.496094 317.453125 L 173.496094 317.453125 L 173.496094 311.453125 L 191.496094 311.453125 Z M 170.496094 317.453125 L 152.496094 317.453125 L 152.496094 311.453125 L 170.496094 311.453125 Z M 149.496094 317.453125 L 131.496094 317.453125 L 131.496094 311.453125 L 149.496094 311.453125 Z M 128.496094 317.453125 L 110.496094 317.453125 L 110.496094 311.453125 L 128.496094 311.453125 Z M 107.496094 317.453125 L 89.496094 317.453125 L 89.496094 311.453125 L 107.496094 311.453125 Z M 86.496094 317.453125 L 76.699219 317.453125 C 73.421875 317.453125 70.328125 316.699219 67.417969 315.199219 L 70.167969 309.867188 C 72.21875 310.921875 74.394531 311.453125 76.699219 311.453125 L 86.496094 311.453125 Z M 64.441406 313.320312 C 63.714844 312.765625 63.027344 312.167969 62.382812 311.519531 C 58.429688 307.566406 56.449219 302.792969 56.449219 297.203125 L 56.449219 295.050781 L 62.449219 295.050781 L 62.449219 297.203125 C 62.449219 301.136719 63.84375 304.496094 66.625 307.277344 C 67.078125 307.734375 67.5625 308.15625 68.074219 308.542969 Z M 56.449219 292.050781 L 56.449219 274.050781 L 62.449219 274.050781 L 62.449219 292.050781 Z M 56.449219 271.050781 L 56.449219 253.050781 L 62.449219 253.050781 L 62.449219 271.050781 Z M 56.449219 250.050781 L 56.449219 232.050781 L 62.449219 232.050781 L 62.449219 250.050781 Z M 56.449219 229.050781 L 56.449219 211.050781 L 62.449219 211.050781 L 62.449219 229.050781 Z M 56.449219 208.050781 L 56.449219 190.050781 L 62.449219 190.050781 L 62.449219 208.050781 Z M 56.449219 187.050781 L 56.449219 169.050781 L 62.449219 169.050781 L 62.449219 187.050781 Z M 56.449219 166.050781 L 56.449219 148.050781 L 62.449219 148.050781 L 62.449219 166.050781 Z M 56.449219 145.050781 L 56.449219 127.050781 L 62.449219 127.050781 L 62.449219 145.050781 Z M 56.449219 124.050781 L 56.449219 106.050781 L 62.449219 106.050781 L 62.449219 124.050781 Z M 56.449219 103.050781 L 56.449219 85.050781 L 62.449219 85.050781 L 62.449219 103.050781 Z M 56.449219 82.050781 L 56.449219 70.6875 C 56.449219 68.054688 56.945312 65.515625 57.9375 63.074219 L 63.496094 65.332031 C 62.800781 67.046875 62.449219 68.835938 62.449219 70.6875 L 62.449219 82.050781 Z M 59.539062 59.9375 C 60.351562 58.640625 61.300781 57.453125 62.382812 56.371094 C 66.335938 52.417969 71.109375 50.441406 76.699219 50.441406 L 94.699219 50.441406 L 94.699219 56.441406 L 76.699219 56.441406 C 72.765625 56.441406 69.40625 57.832031 66.625 60.613281 C 65.863281 61.375 65.195312 62.210938 64.625 63.125 Z M 59.539062 59.9375 " fill-opacity="1" fill-rule="nonzero"/></g></g><g clip-path="url(#45d063ba49)"><g clip-path="url(#e5889b40ae)"><g clip-path="url(#96cf64839b)"><g clip-path="url(#6db8e3ecb9)"><path fill="#ffffff" d="M 90.230469 141.769531 C 89.128906 139.964844 89.71875 137.550781 91.53125 136.460938 C 93.351562 135.367188 95.722656 135.925781 96.804688 137.714844 C 97.917969 139.546875 97.324219 142.015625 95.515625 143.074219 C 93.707031 144.132812 91.316406 143.542969 90.230469 141.769531 Z M 100.414062 140.066406 C 100.484375 138.6875 100.222656 137.359375 99.828125 136.050781 C 99.324219 134.375 99.414062 132.800781 100.472656 131.320312 C 101.21875 130.269531 101.945312 129.203125 102.660156 128.128906 L 96.640625 128.558594 C 95.992188 129.570312 95.261719 130.691406 94.664062 131.582031 C 94.4375 131.917969 94.035156 132.007812 93.699219 132.179688 C 92.402344 132.824219 91.050781 133.363281 89.835938 134.164062 C 86.960938 136.058594 86.054688 139.050781 87.332031 142.359375 C 88.433594 145.199219 91.535156 146.9375 94.652344 146.453125 C 97.996094 145.9375 100.238281 143.449219 100.414062 140.066406 " fill-opacity="1" fill-rule="nonzero"/></g></g></g></g><g clip-path="url(#90971d29e4)"><g clip-path="url(#43750de8d2)"><g clip-path="url(#583c9cfd6f)"><g clip-path="url(#da4e032b47)"><path fill="#ffffff" d="M 81.164062 126.722656 C 80.105469 124.933594 80.699219 122.542969 82.480469 121.441406 C 84.261719 120.335938 86.722656 120.964844 87.824219 122.804688 C 88.894531 124.597656 88.285156 126.953125 86.464844 128.050781 C 84.65625 129.144531 82.242188 128.539062 81.164062 126.722656 Z M 103.851562 123.304688 C 103.851562 123.304688 103.851562 123.308594 103.851562 123.308594 C 104.386719 124.199219 104.101562 125.351562 103.210938 125.886719 C 102.324219 126.421875 101.167969 126.136719 100.632812 125.246094 C 100.097656 124.355469 100.382812 123.203125 101.273438 122.667969 C 102.160156 122.132812 103.316406 122.417969 103.851562 123.304688 Z M 92.242188 127.5625 C 93.992188 127.378906 97.574219 127.074219 97.558594 127.101562 L 104.253906 126.421875 C 110.097656 125.804688 115.941406 125.199219 121.730469 124.191406 C 123.394531 123.902344 125.070312 123.632812 126.636719 122.960938 C 127.476562 122.601562 128.261719 122.136719 128.863281 121.433594 C 129.398438 120.804688 129.617188 120.109375 129.265625 119.300781 C 129.113281 118.949219 128.910156 118.828125 128.503906 118.875 C 124.160156 119.375 119.808594 119.855469 115.460938 120.34375 C 112.96875 120.625 107.355469 121.203125 107.367188 121.1875 C 107.347656 121.191406 110.484375 116.5 111.898438 114.425781 C 114.359375 110.8125 116.816406 107.191406 119.292969 103.582031 C 119.523438 103.246094 119.507812 103.007812 119.269531 102.707031 C 118.71875 102.019531 118 101.886719 117.199219 102.070312 C 116.292969 102.273438 115.515625 102.75 114.804688 103.324219 C 113.480469 104.394531 112.460938 105.75 111.425781 107.085938 C 107.828125 111.734375 104.5625 116.621094 101.285156 121.492188 C 101.09375 121.777344 100.894531 121.921875 100.539062 121.957031 C 98.753906 122.132812 96.964844 122.3125 95.1875 122.550781 C 93.386719 122.792969 91.953125 122.140625 90.707031 120.910156 C 89.734375 119.949219 88.679688 119.09375 87.429688 118.515625 C 84.355469 117.089844 81.109375 117.910156 79.085938 120.625 C 77.207031 123.152344 77.289062 126.707031 79.289062 129.007812 C 81.613281 131.683594 84.6875 132.28125 87.707031 130.625 C 88.980469 129.925781 90.085938 128.980469 91.265625 128.140625 C 91.570312 127.917969 91.839844 127.605469 92.242188 127.5625 " fill-opacity="1" fill-rule="nonzero"/></g></g></g></g><path fill="#ffffff" d="M 164.96875 142.089844 C 164.105469 141.398438 162.726562 141.574219 161.863281 142.433594 L 154.621094 151.398438 L 152.382812 149.332031 C 151.519531 148.46875 150.140625 148.46875 149.277344 149.332031 C 148.414062 150.195312 148.414062 151.574219 149.277344 152.433594 C 149.277344 152.433594 153.414062 156.226562 153.414062 156.226562 C 154.449219 157.089844 156.003906 156.746094 156.519531 156.054688 L 165.140625 145.195312 C 166.003906 144.160156 166.347656 143.125 164.96875 142.089844 Z M 164.96875 142.089844 " fill-opacity="1" fill-rule="nonzero"/><g clip-path="url(#48764cd3d5)"><path fill="#ffffff" d="M 241.175781 162.78125 C 239.96875 162.78125 239.105469 163.8125 239.105469 164.847656 L 239.105469 219.847656 L 136.863281 219.847656 L 136.863281 78.46875 L 208.070312 78.46875 L 208.070312 107.089844 C 208.070312 108.296875 208.933594 109.332031 210.140625 109.332031 L 238.761719 109.332031 L 238.761719 112.089844 C 238.761719 113.296875 239.796875 114.160156 240.828125 114.160156 C 241.863281 114.160156 242.898438 113.125 242.898438 112.089844 L 242.898438 107.089844 C 242.898438 106.574219 242.726562 106.054688 242.210938 105.539062 L 211.863281 74.847656 C 211.519531 74.332031 210.828125 74.160156 210.3125 74.160156 L 134.796875 74.160156 C 133.589844 74.160156 132.726562 75.195312 132.726562 76.226562 L 132.726562 222.089844 C 132.726562 223.296875 133.761719 224.160156 134.796875 224.160156 L 241.175781 224.160156 C 242.382812 224.160156 243.242188 223.125 243.242188 222.089844 L 243.242188 164.847656 C 243.242188 163.640625 242.382812 162.78125 241.175781 162.78125 Z M 241.175781 162.78125 " fill-opacity="1" fill-rule="nonzero"/></g><path fill="#ffffff" d="M 228.070312 118.8125 C 228.070312 117.605469 227.035156 116.746094 226.003906 116.746094 L 174.621094 116.746094 C 173.414062 116.746094 172.554688 117.78125 172.554688 118.8125 C 172.554688 119.847656 173.589844 120.882812 174.621094 120.882812 L 226.003906 120.882812 C 227.210938 121.054688 228.070312 120.019531 228.070312 118.8125 Z M 228.070312 118.8125 " fill-opacity="1" fill-rule="nonzero"/><path fill="#ffffff" d="M 174.621094 127.78125 C 173.414062 127.78125 172.554688 128.8125 172.554688 129.847656 C 172.554688 130.882812 173.589844 131.917969 174.621094 131.917969 L 211.519531 131.917969 C 212.726562 131.917969 213.589844 130.882812 213.589844 129.847656 C 213.589844 128.8125 212.726562 127.78125 211.519531 127.78125 Z M 174.621094 127.78125 " fill-opacity="1" fill-rule="nonzero"/><path fill="#ffffff" d="M 164.96875 113.640625 C 164.105469 112.953125 162.726562 113.125 161.863281 113.988281 L 154.621094 122.953125 L 152.382812 120.882812 C 151.519531 120.019531 150.140625 120.019531 149.277344 120.882812 C 148.414062 121.746094 148.414062 123.125 149.277344 123.988281 C 149.277344 123.988281 153.414062 127.78125 153.414062 127.78125 C 154.449219 128.640625 156.003906 128.296875 156.519531 127.605469 L 165.140625 116.746094 C 166.003906 115.710938 166.175781 114.675781 164.96875 113.640625 Z M 164.96875 113.640625 " fill-opacity="1" fill-rule="nonzero"/><path fill="#ffffff" d="M 164.96875 169.503906 C 164.105469 168.8125 162.726562 168.988281 161.863281 169.847656 L 154.621094 178.8125 L 152.382812 176.746094 C 151.519531 175.882812 150.140625 175.882812 149.277344 176.746094 C 148.414062 177.605469 148.414062 178.988281 149.277344 179.847656 C 149.277344 179.847656 153.414062 183.640625 153.414062 183.640625 C 154.449219 184.503906 156.003906 184.160156 156.519531 183.46875 L 165.140625 172.605469 C 166.003906 171.746094 166.175781 170.539062 164.96875 169.503906 Z M 164.96875 169.503906 " fill-opacity="1" fill-rule="nonzero"/><path fill="#ffffff" d="M 280.828125 113.296875 L 274.621094 108.46875 L 278.761719 103.125 C 279.621094 102.089844 280.484375 100.367188 278.589844 98.8125 L 269.621094 91.746094 C 268.242188 90.539062 266.003906 90.539062 264.796875 92.089844 L 260.65625 97.433594 C 260.3125 97.261719 259.796875 97.089844 259.449219 97.261719 C 258.933594 97.261719 258.414062 97.605469 258.070312 98.125 L 250.828125 107.433594 C 250.3125 108.296875 250.3125 109.332031 250.828125 110.019531 L 223.589844 144.675781 L 174.621094 144.675781 C 173.414062 144.675781 172.554688 145.710938 172.554688 146.746094 C 172.554688 147.78125 173.589844 148.8125 174.621094 148.8125 L 220.140625 148.8125 L 214.96875 155.539062 L 174.621094 155.539062 C 173.414062 155.539062 172.554688 156.574219 172.554688 157.605469 C 172.554688 158.640625 173.589844 159.675781 174.621094 159.675781 L 211.691406 159.675781 L 201.863281 172.605469 L 174.621094 172.605469 C 173.414062 172.605469 172.554688 173.640625 172.554688 174.675781 C 172.554688 175.710938 173.589844 176.746094 174.621094 176.746094 L 198.414062 176.746094 L 194.105469 182.261719 C 194.105469 182.261719 193.933594 182.78125 193.761719 183.46875 L 174.621094 183.46875 C 173.414062 183.46875 172.554688 184.503906 172.554688 185.539062 C 172.554688 186.574219 173.589844 187.605469 174.621094 187.605469 L 192.382812 187.605469 C 190.65625 193.125 188.414062 200.882812 188.414062 200.882812 C 188.070312 201.746094 188.414062 202.78125 189.105469 203.296875 C 189.796875 203.8125 190.828125 203.8125 191.519531 203.46875 C 191.519531 203.46875 207.898438 193.640625 208.242188 193.296875 L 264.621094 120.710938 C 264.96875 120.882812 265.3125 121.054688 265.828125 121.054688 C 266.519531 121.054688 267.210938 120.710938 267.554688 120.195312 L 273.414062 112.605469 L 276.519531 115.019531 L 258.933594 137.953125 C 258.242188 138.988281 258.414062 140.195312 259.277344 141.054688 C 260.140625 141.917969 261.519531 141.574219 262.382812 140.710938 L 281.347656 116.398438 C 282.035156 115.367188 281.691406 113.988281 280.828125 113.296875 Z M 194.105469 197.089844 L 197.210938 186.746094 C 198.414062 187.433594 199.449219 188.125 200.484375 188.8125 C 201.519531 189.675781 202.554688 190.539062 203.414062 191.398438 Z M 265.484375 116.226562 L 255.3125 108.296875 L 259.621094 102.78125 L 269.796875 110.710938 Z M 265.484375 116.226562 " fill-opacity="1" fill-rule="nonzero"/><path stroke-linecap="butt" transform="matrix(0.75, 0, 0, 0.75, 122.534646, 207.42255)" fill="none" stroke-linejoin="miter" d="M 5.573597 87.431398 L 5.677764 87.431398 C 5.677764 88.67619 5.677764 89.920981 5.677764 91.165773 C 5.677764 92.389732 5.677764 93.624107 5.677764 94.868898 C 5.677764 96.098065 5.641306 97.348065 5.573597 98.629315 C 5.500681 99.910565 5.464222 101.160566 5.464222 102.389732 L 5.464222 109.936608 C 5.464222 111.1814 5.500681 112.420983 5.573597 113.665775 C 5.641306 114.894941 5.677764 116.129317 5.677764 117.374108 C 5.677764 117.728275 5.714222 117.978275 5.787139 118.1189 C 5.787139 118.634525 5.927764 118.9314 6.214222 118.999108 C 6.443389 119.072025 6.646514 119.072025 6.823597 118.999108 C 7.005889 118.9314 7.209014 118.894942 7.438181 118.894942 L 16.610056 118.894942 C 16.896515 118.894942 17.177765 118.894942 17.464223 118.894942 C 17.766306 118.894942 18.057973 118.858483 18.344431 118.785567 C 19.000682 118.785567 19.365265 118.530358 19.438182 118.014733 L 19.542348 117.238692 C 19.542348 115.941817 19.526723 114.6189 19.490265 113.269941 C 19.453807 111.915775 19.438182 110.582441 19.438182 109.269941 L 19.438182 101.295982 C 19.438182 99.999107 19.438182 98.67619 19.438182 97.322024 C 19.438182 95.973065 19.438182 94.639732 19.438182 93.322023 C 19.438182 93.108482 19.453807 92.915773 19.490265 92.73869 C 19.526723 92.561607 19.578807 92.353273 19.651723 92.124107 C 19.792348 91.322023 20.19339 90.889732 20.84964 90.816815 C 21.438182 90.67619 21.839223 90.603273 22.047557 90.603273 L 28.823599 90.603273 C 29.995474 90.603273 31.141307 90.624107 32.261099 90.655357 C 33.401724 90.691815 34.511099 90.712648 35.594433 90.712648 L 35.807974 90.712648 C 36.182974 90.712648 36.589224 90.639732 37.031933 90.499107 C 37.391308 90.42619 37.636099 90.202231 37.781933 89.83244 C 37.849641 89.686606 37.870474 89.545981 37.834016 89.405356 C 37.797558 89.264731 37.781933 89.155356 37.781933 89.08244 L 37.781933 78.822022 C 37.781933 78.660564 37.761099 78.488689 37.729849 78.311606 C 37.693391 78.134522 37.672558 77.973064 37.672558 77.832439 C 37.531933 77.316814 37.318391 77.025147 37.031933 76.952231 C 36.729849 76.811606 36.474641 76.738689 36.261099 76.738689 L 28.927765 76.738689 C 27.771515 76.738689 26.589224 76.775147 25.38089 76.848064 C 24.19339 76.915772 22.97464 76.952231 21.729848 76.952231 C 21.589223 76.952231 21.417348 76.900147 21.22464 76.790772 C 21.047557 76.686606 20.886098 76.598064 20.745473 76.525147 C 20.245473 76.457439 19.88089 76.160564 19.651723 75.644939 C 19.578807 75.431397 19.526723 75.238689 19.490265 75.061605 C 19.453807 74.863689 19.438182 74.660564 19.438182 74.447022 C 19.438182 73.129314 19.417348 71.842855 19.386098 70.582439 C 19.34964 69.301188 19.328807 68.004313 19.328807 66.686605 L 19.328807 58.931396 C 19.328807 58.785563 19.328807 58.608479 19.328807 58.394938 C 19.328807 58.165771 19.328807 57.978271 19.328807 57.837646 C 19.401723 57.249104 19.906932 56.811604 20.84964 56.530354 L 22.156932 56.530354 C 23.261098 56.530354 24.370474 56.493896 25.490265 56.420979 C 26.625682 56.353271 27.740265 56.316813 28.823599 56.316813 C 29.995474 56.316813 31.141307 56.332438 32.261099 56.368896 C 33.401724 56.405354 34.511099 56.420979 35.594433 56.420979 C 35.667349 56.420979 35.719433 56.405354 35.755891 56.368896 C 35.792349 56.332438 35.807974 56.316813 35.807974 56.316813 C 36.037141 56.389729 36.261099 56.405354 36.474641 56.368896 C 36.688183 56.332438 36.875683 56.316813 37.031933 56.316813 C 37.531933 56.176188 37.818391 55.915771 37.886099 55.540771 L 37.886099 54.905354 C 37.886099 53.144937 37.906933 51.410562 37.943391 49.702229 C 37.974641 47.999104 37.995474 46.275145 37.995474 44.530353 C 37.995474 44.301187 37.922558 43.973062 37.781933 43.545978 C 37.781933 43.098062 37.531933 42.806395 37.031933 42.66577 C 36.802766 42.592853 36.474641 42.556395 36.047558 42.556395 L 28.927765 42.556395 C 27.771515 42.556395 26.610057 42.577228 25.438182 42.613687 C 24.281932 42.644937 23.115265 42.66577 21.94339 42.66577 C 20.78714 42.66577 19.625682 42.629312 18.448598 42.556395 C 17.297556 42.488687 16.094431 42.452228 14.84964 42.452228 C 13.693389 42.452228 12.531931 42.488687 11.360056 42.556395 C 10.182973 42.629312 8.985056 42.66577 7.761097 42.66577 C 7.688181 42.66577 7.589222 42.644937 7.464222 42.613687 C 7.360056 42.577228 7.235056 42.592853 7.094431 42.66577 C 7.021514 42.66577 6.896514 42.629312 6.719431 42.556395 C 6.542347 42.488687 6.370472 42.488687 6.214222 42.556395 C 6.068389 42.629312 5.964222 42.754312 5.891306 42.931395 C 5.823597 43.108478 5.750681 43.280353 5.677764 43.436603 C 5.677764 43.723062 5.641306 43.973062 5.573597 44.186603 C 5.573597 44.254312 5.552764 44.35327 5.521514 44.47827 C 5.485056 44.582437 5.464222 44.707437 5.464222 44.85327 C 5.464222 45.936604 5.485056 47.00952 5.521514 48.077229 C 5.552764 49.124104 5.573597 50.155354 5.573597 51.170979 C 5.641306 52.269937 5.662139 53.358479 5.625681 54.420979 C 5.589222 55.473063 5.610056 56.504313 5.677764 57.514729 C 5.677764 58.759521 5.641306 60.019938 5.573597 61.301188 C 5.500681 62.561605 5.464222 63.816813 5.464222 65.061605 C 5.464222 66.217855 5.500681 67.436605 5.573597 68.712647 C 5.641306 69.978272 5.677764 71.228272 5.677764 72.473064 C 5.677764 73.717855 5.698597 74.962647 5.735056 76.207439 C 5.766306 77.431397 5.787139 78.665772 5.787139 79.910564 C 5.787139 81.139731 5.750681 82.389731 5.677764 83.670981 C 5.610056 84.952231 5.573597 86.20744 5.573597 87.431398 Z M 5.573597 87.431398 " stroke="#ffffff" stroke-width="8.1909" stroke-opacity="1" stroke-miterlimit="4"/><g fill="#ffffff" fill-opacity="1"><g transform="translate(122.534646, 296.672544)"><g><path d="M 4.171875 -23.671875 L 4.265625 -23.671875 C 4.265625 -22.742188 4.265625 -21.816406 4.265625 -20.890625 C 4.265625 -19.960938 4.265625 -19.03125 4.265625 -18.09375 C 4.265625 -17.164062 4.234375 -16.222656 4.171875 -15.265625 C 4.117188 -14.316406 4.09375 -13.378906 4.09375 -12.453125 L 4.09375 -6.796875 C 4.09375 -5.867188 4.117188 -4.941406 4.171875 -4.015625 C 4.234375 -3.085938 4.265625 -2.160156 4.265625 -1.234375 C 4.265625 -0.953125 4.289062 -0.757812 4.34375 -0.65625 C 4.34375 -0.269531 4.453125 -0.0507812 4.671875 0 C 4.835938 0.0507812 4.988281 0.0507812 5.125 0 C 5.257812 -0.0507812 5.40625 -0.078125 5.5625 -0.078125 L 12.453125 -0.078125 C 12.671875 -0.078125 12.890625 -0.078125 13.109375 -0.078125 C 13.328125 -0.078125 13.546875 -0.101562 13.765625 -0.15625 C 14.253906 -0.15625 14.523438 -0.347656 14.578125 -0.734375 L 14.65625 -1.3125 C 14.65625 -2.289062 14.640625 -3.285156 14.609375 -4.296875 C 14.585938 -5.304688 14.578125 -6.304688 14.578125 -7.296875 L 14.578125 -13.265625 C 14.578125 -14.253906 14.578125 -15.253906 14.578125 -16.265625 C 14.578125 -17.273438 14.578125 -18.269531 14.578125 -19.25 C 14.578125 -19.414062 14.585938 -19.566406 14.609375 -19.703125 C 14.640625 -19.835938 14.6875 -19.988281 14.75 -20.15625 C 14.851562 -20.75 15.148438 -21.070312 15.640625 -21.125 C 16.078125 -21.238281 16.378906 -21.296875 16.546875 -21.296875 L 21.625 -21.296875 C 22.5 -21.296875 23.359375 -21.28125 24.203125 -21.25 C 25.046875 -21.226562 25.878906 -21.21875 26.703125 -21.21875 L 26.859375 -21.21875 C 27.140625 -21.21875 27.441406 -21.269531 27.765625 -21.375 C 28.035156 -21.425781 28.226562 -21.59375 28.34375 -21.875 C 28.394531 -21.976562 28.40625 -22.082031 28.375 -22.1875 C 28.351562 -22.300781 28.34375 -22.382812 28.34375 -22.4375 L 28.34375 -30.140625 C 28.34375 -30.253906 28.328125 -30.378906 28.296875 -30.515625 C 28.265625 -30.648438 28.25 -30.769531 28.25 -30.875 C 28.144531 -31.257812 27.984375 -31.476562 27.765625 -31.53125 C 27.546875 -31.644531 27.351562 -31.703125 27.1875 -31.703125 L 21.703125 -31.703125 C 20.828125 -31.703125 19.9375 -31.671875 19.03125 -31.609375 C 18.132812 -31.554688 17.222656 -31.53125 16.296875 -31.53125 C 16.191406 -31.53125 16.066406 -31.570312 15.921875 -31.65625 C 15.785156 -31.738281 15.664062 -31.804688 15.5625 -31.859375 C 15.175781 -31.910156 14.90625 -32.128906 14.75 -32.515625 C 14.6875 -32.679688 14.640625 -32.832031 14.609375 -32.96875 C 14.585938 -33.101562 14.578125 -33.253906 14.578125 -33.421875 C 14.578125 -34.398438 14.5625 -35.367188 14.53125 -36.328125 C 14.507812 -37.285156 14.5 -38.253906 14.5 -39.234375 L 14.5 -45.046875 C 14.5 -45.160156 14.5 -45.296875 14.5 -45.453125 C 14.5 -45.617188 14.5 -45.757812 14.5 -45.875 C 14.550781 -46.300781 14.929688 -46.625 15.640625 -46.84375 L 16.625 -46.84375 C 17.445312 -46.84375 18.28125 -46.867188 19.125 -46.921875 C 19.96875 -46.984375 20.800781 -47.015625 21.625 -47.015625 C 22.5 -47.015625 23.359375 -47 24.203125 -46.96875 C 25.046875 -46.945312 25.878906 -46.9375 26.703125 -46.9375 C 26.753906 -46.9375 26.789062 -46.945312 26.8125 -46.96875 C 26.84375 -47 26.859375 -47.015625 26.859375 -47.015625 C 27.023438 -46.960938 27.191406 -46.945312 27.359375 -46.96875 C 27.523438 -47 27.660156 -47.015625 27.765625 -47.015625 C 28.148438 -47.117188 28.367188 -47.3125 28.421875 -47.59375 L 28.421875 -48.078125 C 28.421875 -49.390625 28.429688 -50.6875 28.453125 -51.96875 C 28.484375 -53.25 28.5 -54.546875 28.5 -55.859375 C 28.5 -56.023438 28.445312 -56.269531 28.34375 -56.59375 C 28.34375 -56.925781 28.148438 -57.144531 27.765625 -57.25 C 27.597656 -57.300781 27.351562 -57.328125 27.03125 -57.328125 L 21.703125 -57.328125 C 20.828125 -57.328125 19.953125 -57.3125 19.078125 -57.28125 C 18.210938 -57.257812 17.34375 -57.25 16.46875 -57.25 C 15.59375 -57.25 14.71875 -57.273438 13.84375 -57.328125 C 12.96875 -57.390625 12.066406 -57.421875 11.140625 -57.421875 C 10.265625 -57.421875 9.390625 -57.390625 8.515625 -57.328125 C 7.640625 -57.273438 6.738281 -57.25 5.8125 -57.25 C 5.757812 -57.25 5.691406 -57.257812 5.609375 -57.28125 C 5.523438 -57.3125 5.429688 -57.300781 5.328125 -57.25 C 5.265625 -57.25 5.164062 -57.273438 5.03125 -57.328125 C 4.894531 -57.390625 4.773438 -57.390625 4.671875 -57.328125 C 4.554688 -57.273438 4.472656 -57.179688 4.421875 -57.046875 C 4.367188 -56.910156 4.316406 -56.785156 4.265625 -56.671875 C 4.265625 -56.453125 4.234375 -56.265625 4.171875 -56.109375 C 4.171875 -56.054688 4.15625 -55.988281 4.125 -55.90625 C 4.101562 -55.820312 4.09375 -55.722656 4.09375 -55.609375 C 4.09375 -54.796875 4.101562 -53.992188 4.125 -53.203125 C 4.15625 -52.410156 4.171875 -51.628906 4.171875 -50.859375 C 4.234375 -50.046875 4.25 -49.242188 4.21875 -48.453125 C 4.1875 -47.660156 4.203125 -46.878906 4.265625 -46.109375 C 4.265625 -45.179688 4.234375 -44.238281 4.171875 -43.28125 C 4.117188 -42.332031 4.09375 -41.394531 4.09375 -40.46875 C 4.09375 -39.59375 4.117188 -38.675781 4.171875 -37.71875 C 4.234375 -36.757812 4.265625 -35.816406 4.265625 -34.890625 C 4.265625 -33.960938 4.273438 -33.035156 4.296875 -32.109375 C 4.328125 -31.179688 4.34375 -30.253906 4.34375 -29.328125 C 4.34375 -28.398438 4.3125 -27.457031 4.25 -26.5 C 4.195312 -25.539062 4.171875 -24.597656 4.171875 -23.671875 Z M 4.171875 -23.671875 "/></g></g></g><path stroke-linecap="butt" transform="matrix(0.75, 0, 0, 0.75, 155.140893, 207.42255)" fill="none" stroke-linejoin="miter" d="M 11.359019 80.660564 L 11.359019 83.936606 C 11.359019 85.540773 11.327769 87.118898 11.254852 88.686606 C 11.181935 90.249106 11.145477 91.795982 11.145477 93.322023 C 11.145477 94.941815 11.114227 96.530357 11.04131 98.098065 C 10.968394 99.660565 10.937144 101.207441 10.937144 102.733482 C 10.937144 104.264732 10.968394 105.790774 11.04131 107.322024 C 11.114227 108.848066 11.145477 110.379316 11.145477 111.905358 C 11.145477 112.332441 11.129852 112.8064 11.093394 113.322025 C 11.056935 113.83765 11.04131 114.379316 11.04131 114.947025 C 11.04131 115.603275 11.114227 116.207442 11.254852 116.759525 C 11.395477 117.311608 11.723602 117.764733 12.239227 118.1189 C 12.754852 118.420983 13.332977 118.5564 13.973602 118.519942 C 14.629852 118.483483 15.254852 118.504317 15.838186 118.572025 C 17.510061 118.644942 19.129853 118.697025 20.692353 118.733483 C 22.254853 118.769942 23.848603 118.785567 25.463186 118.785567 C 27.067353 118.717858 28.645478 118.629317 30.213187 118.519942 C 31.775687 118.394942 33.35902 118.191817 34.957979 117.905358 C 37.801729 117.249108 40.530896 116.264733 43.145479 114.947025 C 44.457979 114.379316 45.713188 113.691816 46.900688 112.894941 C 48.109021 112.092858 49.30173 111.21265 50.473605 110.254316 C 51.629855 109.311608 52.713188 108.353274 53.728813 107.374108 C 54.760063 106.379316 55.70798 105.306399 56.58298 104.150149 C 57.52048 102.978274 58.411105 101.811607 59.249647 100.655357 C 60.08298 99.483482 60.791314 98.249107 61.379855 96.952232 C 62.036105 95.561607 62.598605 94.17619 63.062147 92.790773 C 63.541314 91.405357 63.931939 90.01994 64.234022 88.629315 C 64.801731 85.806398 65.015272 82.900148 64.874647 79.910564 C 64.874647 78.457439 64.765272 76.999106 64.551731 75.540772 C 64.338189 74.082439 64.046522 72.660564 63.671522 71.275147 C 63.390272 69.816813 63.004856 68.394938 62.525689 67.009522 C 62.062147 65.618897 61.504855 64.280355 60.848605 62.98348 C 60.119439 61.665771 59.306939 60.447021 58.421522 59.327229 C 57.55173 58.191813 56.609022 57.082438 55.593397 55.993896 C 54.650688 54.894937 53.629855 53.853271 52.525688 52.879312 C 51.442355 51.900146 50.317355 51.009521 49.140271 50.212646 C 47.98923 49.32202 46.786104 48.47827 45.541313 47.676187 C 44.317354 46.879312 43.010063 46.22827 41.624646 45.733479 C 40.306937 45.144937 38.957979 44.691812 37.572562 44.368895 C 36.181937 44.035562 34.760062 43.723062 33.306937 43.436603 C 30.973603 43.066812 28.728812 42.842853 26.556936 42.769937 C 25.385061 42.769937 24.249645 42.738687 23.145478 42.66577 C 22.062144 42.592853 20.942353 42.556395 19.786103 42.556395 C 18.989228 42.629312 18.140269 42.681395 17.254853 42.717853 C 16.385061 42.754312 15.510061 42.769937 14.640269 42.769937 C 14.197561 42.769937 13.734019 42.79077 13.254852 42.827228 C 12.791311 42.858478 12.385061 43.066812 12.025686 43.436603 C 11.655894 43.795978 11.395477 44.249103 11.254852 44.795979 C 11.114227 45.332437 11.04131 45.889729 11.04131 46.47827 L 11.04131 55.009521 C 11.04131 56.394938 11.04131 57.816813 11.04131 59.275146 C 11.04131 60.717855 11.04131 62.165771 11.04131 63.624105 C 11.04131 65.009521 11.077769 66.410563 11.145477 67.832438 C 11.218394 69.254313 11.254852 70.697022 11.254852 72.155355 C 11.254852 73.540772 11.270477 74.947022 11.306935 76.368897 C 11.343394 77.769939 11.359019 79.202231 11.359019 80.660564 Z M 26.317353 80.660564 L 26.317353 74.129314 C 26.317353 73.025147 26.317353 71.931397 26.317353 70.848064 C 26.317353 69.743897 26.317353 68.650147 26.317353 67.566813 C 26.317353 66.467855 26.353811 65.374105 26.426728 64.290771 C 26.51527 63.186605 26.556936 62.092855 26.556936 61.009521 C 26.556936 60.655355 26.593395 60.29598 26.666311 59.941813 C 26.73402 59.566813 26.916311 59.233479 27.197562 58.931396 C 27.48402 58.572021 27.848603 58.358479 28.291312 58.290771 C 28.73402 58.217854 29.207978 58.217854 29.70277 58.290771 C 32.192353 58.644938 34.48402 59.327229 36.582979 60.342855 C 37.687146 60.85848 38.707979 61.478271 39.650687 62.207438 C 40.593396 62.936605 41.499646 63.738688 42.369437 64.60848 C 43.260063 65.410563 44.119438 66.269938 44.957979 67.197022 C 45.791313 68.103272 46.457979 69.061605 46.957979 70.072022 C 47.541313 71.160564 48.030896 72.269939 48.421521 73.405355 C 48.83298 74.525147 49.150688 75.707439 49.379855 76.952231 C 49.525688 77.467856 49.593396 77.967856 49.593396 78.447022 C 49.593396 78.910564 49.593396 79.363689 49.593396 79.806397 C 49.593396 81.243898 49.478813 82.697023 49.249646 84.150148 C 49.036105 85.327231 48.806938 86.514731 48.556938 87.723065 C 48.306938 88.915773 47.890271 90.061606 47.301729 91.165773 C 46.202771 93.259523 44.744438 95.191815 42.931938 96.952232 C 42.056937 97.822024 41.088187 98.566815 40.025687 99.191815 C 38.973604 99.795982 37.942354 100.389732 36.931937 100.978274 C 35.82777 101.493899 34.707979 101.973066 33.572562 102.415774 C 32.45277 102.842857 31.275687 103.129316 30.051728 103.269941 L 29.385062 103.269941 C 29.098603 103.269941 28.82777 103.249107 28.556937 103.217857 C 28.312145 103.181399 28.041312 103.129316 27.760062 103.056399 C 27.760062 103.056399 27.588187 102.858482 27.249645 102.467857 C 26.931936 102.061607 26.73402 101.785566 26.666311 101.644941 C 26.593395 101.269941 26.57777 100.905357 26.614228 100.55119 C 26.645478 100.17619 26.666311 99.848065 26.666311 99.561607 L 26.666311 93.98869 C 26.666311 92.17619 26.619436 90.36369 26.530895 88.55119 C 26.463186 86.723065 26.426728 84.889731 26.426728 83.056398 C 26.426728 82.702231 26.405895 82.332439 26.374645 81.936606 C 26.338186 81.530356 26.317353 81.103273 26.317353 80.660564 Z M 26.317353 80.660564 " stroke="#ffffff" stroke-width="8.1909" stroke-opacity="1" stroke-miterlimit="4"/><g fill="#ffffff" fill-opacity="1"><g transform="translate(159.242455, 296.672544)"><g><path d="M 4.421875 -28.75 L 4.421875 -26.296875 C 4.421875 -25.085938 4.394531 -23.894531 4.34375 -22.71875 C 4.289062 -21.550781 4.265625 -20.394531 4.265625 -19.25 C 4.265625 -18.050781 4.234375 -16.863281 4.171875 -15.6875 C 4.117188 -14.507812 4.09375 -13.347656 4.09375 -12.203125 C 4.09375 -11.054688 4.117188 -9.910156 4.171875 -8.765625 C 4.234375 -7.617188 4.265625 -6.472656 4.265625 -5.328125 C 4.265625 -4.992188 4.25 -4.632812 4.21875 -4.25 C 4.1875 -3.875 4.171875 -3.46875 4.171875 -3.03125 C 4.171875 -2.539062 4.222656 -2.085938 4.328125 -1.671875 C 4.441406 -1.265625 4.691406 -0.925781 5.078125 -0.65625 C 5.460938 -0.4375 5.898438 -0.335938 6.390625 -0.359375 C 6.878906 -0.390625 7.34375 -0.378906 7.78125 -0.328125 C 9.039062 -0.273438 10.253906 -0.234375 11.421875 -0.203125 C 12.597656 -0.171875 13.785156 -0.15625 14.984375 -0.15625 C 16.191406 -0.21875 17.378906 -0.285156 18.546875 -0.359375 C 19.722656 -0.441406 20.910156 -0.59375 22.109375 -0.8125 C 24.242188 -1.3125 26.289062 -2.050781 28.25 -3.03125 C 29.238281 -3.46875 30.179688 -3.984375 31.078125 -4.578125 C 31.984375 -5.179688 32.875 -5.835938 33.75 -6.546875 C 34.625 -7.265625 35.441406 -7.988281 36.203125 -8.71875 C 36.960938 -9.457031 37.671875 -10.265625 38.328125 -11.140625 C 39.035156 -12.015625 39.703125 -12.890625 40.328125 -13.765625 C 40.960938 -14.640625 41.5 -15.566406 41.9375 -16.546875 C 42.425781 -17.578125 42.847656 -18.613281 43.203125 -19.65625 C 43.554688 -20.695312 43.84375 -21.734375 44.0625 -22.765625 C 44.5 -24.898438 44.664062 -27.085938 44.5625 -29.328125 C 44.5625 -30.410156 44.476562 -31.5 44.3125 -32.59375 C 44.144531 -33.6875 43.925781 -34.753906 43.65625 -35.796875 C 43.4375 -36.890625 43.148438 -37.953125 42.796875 -38.984375 C 42.441406 -40.023438 42.019531 -41.035156 41.53125 -42.015625 C 40.976562 -43.003906 40.375 -43.921875 39.71875 -44.765625 C 39.0625 -45.609375 38.351562 -46.441406 37.59375 -47.265625 C 36.882812 -48.078125 36.117188 -48.851562 35.296875 -49.59375 C 34.484375 -50.332031 33.640625 -51 32.765625 -51.59375 C 31.890625 -52.25 30.988281 -52.878906 30.0625 -53.484375 C 29.132812 -54.085938 28.148438 -54.578125 27.109375 -54.953125 C 26.128906 -55.390625 25.117188 -55.726562 24.078125 -55.96875 C 23.046875 -56.21875 21.984375 -56.453125 20.890625 -56.671875 C 19.140625 -56.953125 17.445312 -57.117188 15.8125 -57.171875 C 14.9375 -57.171875 14.085938 -57.195312 13.265625 -57.25 C 12.453125 -57.300781 11.609375 -57.328125 10.734375 -57.328125 C 10.128906 -57.273438 9.5 -57.234375 8.84375 -57.203125 C 8.1875 -57.179688 7.53125 -57.171875 6.875 -57.171875 C 6.550781 -57.171875 6.210938 -57.15625 5.859375 -57.125 C 5.503906 -57.101562 5.191406 -56.953125 4.921875 -56.671875 C 4.640625 -56.398438 4.441406 -56.0625 4.328125 -55.65625 C 4.222656 -55.25 4.171875 -54.828125 4.171875 -54.390625 L 4.171875 -48 C 4.171875 -46.957031 4.171875 -45.890625 4.171875 -44.796875 C 4.171875 -43.710938 4.171875 -42.625 4.171875 -41.53125 C 4.171875 -40.488281 4.195312 -39.4375 4.25 -38.375 C 4.3125 -37.3125 4.34375 -36.234375 4.34375 -35.140625 C 4.34375 -34.097656 4.351562 -33.046875 4.375 -31.984375 C 4.40625 -30.921875 4.421875 -29.84375 4.421875 -28.75 Z M 15.640625 -28.75 L 15.640625 -33.65625 C 15.640625 -34.476562 15.640625 -35.296875 15.640625 -36.109375 C 15.640625 -36.929688 15.640625 -37.753906 15.640625 -38.578125 C 15.640625 -39.398438 15.664062 -40.21875 15.71875 -41.03125 C 15.78125 -41.851562 15.8125 -42.675781 15.8125 -43.5 C 15.8125 -43.769531 15.835938 -44.039062 15.890625 -44.3125 C 15.941406 -44.582031 16.078125 -44.828125 16.296875 -45.046875 C 16.515625 -45.316406 16.785156 -45.476562 17.109375 -45.53125 C 17.441406 -45.59375 17.800781 -45.597656 18.1875 -45.546875 C 20.039062 -45.265625 21.757812 -44.742188 23.34375 -43.984375 C 24.164062 -43.597656 24.929688 -43.128906 25.640625 -42.578125 C 26.347656 -42.035156 27.03125 -41.441406 27.6875 -40.796875 C 28.34375 -40.191406 28.984375 -39.546875 29.609375 -38.859375 C 30.234375 -38.179688 30.738281 -37.457031 31.125 -36.6875 C 31.5625 -35.875 31.929688 -35.039062 32.234375 -34.1875 C 32.535156 -33.34375 32.765625 -32.457031 32.921875 -31.53125 C 33.035156 -31.144531 33.09375 -30.773438 33.09375 -30.421875 C 33.09375 -30.066406 33.09375 -29.726562 33.09375 -29.40625 C 33.09375 -28.3125 33.007812 -27.21875 32.84375 -26.125 C 32.675781 -25.25 32.5 -24.359375 32.3125 -23.453125 C 32.125 -22.554688 31.8125 -21.703125 31.375 -20.890625 C 30.550781 -19.304688 29.457031 -17.859375 28.09375 -16.546875 C 27.4375 -15.890625 26.710938 -15.328125 25.921875 -14.859375 C 25.128906 -14.398438 24.351562 -13.953125 23.59375 -13.515625 C 22.769531 -13.128906 21.9375 -12.769531 21.09375 -12.4375 C 20.25 -12.113281 19.359375 -11.898438 18.421875 -11.796875 L 17.9375 -11.796875 C 17.71875 -11.796875 17.507812 -11.804688 17.3125 -11.828125 C 17.125 -11.859375 16.921875 -11.898438 16.703125 -11.953125 C 16.703125 -11.953125 16.578125 -12.101562 16.328125 -12.40625 C 16.085938 -12.707031 15.941406 -12.910156 15.890625 -13.015625 C 15.835938 -13.296875 15.820312 -13.570312 15.84375 -13.84375 C 15.875 -14.113281 15.890625 -14.359375 15.890625 -14.578125 L 15.890625 -18.75 C 15.890625 -20.113281 15.859375 -21.476562 15.796875 -22.84375 C 15.742188 -24.21875 15.71875 -25.585938 15.71875 -26.953125 C 15.71875 -27.222656 15.703125 -27.503906 15.671875 -27.796875 C 15.648438 -28.097656 15.640625 -28.414062 15.640625 -28.75 Z M 15.640625 -28.75 "/></g></g></g><path stroke-linecap="butt" transform="matrix(0.75, 0, 0, 0.75, 210.362218, 207.42255)" fill="none" stroke-linejoin="miter" d="M 5.574335 80.551189 C 5.574335 82.009523 5.58996 83.467856 5.626418 84.926189 C 5.662877 86.384523 5.678502 87.842856 5.678502 89.295981 L 5.678502 97.910565 C 5.678502 99.368899 5.678502 100.827232 5.678502 102.280357 C 5.678502 103.738691 5.678502 105.197024 5.678502 106.655358 L 5.678502 115.40015 C 5.678502 115.473066 5.642043 115.577233 5.574335 115.723066 C 5.501418 115.863692 5.46496 116.014733 5.46496 116.176192 L 5.787877 117.134525 C 6.069127 117.9314 6.470168 118.379317 6.985793 118.467858 C 7.126418 118.535567 7.287877 118.535567 7.46496 118.467858 C 7.662877 118.379317 7.829543 118.332442 7.970168 118.332442 C 9.71496 118.332442 11.454544 118.358483 13.199335 118.415775 C 14.959752 118.447025 16.746211 118.467858 18.558711 118.467858 C 18.714961 118.467858 18.886836 118.447025 19.063919 118.415775 C 19.241002 118.358483 19.366002 118.332442 19.438919 118.332442 C 19.808711 118.191817 20.032669 118.082442 20.105586 118.014733 C 20.459752 117.801192 20.636836 117.436608 20.636836 116.920983 C 20.709753 116.780358 20.777461 116.634525 20.850378 116.4939 C 20.923294 116.353275 20.954544 116.202233 20.954544 116.040775 C 20.954544 114.884525 20.938919 113.728275 20.902461 112.572025 C 20.866003 111.40015 20.850378 110.228274 20.850378 109.056399 C 20.850378 107.900149 20.866003 106.743899 20.902461 105.587649 C 20.938919 104.415774 20.954544 103.243899 20.954544 102.066816 C 20.954544 100.915774 20.923294 99.759524 20.850378 98.603274 C 20.777461 97.431399 20.777461 96.254315 20.850378 95.08244 C 20.850378 94.639732 20.886836 94.348065 20.954544 94.202232 C 20.954544 94.134523 21.037878 94.025148 21.199336 93.884523 C 21.339961 93.743898 21.501419 93.686607 21.678503 93.723065 C 21.855586 93.759523 21.980586 93.743898 22.048294 93.670982 L 23.491003 93.670982 C 23.985794 93.670982 24.449336 93.655357 24.876419 93.618898 C 25.319128 93.58244 25.767045 93.561607 26.209753 93.561607 C 26.725378 93.561607 27.194128 93.545982 27.621211 93.509523 C 28.069128 93.473065 28.50142 93.45744 28.928503 93.45744 L 29.06392 93.45744 C 29.418086 93.45744 29.756628 93.509523 30.074336 93.618898 C 30.412878 93.723065 30.725378 93.811607 31.006628 93.884523 C 31.152462 93.95744 31.329545 93.98869 31.543087 93.98869 C 31.772253 93.98869 31.959753 94.061607 32.100378 94.202232 C 32.475378 94.348065 32.819128 94.514732 33.142045 94.712648 C 33.480587 94.889732 33.787878 95.118898 34.074337 95.405357 C 34.287878 95.634524 34.464962 95.89494 34.605587 96.17619 C 34.767045 96.462649 34.918087 96.754315 35.06392 97.056399 C 35.204545 97.410565 35.308712 97.811607 35.381628 98.254315 C 35.454545 98.681399 35.522253 99.155357 35.59517 99.670982 C 35.59517 99.952232 35.631628 100.280357 35.699337 100.655357 C 35.772254 101.009524 35.850379 101.374107 35.93892 101.749107 C 35.93892 102.978274 35.912879 104.228274 35.860795 105.509524 C 35.824337 106.790774 35.808712 108.040774 35.808712 109.269941 C 35.808712 110.514733 35.824337 111.77515 35.860795 113.0564 C 35.912879 114.316816 35.93892 115.566816 35.93892 116.811608 C 35.93892 116.884525 35.897254 116.999108 35.808712 117.160567 C 35.735795 117.301192 35.699337 117.447025 35.699337 117.58765 C 35.772254 118.082442 36.173295 118.483483 36.902462 118.785567 C 37.34517 118.9314 37.673295 118.999108 37.886837 118.999108 L 49.032671 118.999108 C 49.105588 118.999108 49.136838 118.999108 49.136838 118.999108 C 49.136838 118.999108 49.173296 118.999108 49.246213 118.999108 C 49.688921 118.999108 50.053504 118.894942 50.339963 118.6814 L 50.683713 118.332442 C 50.829546 118.191817 50.970171 117.905358 51.110796 117.478275 L 51.110796 116.598067 C 51.110796 115.285566 51.110796 113.96265 51.110796 112.629316 C 51.110796 111.27515 51.110796 109.910566 51.110796 108.519941 C 51.110796 107.207441 51.095171 105.884524 51.058713 104.551191 C 51.022255 103.197024 51.00663 101.827232 51.00663 100.441815 L 51.00663 98.467857 C 51.00663 98.254315 51.043088 98.025149 51.110796 97.775149 C 51.183713 97.509524 51.183713 97.26994 51.110796 97.056399 C 51.110796 96.681399 51.043088 96.316815 50.897254 95.962649 C 50.756629 95.587649 50.642046 95.259523 50.553504 94.978273 C 50.480588 94.530357 50.407671 94.11369 50.339963 93.723065 C 50.267046 93.316815 50.162879 92.931398 50.017046 92.577232 C 49.949338 92.348065 49.860796 92.139732 49.751421 91.962648 C 49.647254 91.785565 49.511838 91.592857 49.350379 91.379315 C 49.136838 90.717857 48.855588 90.025148 48.501421 89.295981 C 48.267046 88.92619 48.011838 88.561606 47.725379 88.202231 C 47.444129 87.83244 47.183713 87.467856 46.954546 87.11369 C 46.741004 86.900148 46.491004 86.566815 46.204546 86.124106 C 46.048296 85.910565 46.048296 85.58244 46.204546 85.139731 C 46.204546 84.926189 46.241004 84.749106 46.313921 84.603273 C 46.527463 84.301189 46.741004 83.993898 46.954546 83.670981 C 47.183713 83.353273 47.407671 83.040773 47.621213 82.738689 C 47.761838 82.525148 47.938921 82.332439 48.152463 82.150148 C 48.381629 81.957439 48.569129 81.717856 48.714963 81.431398 C 48.855588 81.217856 48.959754 80.988689 49.032671 80.738689 C 49.105588 80.473064 49.173296 80.233481 49.246213 80.019939 C 49.386838 79.790772 49.511838 79.545981 49.621213 79.301189 C 49.741004 79.051189 49.876421 78.811606 50.017046 78.577231 C 50.162879 78.295981 50.267046 78.009522 50.339963 77.728272 C 50.407671 77.426189 50.480588 77.129314 50.553504 76.848064 C 50.709754 76.473064 50.897254 76.108481 51.110796 75.754314 C 51.324338 75.400147 51.470171 75.035564 51.53788 74.660564 C 51.610796 74.374105 51.647255 74.10848 51.647255 73.85848 C 51.647255 73.592855 51.688921 73.316814 51.777463 73.035564 L 52.10038 70.848064 C 52.10038 70.686605 52.10038 70.556397 52.10038 70.447022 C 52.10038 70.342855 52.10038 70.217855 52.10038 70.072022 C 52.10038 69.85848 52.116005 69.644938 52.152463 69.436605 C 52.188921 69.20223 52.204546 68.98348 52.204546 68.769938 L 52.204546 66.582438 C 52.204546 66.582438 52.22538 66.582438 52.25663 66.582438 C 52.293088 66.582438 52.313921 66.582438 52.313921 66.582438 C 52.313921 66.29598 52.25663 66.04598 52.152463 65.832438 C 52.043088 65.603272 51.991005 65.379313 51.991005 65.165772 C 51.923296 64.79598 51.902463 64.447021 51.938921 64.129313 C 51.97538 63.790771 51.923296 63.478271 51.777463 63.197021 C 51.688921 62.681396 51.501421 62.092855 51.220171 61.436605 C 51.147255 61.082438 51.058713 60.707438 50.954546 60.316813 C 50.845171 59.905354 50.709754 59.514729 50.553504 59.144938 C 50.407671 58.717854 50.267046 58.290771 50.126421 57.863688 C 49.985796 57.415771 49.803504 57.009521 49.589963 56.634521 L 49.459754 56.207438 C 49.319129 55.905354 49.157671 55.629313 48.980588 55.384521 C 48.803504 55.134521 48.605588 54.858479 48.392046 54.556396 C 48.230588 54.269937 48.063921 54.004312 47.886838 53.754312 C 47.709754 53.488687 47.548296 53.249104 47.407671 53.035562 C 47.173296 52.681396 46.918088 52.394937 46.631629 52.181396 C 46.350379 51.952229 46.089963 51.697021 45.860796 51.410562 C 45.647254 51.181396 45.470171 50.941812 45.324337 50.691812 C 45.183712 50.441812 44.996212 50.202229 44.767046 49.973062 C 44.553504 49.827229 44.329546 49.650145 44.100379 49.436604 C 43.886837 49.223062 43.709754 49.035562 43.569129 48.879312 C 43.355587 48.733479 43.131629 48.556395 42.902462 48.342854 C 42.688921 48.129312 42.506629 47.941812 42.366004 47.785562 L 39.964962 46.155354 C 39.897254 46.155354 39.824337 46.176187 39.75142 46.212645 C 39.683712 46.249104 39.610795 46.22827 39.543087 46.155354 C 39.397254 46.087645 39.230587 46.014729 39.03267 45.94702 C 38.855587 45.874104 38.662879 45.801187 38.449337 45.733479 C 38.303504 45.57202 38.121212 45.436604 37.886837 45.332437 C 37.673295 45.223062 37.496212 45.13452 37.355587 45.066812 L 35.808712 44.400145 C 35.381628 44.254312 34.944128 44.113687 34.50142 43.973062 C 34.074337 43.827228 33.636837 43.723062 33.194128 43.650145 C 32.767045 43.50952 32.334753 43.368895 31.886837 43.223062 C 31.444128 43.066812 30.975378 42.94702 30.475378 42.879312 C 30.334753 42.879312 30.037878 42.806395 29.59517 42.66577 L 28.714961 42.66577 C 28.50142 42.66577 28.261836 42.681395 27.996211 42.717853 C 27.746211 42.754312 27.480586 42.769937 27.194128 42.769937 C 26.980586 42.702228 26.084753 42.681395 24.501419 42.717853 C 22.938919 42.754312 20.991003 42.806395 18.662877 42.879312 C 17.293086 42.879312 15.897252 42.827228 14.475377 42.717853 C 13.053502 42.613687 11.616002 42.556395 10.157668 42.556395 C 9.71496 42.556395 9.272252 42.577228 8.824335 42.613687 C 8.397252 42.644937 7.970168 42.702228 7.543085 42.769937 C 7.313918 42.842853 7.110793 42.858478 6.93371 42.827228 C 6.756627 42.79077 6.595168 42.842853 6.454543 42.983478 C 6.006627 43.285562 5.751418 43.613687 5.678502 43.973062 C 5.605585 44.254312 5.574335 44.72827 5.574335 45.38452 C 5.574335 46.556395 5.553502 47.733479 5.517043 48.905354 C 5.485793 50.061604 5.46496 51.212646 5.46496 52.368896 L 5.46496 59.488688 C 5.46496 60.644938 5.501418 61.806396 5.574335 62.98348 C 5.642043 64.13973 5.678502 65.301188 5.678502 66.473063 C 5.678502 67.629313 5.642043 68.79598 5.574335 69.967855 C 5.501418 71.124105 5.46496 72.322022 5.46496 73.566814 C 5.46496 74.738689 5.485793 75.915772 5.517043 77.087647 C 5.553502 78.243897 5.574335 79.394939 5.574335 80.551189 Z M 20.850378 68.207438 L 20.850378 60.686605 C 20.850378 60.384521 20.886836 60.129313 20.954544 59.915771 C 21.043086 59.702229 21.089961 59.447021 21.089961 59.144938 C 21.230586 58.644938 21.480586 58.394938 21.834753 58.394938 C 21.980586 58.394938 22.105586 58.379313 22.209753 58.342854 C 22.334753 58.306396 22.433711 58.290771 22.501419 58.290771 L 26.767045 58.290771 C 26.912878 58.290771 27.089961 58.269938 27.303503 58.233479 C 27.517045 58.202229 27.694128 58.181396 27.834753 58.181396 C 27.996211 58.181396 28.147253 58.217854 28.287878 58.290771 C 28.433711 58.358479 28.537878 58.431396 28.610795 58.504313 C 28.824336 58.504313 29.017045 58.519938 29.194128 58.556396 C 29.392045 58.592854 29.59517 58.644938 29.808711 58.717854 L 31.355587 59.384521 C 31.642045 59.525146 31.886837 59.686604 32.100378 59.863688 C 32.334753 60.040771 32.589962 60.20223 32.87642 60.342855 C 33.089962 60.504313 33.334753 60.655355 33.621212 60.79598 C 33.923295 60.936605 34.147253 61.113688 34.287878 61.32723 L 35.381628 62.634521 C 35.756628 63.223063 36.084754 63.915771 36.366004 64.712646 C 36.511837 65.087647 36.616004 65.462647 36.68892 65.832438 C 36.756629 66.191813 36.829545 66.54598 36.902462 66.900147 C 36.902462 67.20223 36.93892 67.462647 37.006629 67.676188 C 37.09517 67.88973 37.105587 68.144938 37.03267 68.447022 C 37.03267 68.660563 36.991004 68.85848 36.902462 69.035563 C 36.829545 69.212647 36.756629 69.415772 36.68892 69.644938 C 36.68892 69.931397 36.652462 70.223064 36.579545 70.525147 C 36.511837 70.811605 36.402462 71.098064 36.261837 71.379314 C 36.18892 71.681397 36.089962 71.957439 35.97017 72.207439 C 35.860795 72.457439 35.735795 72.73348 35.59517 73.035564 C 35.454545 73.316814 35.293087 73.629314 35.116003 73.967855 C 34.93892 74.285564 34.730587 74.551189 34.50142 74.76473 C 34.360795 74.978272 34.199337 75.186605 34.022253 75.379314 C 33.84517 75.556397 33.673295 75.717856 33.517045 75.858481 C 33.303503 76.072022 33.043087 76.243897 32.741003 76.368897 C 32.459753 76.473064 32.173295 76.598064 31.886837 76.738689 C 31.371212 77.025147 30.892045 77.301189 30.449336 77.566814 C 30.022253 77.816814 29.517045 78.009522 28.928503 78.155356 C 28.714961 78.223064 28.475378 78.243897 28.209753 78.207439 C 27.959753 78.170981 27.730586 78.155356 27.517045 78.155356 C 27.089961 78.223064 26.652461 78.243897 26.209753 78.207439 C 25.767045 78.170981 25.329544 78.186606 24.902461 78.259522 L 22.287878 78.259522 C 22.131628 78.259522 21.996211 78.223064 21.892044 78.155356 C 21.782669 78.082439 21.657669 78.009522 21.517044 77.941814 C 21.303503 77.728272 21.162878 77.540772 21.089961 77.379314 C 21.089961 77.306397 21.043086 77.238689 20.954544 77.165772 C 20.886836 77.092856 20.850378 77.025147 20.850378 76.952231 L 20.850378 76.738689 C 20.850378 76.525147 20.866003 76.332439 20.902461 76.155356 C 20.938919 75.957439 20.954544 75.790772 20.954544 75.644939 C 20.954544 74.400147 20.938919 73.165772 20.902461 71.941814 C 20.866003 70.697022 20.850378 69.45223 20.850378 68.207438 Z M 20.850378 68.207438 " stroke="#ffffff" stroke-width="8.1909" stroke-opacity="1" stroke-miterlimit="4"/><g fill="#ffffff" fill-opacity="1"><g transform="translate(210.362218, 296.672544)"><g><path d="M 4.171875 -28.828125 C 4.171875 -27.734375 4.1875 -26.640625 4.21875 -25.546875 C 4.25 -24.460938 4.265625 -23.375 4.265625 -22.28125 L 4.265625 -15.8125 C 4.265625 -14.71875 4.265625 -13.625 4.265625 -12.53125 C 4.265625 -11.4375 4.265625 -10.34375 4.265625 -9.25 L 4.265625 -2.703125 C 4.265625 -2.648438 4.234375 -2.566406 4.171875 -2.453125 C 4.117188 -2.347656 4.09375 -2.238281 4.09375 -2.125 L 4.34375 -1.390625 C 4.5625 -0.785156 4.859375 -0.457031 5.234375 -0.40625 C 5.347656 -0.351562 5.472656 -0.351562 5.609375 -0.40625 C 5.742188 -0.457031 5.867188 -0.484375 5.984375 -0.484375 C 7.285156 -0.484375 8.59375 -0.46875 9.90625 -0.4375 C 11.21875 -0.414062 12.554688 -0.40625 13.921875 -0.40625 C 14.035156 -0.40625 14.160156 -0.414062 14.296875 -0.4375 C 14.429688 -0.46875 14.523438 -0.484375 14.578125 -0.484375 C 14.847656 -0.597656 15.015625 -0.679688 15.078125 -0.734375 C 15.347656 -0.898438 15.484375 -1.175781 15.484375 -1.5625 C 15.535156 -1.664062 15.585938 -1.769531 15.640625 -1.875 C 15.691406 -1.988281 15.71875 -2.101562 15.71875 -2.21875 C 15.71875 -3.082031 15.703125 -3.953125 15.671875 -4.828125 C 15.648438 -5.703125 15.640625 -6.578125 15.640625 -7.453125 C 15.640625 -8.328125 15.648438 -9.203125 15.671875 -10.078125 C 15.703125 -10.953125 15.71875 -11.828125 15.71875 -12.703125 C 15.71875 -13.566406 15.691406 -14.4375 15.640625 -15.3125 C 15.585938 -16.1875 15.585938 -17.0625 15.640625 -17.9375 C 15.640625 -18.257812 15.664062 -18.476562 15.71875 -18.59375 C 15.71875 -18.644531 15.773438 -18.726562 15.890625 -18.84375 C 15.992188 -18.945312 16.113281 -18.984375 16.25 -18.953125 C 16.394531 -18.929688 16.492188 -18.945312 16.546875 -19 L 17.609375 -19 C 17.992188 -19 18.347656 -19.007812 18.671875 -19.03125 C 19.003906 -19.0625 19.332031 -19.078125 19.65625 -19.078125 C 20.039062 -19.078125 20.394531 -19.09375 20.71875 -19.125 C 21.050781 -19.15625 21.378906 -19.171875 21.703125 -19.171875 L 21.78125 -19.171875 C 22.0625 -19.171875 22.320312 -19.128906 22.5625 -19.046875 C 22.8125 -18.960938 23.046875 -18.894531 23.265625 -18.84375 C 23.367188 -18.78125 23.503906 -18.75 23.671875 -18.75 C 23.835938 -18.75 23.972656 -18.695312 24.078125 -18.59375 C 24.347656 -18.476562 24.609375 -18.351562 24.859375 -18.21875 C 25.109375 -18.082031 25.34375 -17.90625 25.5625 -17.6875 C 25.71875 -17.53125 25.847656 -17.34375 25.953125 -17.125 C 26.066406 -16.90625 26.179688 -16.6875 26.296875 -16.46875 C 26.398438 -16.1875 26.476562 -15.882812 26.53125 -15.5625 C 26.59375 -15.238281 26.648438 -14.882812 26.703125 -14.5 C 26.703125 -14.28125 26.726562 -14.03125 26.78125 -13.75 C 26.832031 -13.476562 26.890625 -13.207031 26.953125 -12.9375 C 26.953125 -12.007812 26.9375 -11.066406 26.90625 -10.109375 C 26.875 -9.160156 26.859375 -8.222656 26.859375 -7.296875 C 26.859375 -6.359375 26.875 -5.410156 26.90625 -4.453125 C 26.9375 -3.503906 26.953125 -2.566406 26.953125 -1.640625 C 26.953125 -1.585938 26.921875 -1.503906 26.859375 -1.390625 C 26.804688 -1.285156 26.78125 -1.175781 26.78125 -1.0625 C 26.832031 -0.675781 27.132812 -0.375 27.6875 -0.15625 C 28.007812 -0.0507812 28.253906 0 28.421875 0 L 36.78125 0 C 36.832031 0 36.859375 0 36.859375 0 C 36.859375 0 36.882812 0 36.9375 0 C 37.269531 0 37.546875 -0.0820312 37.765625 -0.25 L 38 -0.484375 C 38.113281 -0.597656 38.222656 -0.816406 38.328125 -1.140625 L 38.328125 -1.796875 C 38.328125 -2.785156 38.328125 -3.785156 38.328125 -4.796875 C 38.328125 -5.804688 38.328125 -6.828125 38.328125 -7.859375 C 38.328125 -8.847656 38.3125 -9.847656 38.28125 -10.859375 C 38.257812 -11.867188 38.25 -12.890625 38.25 -13.921875 L 38.25 -15.390625 C 38.25 -15.554688 38.273438 -15.734375 38.328125 -15.921875 C 38.390625 -16.117188 38.390625 -16.300781 38.328125 -16.46875 C 38.328125 -16.738281 38.269531 -17.007812 38.15625 -17.28125 C 38.050781 -17.550781 37.972656 -17.796875 37.921875 -18.015625 C 37.867188 -18.347656 37.8125 -18.660156 37.75 -18.953125 C 37.695312 -19.253906 37.617188 -19.546875 37.515625 -19.828125 C 37.460938 -19.984375 37.394531 -20.128906 37.3125 -20.265625 C 37.226562 -20.410156 37.128906 -20.5625 37.015625 -20.71875 C 36.859375 -21.207031 36.640625 -21.726562 36.359375 -22.28125 C 36.203125 -22.550781 36.015625 -22.820312 35.796875 -23.09375 C 35.578125 -23.363281 35.382812 -23.640625 35.21875 -23.921875 C 35.050781 -24.078125 34.859375 -24.320312 34.640625 -24.65625 C 34.535156 -24.820312 34.535156 -25.066406 34.640625 -25.390625 C 34.640625 -25.554688 34.671875 -25.691406 34.734375 -25.796875 C 34.890625 -26.015625 35.050781 -26.242188 35.21875 -26.484375 C 35.382812 -26.734375 35.550781 -26.96875 35.71875 -27.1875 C 35.820312 -27.351562 35.953125 -27.503906 36.109375 -27.640625 C 36.273438 -27.773438 36.414062 -27.953125 36.53125 -28.171875 C 36.632812 -28.335938 36.710938 -28.515625 36.765625 -28.703125 C 36.828125 -28.898438 36.882812 -29.078125 36.9375 -29.234375 C 37.050781 -29.398438 37.144531 -29.578125 37.21875 -29.765625 C 37.300781 -29.960938 37.398438 -30.144531 37.515625 -30.3125 C 37.617188 -30.53125 37.695312 -30.742188 37.75 -30.953125 C 37.8125 -31.171875 37.867188 -31.390625 37.921875 -31.609375 C 38.035156 -31.890625 38.171875 -32.164062 38.328125 -32.4375 C 38.492188 -32.707031 38.601562 -32.976562 38.65625 -33.25 C 38.707031 -33.46875 38.734375 -33.671875 38.734375 -33.859375 C 38.734375 -34.054688 38.765625 -34.265625 38.828125 -34.484375 L 39.0625 -36.125 C 39.0625 -36.226562 39.0625 -36.320312 39.0625 -36.40625 C 39.0625 -36.488281 39.0625 -36.582031 39.0625 -36.6875 C 39.0625 -36.851562 39.078125 -37.019531 39.109375 -37.1875 C 39.140625 -37.351562 39.15625 -37.515625 39.15625 -37.671875 L 39.15625 -39.3125 C 39.15625 -39.3125 39.164062 -39.3125 39.1875 -39.3125 C 39.21875 -39.3125 39.234375 -39.3125 39.234375 -39.3125 C 39.234375 -39.53125 39.191406 -39.722656 39.109375 -39.890625 C 39.023438 -40.054688 38.984375 -40.21875 38.984375 -40.375 C 38.929688 -40.65625 38.914062 -40.914062 38.9375 -41.15625 C 38.96875 -41.40625 38.929688 -41.640625 38.828125 -41.859375 C 38.765625 -42.234375 38.628906 -42.671875 38.421875 -43.171875 C 38.359375 -43.441406 38.285156 -43.722656 38.203125 -44.015625 C 38.128906 -44.316406 38.035156 -44.609375 37.921875 -44.890625 C 37.816406 -45.210938 37.707031 -45.535156 37.59375 -45.859375 C 37.488281 -46.191406 37.351562 -46.492188 37.1875 -46.765625 L 37.109375 -47.09375 C 36.992188 -47.3125 36.867188 -47.515625 36.734375 -47.703125 C 36.597656 -47.898438 36.445312 -48.109375 36.28125 -48.328125 C 36.175781 -48.546875 36.054688 -48.75 35.921875 -48.9375 C 35.785156 -49.125 35.660156 -49.300781 35.546875 -49.46875 C 35.378906 -49.738281 35.1875 -49.957031 34.96875 -50.125 C 34.75 -50.289062 34.5625 -50.484375 34.40625 -50.703125 C 34.238281 -50.867188 34.097656 -51.046875 33.984375 -51.234375 C 33.878906 -51.421875 33.742188 -51.597656 33.578125 -51.765625 C 33.410156 -51.867188 33.242188 -52.003906 33.078125 -52.171875 C 32.921875 -52.335938 32.789062 -52.472656 32.6875 -52.578125 C 32.519531 -52.691406 32.351562 -52.828125 32.1875 -52.984375 C 32.019531 -53.148438 31.882812 -53.289062 31.78125 -53.40625 L 29.984375 -54.625 C 29.921875 -54.625 29.863281 -54.609375 29.8125 -54.578125 C 29.757812 -54.554688 29.707031 -54.570312 29.65625 -54.625 C 29.539062 -54.6875 29.414062 -54.742188 29.28125 -54.796875 C 29.144531 -54.847656 28.992188 -54.898438 28.828125 -54.953125 C 28.722656 -55.066406 28.585938 -55.164062 28.421875 -55.25 C 28.253906 -55.332031 28.117188 -55.398438 28.015625 -55.453125 L 26.859375 -55.9375 C 26.535156 -56.050781 26.207031 -56.160156 25.875 -56.265625 C 25.550781 -56.378906 25.226562 -56.460938 24.90625 -56.515625 C 24.570312 -56.617188 24.238281 -56.722656 23.90625 -56.828125 C 23.582031 -56.941406 23.234375 -57.03125 22.859375 -57.09375 C 22.742188 -57.09375 22.523438 -57.144531 22.203125 -57.25 L 21.546875 -57.25 C 21.378906 -57.25 21.195312 -57.234375 21 -57.203125 C 20.8125 -57.179688 20.609375 -57.171875 20.390625 -57.171875 C 20.234375 -57.222656 19.566406 -57.234375 18.390625 -57.203125 C 17.210938 -57.179688 15.75 -57.144531 14 -57.09375 C 12.96875 -57.09375 11.914062 -57.128906 10.84375 -57.203125 C 9.78125 -57.285156 8.707031 -57.328125 7.625 -57.328125 C 7.289062 -57.328125 6.957031 -57.3125 6.625 -57.28125 C 6.300781 -57.257812 5.976562 -57.222656 5.65625 -57.171875 C 5.488281 -57.117188 5.335938 -57.101562 5.203125 -57.125 C 5.066406 -57.15625 4.941406 -57.113281 4.828125 -57 C 4.503906 -56.78125 4.316406 -56.535156 4.265625 -56.265625 C 4.203125 -56.046875 4.171875 -55.691406 4.171875 -55.203125 C 4.171875 -54.328125 4.15625 -53.453125 4.125 -52.578125 C 4.101562 -51.703125 4.09375 -50.832031 4.09375 -49.96875 L 4.09375 -44.640625 C 4.09375 -43.765625 4.117188 -42.890625 4.171875 -42.015625 C 4.234375 -41.140625 4.265625 -40.265625 4.265625 -39.390625 C 4.265625 -38.523438 4.234375 -37.65625 4.171875 -36.78125 C 4.117188 -35.90625 4.09375 -35.003906 4.09375 -34.078125 C 4.09375 -33.203125 4.101562 -32.328125 4.125 -31.453125 C 4.15625 -30.578125 4.171875 -29.703125 4.171875 -28.828125 Z M 15.640625 -38.09375 L 15.640625 -43.734375 C 15.640625 -43.953125 15.664062 -44.144531 15.71875 -44.3125 C 15.78125 -44.476562 15.8125 -44.671875 15.8125 -44.890625 C 15.914062 -45.265625 16.101562 -45.453125 16.375 -45.453125 C 16.488281 -45.453125 16.585938 -45.46875 16.671875 -45.5 C 16.753906 -45.53125 16.820312 -45.546875 16.875 -45.546875 L 20.0625 -45.546875 C 20.175781 -45.546875 20.3125 -45.554688 20.46875 -45.578125 C 20.632812 -45.609375 20.773438 -45.625 20.890625 -45.625 C 20.992188 -45.625 21.097656 -45.59375 21.203125 -45.53125 C 21.316406 -45.476562 21.398438 -45.425781 21.453125 -45.375 C 21.617188 -45.375 21.769531 -45.359375 21.90625 -45.328125 C 22.039062 -45.304688 22.191406 -45.269531 22.359375 -45.21875 L 23.5 -44.71875 C 23.71875 -44.613281 23.910156 -44.488281 24.078125 -44.34375 C 24.242188 -44.207031 24.4375 -44.085938 24.65625 -43.984375 C 24.820312 -43.867188 25.015625 -43.757812 25.234375 -43.65625 C 25.453125 -43.550781 25.613281 -43.414062 25.71875 -43.25 L 26.53125 -42.265625 C 26.8125 -41.828125 27.0625 -41.304688 27.28125 -40.703125 C 27.382812 -40.429688 27.460938 -40.160156 27.515625 -39.890625 C 27.578125 -39.617188 27.632812 -39.34375 27.6875 -39.0625 C 27.6875 -38.84375 27.710938 -38.648438 27.765625 -38.484375 C 27.816406 -38.328125 27.816406 -38.140625 27.765625 -37.921875 C 27.765625 -37.753906 27.738281 -37.601562 27.6875 -37.46875 C 27.632812 -37.332031 27.578125 -37.179688 27.515625 -37.015625 C 27.515625 -36.796875 27.488281 -36.578125 27.4375 -36.359375 C 27.382812 -36.140625 27.300781 -35.925781 27.1875 -35.71875 C 27.132812 -35.5 27.066406 -35.289062 26.984375 -35.09375 C 26.898438 -34.90625 26.804688 -34.703125 26.703125 -34.484375 C 26.585938 -34.265625 26.460938 -34.03125 26.328125 -33.78125 C 26.191406 -33.539062 26.039062 -33.335938 25.875 -33.171875 C 25.769531 -33.003906 25.648438 -32.851562 25.515625 -32.71875 C 25.378906 -32.582031 25.253906 -32.460938 25.140625 -32.359375 C 24.984375 -32.191406 24.796875 -32.066406 24.578125 -31.984375 C 24.359375 -31.898438 24.140625 -31.804688 23.921875 -31.703125 C 23.535156 -31.484375 23.175781 -31.273438 22.84375 -31.078125 C 22.519531 -30.890625 22.140625 -30.742188 21.703125 -30.640625 C 21.535156 -30.578125 21.359375 -30.5625 21.171875 -30.59375 C 20.984375 -30.625 20.804688 -30.640625 20.640625 -30.640625 C 20.316406 -30.578125 19.988281 -30.5625 19.65625 -30.59375 C 19.332031 -30.625 19.003906 -30.609375 18.671875 -30.546875 L 16.703125 -30.546875 C 16.597656 -30.546875 16.503906 -30.570312 16.421875 -30.625 C 16.335938 -30.6875 16.242188 -30.742188 16.140625 -30.796875 C 15.972656 -30.960938 15.863281 -31.097656 15.8125 -31.203125 C 15.8125 -31.253906 15.78125 -31.304688 15.71875 -31.359375 C 15.664062 -31.421875 15.640625 -31.476562 15.640625 -31.53125 L 15.640625 -31.703125 C 15.640625 -31.859375 15.648438 -32.003906 15.671875 -32.140625 C 15.703125 -32.285156 15.71875 -32.410156 15.71875 -32.515625 C 15.71875 -33.441406 15.703125 -34.367188 15.671875 -35.296875 C 15.648438 -36.222656 15.640625 -37.15625 15.640625 -38.09375 Z M 15.640625 -38.09375 "/></g></g></g><g clip-path="url(#175a17cffe)"><g clip-path="url(#28206e64f1)"><g clip-path="url(#75b5e34902)"><g clip-path="url(#7d87fcc755)"><path fill="#ffffff" d="M 282.273438 245.648438 C 283.84375 244.234375 283.964844 241.75 282.535156 240.1875 C 281.101562 238.621094 278.667969 238.488281 277.121094 239.890625 C 275.535156 241.332031 275.402344 243.867188 276.835938 245.394531 C 278.269531 246.925781 280.726562 247.039062 282.273438 245.648438 Z M 272.996094 241.121094 C 273.316406 239.777344 273.949219 238.578125 274.699219 237.4375 C 275.660156 235.972656 276.019531 234.4375 275.425781 232.71875 C 275.007812 231.5 274.617188 230.269531 274.234375 229.035156 L 279.882812 231.160156 C 280.21875 232.3125 280.601562 233.597656 280.917969 234.621094 C 281.039062 235.007812 281.398438 235.207031 281.675781 235.46875 C 282.734375 236.457031 283.878906 237.355469 284.8125 238.46875 C 287.03125 241.101562 287.050781 244.230469 284.882812 247.039062 C 283.019531 249.449219 279.554688 250.230469 276.703125 248.882812 C 273.644531 247.4375 272.199219 244.414062 272.996094 241.121094 " fill-opacity="1" fill-rule="nonzero"/></g></g></g></g><g clip-path="url(#b4aaf36946)"><g clip-path="url(#61b4e6a178)"><g clip-path="url(#3e3a366f11)"><g clip-path="url(#e465be8a17)"><path fill="#ffffff" d="M 295.246094 233.800781 C 296.769531 232.386719 296.875 229.925781 295.484375 228.363281 C 294.089844 226.796875 291.550781 226.699219 289.972656 228.152344 C 288.4375 229.5625 288.351562 231.996094 289.78125 233.570312 C 291.207031 235.132812 293.691406 235.238281 295.246094 233.800781 Z M 274.464844 224.074219 C 274.464844 224.074219 274.464844 224.074219 274.464844 224.078125 C 273.699219 224.777344 273.644531 225.964844 274.34375 226.730469 C 275.042969 227.496094 276.230469 227.550781 276.996094 226.851562 C 276.996094 226.851562 276.996094 226.847656 276.996094 226.847656 C 276.996094 226.847656 277 226.847656 277 226.847656 C 277.765625 226.148438 277.816406 224.960938 277.117188 224.195312 C 276.417969 223.429688 275.230469 223.375 274.464844 224.074219 Z M 284.382812 231.457031 C 282.757812 230.78125 279.410156 229.472656 279.421875 229.5 L 273.191406 226.949219 C 267.765625 224.691406 262.335938 222.453125 257.070312 219.839844 C 255.558594 219.085938 254.027344 218.355469 252.714844 217.265625 C 252.015625 216.679688 251.394531 216.011719 251.015625 215.164062 C 250.679688 214.414062 250.671875 213.683594 251.234375 213.007812 C 251.480469 212.714844 251.714844 212.652344 252.089844 212.816406 C 256.113281 214.53125 260.144531 216.230469 264.175781 217.933594 C 266.488281 218.910156 271.699219 221.0625 271.695312 221.046875 C 271.714844 221.050781 270.039062 215.664062 269.273438 213.273438 C 267.941406 209.105469 266.617188 204.9375 265.269531 200.773438 C 265.144531 200.386719 265.226562 200.160156 265.539062 199.941406 C 266.261719 199.441406 266.988281 199.519531 267.707031 199.917969 C 268.515625 200.371094 269.125 201.050781 269.644531 201.800781 C 270.609375 203.207031 271.203125 204.796875 271.816406 206.371094 C 273.941406 211.851562 275.683594 217.460938 277.4375 223.066406 C 277.542969 223.394531 277.691406 223.585938 278.023438 223.722656 C 279.683594 224.402344 281.347656 225.078125 282.984375 225.8125 C 284.644531 226.558594 286.203125 226.339844 287.75 225.515625 C 288.953125 224.871094 290.207031 224.351562 291.570312 224.148438 C 294.925781 223.65625 297.804688 225.367188 298.96875 228.546875 C 300.054688 231.503906 298.960938 234.886719 296.394531 236.523438 C 293.402344 238.429688 290.285156 238.128906 287.863281 235.683594 C 286.839844 234.648438 286.046875 233.429688 285.15625 232.289062 C 284.925781 231.988281 284.757812 231.609375 284.382812 231.457031 " fill-opacity="1" fill-rule="nonzero"/></g></g></g></g></svg>