<svg version="1.2" xmlns="http://www.w3.org/2000/svg" viewBox="0 0 102 88" width="102" height="88">
	<title>mais-svg</title>
	<defs>
		<clipPath clipPathUnits="userSpaceOnUse" id="cp1">
			<path d="m25.64 16.64h56.72v56.72h-56.72z"/>
		</clipPath>
		<clipPath clipPathUnits="userSpaceOnUse" id="cp2">
			<path d="m54 16.64c-15.66 0-28.36 12.7-28.36 28.36 0 15.66 12.7 28.36 28.36 28.36 15.66 0 28.36-12.7 28.36-28.36 0-15.66-12.7-28.36-28.36-28.36z"/>
		</clipPath>
		<clipPath clipPathUnits="userSpaceOnUse" id="cp3">
			<path d="m49.66 27.81h8.68v21.04h-8.68z"/>
		</clipPath>
		<clipPath clipPathUnits="userSpaceOnUse" id="cp4">
			<path d="m49.66 41.35h8.68v20.84h-8.68z"/>
		</clipPath>
		<clipPath clipPathUnits="userSpaceOnUse" id="cp5">
			<path d="m49.66 41.34h20.43v7.16h-20.43z"/>
		</clipPath>
		<clipPath clipPathUnits="userSpaceOnUse" id="cp6">
			<path d="m37.91 41.34h20.43v7.16h-20.43z"/>
		</clipPath>
	</defs>
	<style>
		.s0 { fill: #68bbe4 } 
		.s1 { fill: #ffee55 } 
		.s2 { fill: #042c5c } 
		.s3 { fill: #0367cc } 
		.s4 { fill: #818181 } 
	</style>
	<g id="Clip-Path" clip-path="url(#cp1)">
		<g>
			<g id="Clip-Path" clip-path="url(#cp2)">
				<g>
					<path class="s0" d="m25.6 16.6h56.8v56.8h-56.8z"/>
				</g>
			</g>
		</g>
	</g>
	<g id="Clip-Path" clip-path="url(#cp3)">
		<g>
			<path class="s1" d="m49.7 27.8h8.6v21.1h-8.6z"/>
		</g>
	</g>
	<g id="Clip-Path" clip-path="url(#cp4)">
		<g>
			<path class="s2" d="m49.7 41.4h8.6v20.8h-8.6z"/>
		</g>
	</g>
	<g id="Clip-Path" clip-path="url(#cp5)">
		<g>
			<path class="s3" d="m49.7 48.5v-7.2h20.4v7.2z"/>
		</g>
	</g>
	<g id="Clip-Path" clip-path="url(#cp6)">
		<g>
			<path class="s4" d="m37.9 48.5v-7.2h20.4v7.2z"/>
		</g>
	</g>
</svg>