<svg xmlns="http://www.w3.org/2000/svg" xmlns:xlink="http://www.w3.org/1999/xlink" width="500" zoomAndPan="magnify" viewBox="0 0 375 374.999991" height="500" preserveAspectRatio="xMidYMid meet" version="1.0"><defs><g/><clipPath id="b55b8d4b03"><path d="M 37.5 34.617188 L 337.125 34.617188 L 337.125 340.859375 L 37.5 340.859375 Z M 37.5 34.617188 " clip-rule="nonzero"/></clipPath><clipPath id="083d517501"><path d="M 54.75 34.617188 L 320.246094 34.617188 C 329.769531 34.617188 337.496094 42.339844 337.496094 51.867188 L 337.496094 323.132812 C 337.496094 332.660156 329.769531 340.382812 320.246094 340.382812 L 54.75 340.382812 C 45.222656 340.382812 37.5 332.660156 37.5 323.132812 L 37.5 51.867188 C 37.5 42.339844 45.222656 34.617188 54.75 34.617188 Z M 54.75 34.617188 " clip-rule="nonzero"/></clipPath><clipPath id="179f942beb"><path d="M 75 123 L 94 123 L 94 146 L 75 146 Z M 75 123 " clip-rule="nonzero"/></clipPath><clipPath id="11fe8792e3"><path d="M 61.453125 116.738281 L 109.21875 87.957031 L 128.242188 119.53125 L 80.476562 148.3125 Z M 61.453125 116.738281 " clip-rule="nonzero"/></clipPath><clipPath id="f212c69c2b"><path d="M 61.453125 116.738281 L 109.21875 87.957031 L 128.242188 119.53125 L 80.476562 148.3125 Z M 61.453125 116.738281 " clip-rule="nonzero"/></clipPath><clipPath id="6c9ddf3407"><path d="M 61.453125 116.738281 L 109.21875 87.957031 L 128.242188 119.53125 L 80.476562 148.3125 Z M 61.453125 116.738281 " clip-rule="nonzero"/></clipPath><clipPath id="756ae26e50"><path d="M 71.429688 133.300781 L 92.074219 120.863281 L 101.101562 135.84375 L 80.457031 148.28125 Z M 71.429688 133.300781 " clip-rule="nonzero"/></clipPath><clipPath id="3c7b9f1953"><path d="M 64 93 L 125 93 L 125 128 L 64 128 Z M 64 93 " clip-rule="nonzero"/></clipPath><clipPath id="06fb204898"><path d="M 61.453125 116.738281 L 109.21875 87.957031 L 128.242188 119.53125 L 80.476562 148.3125 Z M 61.453125 116.738281 " clip-rule="nonzero"/></clipPath><clipPath id="4292ac931b"><path d="M 61.453125 116.738281 L 109.21875 87.957031 L 128.242188 119.53125 L 80.476562 148.3125 Z M 61.453125 116.738281 " clip-rule="nonzero"/></clipPath><clipPath id="42d15f2586"><path d="M 61.453125 116.738281 L 109.21875 87.957031 L 128.242188 119.53125 L 80.476562 148.3125 Z M 61.453125 116.738281 " clip-rule="nonzero"/></clipPath><clipPath id="1bee37da02"><path d="M 61.46875 116.765625 L 109.226562 87.988281 L 125.789062 115.480469 L 78.03125 144.253906 Z M 61.46875 116.765625 " clip-rule="nonzero"/></clipPath><clipPath id="cb31159b0a"><path d="M 128.496094 60.328125 L 259 60.328125 L 259 236.132812 L 128.496094 236.132812 Z M 128.496094 60.328125 " clip-rule="nonzero"/></clipPath><clipPath id="d866238621"><path d="M 292 241 L 309 241 L 309 266 L 292 266 Z M 292 241 " clip-rule="nonzero"/></clipPath><clipPath id="5523995e00"><path d="M 289.632812 202.929688 L 327.246094 244.105469 L 300.027344 268.96875 L 262.417969 227.792969 Z M 289.632812 202.929688 " clip-rule="nonzero"/></clipPath><clipPath id="d325b854cd"><path d="M 327.503906 244.390625 L 289.890625 203.214844 L 262.675781 228.078125 L 300.285156 269.25 Z M 327.503906 244.390625 " clip-rule="nonzero"/></clipPath><clipPath id="35a7428f4c"><path d="M 327.503906 244.390625 L 289.890625 203.214844 L 262.675781 228.078125 L 300.285156 269.25 Z M 327.503906 244.390625 " clip-rule="nonzero"/></clipPath><clipPath id="bc3a027e5f"><path d="M 313.226562 257.429688 L 296.972656 239.636719 L 284.058594 251.433594 L 300.3125 269.226562 Z M 313.226562 257.429688 " clip-rule="nonzero"/></clipPath><clipPath id="0e4e36151f"><path d="M 267 207 L 325 207 L 325 253 L 267 253 Z M 267 207 " clip-rule="nonzero"/></clipPath><clipPath id="ab6ff831b9"><path d="M 289.632812 202.929688 L 327.246094 244.105469 L 300.027344 268.96875 L 262.417969 227.792969 Z M 289.632812 202.929688 " clip-rule="nonzero"/></clipPath><clipPath id="b440a77504"><path d="M 327.503906 244.390625 L 289.890625 203.214844 L 262.675781 228.078125 L 300.285156 269.25 Z M 327.503906 244.390625 " clip-rule="nonzero"/></clipPath><clipPath id="468a306ff0"><path d="M 327.503906 244.390625 L 289.890625 203.214844 L 262.675781 228.078125 L 300.285156 269.25 Z M 327.503906 244.390625 " clip-rule="nonzero"/></clipPath><clipPath id="70d4b05ea2"><path d="M 327.480469 244.410156 L 289.875 203.242188 L 266.179688 224.890625 L 303.78125 266.054688 Z M 327.480469 244.410156 " clip-rule="nonzero"/></clipPath></defs><g clip-path="url(#b55b8d4b03)"><g clip-path="url(#083d517501)"><path fill="#000000" d="M 75.75 31.617188 L 93.75 31.617188 L 93.75 37.617188 L 75.75 37.617188 Z M 96.75 31.617188 L 114.75 31.617188 L 114.75 37.617188 L 96.75 37.617188 Z M 117.75 31.617188 L 135.75 31.617188 L 135.75 37.617188 L 117.75 37.617188 Z M 138.75 31.617188 L 156.75 31.617188 L 156.75 37.617188 L 138.75 37.617188 Z M 159.75 31.617188 L 177.75 31.617188 L 177.75 37.617188 L 159.75 37.617188 Z M 180.75 31.617188 L 198.75 31.617188 L 198.75 37.617188 L 180.75 37.617188 Z M 201.75 31.617188 L 219.75 31.617188 L 219.75 37.617188 L 201.75 37.617188 Z M 222.75 31.617188 L 240.75 31.617188 L 240.75 37.617188 L 222.75 37.617188 Z M 243.75 31.617188 L 261.75 31.617188 L 261.75 37.617188 L 243.75 37.617188 Z M 264.75 31.617188 L 282.75 31.617188 L 282.75 37.617188 L 264.75 37.617188 Z M 285.75 31.617188 L 303.75 31.617188 L 303.75 37.617188 L 285.75 37.617188 Z M 306.75 31.617188 L 320.246094 31.617188 C 322.054688 31.617188 323.824219 31.855469 325.554688 32.324219 L 323.984375 38.113281 C 322.769531 37.785156 321.519531 37.617188 320.246094 37.617188 L 306.75 37.617188 Z M 328.839844 33.53125 C 335.910156 36.847656 339.769531 42.386719 340.421875 50.152344 L 334.445312 50.652344 C 333.984375 45.195312 331.265625 41.296875 326.292969 38.960938 Z M 340.496094 53.449219 L 340.496094 71.449219 L 334.496094 71.449219 L 334.496094 53.449219 Z M 340.496094 74.449219 L 340.496094 92.449219 L 334.496094 92.449219 L 334.496094 74.449219 Z M 340.496094 95.449219 L 340.496094 113.449219 L 334.496094 113.449219 L 334.496094 95.449219 Z M 340.496094 116.449219 L 340.496094 134.449219 L 334.496094 134.449219 L 334.496094 116.449219 Z M 340.496094 137.449219 L 340.496094 155.449219 L 334.496094 155.449219 L 334.496094 137.449219 Z M 340.496094 158.449219 L 340.496094 176.449219 L 334.496094 176.449219 L 334.496094 158.449219 Z M 340.496094 179.449219 L 340.496094 197.449219 L 334.496094 197.449219 L 334.496094 179.449219 Z M 340.496094 200.449219 L 340.496094 218.449219 L 334.496094 218.449219 L 334.496094 200.449219 Z M 340.496094 221.449219 L 340.496094 239.449219 L 334.496094 239.449219 L 334.496094 221.449219 Z M 340.496094 242.449219 L 340.496094 260.449219 L 334.496094 260.449219 L 334.496094 242.449219 Z M 340.496094 263.449219 L 340.496094 281.449219 L 334.496094 281.449219 L 334.496094 263.449219 Z M 340.496094 284.449219 L 340.496094 302.449219 L 334.496094 302.449219 L 334.496094 284.449219 Z M 340.496094 305.449219 L 340.496094 323.132812 L 340.492188 323.488281 L 334.492188 323.433594 L 334.496094 323.132812 L 334.496094 305.449219 Z M 340.109375 327.082031 C 338.597656 334.714844 334.160156 339.785156 326.789062 342.300781 L 324.851562 336.621094 C 330.035156 334.851562 333.160156 331.285156 334.222656 325.917969 Z M 323.375 343.140625 C 322.339844 343.300781 321.296875 343.382812 320.246094 343.382812 L 304.855469 343.382812 L 304.855469 337.382812 L 320.246094 337.382812 C 320.988281 337.382812 321.726562 337.328125 322.453125 337.214844 Z M 301.855469 343.382812 L 283.855469 343.382812 L 283.855469 337.382812 L 301.855469 337.382812 Z M 280.855469 343.382812 L 262.855469 343.382812 L 262.855469 337.382812 L 280.855469 337.382812 Z M 259.855469 343.382812 L 241.855469 343.382812 L 241.855469 337.382812 L 259.855469 337.382812 Z M 238.855469 343.382812 L 220.855469 343.382812 L 220.855469 337.382812 L 238.855469 337.382812 Z M 217.855469 343.382812 L 199.855469 343.382812 L 199.855469 337.382812 L 217.855469 337.382812 Z M 196.855469 343.382812 L 178.855469 343.382812 L 178.855469 337.382812 L 196.855469 337.382812 Z M 175.855469 343.382812 L 157.855469 343.382812 L 157.855469 337.382812 L 175.855469 337.382812 Z M 154.855469 343.382812 L 136.855469 343.382812 L 136.855469 337.382812 L 154.855469 337.382812 Z M 133.855469 343.382812 L 115.855469 343.382812 L 115.855469 337.382812 L 133.855469 337.382812 Z M 112.855469 343.382812 L 94.855469 343.382812 L 94.855469 337.382812 L 112.855469 337.382812 Z M 91.855469 343.382812 L 73.855469 343.382812 L 73.855469 337.382812 L 91.855469 337.382812 Z M 70.855469 343.382812 L 54.75 343.382812 C 53.984375 343.382812 53.222656 343.339844 52.464844 343.253906 L 53.136719 337.292969 C 53.671875 337.351562 54.207031 337.382812 54.75 337.382812 L 70.855469 337.382812 Z M 49 342.554688 C 41.539062 340.347656 36.894531 335.464844 35.066406 327.90625 L 40.898438 326.496094 C 42.183594 331.8125 45.453125 335.25 50.703125 336.800781 Z M 34.539062 324.382812 C 34.511719 323.96875 34.5 323.550781 34.5 323.132812 L 34.5 306.164062 L 40.5 306.164062 L 40.5 323.132812 C 40.5 323.429688 40.507812 323.722656 40.527344 324.019531 Z M 34.5 303.164062 L 34.5 285.164062 L 40.5 285.164062 L 40.5 303.164062 Z M 34.5 282.164062 L 34.5 264.164062 L 40.5 264.164062 L 40.5 282.164062 Z M 34.5 261.164062 L 34.5 243.164062 L 40.5 243.164062 L 40.5 261.164062 Z M 34.5 240.164062 L 34.5 222.164062 L 40.5 222.164062 L 40.5 240.164062 Z M 34.5 219.164062 L 34.5 201.164062 L 40.5 201.164062 L 40.5 219.164062 Z M 34.5 198.164062 L 34.5 180.164062 L 40.5 180.164062 L 40.5 198.164062 Z M 34.5 177.164062 L 34.5 159.164062 L 40.5 159.164062 L 40.5 177.164062 Z M 34.5 156.164062 L 34.5 138.164062 L 40.5 138.164062 L 40.5 156.164062 Z M 34.5 135.164062 L 34.5 117.164062 L 40.5 117.164062 L 40.5 135.164062 Z M 34.5 114.164062 L 34.5 96.164062 L 40.5 96.164062 L 40.5 114.164062 Z M 34.5 93.164062 L 34.5 75.164062 L 40.5 75.164062 L 40.5 93.164062 Z M 34.5 72.164062 L 34.5 54.164062 L 40.5 54.164062 L 40.5 72.164062 Z M 34.519531 51.011719 C 34.84375 43.222656 38.464844 37.519531 45.390625 33.90625 L 48.167969 39.226562 C 43.292969 41.769531 40.742188 45.78125 40.511719 51.261719 Z M 48.636719 32.558594 C 50.617188 31.933594 52.65625 31.617188 54.75 31.617188 L 72.75 31.617188 L 72.75 37.617188 L 54.75 37.617188 C 53.273438 37.617188 51.839844 37.839844 50.445312 38.28125 Z M 48.636719 32.558594 " fill-opacity="1" fill-rule="nonzero"/></g></g><g clip-path="url(#179f942beb)"><g clip-path="url(#11fe8792e3)"><g clip-path="url(#f212c69c2b)"><g clip-path="url(#6c9ddf3407)"><g clip-path="url(#756ae26e50)"><path fill="#000000" d="M 79.167969 139.648438 C 77.867188 137.527344 78.542969 134.695312 80.652344 133.425781 C 82.773438 132.152344 85.539062 132.828125 86.816406 134.925781 C 88.125 137.085938 87.445312 139.976562 85.339844 141.207031 C 83.238281 142.441406 80.445312 141.734375 79.167969 139.648438 Z M 91.039062 137.710938 C 91.117188 136.09375 90.800781 134.53125 90.332031 132.992188 C 89.734375 131.023438 89.832031 129.179688 91.054688 127.449219 C 91.925781 126.222656 92.761719 124.972656 93.589844 123.714844 L 86.570312 124.183594 C 85.820312 125.367188 84.972656 126.679688 84.28125 127.722656 C 84.019531 128.113281 83.550781 128.21875 83.15625 128.417969 C 81.648438 129.167969 80.074219 129.789062 78.660156 130.722656 C 75.316406 132.925781 74.273438 136.433594 75.789062 140.324219 C 77.089844 143.664062 80.71875 145.714844 84.351562 145.171875 C 88.253906 144.582031 90.855469 141.679688 91.039062 137.710938 " fill-opacity="1" fill-rule="nonzero"/></g></g></g></g></g><g clip-path="url(#3c7b9f1953)"><g clip-path="url(#06fb204898)"><g clip-path="url(#4292ac931b)"><g clip-path="url(#42d15f2586)"><g clip-path="url(#1bee37da02)"><path fill="#000000" d="M 68.496094 121.941406 C 67.25 119.835938 67.929688 117.039062 70.003906 115.753906 C 72.078125 114.46875 74.949219 115.21875 76.246094 117.386719 C 77.507812 119.492188 76.808594 122.253906 74.691406 123.535156 C 72.585938 124.804688 69.765625 124.082031 68.496094 121.941406 Z M 94.953125 118.066406 C 94.953125 118.066406 94.953125 118.066406 94.953125 118.070312 C 95.582031 119.113281 95.257812 120.464844 94.222656 121.089844 C 93.191406 121.710938 91.839844 121.371094 91.210938 120.324219 C 90.578125 119.277344 90.90625 117.925781 91.941406 117.300781 C 92.972656 116.679688 94.320312 117.019531 94.953125 118.066406 Z M 81.429688 122.992188 C 83.472656 122.785156 87.648438 122.449219 87.628906 122.480469 L 95.445312 121.726562 C 102.257812 121.03125 109.074219 120.359375 115.824219 119.207031 C 117.765625 118.878906 119.71875 118.574219 121.542969 117.792969 C 122.519531 117.375 123.433594 116.835938 124.132812 116.011719 C 124.753906 115.28125 125.003906 114.464844 124.589844 113.515625 C 124.410156 113.105469 124.171875 112.957031 123.699219 113.011719 C 118.628906 113.574219 113.558594 114.113281 108.488281 114.660156 C 105.578125 114.972656 99.03125 115.621094 99.046875 115.601562 C 99.023438 115.605469 102.65625 110.121094 104.292969 107.695312 C 107.144531 103.46875 109.992188 99.234375 112.859375 95.019531 C 113.125 94.625 113.105469 94.34375 112.828125 93.992188 C 112.179688 93.183594 111.339844 93.023438 110.40625 93.230469 C 109.351562 93.464844 108.445312 94.019531 107.621094 94.6875 C 106.078125 95.9375 104.898438 97.523438 103.699219 99.082031 C 99.527344 104.515625 95.746094 110.226562 91.949219 115.925781 C 91.726562 116.257812 91.496094 116.425781 91.082031 116.464844 C 88.996094 116.660156 86.914062 116.859375 84.839844 117.128906 C 82.738281 117.40625 81.058594 116.628906 79.597656 115.175781 C 78.457031 114.046875 77.222656 113.039062 75.761719 112.347656 C 72.164062 110.65625 68.378906 111.601562 66.039062 114.777344 C 63.859375 117.734375 63.976562 121.902344 66.320312 124.609375 C 69.050781 127.765625 72.640625 128.484375 76.152344 126.558594 C 77.636719 125.746094 78.921875 124.644531 80.292969 123.664062 C 80.652344 123.40625 80.960938 123.039062 81.429688 122.992188 " fill-opacity="1" fill-rule="nonzero"/></g></g></g></g></g><path fill="#000000" d="M 166.6875 139.945312 C 165.675781 139.136719 164.0625 139.339844 163.050781 140.351562 L 154.5625 150.859375 L 151.9375 148.433594 C 150.925781 147.421875 149.308594 147.421875 148.300781 148.433594 C 147.289062 149.445312 147.289062 151.0625 148.300781 152.070312 C 148.300781 152.070312 153.148438 156.515625 153.148438 156.515625 C 154.359375 157.527344 156.179688 157.125 156.785156 156.316406 L 166.890625 143.585938 C 167.898438 142.371094 168.304688 141.160156 166.6875 139.945312 Z M 166.6875 139.945312 " fill-opacity="1" fill-rule="nonzero"/><g clip-path="url(#cb31159b0a)"><path fill="#000000" d="M 256.003906 164.195312 C 254.589844 164.195312 253.578125 165.410156 253.578125 166.621094 L 253.578125 231.082031 L 133.75 231.082031 L 133.75 65.382812 L 217.207031 65.382812 L 217.207031 98.925781 C 217.207031 100.339844 218.21875 101.550781 219.632812 101.550781 L 253.175781 101.550781 L 253.175781 104.785156 C 253.175781 106.199219 254.386719 107.210938 255.601562 107.210938 C 256.8125 107.210938 258.027344 106 258.027344 104.785156 L 258.027344 98.925781 C 258.027344 98.320312 257.824219 97.714844 257.21875 97.105469 L 221.652344 61.136719 C 221.246094 60.53125 220.441406 60.328125 219.832031 60.328125 L 131.324219 60.328125 C 129.910156 60.328125 128.898438 61.542969 128.898438 62.753906 L 128.898438 233.710938 C 128.898438 235.125 130.113281 236.132812 131.324219 236.132812 L 256.003906 236.132812 C 257.417969 236.132812 258.429688 234.921875 258.429688 233.710938 L 258.429688 166.621094 C 258.429688 165.207031 257.417969 164.195312 256.003906 164.195312 Z M 256.003906 164.195312 " fill-opacity="1" fill-rule="nonzero"/></g><path fill="#000000" d="M 240.648438 112.667969 C 240.648438 111.253906 239.433594 110.242188 238.222656 110.242188 L 178.003906 110.242188 C 176.589844 110.242188 175.578125 111.453125 175.578125 112.667969 C 175.578125 113.878906 176.792969 115.089844 178.003906 115.089844 L 238.222656 115.089844 C 239.636719 115.292969 240.648438 114.082031 240.648438 112.667969 Z M 240.648438 112.667969 " fill-opacity="1" fill-rule="nonzero"/><path fill="#000000" d="M 178.003906 123.175781 C 176.589844 123.175781 175.578125 124.386719 175.578125 125.597656 C 175.578125 126.8125 176.792969 128.023438 178.003906 128.023438 L 221.246094 128.023438 C 222.664062 128.023438 223.671875 126.8125 223.671875 125.597656 C 223.671875 124.386719 222.664062 123.175781 221.246094 123.175781 Z M 178.003906 123.175781 " fill-opacity="1" fill-rule="nonzero"/><path fill="#000000" d="M 166.6875 106.605469 C 165.675781 105.796875 164.0625 106 163.050781 107.007812 L 154.5625 117.515625 L 151.9375 115.089844 C 150.925781 114.082031 149.308594 114.082031 148.300781 115.089844 C 147.289062 116.101562 147.289062 117.71875 148.300781 118.730469 C 148.300781 118.730469 153.148438 123.175781 153.148438 123.175781 C 154.359375 124.183594 156.179688 123.78125 156.785156 122.972656 L 166.890625 110.242188 C 167.898438 109.03125 168.101562 107.816406 166.6875 106.605469 Z M 166.6875 106.605469 " fill-opacity="1" fill-rule="nonzero"/><path fill="#000000" d="M 166.6875 172.078125 C 165.675781 171.269531 164.0625 171.46875 163.050781 172.480469 L 154.5625 182.988281 L 151.9375 180.5625 C 150.925781 179.554688 149.308594 179.554688 148.300781 180.5625 C 147.289062 181.574219 147.289062 183.191406 148.300781 184.203125 C 148.300781 184.203125 153.148438 188.648438 153.148438 188.648438 C 154.359375 189.65625 156.179688 189.253906 156.785156 188.445312 L 166.890625 175.714844 C 167.898438 174.703125 168.101562 173.289062 166.6875 172.078125 Z M 166.6875 172.078125 " fill-opacity="1" fill-rule="nonzero"/><path fill="#000000" d="M 302.480469 106.199219 L 295.207031 100.542969 L 300.058594 94.277344 C 301.066406 93.066406 302.078125 91.042969 299.855469 89.226562 L 289.347656 80.941406 C 287.730469 79.527344 285.105469 79.527344 283.6875 81.34375 L 278.839844 87.609375 C 278.433594 87.40625 277.828125 87.207031 277.425781 87.40625 C 276.820312 87.40625 276.210938 87.8125 275.808594 88.417969 L 267.320312 99.328125 C 266.714844 100.339844 266.714844 101.550781 267.320312 102.359375 L 235.394531 142.976562 L 178.003906 142.976562 C 176.589844 142.976562 175.578125 144.191406 175.578125 145.402344 C 175.578125 146.617188 176.792969 147.828125 178.003906 147.828125 L 231.351562 147.828125 L 225.289062 155.707031 L 178.003906 155.707031 C 176.589844 155.707031 175.578125 156.921875 175.578125 158.132812 C 175.578125 159.347656 176.792969 160.558594 178.003906 160.558594 L 221.449219 160.558594 L 209.933594 175.714844 L 178.003906 175.714844 C 176.589844 175.714844 175.578125 176.925781 175.578125 178.140625 C 175.578125 179.351562 176.792969 180.5625 178.003906 180.5625 L 205.890625 180.5625 L 200.839844 187.03125 C 200.839844 187.03125 200.636719 187.636719 200.433594 188.445312 L 178.003906 188.445312 C 176.589844 188.445312 175.578125 189.65625 175.578125 190.871094 C 175.578125 192.082031 176.792969 193.292969 178.003906 193.292969 L 198.816406 193.292969 C 196.796875 199.761719 194.171875 208.855469 194.171875 208.855469 C 193.765625 209.863281 194.171875 211.078125 194.976562 211.683594 C 195.785156 212.289062 197 212.289062 197.808594 211.886719 C 197.808594 211.886719 217.003906 200.367188 217.410156 199.964844 L 283.488281 114.890625 C 283.890625 115.089844 284.296875 115.292969 284.902344 115.292969 C 285.710938 115.292969 286.519531 114.890625 286.921875 114.285156 L 293.792969 105.390625 L 297.429688 108.222656 L 276.820312 135.097656 C 276.011719 136.308594 276.210938 137.722656 277.222656 138.734375 C 278.234375 139.746094 279.851562 139.339844 280.859375 138.332031 L 303.089844 109.835938 C 303.898438 108.625 303.492188 107.007812 302.480469 106.199219 Z M 200.839844 204.410156 L 204.476562 192.285156 C 205.890625 193.09375 207.101562 193.902344 208.316406 194.710938 C 209.527344 195.71875 210.738281 196.730469 211.75 197.742188 Z M 284.496094 109.636719 L 272.574219 100.339844 L 277.625 93.875 L 289.550781 103.167969 Z M 284.496094 109.636719 " fill-opacity="1" fill-rule="nonzero"/><path stroke-linecap="butt" transform="matrix(0.878565, 0, 0, 0.878565, 116.960747, 216.436846)" fill="none" stroke-linejoin="miter" d="M 5.571271 87.430288 L 5.677979 87.430288 C 5.677979 88.675216 5.677979 89.920145 5.677979 91.165073 C 5.677979 92.392217 5.677979 93.628253 5.677979 94.868735 C 5.677979 96.095879 5.64241 97.349699 5.571271 98.630197 C 5.500132 99.910695 5.464563 101.164516 5.464563 102.387213 L 5.464563 109.936815 C 5.464563 111.177297 5.500132 112.422225 5.571271 113.667154 C 5.64241 114.894297 5.677979 116.130334 5.677979 117.375262 C 5.677979 117.730956 5.713549 117.979941 5.784687 118.122219 C 5.784687 118.633529 5.926965 118.926976 6.21152 118.998115 C 6.442721 119.069254 6.647245 119.069254 6.825092 118.998115 C 7.002939 118.926976 7.207463 118.891407 7.438664 118.891407 L 16.611118 118.891407 C 16.895673 118.891407 17.180229 118.891407 17.464784 118.891407 C 17.767123 118.891407 18.060571 118.855837 18.345126 118.784699 C 19.003159 118.784699 19.367746 118.526821 19.438884 118.015511 L 19.545592 117.241877 C 19.545592 115.943594 19.527808 114.618635 19.492238 113.266998 C 19.456669 111.915362 19.438884 110.58151 19.438884 109.269889 L 19.438884 101.297901 C 19.438884 99.999618 19.438884 98.674659 19.438884 97.323022 C 19.438884 95.971386 19.438884 94.637534 19.438884 93.325913 C 19.438884 93.112497 19.456669 92.916865 19.492238 92.739018 C 19.527808 92.561171 19.581162 92.356647 19.652301 92.125446 C 19.794578 91.325135 20.190288 90.88941 20.848321 90.818271 C 21.435216 90.675994 21.835371 90.604855 22.048788 90.604855 L 28.820309 90.604855 C 29.994099 90.604855 31.141211 90.62264 32.261647 90.658209 C 33.399867 90.693779 34.51141 90.711563 35.596276 90.711563 L 35.809693 90.711563 C 36.183171 90.711563 36.587773 90.640425 37.03239 90.498147 C 37.388084 90.427008 37.63707 90.2047 37.779347 89.831221 C 37.850486 89.688944 37.868271 89.546666 37.832701 89.404388 C 37.797132 89.262111 37.779347 89.155403 37.779347 89.084264 L 37.779347 78.818051 C 37.779347 78.657989 37.761563 78.489034 37.725993 78.311187 C 37.690424 78.13334 37.672639 77.973278 37.672639 77.831001 C 37.530362 77.319691 37.316945 77.026243 37.03239 76.955104 C 36.730051 76.812827 36.476619 76.741688 36.263202 76.741688 L 28.927017 76.741688 C 27.775458 76.741688 26.592776 76.777258 25.383417 76.848396 C 24.191843 76.919535 22.973592 76.955104 21.728663 76.955104 C 21.586386 76.955104 21.417431 76.90175 21.2218 76.795042 C 21.043953 76.688334 20.88389 76.599411 20.741613 76.528272 C 20.243642 76.457133 19.883502 76.163686 19.652301 75.64793 C 19.581162 75.434513 19.527808 75.238882 19.492238 75.061035 C 19.456669 74.865403 19.438884 74.660879 19.438884 74.447463 C 19.438884 73.131396 19.4211 71.842006 19.38553 70.579293 C 19.349961 69.298795 19.332176 68.004959 19.332176 66.688891 L 19.332176 58.93032 C 19.332176 58.788042 19.332176 58.610195 19.332176 58.396779 C 19.332176 58.165578 19.332176 57.978839 19.332176 57.836561 C 19.403315 57.249666 19.910179 56.813941 20.848321 56.529386 L 22.155496 56.529386 C 23.258147 56.529386 24.36969 56.493817 25.490126 56.422678 C 26.628346 56.351539 27.739889 56.31597 28.820309 56.31597 C 29.994099 56.31597 31.141211 56.333755 32.261647 56.369324 C 33.399867 56.404894 34.51141 56.422678 35.596276 56.422678 C 35.667415 56.422678 35.720769 56.404894 35.756339 56.369324 C 35.791908 56.333755 35.809693 56.31597 35.809693 56.31597 C 36.040894 56.387109 36.263202 56.404894 36.476619 56.369324 C 36.685589 56.333755 36.872328 56.31597 37.03239 56.31597 C 37.530362 56.173693 37.814917 55.915815 37.886056 55.542336 L 37.886056 54.902087 C 37.886056 53.141403 37.90384 51.411841 37.93941 49.704511 C 37.974979 47.997181 37.992764 46.272066 37.992764 44.529166 C 37.992764 44.302411 37.921625 43.973394 37.779347 43.546562 C 37.779347 43.101944 37.530362 42.808497 37.03239 42.666219 C 36.801189 42.595081 36.476619 42.559511 36.049786 42.559511 L 28.927017 42.559511 C 27.775458 42.559511 26.610561 42.577296 25.436772 42.612865 C 24.280767 42.648435 23.115869 42.666219 21.94208 42.666219 C 20.786075 42.666219 19.625624 42.63065 18.451834 42.559511 C 17.295829 42.488372 16.095362 42.452803 14.850434 42.452803 C 13.694429 42.452803 12.529532 42.488372 11.360188 42.559511 C 10.186399 42.63065 8.985932 42.666219 7.758788 42.666219 C 7.687649 42.666219 7.589834 42.648435 7.465341 42.612865 C 7.358633 42.577296 7.23414 42.595081 7.091862 42.666219 C 7.020724 42.666219 6.896231 42.63065 6.718384 42.559511 C 6.540537 42.488372 6.371582 42.488372 6.21152 42.559511 C 6.069243 42.63065 5.962534 42.755143 5.891396 42.93299 C 5.820257 43.110837 5.749118 43.279791 5.677979 43.439853 C 5.677979 43.724409 5.64241 43.973394 5.571271 44.186811 C 5.571271 44.257949 5.553486 44.355765 5.517917 44.480258 C 5.482348 44.58252 5.464563 44.707013 5.464563 44.84929 C 5.464563 45.934156 5.482348 47.01013 5.517917 48.077212 C 5.553486 49.126509 5.571271 50.158021 5.571271 51.171748 C 5.64241 52.274399 5.660195 53.354819 5.624625 54.4219 C 5.589056 55.471197 5.606841 56.502709 5.677979 57.516437 C 5.677979 58.761365 5.64241 60.024078 5.571271 61.30013 C 5.500132 62.562843 5.464563 63.816664 5.464563 65.061592 C 5.464563 66.217597 5.500132 67.435848 5.571271 68.716346 C 5.64241 69.974613 5.677979 71.228434 5.677979 72.473362 C 5.677979 73.718291 5.695764 74.963219 5.731333 76.208147 C 5.766903 77.430845 5.784687 78.666881 5.784687 79.911809 C 5.784687 81.138953 5.749118 82.392774 5.677979 83.673272 C 5.606841 84.953769 5.571271 86.203144 5.571271 87.430288 Z M 5.571271 87.430288 " stroke="#000000" stroke-width="8.1909" stroke-opacity="1" stroke-miterlimit="4"/><g fill="#000000" fill-opacity="1"><g transform="translate(116.960747, 320.986031)"><g><path d="M 4.890625 -27.734375 L 4.984375 -27.734375 C 4.984375 -26.640625 4.984375 -25.550781 4.984375 -24.46875 C 4.984375 -23.382812 4.984375 -22.296875 4.984375 -21.203125 C 4.984375 -20.117188 4.953125 -19.015625 4.890625 -17.890625 C 4.828125 -16.773438 4.796875 -15.671875 4.796875 -14.578125 L 4.796875 -7.96875 C 4.796875 -6.875 4.828125 -5.785156 4.890625 -4.703125 C 4.953125 -3.617188 4.984375 -2.53125 4.984375 -1.4375 C 4.984375 -1.113281 5.015625 -0.890625 5.078125 -0.765625 C 5.078125 -0.316406 5.207031 -0.0625 5.46875 0 C 5.65625 0.0625 5.828125 0.0625 5.984375 0 C 6.148438 -0.0625 6.332031 -0.09375 6.53125 -0.09375 L 14.578125 -0.09375 C 14.835938 -0.09375 15.09375 -0.09375 15.34375 -0.09375 C 15.601562 -0.09375 15.863281 -0.125 16.125 -0.1875 C 16.695312 -0.1875 17.015625 -0.410156 17.078125 -0.859375 L 17.171875 -1.53125 C 17.171875 -2.6875 17.15625 -3.851562 17.125 -5.03125 C 17.09375 -6.21875 17.078125 -7.390625 17.078125 -8.546875 L 17.078125 -15.546875 C 17.078125 -16.691406 17.078125 -17.859375 17.078125 -19.046875 C 17.078125 -20.234375 17.078125 -21.398438 17.078125 -22.546875 C 17.078125 -22.742188 17.09375 -22.921875 17.125 -23.078125 C 17.15625 -23.234375 17.203125 -23.410156 17.265625 -23.609375 C 17.398438 -24.304688 17.753906 -24.6875 18.328125 -24.75 C 18.835938 -24.882812 19.1875 -24.953125 19.375 -24.953125 L 25.328125 -24.953125 C 26.347656 -24.953125 27.351562 -24.9375 28.34375 -24.90625 C 29.34375 -24.875 30.320312 -24.859375 31.28125 -24.859375 L 31.46875 -24.859375 C 31.789062 -24.859375 32.144531 -24.921875 32.53125 -25.046875 C 32.851562 -25.109375 33.078125 -25.300781 33.203125 -25.625 C 33.265625 -25.75 33.28125 -25.875 33.25 -26 C 33.21875 -26.125 33.203125 -26.222656 33.203125 -26.296875 L 33.203125 -35.3125 C 33.203125 -35.4375 33.1875 -35.578125 33.15625 -35.734375 C 33.125 -35.898438 33.109375 -36.046875 33.109375 -36.171875 C 32.972656 -36.617188 32.78125 -36.875 32.53125 -36.9375 C 32.269531 -37.070312 32.046875 -37.140625 31.859375 -37.140625 L 25.421875 -37.140625 C 24.398438 -37.140625 23.359375 -37.101562 22.296875 -37.03125 C 21.242188 -36.96875 20.175781 -36.9375 19.09375 -36.9375 C 18.96875 -36.9375 18.820312 -36.984375 18.65625 -37.078125 C 18.5 -37.179688 18.359375 -37.265625 18.234375 -37.328125 C 17.785156 -37.390625 17.460938 -37.644531 17.265625 -38.09375 C 17.203125 -38.28125 17.15625 -38.453125 17.125 -38.609375 C 17.09375 -38.773438 17.078125 -38.957031 17.078125 -39.15625 C 17.078125 -40.300781 17.0625 -41.429688 17.03125 -42.546875 C 17 -43.671875 16.984375 -44.8125 16.984375 -45.96875 L 16.984375 -52.78125 C 16.984375 -52.90625 16.984375 -53.0625 16.984375 -53.25 C 16.984375 -53.445312 16.984375 -53.609375 16.984375 -53.734375 C 17.046875 -54.242188 17.492188 -54.628906 18.328125 -54.890625 L 19.484375 -54.890625 C 20.441406 -54.890625 21.414062 -54.921875 22.40625 -54.984375 C 23.394531 -55.046875 24.367188 -55.078125 25.328125 -55.078125 C 26.347656 -55.078125 27.351562 -55.0625 28.34375 -55.03125 C 29.34375 -55 30.320312 -54.984375 31.28125 -54.984375 C 31.34375 -54.984375 31.390625 -55 31.421875 -55.03125 C 31.453125 -55.0625 31.46875 -55.078125 31.46875 -55.078125 C 31.664062 -55.015625 31.859375 -55 32.046875 -55.03125 C 32.242188 -55.0625 32.40625 -55.078125 32.53125 -55.078125 C 32.976562 -55.203125 33.234375 -55.425781 33.296875 -55.75 L 33.296875 -56.328125 C 33.296875 -57.859375 33.3125 -59.375 33.34375 -60.875 C 33.375 -62.382812 33.390625 -63.90625 33.390625 -65.4375 C 33.390625 -65.632812 33.328125 -65.921875 33.203125 -66.296875 C 33.203125 -66.679688 32.976562 -66.941406 32.53125 -67.078125 C 32.332031 -67.140625 32.046875 -67.171875 31.671875 -67.171875 L 25.421875 -67.171875 C 24.398438 -67.171875 23.378906 -67.15625 22.359375 -67.125 C 21.335938 -67.09375 20.3125 -67.078125 19.28125 -67.078125 C 18.257812 -67.078125 17.238281 -67.109375 16.21875 -67.171875 C 15.195312 -67.234375 14.140625 -67.265625 13.046875 -67.265625 C 12.023438 -67.265625 11 -67.234375 9.96875 -67.171875 C 8.945312 -67.109375 7.894531 -67.078125 6.8125 -67.078125 C 6.75 -67.078125 6.664062 -67.09375 6.5625 -67.125 C 6.46875 -67.15625 6.359375 -67.140625 6.234375 -67.078125 C 6.171875 -67.078125 6.054688 -67.109375 5.890625 -67.171875 C 5.734375 -67.234375 5.59375 -67.234375 5.46875 -67.171875 C 5.34375 -67.109375 5.242188 -66.992188 5.171875 -66.828125 C 5.109375 -66.671875 5.046875 -66.53125 4.984375 -66.40625 C 4.984375 -66.144531 4.953125 -65.921875 4.890625 -65.734375 C 4.890625 -65.660156 4.875 -65.578125 4.84375 -65.484375 C 4.8125 -65.390625 4.796875 -65.28125 4.796875 -65.15625 C 4.796875 -64.195312 4.8125 -63.253906 4.84375 -62.328125 C 4.875 -61.398438 4.890625 -60.488281 4.890625 -59.59375 C 4.953125 -58.625 4.96875 -57.675781 4.9375 -56.75 C 4.90625 -55.820312 4.921875 -54.910156 4.984375 -54.015625 C 4.984375 -52.929688 4.953125 -51.828125 4.890625 -50.703125 C 4.828125 -49.585938 4.796875 -48.488281 4.796875 -47.40625 C 4.796875 -46.375 4.828125 -45.296875 4.890625 -44.171875 C 4.953125 -43.054688 4.984375 -41.957031 4.984375 -40.875 C 4.984375 -39.789062 5 -38.703125 5.03125 -37.609375 C 5.0625 -36.523438 5.078125 -35.4375 5.078125 -34.34375 C 5.078125 -33.257812 5.046875 -32.15625 4.984375 -31.03125 C 4.921875 -29.914062 4.890625 -28.816406 4.890625 -27.734375 Z M 4.890625 -27.734375 "/></g></g></g><path stroke-linecap="butt" transform="matrix(0.878565, 0, 0, 0.878565, 155.156332, 216.436846)" fill="none" stroke-linejoin="miter" d="M 11.359878 80.658766 L 11.359878 83.940042 C 11.359878 85.536218 11.324309 87.119056 11.25317 88.684108 C 11.182032 90.249161 11.146462 91.796429 11.146462 93.325913 C 11.146462 94.939874 11.110893 96.531604 11.039754 98.096656 C 10.968615 99.661709 10.933046 101.208977 10.933046 102.734015 C 10.933046 104.263498 10.968615 105.792982 11.039754 107.322465 C 11.110893 108.851949 11.146462 110.376986 11.146462 111.906469 C 11.146462 112.333302 11.128677 112.804596 11.093108 113.320352 C 11.057539 113.836108 11.039754 114.378541 11.039754 114.947652 C 11.039754 115.605685 11.110893 116.210365 11.25317 116.76169 C 11.395448 117.313016 11.724465 117.766525 12.240221 118.122219 C 12.755977 118.420113 13.333979 118.553498 13.974228 118.517928 C 14.632262 118.482359 15.254726 118.500144 15.841621 118.571282 C 17.513382 118.642421 19.127342 118.695775 20.692395 118.731345 C 22.257448 118.766914 23.849178 118.784699 25.467585 118.784699 C 27.063761 118.71356 28.646598 118.624636 30.211651 118.517928 C 31.776704 118.393436 33.359542 118.193358 34.955718 117.908803 C 37.801268 117.250769 40.531219 116.263719 43.141122 114.947652 C 44.457189 114.378541 45.71101 113.693831 46.902584 112.89352 C 48.111943 112.093209 49.303518 111.212866 50.477307 110.252493 C 51.628866 109.314351 52.713732 108.353977 53.72746 107.375819 C 54.758972 106.379876 55.710453 105.303903 56.581903 104.147898 C 57.524491 102.974108 58.413726 101.813657 59.24516 100.657652 C 60.081041 99.483862 60.792428 98.247826 61.379323 96.949544 C 62.037357 95.562338 62.597574 94.175132 63.059976 92.792372 C 63.540163 91.405166 63.931426 90.01796 64.233766 88.630754 C 64.802876 85.802988 65.016292 82.899638 64.874015 79.911809 C 64.874015 78.453465 64.767307 76.999566 64.55389 75.541221 C 64.340474 74.082877 64.047027 72.660101 63.673548 71.272896 C 63.388993 69.814551 63.006622 68.396222 62.526436 67.009016 C 62.064034 65.62181 61.503816 64.279066 60.845782 62.980783 C 60.11661 61.664716 59.307407 60.450911 58.422618 59.330475 C 57.551168 58.192255 56.60858 57.080712 55.594852 55.995846 C 54.652264 54.893195 53.629644 53.85279 52.526993 52.874632 C 51.442127 51.90092 50.317245 51.011686 49.143455 50.211375 C 47.98745 49.32214 46.786984 48.477367 45.542055 47.677056 C 44.314912 46.876745 43.007737 46.227604 41.624977 45.729632 C 40.30891 45.142738 38.957273 44.689228 37.570067 44.37355 C 36.182861 44.035641 34.760086 43.724409 33.306188 43.439853 C 30.976393 43.066375 28.72663 42.844066 26.556897 42.772928 C 25.387554 42.772928 24.249334 42.737358 23.146683 42.666219 C 22.061816 42.595081 20.941381 42.559511 19.785376 42.559511 C 18.985065 42.63065 18.140292 42.684004 17.255504 42.719573 C 16.384054 42.755143 15.512604 42.772928 14.641154 42.772928 C 14.196537 42.772928 13.734135 42.790712 13.253948 42.826282 C 12.791546 42.861851 12.382498 43.066375 12.026804 43.439853 C 11.653326 43.795547 11.395448 44.249057 11.25317 44.795936 C 11.110893 45.329477 11.039754 45.889695 11.039754 46.47659 L 11.039754 55.008795 C 11.039754 56.396001 11.039754 57.818776 11.039754 59.277121 C 11.039754 60.717681 11.039754 62.162687 11.039754 63.621032 C 11.039754 65.008238 11.075323 66.413229 11.146462 67.836004 C 11.217601 69.254333 11.25317 70.694893 11.25317 72.153238 C 11.25317 73.540444 11.270955 74.945434 11.306524 76.36821 C 11.342094 77.768754 11.359878 79.200422 11.359878 80.658766 Z M 26.316804 80.658766 L 26.316804 74.127339 C 26.316804 73.024688 26.316804 71.930929 26.316804 70.846063 C 26.316804 69.743412 26.316804 68.6541 26.316804 67.569234 C 26.316804 66.466583 26.352373 65.372824 26.423512 64.287958 C 26.512436 63.185307 26.556897 62.091549 26.556897 61.006682 C 26.556897 60.655435 26.592467 60.299741 26.663605 59.944047 C 26.734744 59.570569 26.912591 59.232659 27.197146 58.93032 C 27.481701 58.574626 27.846287 58.36121 28.290905 58.290071 C 28.735522 58.218932 29.206816 58.218932 29.704788 58.290071 C 32.194644 58.645765 34.484423 59.330475 36.583017 60.344203 C 37.685668 60.859959 38.708288 61.477977 39.650876 62.207149 C 40.593465 62.936321 41.500484 63.736633 42.371934 64.608082 C 43.256723 65.408394 44.11928 66.270951 44.955161 67.195755 C 45.791041 68.102774 46.457967 69.063148 46.955938 70.072429 C 47.542833 71.157295 48.031912 72.268838 48.423175 73.407059 C 48.832223 74.527494 49.152348 75.710176 49.383549 76.955104 C 49.525826 77.466414 49.596965 77.964386 49.596965 78.444572 C 49.596965 78.906974 49.596965 79.360484 49.596965 79.805101 C 49.596965 81.245661 49.481365 82.695114 49.250164 84.153458 C 49.036747 85.327248 48.805546 86.514376 48.556561 87.723735 C 48.307575 88.915309 47.889635 90.062422 47.30274 91.165073 C 46.200089 93.263667 44.741744 95.188859 42.927706 96.949544 C 42.060702 97.820994 41.091436 98.567951 40.024355 99.190415 C 38.975058 99.795094 37.943546 100.390882 36.929819 100.977776 C 35.827168 101.493532 34.706732 101.969273 33.572958 102.41389 C 32.452522 102.840723 31.278733 103.125278 30.051589 103.267555 L 29.384663 103.267555 C 29.100108 103.267555 28.824445 103.249771 28.557675 103.214201 C 28.308689 103.178632 28.041919 103.125278 27.757364 103.054139 C 27.757364 103.054139 27.588409 102.858508 27.2505 102.467244 C 26.930376 102.058196 26.734744 101.78698 26.663605 101.644702 C 26.592467 101.271224 26.574682 100.906638 26.610251 100.550944 C 26.645821 100.177465 26.663605 99.848449 26.663605 99.563893 L 26.663605 93.988393 C 26.663605 92.1788 26.619144 90.364762 26.53022 88.550723 C 26.459081 86.7189 26.423512 84.891523 26.423512 83.0597 C 26.423512 82.704006 26.405727 82.330527 26.370158 81.939264 C 26.334589 81.530216 26.316804 81.103384 26.316804 80.658766 Z M 26.316804 80.658766 " stroke="#000000" stroke-width="8.1909" stroke-opacity="1" stroke-miterlimit="4"/><g fill="#000000" fill-opacity="1"><g transform="translate(159.960982, 320.986031)"><g><path d="M 5.1875 -33.671875 L 5.1875 -30.796875 C 5.1875 -29.390625 5.148438 -28 5.078125 -26.625 C 5.015625 -25.25 4.984375 -23.890625 4.984375 -22.546875 C 4.984375 -21.140625 4.953125 -19.75 4.890625 -18.375 C 4.828125 -17 4.796875 -15.640625 4.796875 -14.296875 C 4.796875 -12.953125 4.828125 -11.609375 4.890625 -10.265625 C 4.953125 -8.921875 4.984375 -7.578125 4.984375 -6.234375 C 4.984375 -5.847656 4.96875 -5.429688 4.9375 -4.984375 C 4.90625 -4.535156 4.890625 -4.054688 4.890625 -3.546875 C 4.890625 -2.972656 4.953125 -2.445312 5.078125 -1.96875 C 5.210938 -1.488281 5.503906 -1.085938 5.953125 -0.765625 C 6.398438 -0.515625 6.910156 -0.40625 7.484375 -0.4375 C 8.054688 -0.46875 8.597656 -0.453125 9.109375 -0.390625 C 10.585938 -0.316406 12.015625 -0.265625 13.390625 -0.234375 C 14.765625 -0.203125 16.15625 -0.1875 17.5625 -0.1875 C 18.96875 -0.25 20.359375 -0.328125 21.734375 -0.421875 C 23.109375 -0.523438 24.5 -0.703125 25.90625 -0.953125 C 28.40625 -1.535156 30.804688 -2.398438 33.109375 -3.546875 C 34.253906 -4.054688 35.351562 -4.660156 36.40625 -5.359375 C 37.46875 -6.066406 38.507812 -6.835938 39.53125 -7.671875 C 40.550781 -8.503906 41.507812 -9.351562 42.40625 -10.21875 C 43.300781 -11.082031 44.132812 -12.023438 44.90625 -13.046875 C 45.738281 -14.066406 46.519531 -15.085938 47.25 -16.109375 C 47.988281 -17.140625 48.613281 -18.226562 49.125 -19.375 C 49.695312 -20.59375 50.191406 -21.8125 50.609375 -23.03125 C 51.023438 -24.25 51.363281 -25.460938 51.625 -26.671875 C 52.132812 -29.171875 52.328125 -31.726562 52.203125 -34.34375 C 52.203125 -35.625 52.101562 -36.90625 51.90625 -38.1875 C 51.71875 -39.46875 51.460938 -40.71875 51.140625 -41.9375 C 50.890625 -43.207031 50.554688 -44.453125 50.140625 -45.671875 C 49.722656 -46.890625 49.222656 -48.070312 48.640625 -49.21875 C 48.003906 -50.375 47.300781 -51.445312 46.53125 -52.4375 C 45.769531 -53.425781 44.941406 -54.398438 44.046875 -55.359375 C 43.210938 -56.316406 42.316406 -57.226562 41.359375 -58.09375 C 40.398438 -58.957031 39.40625 -59.742188 38.375 -60.453125 C 37.351562 -61.222656 36.296875 -61.957031 35.203125 -62.65625 C 34.117188 -63.363281 32.972656 -63.941406 31.765625 -64.390625 C 30.609375 -64.898438 29.421875 -65.296875 28.203125 -65.578125 C 26.992188 -65.867188 25.75 -66.144531 24.46875 -66.40625 C 22.414062 -66.71875 20.429688 -66.90625 18.515625 -66.96875 C 17.492188 -66.96875 16.503906 -67 15.546875 -67.0625 C 14.585938 -67.132812 13.59375 -67.171875 12.5625 -67.171875 C 11.863281 -67.109375 11.128906 -67.054688 10.359375 -67.015625 C 9.597656 -66.984375 8.832031 -66.96875 8.0625 -66.96875 C 7.675781 -66.96875 7.273438 -66.953125 6.859375 -66.921875 C 6.441406 -66.890625 6.070312 -66.71875 5.75 -66.40625 C 5.4375 -66.082031 5.210938 -65.679688 5.078125 -65.203125 C 4.953125 -64.722656 4.890625 -64.226562 4.890625 -63.71875 L 4.890625 -56.234375 C 4.890625 -55.015625 4.890625 -53.765625 4.890625 -52.484375 C 4.890625 -51.203125 4.890625 -49.921875 4.890625 -48.640625 C 4.890625 -47.429688 4.921875 -46.203125 4.984375 -44.953125 C 5.046875 -43.703125 5.078125 -42.4375 5.078125 -41.15625 C 5.078125 -39.945312 5.09375 -38.71875 5.125 -37.46875 C 5.164062 -36.21875 5.1875 -34.953125 5.1875 -33.671875 Z M 18.328125 -33.671875 L 18.328125 -39.4375 C 18.328125 -40.394531 18.328125 -41.351562 18.328125 -42.3125 C 18.328125 -43.269531 18.328125 -44.226562 18.328125 -45.1875 C 18.328125 -46.15625 18.359375 -47.117188 18.421875 -48.078125 C 18.484375 -49.035156 18.515625 -49.992188 18.515625 -50.953125 C 18.515625 -51.273438 18.546875 -51.59375 18.609375 -51.90625 C 18.671875 -52.226562 18.832031 -52.519531 19.09375 -52.78125 C 19.351562 -53.09375 19.671875 -53.28125 20.046875 -53.34375 C 20.429688 -53.414062 20.847656 -53.414062 21.296875 -53.34375 C 23.472656 -53.03125 25.488281 -52.425781 27.34375 -51.53125 C 28.300781 -51.082031 29.195312 -50.535156 30.03125 -49.890625 C 30.863281 -49.253906 31.664062 -48.550781 32.4375 -47.78125 C 33.195312 -47.082031 33.945312 -46.332031 34.6875 -45.53125 C 35.425781 -44.726562 36.019531 -43.878906 36.46875 -42.984375 C 36.976562 -42.023438 37.40625 -41.050781 37.75 -40.0625 C 38.101562 -39.070312 38.378906 -38.03125 38.578125 -36.9375 C 38.703125 -36.488281 38.765625 -36.054688 38.765625 -35.640625 C 38.765625 -35.222656 38.765625 -34.828125 38.765625 -34.453125 C 38.765625 -33.171875 38.671875 -31.890625 38.484375 -30.609375 C 38.285156 -29.585938 38.070312 -28.546875 37.84375 -27.484375 C 37.625 -26.429688 37.257812 -25.425781 36.75 -24.46875 C 35.789062 -22.613281 34.507812 -20.914062 32.90625 -19.375 C 32.144531 -18.613281 31.300781 -17.957031 30.375 -17.40625 C 29.445312 -16.863281 28.535156 -16.335938 27.640625 -15.828125 C 26.671875 -15.378906 25.691406 -14.960938 24.703125 -14.578125 C 23.710938 -14.203125 22.675781 -13.945312 21.59375 -13.8125 L 21.015625 -13.8125 C 20.753906 -13.8125 20.507812 -13.828125 20.28125 -13.859375 C 20.0625 -13.890625 19.828125 -13.941406 19.578125 -14.015625 C 19.578125 -14.015625 19.429688 -14.1875 19.140625 -14.53125 C 18.847656 -14.882812 18.671875 -15.125 18.609375 -15.25 C 18.546875 -15.570312 18.53125 -15.894531 18.5625 -16.21875 C 18.59375 -16.539062 18.609375 -16.828125 18.609375 -17.078125 L 18.609375 -21.96875 C 18.609375 -23.570312 18.578125 -25.171875 18.515625 -26.765625 C 18.453125 -28.367188 18.421875 -29.96875 18.421875 -31.5625 C 18.421875 -31.882812 18.40625 -32.222656 18.375 -32.578125 C 18.34375 -32.929688 18.328125 -33.296875 18.328125 -33.671875 Z M 18.328125 -33.671875 "/></g></g></g><path stroke-linecap="butt" transform="matrix(0.878565, 0, 0, 0.878565, 219.843652, 216.436846)" fill="none" stroke-linejoin="miter" d="M 5.571166 80.552058 C 5.571166 82.010403 5.58895 83.468748 5.62452 84.927092 C 5.660089 86.380991 5.677874 87.839336 5.677874 89.29768 L 5.677874 97.909917 C 5.677874 99.368262 5.677874 100.826607 5.677874 102.280505 C 5.677874 103.73885 5.677874 105.197194 5.677874 106.655539 L 5.677874 115.401161 C 5.677874 115.4723 5.642304 115.579008 5.571166 115.721286 C 5.500027 115.863563 5.464457 116.014733 5.464457 116.174795 L 5.784582 117.135169 C 6.069137 117.93548 6.469293 118.380097 6.985049 118.464574 C 7.127326 118.535713 7.287388 118.535713 7.465235 118.464574 C 7.660867 118.380097 7.829821 118.335635 7.972099 118.335635 C 9.714999 118.335635 11.457898 118.362312 13.196352 118.41122 C 14.957037 118.44679 16.744398 118.464574 18.558437 118.464574 C 18.718499 118.464574 18.887453 118.44679 19.0653 118.41122 C 19.243147 118.362312 19.36764 118.335635 19.438779 118.335635 C 19.812257 118.193358 20.034566 118.08665 20.105705 118.015511 C 20.456952 117.802095 20.634799 117.437508 20.634799 116.921752 C 20.705938 116.779475 20.777077 116.637197 20.848216 116.49492 C 20.919354 116.352642 20.954924 116.201472 20.954924 116.04141 C 20.954924 114.885405 20.937139 113.7294 20.90157 112.573395 C 20.866 111.399606 20.848216 110.225816 20.848216 109.056473 C 20.848216 107.900468 20.866 106.744463 20.90157 105.588458 C 20.937139 104.414668 20.954924 103.240878 20.954924 102.067089 C 20.954924 100.91553 20.919354 99.759525 20.848216 98.60352 C 20.777077 97.42973 20.777077 96.255941 20.848216 95.082151 C 20.848216 94.637534 20.883785 94.344087 20.954924 94.201809 C 20.954924 94.13067 21.034955 94.023962 21.195017 93.881685 C 21.337295 93.743853 21.497357 93.690499 21.675204 93.726068 C 21.853051 93.757192 21.977543 93.743853 22.048682 93.672714 L 23.489242 93.672714 C 23.987214 93.672714 24.449616 93.65493 24.876448 93.61936 C 25.321065 93.583791 25.765683 93.566006 26.2103 93.566006 C 26.726056 93.566006 27.19735 93.548222 27.624183 93.512652 C 28.0688 93.477083 28.504525 93.459298 28.926912 93.459298 L 29.060297 93.459298 C 29.415991 93.459298 29.7539 93.512652 30.074024 93.61936 C 30.411933 93.726068 30.723165 93.810546 31.007721 93.881685 C 31.149998 93.952823 31.327845 93.988393 31.541261 93.988393 C 31.772462 93.988393 31.959202 94.059531 32.101479 94.201809 C 32.474958 94.344087 32.821759 94.513041 33.141884 94.708673 C 33.479793 94.88652 33.791025 95.117721 34.07558 95.402276 C 34.288996 95.633477 34.466843 95.891355 34.609121 96.17591 C 34.769183 96.460465 34.920353 96.753912 35.06263 97.056252 C 35.204908 97.411946 35.311616 97.812101 35.382755 98.256719 C 35.453893 98.683551 35.525032 99.154846 35.596171 99.670602 C 35.596171 99.955157 35.63174 100.284173 35.702879 100.657652 C 35.774018 101.013346 35.854049 101.377932 35.942972 101.75141 C 35.942972 102.974108 35.916295 104.227929 35.862941 105.508427 C 35.827372 106.788924 35.809587 108.042745 35.809587 109.269889 C 35.809587 110.510371 35.827372 111.773084 35.862941 113.053582 C 35.916295 114.316295 35.942972 115.570116 35.942972 116.815044 C 35.942972 116.886183 35.898511 117.001783 35.809587 117.161846 C 35.738448 117.304123 35.702879 117.446401 35.702879 117.588678 C 35.774018 118.08665 36.174173 118.482359 36.8989 118.784699 C 37.343517 118.926976 37.672534 118.998115 37.88595 118.998115 L 49.032505 118.998115 C 49.103644 118.998115 49.139213 118.998115 49.139213 118.998115 C 49.139213 118.998115 49.174783 118.998115 49.245922 118.998115 C 49.690539 118.998115 50.055125 118.891407 50.33968 118.677991 L 50.686482 118.335635 C 50.828759 118.193358 50.971037 117.908803 51.113314 117.48197 L 51.113314 116.601628 C 51.113314 115.285561 51.113314 113.960601 51.113314 112.626749 C 51.113314 111.275113 51.113314 109.910138 51.113314 108.522932 C 51.113314 107.206865 51.09553 105.881905 51.05996 104.548053 C 51.024391 103.196417 51.006606 101.831442 51.006606 100.444236 L 51.006606 98.470135 C 51.006606 98.256719 51.042175 98.025518 51.113314 97.776532 C 51.184453 97.509762 51.184453 97.269668 51.113314 97.056252 C 51.113314 96.682773 51.042175 96.318187 50.899898 95.962493 C 50.75762 95.589015 50.64202 95.259998 50.553096 94.975443 C 50.481958 94.530826 50.410819 94.112886 50.33968 93.726068 C 50.268541 93.317021 50.161833 92.93465 50.019556 92.578956 C 49.948417 92.347755 49.859493 92.143231 49.752785 91.965384 C 49.646077 91.787537 49.512692 91.591906 49.35263 91.378489 C 49.139213 90.720456 48.854658 90.026853 48.498965 89.29768 C 48.267764 88.924202 48.009886 88.559616 47.72533 88.203922 C 47.440775 87.830443 47.182897 87.465857 46.951696 87.110163 C 46.73828 86.896747 46.489294 86.56773 46.204739 86.123113 C 46.044677 85.909697 46.044677 85.58068 46.204739 85.140509 C 46.204739 84.927092 46.240309 84.749245 46.311448 84.606968 C 46.524864 84.304628 46.73828 83.993396 46.951696 83.673272 C 47.182897 83.353147 47.405206 83.041915 47.618622 82.739575 C 47.7609 82.526159 47.938747 82.330527 48.152163 82.152681 C 48.383364 81.957049 48.570103 81.716956 48.712381 81.432401 C 48.854658 81.218984 48.961367 80.987783 49.032505 80.738798 C 49.103644 80.472027 49.174783 80.231934 49.245922 80.018518 C 49.388199 79.787317 49.512692 79.547223 49.6194 79.298238 C 49.743893 79.049252 49.877278 78.809159 50.019556 78.577958 C 50.161833 78.293402 50.268541 78.008847 50.33968 77.724292 C 50.410819 77.421953 50.481958 77.132951 50.553096 76.848396 C 50.713159 76.474918 50.899898 76.110332 51.113314 75.754638 C 51.32673 75.398944 51.469008 75.034358 51.540147 74.660879 C 51.611286 74.376324 51.646855 74.109554 51.646855 73.860568 C 51.646855 73.593798 51.691317 73.318135 51.78024 73.03358 L 52.100365 70.846063 C 52.100365 70.686001 52.100365 70.552616 52.100365 70.445907 C 52.100365 70.339199 52.100365 70.214706 52.100365 70.072429 C 52.100365 69.859013 52.118149 69.645596 52.153719 69.43218 C 52.189288 69.200979 52.207073 68.983117 52.207073 68.7697 L 52.207073 66.582183 C 52.207073 66.582183 52.224857 66.582183 52.260427 66.582183 C 52.295996 66.582183 52.313781 66.582183 52.313781 66.582183 C 52.313781 66.297628 52.260427 66.048642 52.153719 65.835226 C 52.04701 65.604025 51.993656 65.381717 51.993656 65.1683 C 51.922518 64.794822 51.904733 64.44802 51.940302 64.127896 C 51.975872 63.789987 51.922518 63.478755 51.78024 63.194199 C 51.691317 62.678443 51.504577 62.091549 51.220022 61.433515 C 51.148884 61.077821 51.05996 60.708789 50.953252 60.317526 C 50.846544 59.908478 50.713159 59.517215 50.553096 59.143736 C 50.410819 58.716903 50.268541 58.290071 50.126264 57.863238 C 49.983986 57.418621 49.806139 57.009573 49.592723 56.636095 L 49.459338 56.209262 C 49.31706 55.906922 49.156998 55.631259 48.979151 55.382274 C 48.801304 55.133288 48.605673 54.857625 48.392256 54.555286 C 48.232194 54.270731 48.06324 54.00396 47.885393 53.754974 C 47.707546 53.488204 47.547484 53.248111 47.405206 53.034694 C 47.174005 52.683447 46.916127 52.398892 46.631572 52.185475 C 46.347017 51.954274 46.089139 51.696396 45.857938 51.411841 C 45.644522 51.18064 45.466675 50.940547 45.324397 50.691561 C 45.18212 50.442576 44.99538 50.202482 44.768626 49.971281 C 44.555209 49.829004 44.332901 49.651157 44.1017 49.437741 C 43.888283 49.224324 43.710436 49.037585 43.568159 48.877523 C 43.354743 48.735245 43.132434 48.557398 42.901233 48.343982 C 42.687817 48.130566 42.50997 47.943827 42.367692 47.783764 L 39.966759 46.156465 C 39.89562 46.156465 39.824481 46.17425 39.753343 46.209819 C 39.682204 46.245389 39.611065 46.227604 39.539926 46.156465 C 39.397649 46.085326 39.228694 46.014188 39.033063 45.943049 C 38.855216 45.87191 38.659584 45.800771 38.446168 45.729632 C 38.30389 45.56957 38.117151 45.436185 37.88595 45.329477 C 37.672534 45.222769 37.494687 45.133845 37.352409 45.062707 L 35.809587 44.400227 C 35.382755 44.257949 34.94703 44.115672 34.502412 43.973394 C 34.07558 43.831117 33.639855 43.724409 33.195238 43.65327 C 32.768405 43.510992 32.33268 43.368715 31.888063 43.226437 C 31.443445 43.066375 30.972151 42.950774 30.47418 42.879636 C 30.331902 42.879636 30.038455 42.808497 29.593838 42.666219 L 28.713495 42.666219 C 28.504525 42.666219 28.264432 42.684004 27.997662 42.719573 C 27.748676 42.755143 27.481905 42.772928 27.19735 42.772928 C 26.983934 42.701789 26.085807 42.684004 24.50297 42.719573 C 22.937917 42.755143 20.990493 42.808497 18.665145 42.879636 C 17.295723 42.879636 15.899625 42.826282 14.47685 42.719573 C 13.054075 42.612865 11.617961 42.559511 10.159616 42.559511 C 9.714999 42.559511 9.270381 42.577296 8.825764 42.612865 C 8.398932 42.648435 7.972099 42.701789 7.545266 42.772928 C 7.314065 42.844066 7.109541 42.861851 6.931695 42.826282 C 6.753848 42.790712 6.593785 42.844066 6.451508 42.986344 C 6.006891 43.288684 5.749013 43.6177 5.677874 43.973394 C 5.606735 44.257949 5.571166 44.724797 5.571166 45.382831 C 5.571166 46.556621 5.553381 47.73041 5.517812 48.9042 C 5.482242 50.060205 5.464457 51.21621 5.464457 52.372215 L 5.464457 59.490537 C 5.464457 60.646542 5.500027 61.806994 5.571166 62.980783 C 5.642304 64.136788 5.677874 65.301685 5.677874 66.475475 C 5.677874 67.63148 5.642304 68.796377 5.571166 69.965721 C 5.500027 71.121726 5.464457 72.322192 5.464457 73.567121 C 5.464457 74.74091 5.482242 75.9147 5.517812 77.08849 C 5.553381 78.240048 5.571166 79.396053 5.571166 80.552058 Z M 20.848216 68.209482 L 20.848216 60.691004 C 20.848216 60.388664 20.883785 60.130786 20.954924 59.91737 C 21.043847 59.703954 21.088309 59.446076 21.088309 59.143736 C 21.230586 58.645765 21.479572 58.396779 21.835266 58.396779 C 21.977543 58.396779 22.102036 58.378994 22.208744 58.343425 C 22.333237 58.307856 22.431053 58.290071 22.502192 58.290071 L 26.770518 58.290071 C 26.912795 58.290071 27.090642 58.272286 27.304059 58.236717 C 27.517475 58.201147 27.695322 58.183363 27.837599 58.183363 C 27.997662 58.183363 28.148831 58.218932 28.291109 58.290071 C 28.433386 58.36121 28.535648 58.432348 28.606787 58.503487 C 28.820203 58.503487 29.015835 58.521272 29.193682 58.556841 C 29.389314 58.592411 29.593838 58.645765 29.807254 58.716903 L 31.354522 59.383829 C 31.639077 59.526107 31.888063 59.686169 32.101479 59.864016 C 32.33268 60.041863 32.590558 60.201925 32.875113 60.344203 C 33.088529 60.504265 33.337515 60.655435 33.62207 60.797712 C 33.92441 60.935544 34.146719 61.113391 34.288996 61.326807 L 35.382755 62.633982 C 35.756233 63.220877 36.08525 63.914479 36.369805 64.714791 C 36.512083 65.088269 36.618791 65.461748 36.689929 65.835226 C 36.756622 66.19092 36.827761 66.546614 36.8989 66.902308 C 36.8989 67.204647 36.934469 67.462525 37.005608 67.675942 C 37.094531 67.889358 37.103424 68.147236 37.032285 68.449576 C 37.032285 68.662992 36.987823 68.858624 36.8989 69.036471 C 36.827761 69.209871 36.756622 69.414395 36.689929 69.645596 C 36.689929 69.930151 36.65436 70.223599 36.583221 70.525939 C 36.512083 70.810494 36.405374 71.095049 36.263097 71.379604 C 36.191958 71.681943 36.094142 71.957606 35.969649 72.206592 C 35.862941 72.455578 35.738448 72.73124 35.596171 73.03358 C 35.453893 73.318135 35.293831 73.629367 35.115984 73.967276 C 34.938137 74.287401 34.733613 74.554171 34.502412 74.767587 C 34.360135 74.981004 34.200073 75.185528 34.022226 75.381159 C 33.844379 75.559006 33.675424 75.719068 33.515362 75.861346 C 33.301946 76.074762 33.044068 76.243717 32.741728 76.36821 C 32.457173 76.474918 32.172618 76.599411 31.888063 76.741688 C 31.372307 77.026243 30.89212 77.301906 30.447503 77.56423 C 30.02067 77.813216 29.513806 78.008847 28.926912 78.151125 C 28.713495 78.222264 28.477848 78.240048 28.211078 78.204479 C 27.962092 78.16891 27.730891 78.151125 27.517475 78.151125 C 27.090642 78.222264 26.654917 78.240048 26.2103 78.204479 C 25.765683 78.16891 25.329958 78.186694 24.903125 78.257833 L 22.288776 78.257833 C 22.128713 78.257833 21.995328 78.222264 21.88862 78.151125 C 21.781912 78.079986 21.657419 78.008847 21.515141 77.937709 C 21.301725 77.724292 21.159448 77.537553 21.088309 77.377491 C 21.088309 77.310798 21.043847 77.23966 20.954924 77.168521 C 20.883785 77.097382 20.848216 77.026243 20.848216 76.955104 L 20.848216 76.741688 C 20.848216 76.528272 20.866 76.33264 20.90157 76.154793 C 20.937139 75.959162 20.954924 75.790207 20.954924 75.64793 C 20.954924 74.403001 20.937139 73.166965 20.90157 71.939821 C 20.866 70.694893 20.848216 69.449965 20.848216 68.209482 Z M 20.848216 68.209482 " stroke="#000000" stroke-width="8.1909" stroke-opacity="1" stroke-miterlimit="4"/><g fill="#000000" fill-opacity="1"><g transform="translate(219.843652, 320.986031)"><g><path d="M 4.890625 -33.78125 C 4.890625 -32.5 4.90625 -31.21875 4.9375 -29.9375 C 4.96875 -28.65625 4.984375 -27.375 4.984375 -26.09375 L 4.984375 -18.515625 C 4.984375 -17.234375 4.984375 -15.953125 4.984375 -14.671875 C 4.984375 -13.398438 4.984375 -12.125 4.984375 -10.84375 L 4.984375 -3.171875 C 4.984375 -3.109375 4.953125 -3.007812 4.890625 -2.875 C 4.828125 -2.75 4.796875 -2.625 4.796875 -2.5 L 5.078125 -1.625 C 5.335938 -0.925781 5.691406 -0.546875 6.140625 -0.484375 C 6.265625 -0.421875 6.40625 -0.421875 6.5625 -0.484375 C 6.726562 -0.546875 6.875 -0.578125 7 -0.578125 C 8.539062 -0.578125 10.078125 -0.5625 11.609375 -0.53125 C 13.140625 -0.5 14.707031 -0.484375 16.3125 -0.484375 C 16.4375 -0.484375 16.578125 -0.5 16.734375 -0.53125 C 16.898438 -0.5625 17.015625 -0.578125 17.078125 -0.578125 C 17.398438 -0.703125 17.59375 -0.796875 17.65625 -0.859375 C 17.976562 -1.054688 18.140625 -1.378906 18.140625 -1.828125 C 18.203125 -1.953125 18.265625 -2.078125 18.328125 -2.203125 C 18.390625 -2.335938 18.421875 -2.46875 18.421875 -2.59375 C 18.421875 -3.613281 18.40625 -4.632812 18.375 -5.65625 C 18.34375 -6.6875 18.328125 -7.710938 18.328125 -8.734375 C 18.328125 -9.753906 18.34375 -10.773438 18.375 -11.796875 C 18.40625 -12.828125 18.421875 -13.851562 18.421875 -14.875 C 18.421875 -15.894531 18.390625 -16.914062 18.328125 -17.9375 C 18.265625 -18.96875 18.265625 -19.992188 18.328125 -21.015625 C 18.328125 -21.398438 18.359375 -21.65625 18.421875 -21.78125 C 18.421875 -21.84375 18.484375 -21.9375 18.609375 -22.0625 C 18.742188 -22.195312 18.890625 -22.25 19.046875 -22.21875 C 19.203125 -22.1875 19.3125 -22.203125 19.375 -22.265625 L 20.625 -22.265625 C 21.070312 -22.265625 21.488281 -22.28125 21.875 -22.3125 C 22.257812 -22.34375 22.644531 -22.359375 23.03125 -22.359375 C 23.476562 -22.359375 23.894531 -22.375 24.28125 -22.40625 C 24.664062 -22.4375 25.046875 -22.453125 25.421875 -22.453125 L 25.53125 -22.453125 C 25.84375 -22.453125 26.140625 -22.40625 26.421875 -22.3125 C 26.710938 -22.21875 26.988281 -22.132812 27.25 -22.0625 C 27.375 -22 27.53125 -21.96875 27.71875 -21.96875 C 27.914062 -21.96875 28.078125 -21.90625 28.203125 -21.78125 C 28.523438 -21.65625 28.828125 -21.507812 29.109375 -21.34375 C 29.398438 -21.1875 29.675781 -20.976562 29.9375 -20.71875 C 30.125 -20.53125 30.28125 -20.304688 30.40625 -20.046875 C 30.539062 -19.796875 30.671875 -19.539062 30.796875 -19.28125 C 30.929688 -18.96875 31.03125 -18.617188 31.09375 -18.234375 C 31.15625 -17.847656 31.21875 -17.429688 31.28125 -16.984375 C 31.28125 -16.722656 31.3125 -16.429688 31.375 -16.109375 C 31.4375 -15.796875 31.5 -15.476562 31.5625 -15.15625 C 31.5625 -14.070312 31.546875 -12.96875 31.515625 -11.84375 C 31.484375 -10.726562 31.46875 -9.628906 31.46875 -8.546875 C 31.46875 -7.453125 31.484375 -6.34375 31.515625 -5.21875 C 31.546875 -4.101562 31.5625 -3.003906 31.5625 -1.921875 C 31.5625 -1.859375 31.53125 -1.757812 31.46875 -1.625 C 31.40625 -1.5 31.375 -1.375 31.375 -1.25 C 31.4375 -0.800781 31.789062 -0.445312 32.4375 -0.1875 C 32.820312 -0.0625 33.109375 0 33.296875 0 L 43.078125 0 C 43.140625 0 43.171875 0 43.171875 0 C 43.171875 0 43.207031 0 43.28125 0 C 43.65625 0 43.972656 -0.09375 44.234375 -0.28125 L 44.515625 -0.578125 C 44.648438 -0.703125 44.78125 -0.957031 44.90625 -1.34375 L 44.90625 -2.109375 C 44.90625 -3.265625 44.90625 -4.429688 44.90625 -5.609375 C 44.90625 -6.796875 44.90625 -8 44.90625 -9.21875 C 44.90625 -10.363281 44.890625 -11.523438 44.859375 -12.703125 C 44.828125 -13.890625 44.8125 -15.09375 44.8125 -16.3125 L 44.8125 -18.046875 C 44.8125 -18.234375 44.84375 -18.4375 44.90625 -18.65625 C 44.96875 -18.882812 44.96875 -19.09375 44.90625 -19.28125 C 44.90625 -19.601562 44.835938 -19.921875 44.703125 -20.234375 C 44.578125 -20.554688 44.484375 -20.847656 44.421875 -21.109375 C 44.359375 -21.492188 44.296875 -21.859375 44.234375 -22.203125 C 44.171875 -22.554688 44.078125 -22.894531 43.953125 -23.21875 C 43.878906 -23.414062 43.796875 -23.59375 43.703125 -23.75 C 43.609375 -23.90625 43.5 -24.082031 43.375 -24.28125 C 43.175781 -24.851562 42.921875 -25.457031 42.609375 -26.09375 C 42.410156 -26.414062 42.179688 -26.734375 41.921875 -27.046875 C 41.671875 -27.367188 41.453125 -27.691406 41.265625 -28.015625 C 41.066406 -28.210938 40.84375 -28.5 40.59375 -28.875 C 40.457031 -29.070312 40.457031 -29.363281 40.59375 -29.75 C 40.59375 -29.9375 40.625 -30.09375 40.6875 -30.21875 C 40.875 -30.476562 41.0625 -30.75 41.25 -31.03125 C 41.445312 -31.320312 41.640625 -31.597656 41.828125 -31.859375 C 41.960938 -32.046875 42.125 -32.21875 42.3125 -32.375 C 42.507812 -32.539062 42.671875 -32.753906 42.796875 -33.015625 C 42.921875 -33.203125 43.015625 -33.40625 43.078125 -33.625 C 43.140625 -33.851562 43.207031 -34.0625 43.28125 -34.25 C 43.40625 -34.445312 43.515625 -34.65625 43.609375 -34.875 C 43.703125 -35.101562 43.816406 -35.3125 43.953125 -35.5 C 44.078125 -35.757812 44.171875 -36.015625 44.234375 -36.265625 C 44.296875 -36.523438 44.359375 -36.78125 44.421875 -37.03125 C 44.554688 -37.351562 44.71875 -37.675781 44.90625 -38 C 45.09375 -38.320312 45.222656 -38.640625 45.296875 -38.953125 C 45.359375 -39.210938 45.390625 -39.453125 45.390625 -39.671875 C 45.390625 -39.898438 45.421875 -40.140625 45.484375 -40.390625 L 45.765625 -42.3125 C 45.765625 -42.4375 45.765625 -42.546875 45.765625 -42.640625 C 45.765625 -42.742188 45.765625 -42.859375 45.765625 -42.984375 C 45.765625 -43.179688 45.78125 -43.375 45.8125 -43.5625 C 45.84375 -43.75 45.859375 -43.941406 45.859375 -44.140625 L 45.859375 -46.0625 C 45.859375 -46.0625 45.875 -46.0625 45.90625 -46.0625 C 45.945312 -46.0625 45.96875 -46.0625 45.96875 -46.0625 C 45.96875 -46.3125 45.914062 -46.53125 45.8125 -46.71875 C 45.71875 -46.914062 45.671875 -47.113281 45.671875 -47.3125 C 45.609375 -47.625 45.59375 -47.921875 45.625 -48.203125 C 45.65625 -48.492188 45.609375 -48.769531 45.484375 -49.03125 C 45.421875 -49.476562 45.257812 -49.988281 45 -50.5625 C 44.9375 -50.882812 44.859375 -51.222656 44.765625 -51.578125 C 44.671875 -51.929688 44.554688 -52.265625 44.421875 -52.578125 C 44.296875 -52.960938 44.164062 -53.347656 44.03125 -53.734375 C 43.90625 -54.117188 43.75 -54.472656 43.5625 -54.796875 L 43.46875 -55.171875 C 43.34375 -55.429688 43.195312 -55.671875 43.03125 -55.890625 C 42.875 -56.117188 42.695312 -56.359375 42.5 -56.609375 C 42.375 -56.867188 42.226562 -57.109375 42.0625 -57.328125 C 41.90625 -57.554688 41.765625 -57.765625 41.640625 -57.953125 C 41.453125 -58.273438 41.226562 -58.53125 40.96875 -58.71875 C 40.71875 -58.914062 40.492188 -59.140625 40.296875 -59.390625 C 40.109375 -59.585938 39.945312 -59.796875 39.8125 -60.015625 C 39.6875 -60.242188 39.53125 -60.453125 39.34375 -60.640625 C 39.144531 -60.765625 38.953125 -60.921875 38.765625 -61.109375 C 38.578125 -61.304688 38.414062 -61.472656 38.28125 -61.609375 C 38.09375 -61.734375 37.898438 -61.890625 37.703125 -62.078125 C 37.515625 -62.273438 37.359375 -62.4375 37.234375 -62.5625 L 35.125 -64 C 35.050781 -64 34.984375 -63.984375 34.921875 -63.953125 C 34.859375 -63.921875 34.796875 -63.9375 34.734375 -64 C 34.609375 -64.0625 34.460938 -64.125 34.296875 -64.1875 C 34.140625 -64.25 33.96875 -64.316406 33.78125 -64.390625 C 33.644531 -64.515625 33.484375 -64.625 33.296875 -64.71875 C 33.109375 -64.8125 32.945312 -64.890625 32.8125 -64.953125 L 31.46875 -65.53125 C 31.082031 -65.664062 30.695312 -65.796875 30.3125 -65.921875 C 29.9375 -66.046875 29.554688 -66.140625 29.171875 -66.203125 C 28.785156 -66.335938 28.398438 -66.46875 28.015625 -66.59375 C 27.628906 -66.71875 27.210938 -66.8125 26.765625 -66.875 C 26.640625 -66.875 26.382812 -66.941406 26 -67.078125 L 25.234375 -67.078125 C 25.046875 -67.078125 24.835938 -67.054688 24.609375 -67.015625 C 24.390625 -66.984375 24.148438 -66.96875 23.890625 -66.96875 C 23.703125 -67.039062 22.921875 -67.054688 21.546875 -67.015625 C 20.171875 -66.984375 18.457031 -66.9375 16.40625 -66.875 C 15.1875 -66.875 13.953125 -66.921875 12.703125 -67.015625 C 11.460938 -67.117188 10.203125 -67.171875 8.921875 -67.171875 C 8.535156 -67.171875 8.148438 -67.15625 7.765625 -67.125 C 7.390625 -67.09375 7.007812 -67.039062 6.625 -66.96875 C 6.425781 -66.90625 6.25 -66.890625 6.09375 -66.921875 C 5.9375 -66.953125 5.789062 -66.90625 5.65625 -66.78125 C 5.269531 -66.53125 5.046875 -66.242188 4.984375 -65.921875 C 4.921875 -65.660156 4.890625 -65.242188 4.890625 -64.671875 C 4.890625 -63.648438 4.875 -62.625 4.84375 -61.59375 C 4.8125 -60.570312 4.796875 -59.550781 4.796875 -58.53125 L 4.796875 -52.296875 C 4.796875 -51.273438 4.828125 -50.25 4.890625 -49.21875 C 4.953125 -48.195312 4.984375 -47.175781 4.984375 -46.15625 C 4.984375 -45.132812 4.953125 -44.109375 4.890625 -43.078125 C 4.828125 -42.054688 4.796875 -41.003906 4.796875 -39.921875 C 4.796875 -38.890625 4.8125 -37.863281 4.84375 -36.84375 C 4.875 -35.820312 4.890625 -34.800781 4.890625 -33.78125 Z M 18.328125 -44.625 L 18.328125 -51.234375 C 18.328125 -51.492188 18.359375 -51.71875 18.421875 -51.90625 C 18.484375 -52.101562 18.515625 -52.328125 18.515625 -52.578125 C 18.640625 -53.023438 18.863281 -53.25 19.1875 -53.25 C 19.3125 -53.25 19.421875 -53.265625 19.515625 -53.296875 C 19.617188 -53.328125 19.703125 -53.34375 19.765625 -53.34375 L 23.515625 -53.34375 C 23.640625 -53.34375 23.796875 -53.359375 23.984375 -53.390625 C 24.179688 -53.429688 24.34375 -53.453125 24.46875 -53.453125 C 24.59375 -53.453125 24.71875 -53.414062 24.84375 -53.34375 C 24.976562 -53.28125 25.078125 -53.21875 25.140625 -53.15625 C 25.328125 -53.15625 25.5 -53.140625 25.65625 -53.109375 C 25.820312 -53.078125 26 -53.03125 26.1875 -52.96875 L 27.53125 -52.390625 C 27.789062 -52.265625 28.015625 -52.117188 28.203125 -51.953125 C 28.398438 -51.796875 28.625 -51.65625 28.875 -51.53125 C 29.070312 -51.394531 29.296875 -51.265625 29.546875 -51.140625 C 29.804688 -51.015625 30 -50.851562 30.125 -50.65625 L 31.09375 -49.515625 C 31.40625 -49.003906 31.691406 -48.394531 31.953125 -47.6875 C 32.078125 -47.363281 32.171875 -47.039062 32.234375 -46.71875 C 32.304688 -46.40625 32.375 -46.085938 32.4375 -45.765625 C 32.4375 -45.515625 32.46875 -45.289062 32.53125 -45.09375 C 32.59375 -44.90625 32.59375 -44.679688 32.53125 -44.421875 C 32.53125 -44.234375 32.5 -44.054688 32.4375 -43.890625 C 32.375 -43.734375 32.304688 -43.5625 32.234375 -43.375 C 32.234375 -43.113281 32.203125 -42.851562 32.140625 -42.59375 C 32.078125 -42.34375 31.984375 -42.085938 31.859375 -41.828125 C 31.796875 -41.578125 31.710938 -41.335938 31.609375 -41.109375 C 31.515625 -40.890625 31.40625 -40.648438 31.28125 -40.390625 C 31.15625 -40.140625 31.007812 -39.867188 30.84375 -39.578125 C 30.6875 -39.296875 30.515625 -39.054688 30.328125 -38.859375 C 30.191406 -38.671875 30.046875 -38.492188 29.890625 -38.328125 C 29.734375 -38.171875 29.585938 -38.03125 29.453125 -37.90625 C 29.265625 -37.707031 29.039062 -37.5625 28.78125 -37.46875 C 28.53125 -37.375 28.273438 -37.265625 28.015625 -37.140625 C 27.566406 -36.878906 27.148438 -36.632812 26.765625 -36.40625 C 26.378906 -36.1875 25.929688 -36.015625 25.421875 -35.890625 C 25.234375 -35.828125 25.023438 -35.8125 24.796875 -35.84375 C 24.578125 -35.875 24.375 -35.890625 24.1875 -35.890625 C 23.800781 -35.828125 23.414062 -35.8125 23.03125 -35.84375 C 22.644531 -35.875 22.257812 -35.859375 21.875 -35.796875 L 19.578125 -35.796875 C 19.441406 -35.796875 19.328125 -35.828125 19.234375 -35.890625 C 19.140625 -35.953125 19.03125 -36.015625 18.90625 -36.078125 C 18.707031 -36.265625 18.578125 -36.425781 18.515625 -36.5625 C 18.515625 -36.625 18.484375 -36.6875 18.421875 -36.75 C 18.359375 -36.8125 18.328125 -36.875 18.328125 -36.9375 L 18.328125 -37.140625 C 18.328125 -37.328125 18.34375 -37.5 18.375 -37.65625 C 18.40625 -37.820312 18.421875 -37.96875 18.421875 -38.09375 C 18.421875 -39.175781 18.40625 -40.257812 18.375 -41.34375 C 18.34375 -42.4375 18.328125 -43.53125 18.328125 -44.625 Z M 18.328125 -44.625 "/></g></g></g><g clip-path="url(#d866238621)"><g clip-path="url(#5523995e00)"><g clip-path="url(#d325b854cd)"><g clip-path="url(#35a7428f4c)"><g clip-path="url(#bc3a027e5f)"><path fill="#000000" d="M 304.003906 261.316406 C 305.855469 259.652344 306.011719 256.746094 304.347656 254.929688 C 302.679688 253.105469 299.835938 252.964844 298.015625 254.617188 C 296.144531 256.3125 295.976562 259.277344 297.640625 261.054688 C 299.308594 262.835938 302.1875 262.953125 304.003906 261.316406 Z M 293.171875 256.082031 C 293.5625 254.511719 294.304688 253.101562 295.191406 251.761719 C 296.328125 250.042969 296.757812 248.246094 296.074219 246.238281 C 295.59375 244.816406 295.144531 243.378906 294.707031 241.941406 L 301.304688 244.386719 C 301.6875 245.734375 302.125 247.234375 302.492188 248.429688 C 302.632812 248.878906 303.050781 249.113281 303.375 249.414062 C 304.605469 250.5625 305.9375 251.605469 307.027344 252.902344 C 309.609375 255.96875 309.609375 259.628906 307.050781 262.925781 C 304.855469 265.757812 300.792969 266.691406 297.464844 265.136719 C 293.890625 263.464844 292.222656 259.941406 293.171875 256.082031 " fill-opacity="1" fill-rule="nonzero"/></g></g></g></g></g><g clip-path="url(#0e4e36151f)"><g clip-path="url(#ab6ff831b9)"><g clip-path="url(#b440a77504)"><g clip-path="url(#468a306ff0)"><g clip-path="url(#70d4b05ea2)"><path fill="#000000" d="M 319.269531 247.375 C 321.0625 245.710938 321.207031 242.832031 319.585938 241.011719 C 317.960938 239.191406 314.992188 239.09375 313.136719 240.800781 C 311.328125 242.464844 311.210938 245.3125 312.878906 247.140625 C 314.535156 248.957031 317.445312 249.0625 319.269531 247.375 Z M 295.007812 236.136719 C 295.007812 236.136719 295.007812 236.136719 295.007812 236.140625 C 295.007812 236.140625 295.003906 236.140625 295.003906 236.140625 C 294.105469 236.960938 294.035156 238.351562 294.847656 239.242188 C 295.660156 240.132812 297.050781 240.1875 297.953125 239.367188 C 297.953125 239.367188 297.953125 239.363281 297.953125 239.363281 C 298.855469 238.539062 298.925781 237.152344 298.113281 236.261719 C 297.296875 235.371094 295.910156 235.3125 295.007812 236.136719 Z M 306.570312 244.703125 C 304.671875 243.925781 300.761719 242.417969 300.773438 242.449219 L 293.496094 239.503906 C 287.160156 236.90625 280.820312 234.320312 274.671875 231.296875 C 272.90625 230.429688 271.117188 229.582031 269.589844 228.316406 C 268.773438 227.636719 268.050781 226.859375 267.613281 225.871094 C 267.226562 224.996094 267.21875 224.140625 267.886719 223.347656 C 268.175781 223.003906 268.445312 222.929688 268.886719 223.117188 C 273.585938 225.097656 278.292969 227.054688 283 229.023438 C 285.699219 230.148438 291.792969 232.632812 291.785156 232.613281 C 291.804688 232.621094 289.882812 226.332031 289.003906 223.539062 C 287.46875 218.675781 285.945312 213.808594 284.394531 208.949219 C 284.25 208.496094 284.347656 208.230469 284.714844 207.972656 C 285.566406 207.382812 286.414062 207.464844 287.253906 207.929688 C 288.199219 208.457031 288.90625 209.246094 289.507812 210.121094 C 290.632812 211.757812 291.316406 213.613281 292.019531 215.449219 C 294.476562 221.84375 296.476562 228.394531 298.496094 234.9375 C 298.613281 235.320312 298.789062 235.546875 299.175781 235.703125 C 301.117188 236.484375 303.058594 237.265625 304.96875 238.117188 C 306.90625 238.976562 308.734375 238.710938 310.550781 237.734375 C 311.964844 236.972656 313.433594 236.355469 315.035156 236.113281 C 318.960938 235.511719 322.320312 237.496094 323.664062 241.203125 C 324.914062 244.660156 323.613281 248.621094 320.597656 250.550781 C 317.082031 252.800781 313.4375 252.46875 310.617188 249.625 C 309.425781 248.421875 308.503906 247 307.472656 245.671875 C 307.203125 245.324219 307.007812 244.882812 306.570312 244.703125 " fill-opacity="1" fill-rule="nonzero"/></g></g></g></g></g></svg>