<svg xmlns="http://www.w3.org/2000/svg" xmlns:xlink="http://www.w3.org/1999/xlink" width="1920" zoomAndPan="magnify" viewBox="0 0 1440 809.999993" height="1080" preserveAspectRatio="xMidYMid meet" version="1.0"><defs><clipPath id="958d51b0ad"><path d="M 965 0 L 1439.992188 0 L 1439.992188 370 L 965 370 Z M 965 0 " clip-rule="nonzero"/></clipPath><clipPath id="44c7cf9a66"><path d="M 856.492188 0 L 1309 0 L 1309 226 L 856.492188 226 Z M 856.492188 0 " clip-rule="nonzero"/></clipPath><clipPath id="979d6e6ba9"><path d="M 1244 0 L 1439.992188 0 L 1439.992188 383.484375 L 1244 383.484375 Z M 1244 0 " clip-rule="nonzero"/></clipPath><clipPath id="78bafb75db"><path d="M 117 0 L 569.195312 0 L 569.195312 226 L 117 226 Z M 117 0 " clip-rule="nonzero"/></clipPath><clipPath id="c01f475575"><path d="M 0 0 L 182 0 L 182 383.484375 L 0 383.484375 Z M 0 0 " clip-rule="nonzero"/></clipPath></defs><g clip-path="url(#958d51b0ad)"><path fill="#818181" d="M 977.515625 -12.515625 L 1439.992188 -12.515625 L 1439.992188 266.035156 L 1336.222656 369.804688 L 965.707031 -0.707031 Z M 977.515625 -12.515625 " fill-opacity="1" fill-rule="nonzero"/></g><g clip-path="url(#44c7cf9a66)"><path fill="#68bbe4" d="M 1296.621094 -12.515625 L 1308.425781 -0.707031 L 1082.433594 225.285156 L 856.4375 -0.707031 L 868.246094 -12.515625 Z M 1296.621094 -12.515625 " fill-opacity="1" fill-rule="nonzero"/></g><g clip-path="url(#979d6e6ba9)"><path fill="#ffd155" d="M 1439.992188 -7.917969 L 1439.992188 383.5625 L 1244.253906 187.824219 Z M 1439.992188 -7.917969 " fill-opacity="1" fill-rule="nonzero"/></g><path fill="#818181" d="M 448.175781 -12.515625 L -14.304688 -12.515625 L -14.304688 266.035156 L 89.46875 369.804688 L 459.980469 -0.707031 Z M 448.175781 -12.515625 " fill-opacity="1" fill-rule="nonzero"/><g clip-path="url(#78bafb75db)"><path fill="#68bbe4" d="M 129.070312 -12.515625 L 117.261719 -0.707031 L 343.257812 225.285156 L 569.25 -0.707031 L 557.445312 -12.515625 Z M 129.070312 -12.515625 " fill-opacity="1" fill-rule="nonzero"/></g><g clip-path="url(#c01f475575)"><path fill="#ffd155" d="M -14.304688 -7.917969 L -14.304688 383.5625 L 181.433594 187.824219 Z M -14.304688 -7.917969 " fill-opacity="1" fill-rule="nonzero"/></g></svg>