<svg version="1.2" xmlns="http://www.w3.org/2000/svg" viewBox="0 0 1070 82" width="1000" height="77">
	<title>Formatador de Documento de Requisitos-svg</title>
	<style>
		.s0 { fill: #000000 } 
	</style>
	<g>
		<g>
			<g>
				<path class="s0" d="m33.4 54.6q-1 0-1.7-0.1-0.7 0-1.9-0.1-0.6-0.1-1-0.3-0.3-0.3-0.3-0.9 0-2.4 0.1-5.4 0-3 0.2-6.3 0.1-3.2 0.3-6.4 0.1-3.2 0.4-5.9 0-0.5 0.4-0.7 0.4-0.3 0.9-0.3 0.4-0.1 1.5-0.1 1.1 0 2.6 0 1.5 0 3.1 0 1.6-0.1 3.1-0.1 1.5 0 2.6 0 2 0 4.4 0 2.3 0 4.5 0.1 2.3 0 3.8 0.1 1.1 0 1.2 1.1 0.2 0.9 0.2 2.2 0.1 1.3 0.2 2.6 0.1 1.3 0.1 2.2 0 0.9-0.7 1.2-0.6 0.3-1.2-0.5-1.5-1.9-4.4-3-3-1-7.9-1-2.3 0-4.2 0.3-1.9 0.3-3 1-1.1 0.7-1.1 1.9v0.3q0 1.1 1.6 1.8 1.6 0.7 4.5 0.7 1.5 0 3.2 0 1.8-0.1 3.5-0.2 1.7-0.1 3-0.3 0.5-0.1 0.9 0.3 0.4 0.3 0.4 0.9v4.2q0 0.6-0.5 0.8-0.4 0.2-1.1-0.2-1-0.4-2.5-0.8-1.6-0.3-3.3-0.4-1.7-0.2-3.2-0.2-3.3 0-4.9 1-1.6 1.1-1.6 2.9 0 1.4 0.3 2.5 0.3 1.1 0.7 2.1 0.4 0.9 0.5 1.6 0.2 0.5-0.1 0.8-0.3 0.3-0.8 0.4-0.6 0.1-1.2 0.1-0.6 0.1-1.6 0.1z"/>
			</g>
		</g>
	</g>
	<g>
		<g>
			<g>
				<path fill-rule="evenodd" class="s0" d="m74.4 54.7q-4.2 0-7.5-1.2-3.3-1.2-5.2-3.5-1.9-2.3-1.9-5.6 0-3.2 1.9-5.6 1.9-2.4 5.2-3.8 3.3-1.3 7.5-1.3 4.2 0 7.4 1.3 3.3 1.4 5.2 3.8 1.9 2.4 1.9 5.6 0 3.3-1.9 5.6-1.9 2.3-5.2 3.5-3.2 1.2-7.4 1.2zm0-5q2.1 0 3.7-0.6 1.7-0.7 2.7-2 1-1.2 1-3 0-1.7-1-2.9-0.9-1.2-2.6-1.9-1.7-0.6-3.8-0.6-2.2 0-3.8 0.6-1.7 0.7-2.7 1.9-0.9 1.2-0.9 2.9 0 1.8 1 3 0.9 1.3 2.6 2 1.7 0.6 3.8 0.6z"/>
			</g>
		</g>
	</g>
	<g>
		<g>
			<g>
				<path class="s0" d="m94.6 54.6q-0.4 0-1.3-0.1-0.8 0-1.5-0.1-0.4-0.1-0.7-0.4-0.3-0.4-0.3-0.9 0-3.1 0-5.5 0-2.3 0.1-4.4 0-2.1 0.1-4 0.1-1.9 0.3-4.1 0.1-1 1.1-1.1 0.5-0.1 1.3-0.1 0.8-0.1 1.4-0.1 0.6 0 1.6 0.1 1 0 1.4 0.1 0.6 0.1 0.9 0.5 0.3 0.4 0.1 0.8-0.2 0.8-0.4 1.4-0.2 0.6-0.2 1.6 0 0.6 0.4 0.7 0.3 0.1 0.6-0.5 1.4-2.5 3.8-3.7 2.3-1.1 5.2-1.1 1.3 0 2.8 0.4 1.4 0.3 2.2 0.8 0.5 0.3 0.8 0.6 0.3 0.4 0.3 1 0 1.2-0.1 2.1-0.1 1-0.1 2.2-0.1 0.8-0.8 1-0.7 0.2-1.3-0.3-1.5-1.2-3.2-1.6-1.6-0.4-3.2-0.4-1.9 0-3.6 1-1.8 0.9-2.9 2.5-1 1.6-1 3.6 0 1.8 0.1 3.6 0.2 1.8 0.3 2.9 0.1 0.6-0.2 0.9-0.4 0.4-0.8 0.4-0.6 0.1-1.5 0.1-0.9 0.1-1.7 0.1z"/>
			</g>
		</g>
	</g>
	<g>
		<g>
			<g>
				<path class="s0" d="m120.1 54.6q-0.3 0-1.3 0-0.8-0.1-1.5-0.2-0.4-0.1-0.7-0.4-0.3-0.4-0.3-0.9 0-3.4 0.1-5.8 0-2.5 0-4.4 0.1-2 0.2-3.8 0.1-1.8 0.3-4 0.2-1 1.1-1.1 0.5-0.1 1.1-0.1 0.7-0.1 1.5-0.1 0.6 0 1.4 0.1 0.8 0 1.2 0.1 0.4 0.1 0.8 0.4 0.3 0.3 0.2 0.7-0.1 0.8-0.2 1.3-0.1 0.5-0.1 0.9 0 0.7 0.2 0.9 0.3 0.1 0.7-0.5 1.2-1.8 3.1-2.9 2-1.1 4.2-1.1 2.4 0 4.4 0.8 2 0.9 3.2 2.7 0.5 0.8 0.9 0.8 0.5 0 1-0.8 1.2-1.6 3.2-2.6 2-0.9 4.7-0.9 2.6 0 4.7 1.1 2.1 1.2 3.5 3.2 1.4 2.1 1.6 4.8 0.1 1.1 0.2 2.8 0.1 1.7 0.1 3.7 0.1 2 0.1 3.8 0 0.6-0.3 0.9-0.3 0.3-0.8 0.4-0.6 0.1-1.2 0.1-0.7 0.1-1.1 0.1-0.5 0-1.5 0-1-0.1-1.8-0.2-0.4-0.1-0.8-0.4-0.3-0.4-0.3-0.9 0.1-1.3 0.2-3 0-1.7 0-3.2 0.1-1.6 0-2.4 0-2.2-1.5-3.6-1.6-1.4-3.8-1.4-1.3 0-2.5 0.7-1.2 0.7-1.9 1.9-0.7 1.2-0.7 2.8 0 1.1 0 2.6 0.1 1.4 0.1 2.9 0.1 1.4 0.2 2.7 0 0.6-0.3 0.9-0.3 0.3-0.8 0.4-0.6 0.1-1.4 0.1-0.7 0.1-1.1 0.1-0.4 0-1.5 0-1-0.1-1.7-0.2-0.5-0.1-0.8-0.4-0.4-0.4-0.3-0.9 0-1.3 0.1-3 0-1.7 0.1-3.2 0-1.5-0.1-2.4 0-2.2-1.5-3.6-1.5-1.4-3.8-1.4-1.3 0-2.5 0.7-1.1 0.7-1.8 2-0.7 1.2-0.8 2.9-0.2 1.5-0.2 2.8 0 1.3 0 2.5 0.1 1.2 0.2 2.7 0 0.5-0.3 0.9-0.3 0.3-0.7 0.4-0.7 0.1-1.5 0.1-0.9 0.1-1.2 0.1z"/>
			</g>
		</g>
	</g>
	<g>
		<g>
			<g>
				<path fill-rule="evenodd" class="s0" d="m170.4 54.7q-4.1 0-6.5-1.5-2.4-1.4-2.4-4.4 0-3 2.9-4.5 2.8-1.6 7.7-2 3.2-0.3 4.9-0.5 1.8-0.2 2.5-0.6 0.7-0.4 0.7-1 0-0.6-1.1-1.1-1.2-0.6-4-0.6-2.5 0-5.1 0.7-2.7 0.6-4.8 2-0.5 0.5-1.1 0.2-0.6-0.4-0.5-1.2 0-0.4 0.1-1.2 0.1-0.8 0.3-1.6 0.1-0.8 0.1-1.2 0.1-0.5 0.3-0.8 0.2-0.4 0.6-0.5 2.2-0.6 4.8-0.9 2.5-0.3 5-0.3 5.9 0 9.2 2 3.4 2.1 3.9 6.6 0.1 1.3 0.3 3.2 0.1 1.9 0.2 3.9 0.2 2 0.2 3.5 0 0.6-0.3 1-0.4 0.4-0.9 0.4-0.6 0.2-1.3 0.2-0.8 0.1-1.6 0.1-0.6 0-1.5-0.1-1 0-1.7-0.2-0.5 0-0.9-0.5-0.4-0.4-0.2-1 0.1-0.3 0.2-0.9 0-0.6 0.1-1 0.1-0.7-0.3-0.8-0.4-0.2-0.7 0.4-0.8 1.1-2.2 2.1-1.4 1-3.2 1.5-1.8 0.6-3.7 0.6zm3.4-4.9q1.4 0 2.9-0.5 1.4-0.5 2.4-1.4 1-0.8 1-1.8 0-0.7-0.8-1.2-0.8-0.5-2.7-0.5-1.9 0-3.6 0.5-1.8 0.4-2.8 1.2-1 0.7-1 1.7 0 1 1 1.5 1.1 0.5 3.6 0.5z"/>
			</g>
		</g>
	</g>
	<g>
		<g>
			<g>
				<path class="s0" d="m205.3 54.7q-2.5 0-4.6-0.8-2-0.8-3.3-2.4-1.3-1.5-1.3-3.9 0-1.1 0-2.5 0.1-1.5 0.2-2.9 0-1.5 0.2-2.7 0.1-0.3-0.2-0.6-0.3-0.2-0.6-0.2-1.1 0-2.1 0-1.1 0-2.2 0-0.4 0-0.8-0.3-0.3-0.4-0.3-0.9v-2.3q0-0.5 0.3-0.8 0.4-0.4 0.8-0.4h4.3q0.4 0 0.6-0.2 0.2-0.3 0.2-0.6 0-0.7 0.1-1.3 0-0.6 0.2-1.4 0.1-1.1 1.1-1.2 0.6-0.1 1.3-0.2 0.7 0 1.3 0 0.6 0 1.3 0 0.6 0.1 1.3 0.2 0.4 0 0.8 0.3 0.4 0.3 0.3 0.9 0 0.8-0.1 1.3-0.1 0.6-0.1 1.4 0 0.4 0.2 0.6 0.3 0.3 0.6 0.3 1.2 0 2.6 0 1.4-0.1 2.9-0.1 1.5 0 2.6 0 0.5 0 0.8 0.3 0.4 0.4 0.4 0.9v2.6q0 0.5-0.4 0.9-0.3 0.4-0.8 0.3-0.6 0-1.6-0.1-0.9 0-2-0.1-1.2 0-2.1 0-1-0.1-1.6-0.1-0.8 0-1.4 0.5-0.6 0.5-0.7 1.3-0.2 1.2-0.2 2.8 0 1.6 0 2.7 0.2 1.8 1.2 2.5 1.1 0.8 2.6 0.8 0.5 0 1.3-0.1 0.8-0.2 1.7-0.4 1-0.1 1.7-0.4 0.8-0.2 1.2-0.4 0.6-0.4 1.1 0 0.6 0.3 0.6 1.1v3.3q0 0.8-0.8 1.2-0.7 0.3-1.8 0.5-1.2 0.2-2.5 0.3-1.2 0.2-2.4 0.2-1.1 0.1-1.9 0.1z"/>
			</g>
		</g>
	</g>
	<g>
		<g>
			<g>
				<path fill-rule="evenodd" class="s0" d="m224.9 54.7q-4.2 0-6.5-1.5-2.4-1.4-2.4-4.4 0-3 2.8-4.5 2.8-1.6 7.8-2 3.1-0.3 4.9-0.5 1.7-0.2 2.4-0.6 0.7-0.4 0.7-1 0-0.6-1.1-1.1-1.1-0.6-4-0.6-2.5 0-5.1 0.7-2.7 0.6-4.7 2-0.5 0.5-1.1 0.2-0.6-0.4-0.6-1.2 0-0.4 0.2-1.2 0.1-0.8 0.2-1.6 0.1-0.8 0.2-1.2 0-0.5 0.2-0.8 0.3-0.4 0.7-0.5 2.2-0.6 4.7-0.9 2.6-0.3 5.1-0.3 5.9 0 9.2 2 3.3 2.1 3.8 6.6 0.2 1.3 0.3 3.2 0.1 1.9 0.3 3.9 0.1 2 0.1 3.5 0.1 0.6-0.3 1-0.3 0.4-0.9 0.4-0.5 0.2-1.3 0.2-0.8 0.1-1.5 0.1-0.6 0-1.6-0.1-1 0-1.6-0.2-0.6 0-1-0.5-0.3-0.4-0.2-1 0.1-0.3 0.2-0.9 0.1-0.6 0.1-1 0.1-0.7-0.3-0.8-0.4-0.2-0.7 0.4-0.8 1.1-2.2 2.1-1.4 1-3.2 1.5-1.7 0.6-3.6 0.6zm3.3-4.9q1.4 0 2.9-0.5 1.5-0.5 2.4-1.4 1-0.8 1-1.8 0-0.7-0.7-1.2-0.8-0.5-2.7-0.5-2 0-3.7 0.5-1.7 0.4-2.7 1.2-1.1 0.7-1.1 1.7 0 1 1.1 1.5 1 0.5 3.5 0.5z"/>
			</g>
		</g>
	</g>
	<g>
		<g>
			<g>
				<path fill-rule="evenodd" class="s0" d="m256.7 54.7q-3.4 0-6-1.2-2.7-1.2-4.2-3.5-1.6-2.3-1.6-5.7 0-3.2 1.6-5.5 1.5-2.4 4.1-3.7 2.7-1.4 6.1-1.4 2.8 0 5.2 1 2.4 1 3.8 2.8 0.4 0.4 0.7 0.3 0.3-0.1 0.2-0.7 0-2.2-0.4-4.4-0.4-2.3-0.7-3.9-0.1-0.5 0.3-0.9 0.3-0.4 0.7-0.5 0.5-0.1 1.3-0.1 0.8 0 1.7 0 0.9 0 1.7 0 0.9 0 1.4 0.1 0.9 0.2 1 1.2 0.2 2 0.4 4.8 0.1 2.9 0.2 6.1 0.1 3.3 0.2 6.8 0 3.4 0 6.8 0 1.2-1 1.3-0.6 0.1-1.5 0.1-0.9 0.1-1.4 0.1-0.6 0-1.4-0.1-0.9 0-1.5-0.1-0.4 0-0.8-0.4-0.3-0.4-0.2-0.9 0-0.4 0.1-0.8 0.1-0.4 0.1-0.9 0.1-0.6-0.2-0.7-0.3-0.1-0.7 0.4-1.5 1.7-3.9 2.7-2.4 0.9-5.3 0.9zm2.7-5q2.1 0 3.7-0.7 1.7-0.7 2.7-1.9 1-1.3 1-3.1 0-1.6-0.9-2.8-1-1.2-2.7-1.9-1.6-0.6-3.8-0.6-2.1 0-3.8 0.6-1.6 0.7-2.6 1.9-0.9 1.2-0.9 2.9 0 1.8 0.9 3 1 1.3 2.7 1.9 1.7 0.7 3.7 0.7z"/>
			</g>
		</g>
	</g>
	<g>
		<g>
			<g>
				<path fill-rule="evenodd" class="s0" d="m291 54.7q-4.1 0-7.4-1.2-3.3-1.2-5.2-3.5-2-2.3-2-5.6 0-3.2 1.9-5.6 1.9-2.4 5.2-3.8 3.3-1.3 7.5-1.3 4.2 0 7.5 1.3 3.2 1.4 5.1 3.8 1.9 2.4 1.9 5.6 0 3.3-1.9 5.6-1.9 2.3-5.2 3.5-3.2 1.2-7.4 1.2zm0-5q2.1 0 3.8-0.6 1.6-0.7 2.6-2 1-1.2 1-3 0-1.7-0.9-2.9-1-1.2-2.7-1.9-1.7-0.6-3.8-0.6-2.1 0-3.8 0.6-1.7 0.7-2.6 1.9-1 1.2-1 2.9 0 1.8 1 3 1 1.3 2.7 2 1.6 0.6 3.7 0.6z"/>
			</g>
		</g>
	</g>
	<g>
		<g>
			<g>
				<path class="s0" d="m311.2 54.6q-0.4 0-1.2-0.1-0.9 0-1.5-0.1-0.5-0.1-0.8-0.4-0.3-0.4-0.3-0.9 0-3.1 0.1-5.5 0-2.3 0-4.4 0-2.1 0.1-4 0.1-1.9 0.4-4.1 0.1-1 1-1.1 0.5-0.1 1.3-0.1 0.8-0.1 1.5-0.1 0.6 0 1.5 0.1 1 0 1.5 0.1 0.5 0.1 0.8 0.5 0.4 0.4 0.2 0.8-0.3 0.8-0.5 1.4-0.1 0.6-0.1 1.6 0 0.6 0.3 0.7 0.4 0.1 0.7-0.5 1.4-2.5 3.7-3.7 2.3-1.1 5.3-1.1 1.2 0 2.7 0.4 1.4 0.3 2.3 0.8 0.5 0.3 0.7 0.6 0.3 0.4 0.3 1 0 1.2-0.1 2.1 0 1-0.1 2.2 0 0.8-0.8 1-0.7 0.2-1.2-0.3-1.6-1.2-3.2-1.6-1.6-0.4-3.3-0.4-1.9 0-3.6 1-1.7 0.9-2.8 2.5-1.1 1.6-1.1 3.6 0 1.8 0.2 3.6 0.1 1.8 0.3 2.9 0.1 0.6-0.3 0.9-0.4 0.4-0.8 0.4-0.6 0.1-1.5 0.1-0.9 0.1-1.7 0.1z"/>
			</g>
		</g>
	</g>
	<g>
		<g>
			<g>
			</g>
		</g>
	</g>
	<g>
		<g>
			<g>
				<path fill-rule="evenodd" class="s0" d="m357.3 54.7q-3.4 0-6-1.2-2.7-1.2-4.2-3.5-1.5-2.3-1.5-5.7 0-3.2 1.5-5.5 1.5-2.4 4.1-3.7 2.7-1.4 6.1-1.4 2.8 0 5.2 1 2.4 1 3.8 2.8 0.4 0.4 0.7 0.3 0.3-0.1 0.3-0.7-0.1-2.2-0.5-4.4-0.4-2.3-0.7-3.9-0.1-0.5 0.3-0.9 0.3-0.4 0.8-0.5 0.4-0.1 1.2-0.1 0.8 0 1.7 0 0.9 0 1.7 0 0.9 0 1.4 0.1 0.9 0.2 1 1.2 0.2 2 0.4 4.8 0.1 2.9 0.2 6.1 0.1 3.3 0.2 6.8 0 3.4 0 6.8 0 1.2-1 1.3-0.6 0.1-1.5 0.1-0.9 0.1-1.3 0.1-0.7 0-1.5-0.1-0.9 0-1.5-0.1-0.4 0-0.8-0.4-0.3-0.4-0.2-0.9 0.1-0.4 0.1-0.8 0.1-0.4 0.1-0.9 0.1-0.6-0.2-0.7-0.3-0.1-0.6 0.4-1.6 1.7-4 2.7-2.4 0.9-5.3 0.9zm2.7-5q2.1 0 3.8-0.7 1.6-0.7 2.6-1.9 1-1.3 1-3.1 0-1.6-0.9-2.8-1-1.2-2.7-1.9-1.6-0.6-3.8-0.6-2.1 0-3.7 0.6-1.7 0.7-2.7 1.9-0.9 1.2-0.9 2.9 0 1.8 1 3 0.9 1.3 2.6 1.9 1.7 0.7 3.7 0.7z"/>
			</g>
		</g>
	</g>
	<g>
		<g>
			<g>
				<path fill-rule="evenodd" class="s0" d="m392 54.7q-4.6 0-7.9-1.2-3.4-1.3-5.2-3.7-1.8-2.4-1.8-5.7 0-3.2 1.7-5.6 1.8-2.3 4.9-3.6 3.2-1.2 7.2-1.2 3.6 0 6.4 0.8 2.8 0.9 4.4 2.4 1.6 1.5 1.6 3.7 0 2-1.4 3.3-1.4 1.4-3.7 2.1-2.3 0.7-4.9 0.7-2.2 0-4.3-0.3-2-0.3-3.6-1-0.8-0.3-1.1 0.1-0.4 0.5 0.2 1.1 0.7 0.8 2.1 1.5 1.4 0.7 3.1 1.1 1.8 0.5 3.5 0.5 1.5 0 3.1-0.4 1.6-0.3 3.1-1 1.5-0.6 2.6-1.4 0.6-0.5 1.1-0.2 0.6 0.2 0.6 1.1 0.1 0.9 0.1 1.8 0.1 1 0.1 1.9 0 0.3-0.2 0.7-0.2 0.4-0.5 0.5-1.3 0.6-3.2 1.1-1.9 0.5-4 0.7-2.1 0.2-4 0.2zm-0.5-11.2q2.3 0 3.6-0.7 1.3-0.6 1.3-1.8 0-1.1-1.3-1.8-1.2-0.8-4.1-0.8-1.6 0-3.2 0.3-1.5 0.4-2.6 1.1-1 0.7-1 1.7 0 0.5 0.8 0.9 0.7 0.4 1.9 0.6 1.1 0.2 2.3 0.3 1.3 0.2 2.3 0.2z"/>
			</g>
		</g>
	</g>
	<g>
		<g>
			<g>
			</g>
		</g>
	</g>
	<g>
		<g>
			<g>
				<path fill-rule="evenodd" class="s0" d="m435.6 54.7q-1.4 0-3.3 0-1.8 0-3.8-0.1-1.9 0-3.7-0.1-1.8 0-3.1-0.1-1.3 0-1.9 0-0.5 0-0.8-0.4-0.3-0.3-0.3-0.8 0-3.1 0.1-6.4 0.1-3.3 0.2-6.5 0.2-3.2 0.3-6 0.2-2.9 0.3-5 0-0.4 0.4-0.7 0.3-0.4 0.7-0.4 1.1-0.1 2.7-0.1 1.6-0.1 3.3-0.1 1.8 0 3.5 0 1.6 0 2.9 0 4.3 0 7.8 1 3.6 1 6.1 2.9 2.7 1.9 4.1 4.6 1.4 2.7 1.4 6.2 0 3.7-2 6.4-2 2.7-5.8 4.2-3.7 1.4-9.1 1.4zm-5.9-5.9q1.2 0.1 2.6 0.1 1.3 0 2.6 0 2.9 0 5.1-0.7 2.3-0.8 3.6-2.3 1.3-1.4 1.3-3.6 0-2.5-1.4-4.5-1.4-2-4-3.1-2.5-1.2-6-1.2-1.5 0-2.4 0-0.8 0-1.9 0.1-1.3 0.1-2 1-0.7 0.8-0.7 2.1-0.2 2.2-0.1 4.3 0 2 0.1 4.2 0 1.7 0.7 2.6 0.8 0.9 2.5 1z"/>
			</g>
		</g>
	</g>
	<g>
		<g>
			<g>
				<path fill-rule="evenodd" class="s0" d="m468.6 54.7q-4.2 0-7.5-1.2-3.2-1.2-5.2-3.5-1.9-2.3-1.9-5.6 0-3.2 1.9-5.6 1.9-2.4 5.2-3.8 3.3-1.3 7.5-1.3 4.2 0 7.4 1.3 3.3 1.4 5.2 3.8 1.9 2.4 1.9 5.6 0 3.3-1.9 5.6-1.9 2.3-5.2 3.5-3.2 1.2-7.4 1.2zm0-5q2.1 0 3.7-0.6 1.7-0.7 2.7-2 1-1.2 1-3 0-1.7-1-2.9-0.9-1.2-2.6-1.9-1.7-0.6-3.8-0.6-2.2 0-3.8 0.6-1.7 0.7-2.6 1.9-1 1.2-1 2.9 0 1.8 1 3 1 1.3 2.6 2 1.7 0.6 3.8 0.6z"/>
			</g>
		</g>
	</g>
	<g>
		<g>
			<g>
				<path class="s0" d="m499.2 54.7q-4.3 0-7.6-1.2-3.3-1.3-5.1-3.7-1.8-2.3-1.8-5.6 0-3.3 1.8-5.6 1.9-2.4 5.2-3.6 3.2-1.3 7.5-1.3 1.6 0 3.4 0.2 1.8 0.1 3.4 0.4 1.5 0.3 2.5 0.7 0.5 0.1 0.8 0.5 0.4 0.4 0.3 0.9-0.1 0.8-0.1 1.7-0.1 1-0.2 1.8-0.2 1-0.7 1.3-0.5 0.2-1.2-0.3-0.9-0.6-2.2-1.1-1.3-0.4-2.6-0.6-1.4-0.3-2.5-0.3-3.6 0-5.7 1.4-2.1 1.4-2.1 3.9 0 2.5 2.2 3.9 2.3 1.3 6 1.3 1.9 0 4-0.6 2.1-0.7 3.6-1.9 0.6-0.5 1.1-0.2 0.7 0.3 0.7 1.1 0.1 1.1 0.2 2.1 0.1 1 0.2 2.2 0.1 0.5-0.2 0.9-0.2 0.4-0.6 0.5-1.4 0.3-3.2 0.6-1.8 0.3-3.7 0.5-1.8 0.1-3.4 0.1z"/>
			</g>
		</g>
	</g>
	<g>
		<g>
			<g>
				<path class="s0" d="m524.1 54.8q-3.9 0-6.5-1.3-2.6-1.3-3.9-3.4-1.3-2.2-1.3-4.9 0-1.7 0.2-4.1 0.1-2.3 0.4-5.8 0.1-0.5 0.4-0.9 0.3-0.3 0.8-0.4 0.7-0.1 1.4-0.1 0.7-0.1 1.1-0.1 0.5 0 1.4 0.1 1 0 1.8 0.1 0.4 0.1 0.8 0.4 0.3 0.3 0.2 0.8-0.2 1.3-0.5 2.7-0.2 1.5-0.4 2.9-0.1 1.4-0.1 2.4 0 2.8 1.7 4.6 1.7 1.8 5.5 1.8 2 0 3.4-0.9 1.5-0.9 2.3-2.4 0.9-1.6 0.9-3.5 0-1.6-0.2-3.5-0.3-2-0.7-4-0.2-0.6 0.1-0.9 0.3-0.3 0.8-0.4 0.6-0.1 1.4-0.1 0.9-0.1 1.5-0.1 0.8 0 1.5 0.1 0.8 0 1.4 0.1 0.5 0.1 0.8 0.4 0.3 0.4 0.4 0.9 0.2 3.1 0.4 5.5 0.2 2.4 0.2 4.4 0.1 2 0.1 4 0 1.9 0 4 0 1-0.9 1.2-0.5 0.1-1.2 0.2-0.7 0-1.3 0-0.6 0-1.4-0.1-0.7 0-1.4-0.1-0.5 0-0.8-0.4-0.3-0.3-0.2-0.8 0.1-0.5 0.1-1 0-0.5 0-0.9 0-1.3-0.9-0.3-1.9 2-4.2 2.9-2.2 0.9-5.1 0.9z"/>
			</g>
		</g>
	</g>
	<g>
		<g>
			<g>
				<path class="s0" d="m547.4 54.6q-0.4 0-1.3 0-0.8-0.1-1.5-0.2-0.4-0.1-0.7-0.4-0.3-0.4-0.3-0.9 0-3.4 0.1-5.8 0-2.5 0-4.4 0.1-2 0.2-3.8 0.1-1.8 0.3-4 0.2-1 1.1-1.1 0.5-0.1 1.1-0.1 0.6-0.1 1.5-0.1 0.6 0 1.4 0.1 0.8 0 1.2 0.1 0.4 0.1 0.8 0.4 0.3 0.3 0.2 0.7-0.1 0.8-0.2 1.3-0.1 0.5-0.1 0.9 0 0.7 0.2 0.9 0.3 0.1 0.7-0.5 1.2-1.8 3.1-2.9 2-1.1 4.2-1.1 2.4 0 4.4 0.8 2 0.9 3.2 2.7 0.5 0.8 0.9 0.8 0.4 0 1-0.8 1.2-1.6 3.2-2.6 2-0.9 4.7-0.9 2.6 0 4.7 1.1 2.1 1.2 3.5 3.2 1.4 2.1 1.6 4.8 0.1 1.1 0.2 2.8 0.1 1.7 0.1 3.7 0.1 2 0.1 3.8 0 0.6-0.3 0.9-0.3 0.3-0.8 0.4-0.6 0.1-1.2 0.1-0.7 0.1-1.1 0.1-0.5 0-1.5 0-1-0.1-1.8-0.2-0.4-0.1-0.8-0.4-0.3-0.4-0.3-0.9 0.1-1.3 0.2-3 0-1.7 0-3.2 0.1-1.6 0-2.4 0-2.2-1.6-3.6-1.5-1.4-3.7-1.4-1.3 0-2.5 0.7-1.2 0.7-1.9 1.9-0.7 1.2-0.7 2.8 0 1.1 0 2.6 0 1.4 0.1 2.9 0.1 1.4 0.2 2.7 0 0.6-0.3 0.9-0.3 0.3-0.8 0.4-0.7 0.1-1.4 0.1-0.7 0.1-1.1 0.1-0.4 0-1.5 0-1-0.1-1.7-0.2-0.5-0.1-0.8-0.4-0.4-0.4-0.4-0.9 0.1-1.3 0.2-3 0-1.7 0-3.2 0.1-1.5 0-2.4 0-2.2-1.5-3.6-1.5-1.4-3.8-1.4-1.3 0-2.5 0.7-1.1 0.7-1.8 2-0.7 1.2-0.9 2.9-0.1 1.5-0.1 2.8 0 1.3 0 2.5 0.1 1.2 0.1 2.7 0.1 0.5-0.2 0.9-0.3 0.3-0.8 0.4-0.6 0.1-1.4 0.1-0.9 0.1-1.2 0.1z"/>
			</g>
		</g>
	</g>
	<g>
		<g>
			<g>
				<path fill-rule="evenodd" class="s0" d="m603.8 54.7q-4.6 0-7.9-1.2-3.4-1.3-5.2-3.7-1.9-2.4-1.9-5.7 0-3.2 1.8-5.6 1.8-2.3 4.9-3.6 3.1-1.2 7.2-1.2 3.6 0 6.4 0.8 2.8 0.9 4.4 2.4 1.5 1.5 1.5 3.7 0 2-1.4 3.3-1.4 1.4-3.6 2.1-2.3 0.7-4.9 0.7-2.2 0-4.3-0.3-2-0.3-3.6-1-0.8-0.3-1.2 0.1-0.3 0.5 0.3 1.1 0.7 0.8 2.1 1.5 1.4 0.7 3.1 1.1 1.7 0.5 3.5 0.5 1.5 0 3.1-0.4 1.6-0.3 3.1-1 1.5-0.6 2.5-1.4 0.7-0.5 1.2-0.2 0.5 0.2 0.6 1.1 0.1 0.9 0.1 1.8 0 1 0 1.9 0 0.3-0.1 0.7-0.2 0.4-0.5 0.5-1.4 0.6-3.3 1.1-1.9 0.5-3.9 0.7-2.1 0.2-4 0.2zm-0.5-11.2q2.3 0 3.6-0.7 1.2-0.6 1.3-1.8-0.1-1.1-1.3-1.8-1.2-0.8-4.1-0.8-1.6 0-3.2 0.3-1.6 0.4-2.6 1.1-1 0.7-1 1.7 0 0.5 0.8 0.9 0.7 0.4 1.8 0.6 1.2 0.2 2.4 0.3 1.3 0.2 2.3 0.2z"/>
			</g>
		</g>
	</g>
	<g>
		<g>
			<g>
				<path class="s0" d="m621.5 54.6q-0.7 0-1.5-0.1-0.8 0-1.4-0.1-0.5-0.1-0.8-0.4-0.3-0.4-0.3-0.9 0-3.1 0.1-5.5 0-2.5 0.1-4.5 0.1-2 0.3-3.9 0.2-1.9 0.4-4 0.1-1 1-1.2 0.5-0.1 1.2-0.1 0.7-0.1 1.4-0.1 0.6 0 1.3 0.1 0.8 0 1.5 0.1 0.4 0.1 0.7 0.4 0.3 0.3 0.2 0.8-0.4 1.2-0.4 1.9-0.1 0.7 0.2 0.8 0.2 0.1 0.7-0.5 2-2 4.1-2.8 2.1-0.9 4.9-0.9 3.3 0 5.8 1.2 2.6 1.3 4.1 3.4 1.5 2.2 1.7 4.9 0.2 1.7 0.3 4.1 0.1 2.3 0.1 5.8 0 0.6-0.3 0.9-0.3 0.3-0.8 0.4-0.6 0.1-1.4 0.1-0.8 0.1-1.2 0.1-0.5 0-1.4-0.1-0.9 0-1.7-0.1-0.4-0.1-0.8-0.4-0.3-0.4-0.3-0.9 0.2-1.2 0.2-2.6 0.1-1.5 0.1-2.8 0.1-1.3 0.1-2.2-0.1-1.9-1.1-3.4-0.9-1.5-2.5-2.3-1.7-0.9-3.9-0.9-2.1 0-3.7 0.9-1.7 0.8-2.6 2.4-1 1.5-1 3.5 0 1.5 0.1 3.4 0.1 2 0.4 4 0.1 0.5-0.2 0.9-0.4 0.3-0.8 0.4-0.6 0.1-1.5 0.1-0.8 0.1-1.4 0.1z"/>
			</g>
		</g>
	</g>
	<g>
		<g>
			<g>
				<path class="s0" d="m663.8 54.7q-2.5 0-4.6-0.8-2-0.8-3.3-2.4-1.3-1.5-1.3-3.9 0-1.1 0-2.5 0.1-1.5 0.2-2.9 0-1.5 0.2-2.7 0.1-0.3-0.2-0.6-0.3-0.2-0.6-0.2-1.1 0-2.1 0-1.1 0-2.2 0-0.4 0-0.8-0.3-0.3-0.4-0.3-0.9v-2.3q0-0.5 0.3-0.8 0.4-0.4 0.8-0.4h4.3q0.4 0 0.6-0.2 0.2-0.3 0.2-0.6 0-0.7 0.1-1.3 0-0.6 0.2-1.4 0.1-1.1 1.1-1.2 0.6-0.1 1.3-0.2 0.7 0 1.3 0 0.6 0 1.3 0 0.6 0.1 1.3 0.2 0.4 0 0.8 0.3 0.4 0.3 0.3 0.9 0 0.8-0.1 1.3-0.1 0.6-0.1 1.4 0 0.4 0.2 0.6 0.3 0.3 0.6 0.3 1.2 0 2.6 0 1.4-0.1 2.9-0.1 1.5 0 2.6 0 0.5 0 0.8 0.3 0.4 0.4 0.4 0.9v2.6q0 0.5-0.4 0.9-0.3 0.4-0.8 0.3-0.6 0-1.6-0.1-0.9 0-2-0.1-1.2 0-2.1 0-1-0.1-1.6-0.1-0.8 0-1.4 0.5-0.6 0.5-0.7 1.3-0.2 1.2-0.2 2.8 0 1.6 0 2.7 0.2 1.8 1.2 2.5 1.1 0.8 2.6 0.8 0.5 0 1.3-0.1 0.8-0.2 1.7-0.4 0.9-0.1 1.7-0.4 0.8-0.2 1.2-0.4 0.6-0.4 1.1 0 0.6 0.3 0.6 1.1v3.3q0 0.8-0.8 1.2-0.7 0.3-1.8 0.5-1.2 0.2-2.5 0.3-1.2 0.2-2.4 0.2-1.1 0.1-1.9 0.1z"/>
			</g>
		</g>
	</g>
	<g>
		<g>
			<g>
				<path fill-rule="evenodd" class="s0" d="m689 54.7q-4.1 0-7.4-1.2-3.3-1.2-5.2-3.5-1.9-2.3-1.9-5.6 0-3.2 1.9-5.6 1.9-2.4 5.2-3.8 3.3-1.3 7.4-1.3 4.2 0 7.5 1.3 3.3 1.4 5.2 3.8 1.8 2.4 1.8 5.6 0 3.3-1.9 5.6-1.9 2.3-5.1 3.5-3.3 1.2-7.5 1.2zm0-5q2.1 0 3.8-0.6 1.7-0.7 2.7-2 1-1.2 1-3 0-1.7-1-2.9-1-1.2-2.6-1.9-1.7-0.6-3.9-0.6-2.1 0-3.8 0.6-1.6 0.7-2.6 1.9-1 1.2-1 2.9 0 1.8 1 3 1 1.3 2.7 2 1.7 0.6 3.7 0.6z"/>
			</g>
		</g>
	</g>
	<g>
		<g>
			<g>
			</g>
		</g>
	</g>
	<g>
		<g>
			<g>
				<path fill-rule="evenodd" class="s0" d="m729.7 54.7q-3.4 0-6-1.2-2.7-1.2-4.2-3.5-1.5-2.3-1.5-5.7 0-3.2 1.5-5.5 1.5-2.4 4.1-3.7 2.7-1.4 6.1-1.4 2.9 0 5.2 1 2.4 1 3.8 2.8 0.4 0.4 0.7 0.3 0.3-0.1 0.3-0.7-0.1-2.2-0.5-4.4-0.3-2.3-0.7-3.9-0.1-0.5 0.3-0.9 0.3-0.4 0.8-0.5 0.4-0.1 1.2-0.1 0.8 0 1.7 0 0.9 0 1.7 0 0.9 0 1.4 0.1 0.9 0.2 1 1.2 0.3 2 0.4 4.8 0.1 2.9 0.2 6.1 0.1 3.3 0.2 6.8 0 3.4 0 6.8 0 1.2-1 1.3-0.6 0.1-1.5 0.1-0.8 0.1-1.3 0.1-0.7 0-1.5-0.1-0.9 0-1.5-0.1-0.4 0-0.8-0.4-0.3-0.4-0.2-0.9 0.1-0.4 0.1-0.8 0.1-0.4 0.2-0.9 0-0.6-0.3-0.7-0.3-0.1-0.6 0.4-1.6 1.7-4 2.7-2.4 0.9-5.3 0.9zm2.7-5q2.1 0 3.8-0.7 1.6-0.7 2.6-1.9 1-1.3 1-3.1 0-1.6-0.9-2.8-1-1.2-2.7-1.9-1.6-0.6-3.8-0.6-2 0-3.7 0.6-1.7 0.7-2.7 1.9-0.9 1.2-0.9 2.9 0 1.8 1 3 1 1.3 2.6 1.9 1.7 0.7 3.7 0.7z"/>
			</g>
		</g>
	</g>
	<g>
		<g>
			<g>
				<path fill-rule="evenodd" class="s0" d="m764.4 54.7q-4.6 0-7.9-1.2-3.4-1.3-5.2-3.7-1.8-2.4-1.8-5.7 0-3.2 1.7-5.6 1.8-2.3 5-3.6 3.1-1.2 7.1-1.2 3.6 0 6.4 0.8 2.8 0.9 4.4 2.4 1.6 1.5 1.6 3.7 0 2-1.4 3.3-1.4 1.4-3.7 2.1-2.3 0.7-4.9 0.7-2.2 0-4.2-0.3-2.1-0.3-3.7-1-0.8-0.3-1.1 0.1-0.3 0.5 0.3 1.1 0.6 0.8 2 1.5 1.4 0.7 3.1 1.1 1.8 0.5 3.5 0.5 1.5 0 3.1-0.4 1.6-0.3 3.1-1 1.5-0.6 2.6-1.4 0.6-0.5 1.1-0.2 0.6 0.2 0.6 1.1 0.1 0.9 0.1 1.8 0.1 1 0.1 1.9 0 0.3-0.2 0.7-0.2 0.4-0.5 0.5-1.3 0.6-3.2 1.1-1.9 0.5-4 0.7-2.1 0.2-4 0.2zm-0.4-11.2q2.2 0 3.5-0.7 1.3-0.6 1.3-1.8 0-1.1-1.3-1.8-1.2-0.8-4.1-0.8-1.6 0-3.2 0.3-1.5 0.4-2.5 1.1-1 0.7-1 1.7 0 0.5 0.7 0.9 0.7 0.4 1.9 0.6 1.1 0.2 2.4 0.3 1.2 0.2 2.3 0.2z"/>
			</g>
		</g>
	</g>
	<g>
		<g>
			<g>
			</g>
		</g>
	</g>
	<g>
		<g>
			<g>
				<path fill-rule="evenodd" class="s0" d="m795.8 54.6q-1.2 0-2.2-0.1-0.9 0-1.4-0.1-0.5-0.1-0.8-0.4-0.3-0.3-0.3-0.8 0-2.2 0.1-4.8 0-2.5 0.1-5.3 0.1-2.7 0.3-5.3 0.1-2.6 0.2-4.8 0.1-2.2 0.2-3.8 0-0.5 0.4-0.8 0.3-0.3 0.7-0.4 0.3 0 1.4 0 1.1 0 2.7-0.1 1.6 0 3.4-0.1 1.7 0 3.3 0 1.6 0 2.7 0 7.7 0 11.6 1.6 4 1.7 4 5.3 0 1.8-1.2 3.4-1.1 1.5-3.3 2.6-2.3 1-5.5 1.3-0.7 0-0.7 0.4 0 0.4 0.6 0.5 3.7 0.6 6.1 2.1 2.4 1.5 3.5 3.6 1.2 2.2 1.2 4.7 0 0.4-0.3 0.7-0.4 0.3-0.8 0.4-0.9 0.1-1.7 0.1-0.9 0.1-1.4 0.1-0.6 0-1.7-0.1-1 0-1.8-0.1-1.1-0.1-1.2-1.1-0.1-2-1.2-3.7-1-1.7-2.7-3-1.7-1.2-3.9-1.9-2.1-0.7-4.4-0.7-1.3 0-2 0.7-0.7 0.7-0.7 1.8 0 1.7 0.4 3.5 0.4 1.8 0.6 3.1 0.1 0.5-0.3 0.9-0.3 0.3-0.8 0.4-0.7 0.1-1.5 0.1-0.8 0.1-1.7 0.1zm5.8-15.1q6.4-0.2 9.8-1 3.4-0.9 3.4-2.8 0-1.6-2.2-2.2-2.1-0.7-6.6-0.7-1.5 0-2.7 0.1-1.1 0-2.3 0.1-1.8 0.2-2 1.8-0.1 0.6-0.1 1.4 0 0.8 0.1 1.4 0.1 1.1 0.8 1.5 0.7 0.4 1.8 0.4z"/>
			</g>
		</g>
	</g>
	<g>
		<g>
			<g>
				<path fill-rule="evenodd" class="s0" d="m839.7 54.7q-4.6 0-8-1.2-3.3-1.3-5.2-3.7-1.8-2.4-1.8-5.7 0-3.2 1.8-5.6 1.8-2.3 4.9-3.6 3.1-1.2 7.1-1.2 3.7 0 6.5 0.8 2.8 0.9 4.3 2.4 1.6 1.5 1.6 3.7 0 2-1.4 3.3-1.4 1.4-3.7 2.1-2.2 0.7-4.8 0.7-2.3 0-4.3-0.3-2-0.3-3.7-1-0.8-0.3-1.1 0.1-0.3 0.5 0.3 1.1 0.7 0.8 2.1 1.5 1.3 0.7 3.1 1.1 1.7 0.5 3.5 0.5 1.4 0 3-0.4 1.6-0.3 3.1-1 1.5-0.6 2.6-1.4 0.6-0.5 1.2-0.2 0.5 0.2 0.6 1.1 0 0.9 0.1 1.8 0 1 0 1.9 0 0.3-0.2 0.7-0.1 0.4-0.5 0.5-1.3 0.6-3.2 1.1-1.9 0.5-4 0.7-2 0.2-3.9 0.2zm-0.5-11.2q2.2 0 3.5-0.7 1.3-0.6 1.3-1.8 0-1.1-1.2-1.8-1.2-0.8-4.1-0.8-1.6 0-3.2 0.3-1.6 0.4-2.6 1.1-1 0.7-1 1.7 0 0.5 0.7 0.9 0.8 0.4 1.9 0.6 1.1 0.2 2.4 0.3 1.2 0.2 2.3 0.2z"/>
			</g>
		</g>
	</g>
	<g>
		<g>
			<g>
				<path fill-rule="evenodd" class="s0" d="m879.3 63.2q-0.2 0-0.8-0.1-0.7 0-1.4 0-0.6-0.1-1-0.1-0.4-0.1-0.7-0.4-0.4-0.3-0.3-0.8 0.1-0.8 0.2-2.2 0-1.3 0.1-2.8 0.1-1.5 0.1-2.9 0.1-1.5 0-2.6 0-0.6-0.3-0.7-0.3-0.1-0.6 0.3-1.4 1.8-3.9 2.8-2.5 1-5.3 1-3.4 0-6.1-1.3-2.6-1.3-4.2-3.7-1.5-2.4-1.5-5.6 0-3.3 1.5-5.7 1.6-2.3 4.2-3.5 2.7-1.2 6-1.2 1.6 0 3.3 0.5 1.6 0.5 3 1.3 1.4 0.9 2.4 1.9 0.3 0.4 0.6 0.3 0.3-0.1 0.2-0.6 0-0.5-0.1-1-0.1-0.5-0.2-0.8-0.1-0.6 0.2-0.9 0.3-0.3 0.8-0.4 0.4-0.1 1-0.1 0.6 0 1.1 0 0.5-0.1 0.7-0.1 0.4 0 1.2 0.1 0.9 0 1.5 0.1 1 0.1 1.1 1.3 0.2 2.4 0.4 5.3 0.1 2.9 0.2 5.9 0.1 3 0.2 5.8 0 2.9 0 5.3 0 2.5 0 4.3 0 1-0.9 1.1-0.5 0-1.4 0.1-0.9 0.1-1.3 0.1zm-11.2-13.5q2.1 0 3.7-0.6 1.7-0.7 2.7-1.9 0.9-1.2 0.9-2.8 0-1.8-1-3.1-1-1.2-2.6-1.9-1.7-0.7-3.7-0.7-2.1 0-3.8 0.7-1.6 0.7-2.6 1.9-1 1.3-1 3.1 0 1.6 0.9 2.8 1 1.2 2.7 1.9 1.7 0.6 3.8 0.6z"/>
			</g>
		</g>
	</g>
	<g>
		<g>
			<g>
				<path class="s0" d="m896.9 54.8q-3.9 0-6.5-1.3-2.6-1.3-3.9-3.4-1.3-2.2-1.2-4.9-0.1-1.7 0.1-4.1 0.1-2.3 0.5-5.8 0-0.5 0.3-0.9 0.4-0.3 0.8-0.4 0.7-0.1 1.4-0.1 0.7-0.1 1.1-0.1 0.5 0 1.5 0.1 1 0 1.7 0.1 0.5 0.1 0.8 0.4 0.3 0.3 0.2 0.8-0.2 1.3-0.4 2.7-0.3 1.5-0.4 2.9-0.2 1.4-0.2 2.4 0 2.8 1.7 4.6 1.7 1.8 5.5 1.8 2 0 3.4-0.9 1.5-0.9 2.3-2.4 0.9-1.6 0.9-3.5 0-1.6-0.2-3.5-0.2-2-0.7-4-0.2-0.6 0.1-0.9 0.4-0.3 0.8-0.4 0.6-0.1 1.5-0.1 0.8-0.1 1.4-0.1 0.8 0 1.5 0.1 0.8 0 1.4 0.1 0.5 0.1 0.8 0.4 0.3 0.4 0.4 0.9 0.3 3.1 0.4 5.5 0.2 2.4 0.3 4.4 0 2 0 4 0 1.9 0.1 4 0 1-0.9 1.2-0.6 0.1-1.3 0.2-0.6 0-1.3 0-0.6 0-1.3-0.1-0.8 0-1.5-0.1-0.4 0-0.8-0.4-0.3-0.3-0.2-0.8 0.1-0.5 0.1-1 0-0.5 0-0.9 0-1.3-0.9-0.3-1.9 2-4.2 2.9-2.2 0.9-5.1 0.9z"/>
			</g>
		</g>
	</g>
	<g>
		<g>
			<g>
				<path class="s0" d="m920.7 32.4q-1.9 0-3.1-0.8-1.1-0.8-1.1-2.1 0-1.4 1.1-2.2 1.2-0.8 3.1-0.8 1.9 0 3.1 0.8 1.2 0.8 1.2 2.2 0 1.3-1.2 2.1-1.2 0.8-3.1 0.8zm0.1 22.2q-0.3 0-1.3 0-0.9-0.1-1.5-0.2-0.5-0.1-0.8-0.4-0.3-0.4-0.3-0.9 0-3.1 0-5.5 0-2.4 0.1-4.4 0-2.1 0.1-4 0.1-1.9 0.3-4.1 0-0.5 0.3-0.8 0.3-0.2 0.7-0.3 0.5-0.1 1.3-0.1 0.8-0.1 1.2-0.1 0.3 0 1 0.1 0.7 0 1.2 0.1 0.4 0.1 0.7 0.3 0.3 0.3 0.3 0.8 0.2 2.2 0.2 4.1 0.1 1.9 0.2 4 0 2 0 4.4 0 2.4 0 5.5 0 0.5-0.3 0.9-0.3 0.3-0.7 0.4-0.6 0.1-1.5 0.1-0.8 0.1-1.2 0.1z"/>
			</g>
		</g>
	</g>
	<g>
		<g>
			<g>
				<path class="s0" d="m940.3 54.7q-2 0-4.3-0.3-2.3-0.2-4.4-0.6-2.2-0.5-3.7-0.9-1-0.3-1-1.4 0.1-0.9 0.1-1.9 0.1-1 0.1-2 0.1-0.9 0.7-1.1 0.5-0.2 1.1 0.2 1.4 0.8 3.3 1.5 1.9 0.7 3.9 1.1 2 0.5 3.9 0.5 2.7 0 4.1-0.4 1.4-0.3 1.4-1.5 0-0.7-1-1.1-0.9-0.4-2.5-0.6-1.6-0.2-3.5-0.4-2-0.2-3.9-0.6-1.9-0.4-3.5-1.1-1.6-0.6-2.6-1.7-0.9-1.1-0.9-2.8 0-2 1.6-3.3 1.7-1.3 4.5-1.9 2.9-0.7 6.6-0.7 1.3 0 3.1 0.2 1.7 0.1 3.4 0.4 1.8 0.2 3.1 0.6 0.5 0.1 0.8 0.5 0.3 0.3 0.3 0.8 0.1 0.8 0.1 1.6-0.1 0.8-0.1 1.5 0 1.1-0.5 1.3-0.6 0.2-1.2-0.1-1.6-0.9-4-1.5-2.3-0.6-4.6-0.6-1.5 0-2.7 0.2-1.3 0.1-2 0.5-0.8 0.4-0.8 1 0 0.6 1 1 0.9 0.3 2.6 0.6 1.6 0.2 3.5 0.4 1.9 0.3 3.8 0.6 1.9 0.4 3.5 1.1 1.6 0.7 2.6 1.8 1 1.1 1 2.9 0 2.7-3.3 4.4-3.2 1.8-9.6 1.8z"/>
			</g>
		</g>
	</g>
	<g>
		<g>
			<g>
				<path class="s0" d="m959.3 32.4q-1.8 0-3-0.8-1.2-0.8-1.2-2.1 0-1.4 1.2-2.2 1.2-0.8 3-0.8 1.9 0 3.1 0.8 1.2 0.8 1.2 2.2 0 1.3-1.2 2.1-1.2 0.8-3.1 0.8zm0.1 22.2q-0.3 0-1.3 0-0.9-0.1-1.5-0.2-0.5-0.1-0.8-0.4-0.3-0.4-0.3-0.9 0-3.1 0-5.5 0.1-2.4 0.1-4.4 0-2.1 0.1-4 0.2-1.9 0.3-4.1 0-0.5 0.3-0.8 0.3-0.2 0.7-0.3 0.5-0.1 1.3-0.1 0.8-0.1 1.2-0.1 0.3 0 1 0.1 0.7 0 1.2 0.1 0.4 0.1 0.7 0.3 0.3 0.3 0.3 0.8 0.2 2.2 0.3 4.1 0 1.9 0.1 4 0 2 0.1 4.4 0 2.4 0 5.5-0.1 0.5-0.3 0.9-0.3 0.3-0.7 0.4-0.7 0.1-1.5 0.1-0.9 0.1-1.3 0.1z"/>
			</g>
		</g>
	</g>
	<g>
		<g>
			<g>
				<path class="s0" d="m980.2 54.7q-2.5 0-4.5-0.8-2.1-0.8-3.4-2.4-1.2-1.5-1.3-3.9 0-1.1 0-2.5 0.1-1.5 0.2-2.9 0.1-1.5 0.2-2.7 0.1-0.3-0.2-0.6-0.3-0.2-0.6-0.2-1 0-2.1 0-1 0-2.1 0-0.5 0-0.9-0.3-0.3-0.4-0.3-0.9v-2.3q0-0.5 0.3-0.8 0.4-0.4 0.9-0.4h4.2q0.4 0 0.6-0.2 0.3-0.3 0.3-0.6 0-0.7 0-1.3 0-0.6 0.2-1.4 0.1-1.1 1.2-1.2 0.6-0.1 1.2-0.2 0.7 0 1.3 0 0.7 0 1.3 0 0.6 0.1 1.3 0.2 0.5 0 0.8 0.3 0.4 0.3 0.3 0.9 0 0.8-0.1 1.3-0.1 0.6-0.1 1.4 0 0.4 0.3 0.6 0.2 0.3 0.5 0.3 1.2 0 2.6 0 1.5-0.1 2.9-0.1 1.5 0 2.6 0 0.5 0 0.9 0.3 0.3 0.4 0.3 0.9v2.6q0 0.5-0.3 0.9-0.4 0.4-0.9 0.3-0.5 0-1.5-0.1-1 0-2.1-0.1-1.1 0-2.1 0-1-0.1-1.5-0.1-0.9 0-1.5 0.5-0.6 0.5-0.7 1.3-0.2 1.2-0.2 2.8 0 1.6 0.1 2.7 0.1 1.8 1.2 2.5 1 0.8 2.6 0.8 0.4 0 1.2-0.1 0.8-0.2 1.7-0.4 1-0.1 1.7-0.4 0.8-0.2 1.2-0.4 0.6-0.4 1.2 0 0.5 0.3 0.5 1.1v3.3q0 0.8-0.8 1.2-0.7 0.3-1.8 0.5-1.2 0.2-2.4 0.3-1.3 0.2-2.4 0.2-1.2 0.1-2 0.1z"/>
			</g>
		</g>
	</g>
	<g>
		<g>
			<g>
				<path fill-rule="evenodd" class="s0" d="m1005.5 54.7q-4.2 0-7.5-1.2-3.3-1.2-5.2-3.5-1.9-2.3-1.9-5.6 0-3.2 1.9-5.6 1.9-2.4 5.2-3.8 3.3-1.3 7.5-1.3 4.2 0 7.4 1.3 3.3 1.4 5.2 3.8 1.9 2.4 1.9 5.6 0 3.3-1.9 5.6-1.9 2.3-5.2 3.5-3.2 1.2-7.4 1.2zm0-5q2.1 0 3.7-0.6 1.7-0.7 2.7-2 1-1.2 1-3 0-1.7-1-2.9-0.9-1.2-2.6-1.9-1.7-0.6-3.8-0.6-2.2 0-3.8 0.6-1.7 0.7-2.7 1.9-0.9 1.2-0.9 2.9 0 1.8 1 3 1 1.3 2.6 2 1.7 0.6 3.8 0.6z"/>
			</g>
		</g>
	</g>
	<g>
		<g>
			<g>
				<path class="s0" d="m1035 54.7q-1.9 0-4.2-0.3-2.3-0.2-4.5-0.6-2.1-0.5-3.6-0.9-1.1-0.3-1.1-1.4 0.1-0.9 0.1-1.9 0.1-1 0.1-2 0.1-0.9 0.7-1.1 0.6-0.2 1.1 0.2 1.4 0.8 3.3 1.5 1.9 0.7 3.9 1.1 2.1 0.5 3.9 0.5 2.8 0 4.1-0.4 1.4-0.3 1.4-1.5 0-0.7-0.9-1.1-1-0.4-2.6-0.6-1.6-0.2-3.5-0.4-1.9-0.2-3.8-0.6-2-0.4-3.6-1.1-1.5-0.6-2.5-1.7-1-1.1-1-2.8 0-2 1.6-3.3 1.7-1.3 4.6-1.9 2.9-0.7 6.5-0.7 1.4 0 3.1 0.2 1.7 0.1 3.5 0.4 1.7 0.2 3.1 0.6 0.4 0.1 0.7 0.5 0.3 0.3 0.3 0.8 0.1 0.8 0.1 1.6 0 0.8 0 1.5 0 1.1-0.6 1.3-0.5 0.2-1.1-0.1-1.7-0.9-4-1.5-2.4-0.6-4.7-0.6-1.5 0-2.7 0.2-1.3 0.1-2 0.5-0.8 0.4-0.8 1 0 0.6 1 1 1 0.3 2.6 0.6 1.6 0.2 3.5 0.4 1.9 0.3 3.8 0.6 1.9 0.4 3.6 1.1 1.6 0.7 2.5 1.8 1 1.1 1 2.9 0 2.7-3.2 4.4-3.2 1.8-9.7 1.8z"/>
			</g>
		</g>
	</g>
</svg>