<svg version="1.2" xmlns="http://www.w3.org/2000/svg" viewBox="0 0 1103 278" width="1103" height="278">
	<title>Tutorial-svg</title>
	<defs>
		<clipPath clipPathUnits="userSpaceOnUse" id="cp1">
			<path d="m660.52-78.8h243v243h-243z"/>
		</clipPath>
		<clipPath clipPathUnits="userSpaceOnUse" id="cp2">
			<path d="m39.38 87.51h105.62v92.39h-105.62z"/>
		</clipPath>
		<clipPath clipPathUnits="userSpaceOnUse" id="cp3">
			<path d="m92.17 179.9l52.79-92.39h-105.58z"/>
		</clipPath>
		<clipPath clipPathUnits="userSpaceOnUse" id="cp4">
			<path d="m262.79 87.51h105.75v92.39h-105.75z"/>
		</clipPath>
		<clipPath clipPathUnits="userSpaceOnUse" id="cp5">
			<path d="m315.59 179.9l52.79-92.39h-105.59z"/>
		</clipPath>
		<clipPath clipPathUnits="userSpaceOnUse" id="cp6">
			<path d="m486.21 87.51h105.74v92.39h-105.74z"/>
		</clipPath>
		<clipPath clipPathUnits="userSpaceOnUse" id="cp7">
			<path d="m539 179.9l52.79-92.39h-105.58z"/>
		</clipPath>
		<clipPath clipPathUnits="userSpaceOnUse" id="cp8">
			<path d="m709.62 87.51h105.74v92.39h-105.74z"/>
		</clipPath>
		<clipPath clipPathUnits="userSpaceOnUse" id="cp9">
			<path d="m762.41 179.9l52.8-92.39h-105.59z"/>
		</clipPath>
		<clipPath clipPathUnits="userSpaceOnUse" id="cp10">
			<path d="m933.04 87.51h105.74v92.39h-105.74z"/>
		</clipPath>
		<clipPath clipPathUnits="userSpaceOnUse" id="cp11">
			<path d="m985.83 179.9l52.79-92.39h-105.58z"/>
		</clipPath>
	</defs>
	<style>
		.s0 { fill: #007cf9 } 
		.s1 { fill: #000000 } 
		.s2 { fill: #ffffff } 
		.s3 { fill: #4fa6ff } 
		.s4 { fill: #0367cc } 
		.s5 { fill: #0251a0 } 
		.s6 { fill: #042c5c } 
	</style>
	<g id="Clip-Path" clip-path="url(#cp1)">
		<g>
		</g>
	</g>
	<path class="s0" d="m112.8 130.7h9v3h-9m12-3h9v3h-9m12-3l9 0.1v3l-9-0.1m12-2.9h9v3h-9m12-3h9v3h-9m12-3h9v3h-9m12-3h9v3h-9m12-2.9h9v3h-9m12-3h9v3h-9m12-3h9v3h-9m12-3h9v3h-9m12-3l9 0.1v3l-9-0.1m12-2.9h9v3h-9m12-3h9v3h-9m12-3h9v3h-9m12-3h9v3h-9m12-3l9 0.1v3l-9-0.1m12-2.9h9v3h-9m12-3h9v3h-9m12-3h9v3h-9m12-3h9v3h-9m12-2.9h9v3h-9m12-3h9v3h-9m12-3h9v3h-9m12-3h9v3h-9m12-3l9 0.1v3l-9-0.1m12-2.9h9v3h-9m12-3h9v3h-9m12-3h9v3h-9m12-3h9v3h-9m12-3l9 0.1v3l-9-0.1m12-2.9h9v3h-9m12-3h9v3h-9m12-3h9v3h-9m12-3h9v3h-9m12-3l9 0.1v3l-9-0.1m12-2.9h9v3h-9m12-3h9v3h-9m12-3h9v3h-9m12-3l9 0.1v3l-9-0.1m12-2.9h9v3h-9m12-3h9v3h-9m12-3h9v3h-9m12-3h9v3h-9m12-3l9 0.1v3l-9-0.1m12-2.9h9v3h-9m12-3h9v3h-9m12-3h9v3h-9m12-3h9v3h-9m12-3l9 0.1v3l-9-0.1m12-2.9h9v3h-9m12-3h9v3h-9m12-3h9v3h-9m12-3h9v3h-9m12-2.9h9v3h-9m12-3h9v3h-9m12-3h9v3h-9m12-3h9v3h-9m12-3l9 0.1v3l-9-0.1m12-2.9h9v3h-9m12-3h9v3h-9m12-3h9v3h-9m12-3h9v3h-9m12-3l9 0.1v3l-9-0.1m12-2.9h9v3h-9m12-3h9v3h-9m12-3h9v3h-9m12-3h9v3h-9m12-2.9h9v3h-9m12-3h9v3h-9m12-3h6.6v3h-6.6"/>
	<g>
		<g>
			<g>
				<path class="s1" d="m178.9 46.1q-2.8 0-4.9-1.3-2-1.2-3.1-3.4-1.1-2.2-1.1-5.1 0-2.9 1.1-5.1 1.1-2.2 3.1-3.4 2.1-1.3 4.9-1.3 3.4 0 5.6 1.7 2.2 1.7 2.7 4.7h-3.8q-0.3-1.5-1.5-2.4-1.1-0.9-3-0.9-2.6 0-4.1 1.8-1.5 1.8-1.5 4.9 0 3.1 1.5 4.9 1.5 1.8 4.1 1.7 1.9 0.1 3-0.8 1.2-0.8 1.5-2.3h3.8q-0.5 3-2.7 4.6-2.2 1.7-5.6 1.7z"/>
			</g>
		</g>
	</g>
	<g>
		<g>
			<g>
				<path fill-rule="evenodd" class="s1" d="m196.6 46.1q-1.9 0-3.5-0.9-1.5-0.9-2.4-2.5-0.9-1.6-0.9-3.7 0-2 0.9-3.6 0.9-1.6 2.5-2.5 1.5-0.9 3.5-0.9 1.9 0 3.4 0.9 1.6 0.9 2.5 2.5 0.9 1.6 0.9 3.6 0 2.1-0.9 3.7-0.9 1.6-2.5 2.5-1.6 0.9-3.5 0.9zm0-3q1.4 0 2.4-1.1 1-1 1-3 0-2-1-3-1-1-2.3-1-1.4 0-2.4 1-1 1-1 3 0 2 1 3 1 1.1 2.3 1.1z"/>
			</g>
		</g>
	</g>
	<g>
		<g>
			<g>
				<path class="s1" d="m206.6 45.7v-13.4h3l0.3 1.9q0.7-1 1.7-1.6 1.1-0.6 2.5-0.6 3.1 0 4.4 2.4 0.7-1.1 2-1.7 1.2-0.7 2.6-0.7 2.7 0 4.1 1.6 1.4 1.6 1.4 4.6v7.5h-3.5v-7.2q0-1.7-0.6-2.6-0.7-1-2.1-1-1.4 0-2.2 1.1-0.9 1-0.9 2.8v6.9h-3.4v-7.2q0-1.7-0.7-2.6-0.7-1-2.1-1-1.4 0-2.2 1.1-0.9 1-0.9 2.8v6.9z"/>
			</g>
		</g>
	</g>
	<g>
		<g>
			<g>
				<path fill-rule="evenodd" class="s1" d="m238.3 46.1q-2 0-3.5-0.9-1.6-0.9-2.5-2.5-0.9-1.6-0.9-3.7 0-2 0.9-3.6 1-1.6 2.5-2.5 1.6-0.9 3.5-0.9 1.9 0 3.5 0.9 1.5 0.9 2.4 2.5 0.9 1.6 0.9 3.6 0 2.1-0.9 3.7-0.9 1.6-2.4 2.5-1.6 0.9-3.5 0.9zm0-3q1.3 0 2.3-1.1 1-1 1-3 0-2-1-3-1-1-2.3-1-1.4 0-2.3 1-1 1-1 3 0 2 1 3 0.9 1.1 2.3 1.1z"/>
			</g>
		</g>
	</g>
	<g>
		<g>
			<g>
			</g>
		</g>
	</g>
	<g>
		<g>
			<g>
				<path class="s1" d="m259.7 46.1q-2.5 0-3.9-1.6-1.4-1.6-1.4-4.6v-7.6h3.5v7.3q0 1.7 0.7 2.6 0.7 0.9 2.2 0.9 1.4 0 2.3-1 1-1 1-2.9v-6.9h3.4v13.4h-3l-0.3-2.2q-0.6 1.2-1.8 1.9-1.2 0.7-2.7 0.7z"/>
			</g>
		</g>
	</g>
	<g>
		<g>
			<g>
				<path class="s1" d="m277 45.7q-2.1 0-3.3-1-1.3-1-1.3-3.6v-5.9h-2.3v-2.9h2.3l0.4-3.6h3v3.6h3.7v2.9h-3.7v5.9q0 1 0.5 1.3 0.4 0.4 1.4 0.4h1.7v2.9z"/>
			</g>
		</g>
	</g>
	<g>
		<g>
			<g>
				<path class="s1" d="m284.3 30.3q-0.9 0-1.6-0.6-0.6-0.6-0.6-1.4 0-0.9 0.6-1.4 0.7-0.6 1.6-0.6 0.9 0 1.6 0.6 0.6 0.5 0.6 1.4 0 0.8-0.6 1.4-0.7 0.6-1.6 0.6zm-1.7 15.4v-13.4h3.4v13.4z"/>
			</g>
		</g>
		<g>
			<g>
				<path class="s1" d="m289.6 45.7v-19.4h3.5v19.4z"/>
			</g>
		</g>
	</g>
	<g>
		<g>
			<g>
				<path class="s1" d="m298.5 30.3q-0.9 0-1.6-0.6-0.6-0.6-0.6-1.4 0-0.9 0.6-1.4 0.7-0.6 1.6-0.6 0.9 0 1.6 0.6 0.6 0.5 0.6 1.4 0 0.8-0.6 1.4-0.7 0.6-1.6 0.6zm-1.7 15.4v-13.4h3.4v13.4z"/>
			</g>
		</g>
		<g>
			<g>
				<path class="s1" d="m303 45.7v-2.8l6.8-7.7h-6.7v-2.9h10.6v2.8l-6.9 7.8h7.1v2.8z"/>
			</g>
		</g>
	</g>
	<g>
		<g>
			<g>
				<path fill-rule="evenodd" class="s1" d="m321.4 46.1q-1.7 0-2.8-0.6-1.1-0.5-1.7-1.5-0.5-0.9-0.5-2 0-1.9 1.4-3 1.5-1.2 4.4-1.2h3.4v-0.3q0-1.4-0.8-2-0.8-0.7-1.9-0.7-1.1 0-1.9 0.5-0.7 0.5-0.9 1.5h-3.4q0.1-1.5 1-2.5 0.8-1.1 2.2-1.7 1.3-0.6 3-0.6 2.9 0 4.5 1.4 1.7 1.5 1.7 4.1v8.2h-3l-0.3-2.1q-0.6 1.1-1.7 1.8-1 0.7-2.7 0.7zm0.8-2.7q1.5 0 2.3-1 0.8-1 1-2.4h-2.9q-1.4 0-2 0.5-0.6 0.5-0.6 1.2 0 0.8 0.6 1.2 0.6 0.5 1.6 0.5z"/>
			</g>
		</g>
	</g>
	<g>
		<g>
			<g>
				<path class="s1" d="m332.4 45.7v-13.4h3l0.4 2.6q0.7-1.3 1.9-2.1 1.3-0.8 3-0.8v3.7h-1q-1.1 0-2 0.3-0.9 0.4-1.4 1.2-0.5 0.9-0.5 2.4v6.1z"/>
			</g>
		</g>
	</g>
	<g>
		<g>
			<g>
			</g>
		</g>
	</g>
	<g>
		<g>
			<g>
				<path fill-rule="evenodd" class="s1" d="m355.9 46.1q-1.9 0-3.5-0.9-1.6-0.9-2.5-2.5-0.8-1.6-0.8-3.7-0.1-2 0.9-3.6 0.9-1.6 2.4-2.5 1.6-0.9 3.5-0.9 1.9 0 3.5 0.9 1.6 0.9 2.4 2.5 1 1.6 1 3.6 0 2.1-1 3.7-0.8 1.6-2.4 2.5-1.6 0.9-3.5 0.9zm0-3q1.4 0 2.4-1.1 1-1 1-3 0-2-1-3-1-1-2.4-1-1.4 0-2.3 1-1 1-1 3 0 2 1 3 1 1.1 2.3 1.1z"/>
			</g>
		</g>
	</g>
	<g>
		<g>
			<g>
			</g>
		</g>
	</g>
	<g>
		<g>
			<g>
				<path class="s1" d="m372.4 45.7v-18.9h12.2v2.8h-8.8v5.3h7.1v2.7h-7.1v8.1z"/>
			</g>
		</g>
		<g>
			<g>
				<path fill-rule="evenodd" class="s1" d="m393.6 46.1q-2 0-3.5-0.9-1.6-0.9-2.5-2.5-0.9-1.6-0.9-3.7 0-2 0.9-3.6 0.9-1.6 2.5-2.5 1.5-0.9 3.5-0.9 1.9 0 3.5 0.9 1.5 0.9 2.4 2.5 0.9 1.6 0.9 3.6 0 2.1-0.9 3.7-0.9 1.6-2.5 2.5-1.5 0.9-3.4 0.9zm0-3q1.3 0 2.3-1.1 1-1 1-3 0-2-1-3-1-1-2.3-1-1.4 0-2.4 1-1 1-1 3 0 2 1 3 1 1.1 2.4 1.1z"/>
			</g>
		</g>
	</g>
	<g>
		<g>
			<g>
				<path class="s1" d="m403.5 45.7v-13.4h3.1l0.3 2.6q0.7-1.3 2-2.1 1.2-0.8 2.9-0.8v3.7h-0.9q-1.2 0-2.1 0.3-0.8 0.4-1.3 1.2-0.5 0.9-0.5 2.4v6.1z"/>
			</g>
		</g>
	</g>
	<g>
		<g>
			<g>
				<path class="s1" d="m414.2 45.7v-13.4h3.1l0.3 1.9q0.6-1 1.7-1.6 1-0.6 2.4-0.6 3.1 0 4.4 2.4 0.8-1.1 2-1.7 1.2-0.7 2.7-0.7 2.6 0 4 1.6 1.4 1.6 1.4 4.6v7.5h-3.5v-7.2q0-1.7-0.6-2.6-0.7-1-2-1-1.5 0-2.3 1.1-0.9 1-0.9 2.8v6.9h-3.4v-7.2q0-1.7-0.7-2.6-0.7-1-2.1-1-1.4 0-2.2 1.1-0.8 1-0.8 2.8v6.9z"/>
			</g>
		</g>
	</g>
	<g>
		<g>
			<g>
				<path fill-rule="evenodd" class="s1" d="m444.1 46.1q-1.7 0-2.8-0.6-1.1-0.5-1.7-1.5-0.5-0.9-0.5-2 0-1.9 1.4-3 1.5-1.2 4.4-1.2h3.4v-0.3q0-1.4-0.8-2-0.7-0.7-1.9-0.7-1.1 0-1.8 0.5-0.8 0.5-1 1.5h-3.4q0.2-1.5 1-2.5 0.9-1.1 2.2-1.7 1.3-0.6 3-0.6 2.9 0 4.5 1.4 1.7 1.5 1.7 4.1v8.2h-3l-0.3-2.1q-0.6 1.1-1.7 1.8-1 0.7-2.7 0.7zm0.8-2.7q1.5 0 2.3-1 0.8-1 1-2.4h-2.9q-1.4 0-2 0.5-0.6 0.5-0.6 1.2 0 0.8 0.6 1.2 0.6 0.5 1.6 0.5z"/>
			</g>
		</g>
	</g>
	<g>
		<g>
			<g>
				<path class="s1" d="m461 45.7q-2.1 0-3.3-1-1.3-1-1.3-3.6v-5.9h-2.3v-2.9h2.3l0.4-3.6h3.1v3.6h3.6v2.9h-3.6v5.9q0 1 0.4 1.3 0.4 0.4 1.4 0.4h1.7v2.9z"/>
			</g>
		</g>
	</g>
	<g>
		<g>
			<g>
				<path fill-rule="evenodd" class="s1" d="m471.1 46.1q-1.8 0-2.9-0.6-1.1-0.5-1.6-1.5-0.6-0.9-0.6-2 0-1.9 1.5-3 1.4-1.2 4.4-1.2h3.4v-0.3q0-1.4-0.8-2-0.8-0.7-2-0.7-1 0-1.8 0.5-0.8 0.5-1 1.5h-3.3q0.1-1.5 0.9-2.5 0.9-1.1 2.2-1.7 1.4-0.6 3.1-0.6 2.8 0 4.5 1.4 1.6 1.5 1.6 4.1v8.2h-2.9l-0.3-2.1q-0.6 1.1-1.7 1.8-1.1 0.7-2.7 0.7zm0.7-2.7q1.5 0 2.3-1 0.9-1 1.1-2.4h-3q-1.3 0-1.9 0.5-0.6 0.5-0.6 1.2 0 0.8 0.6 1.2 0.6 0.5 1.5 0.5z"/>
			</g>
		</g>
	</g>
	<g>
		<g>
			<g>
				<path fill-rule="evenodd" class="s1" d="m488.2 46.1q-1.9 0-3.4-1-1.5-0.9-2.3-2.5-0.9-1.6-0.9-3.6 0-2 0.9-3.6 0.8-1.6 2.3-2.5 1.5-0.9 3.4-0.9 1.5 0 2.6 0.6 1.2 0.6 1.9 1.6v-7.9h3.4v19.4h-3.1l-0.3-1.9q-0.7 0.9-1.8 1.6-1 0.7-2.7 0.7zm0.7-3.1q1.7 0 2.7-1.1 1.1-1.1 1.1-2.9 0-1.7-1.1-2.8-1-1.2-2.7-1.2-1.6 0-2.7 1.2-1.1 1-1.1 2.8 0 1.8 1.1 2.9 1.1 1.1 2.7 1.1z"/>
			</g>
		</g>
	</g>
	<g>
		<g>
			<g>
				<path fill-rule="evenodd" class="s1" d="m506.1 46.1q-2 0-3.6-0.9-1.5-0.9-2.4-2.5-0.9-1.6-0.9-3.7 0-2 0.9-3.6 0.9-1.6 2.5-2.5 1.5-0.9 3.5-0.9 1.9 0 3.4 0.9 1.6 0.9 2.5 2.5 0.9 1.6 0.9 3.6 0 2.1-0.9 3.7-0.9 1.6-2.5 2.5-1.5 0.9-3.4 0.9zm0-3q1.3 0 2.3-1.1 1-1 1-3 0-2-1-3-1-1-2.3-1-1.4 0-2.4 1-1 1-1 3 0 2 1 3 1 1.1 2.4 1.1z"/>
			</g>
		</g>
	</g>
	<g>
		<g>
			<g>
				<path class="s1" d="m516 45.7v-13.4h3.1l0.3 2.6q0.7-1.3 2-2.1 1.2-0.8 2.9-0.8v3.7h-0.9q-1.2 0-2.1 0.3-0.9 0.4-1.4 1.2-0.5 0.9-0.5 2.4v6.1z"/>
			</g>
		</g>
	</g>
	<g>
		<g>
			<g>
			</g>
		</g>
	</g>
	<g>
		<g>
			<g>
				<path fill-rule="evenodd" class="s1" d="m539.3 46.1q-1.9 0-3.4-1-1.5-0.9-2.4-2.5-0.8-1.6-0.8-3.6 0-2 0.8-3.6 0.9-1.6 2.4-2.5 1.5-0.9 3.4-0.9 1.5 0 2.6 0.6 1.1 0.6 1.8 1.6v-7.9h3.5v19.4h-3.1l-0.4-1.9q-0.6 0.9-1.7 1.6-1 0.7-2.7 0.7zm0.7-3.1q1.7 0 2.7-1.1 1.1-1.1 1.1-2.9 0-1.7-1.1-2.8-1-1.2-2.7-1.2-1.7 0-2.7 1.2-1.1 1-1.1 2.8 0 1.8 1.1 2.9 1 1.1 2.7 1.1z"/>
			</g>
		</g>
	</g>
	<g>
		<g>
			<g>
				<path fill-rule="evenodd" class="s1" d="m557.2 46.1q-2 0-3.6-0.9-1.5-0.9-2.4-2.4-0.9-1.6-0.9-3.7 0-2 0.9-3.7 0.8-1.6 2.4-2.5 1.5-0.9 3.6-0.9 2 0 3.5 0.9 1.5 0.8 2.4 2.3 0.8 1.5 0.8 3.4 0 0.3 0 0.6 0 0.3 0 0.7h-10.2q0.1 1.5 1.1 2.4 1 0.9 2.4 0.9 1 0 1.8-0.5 0.7-0.4 1-1.2h3.5q-0.3 1.3-1.2 2.3-0.9 1.1-2.2 1.7-1.3 0.6-2.9 0.6zm0-11.3q-1.2 0-2.2 0.7-1 0.7-1.2 2.2h6.6q-0.1-1.3-0.9-2.1-0.9-0.8-2.3-0.8z"/>
			</g>
		</g>
	</g>
	<g>
		<g>
			<g>
			</g>
		</g>
	</g>
	<g>
		<g>
			<g>
				<path fill-rule="evenodd" class="s1" d="m573.4 45.7v-18.9h6.4q3.3 0 5.5 1.2 2.1 1.2 3.2 3.3 1 2.1 1 5 0 2.8-1 5-1.1 2.1-3.2 3.3-2.2 1.1-5.5 1.1zm3.5-2.9h2.8q2.4 0 3.7-0.8 1.4-0.8 2-2.2 0.6-1.5 0.6-3.5 0-2-0.6-3.5-0.6-1.5-2-2.2-1.3-0.8-3.7-0.8h-2.8z"/>
			</g>
		</g>
	</g>
	<g>
		<g>
			<g>
				<path fill-rule="evenodd" class="s1" d="m598.9 46.1q-1.9 0-3.5-0.9-1.6-0.9-2.5-2.5-0.8-1.6-0.8-3.7-0.1-2 0.9-3.6 0.9-1.6 2.4-2.5 1.6-0.9 3.5-0.9 1.9 0 3.5 0.9 1.6 0.9 2.4 2.5 1 1.6 1 3.6 0 2.1-1 3.7-0.8 1.6-2.4 2.5-1.6 0.9-3.5 0.9zm0-3q1.4 0 2.4-1.1 1-1 1-3 0-2-1-3-1-1-2.4-1-1.4 0-2.3 1-1 1-1 3 0 2 1 3 1 1.1 2.3 1.1z"/>
			</g>
		</g>
	</g>
	<g>
		<g>
			<g>
				<path class="s1" d="m615.4 46.1q-2.1 0-3.6-0.9-1.6-0.9-2.5-2.5-0.9-1.6-0.9-3.7 0-2 0.9-3.6 0.9-1.6 2.5-2.5 1.5-0.9 3.6-0.9 2.6 0 4.3 1.4 1.8 1.3 2.3 3.6h-3.7q-0.2-0.9-1-1.5-0.8-0.5-1.9-0.5-1.5 0-2.5 1-1 1.1-1 3 0 1.9 1 3 1 1.1 2.5 1.1 1.1 0 1.9-0.5 0.8-0.6 1-1.6h3.7q-0.5 2.3-2.3 3.7-1.7 1.4-4.3 1.4z"/>
			</g>
		</g>
	</g>
	<g>
		<g>
			<g>
				<path class="s1" d="m630.1 46.1q-2.6 0-3.9-1.6-1.4-1.6-1.4-4.6v-7.6h3.5v7.3q0 1.7 0.7 2.6 0.7 0.9 2.2 0.9 1.4 0 2.3-1 1-1 1-2.9v-6.9h3.4v13.4h-3l-0.3-2.2q-0.6 1.2-1.8 1.9-1.2 0.7-2.7 0.7z"/>
			</g>
		</g>
	</g>
	<g>
		<g>
			<g>
				<path class="s1" d="m641.4 45.7v-13.4h3.1l0.3 1.9q0.6-1 1.7-1.6 1.1-0.6 2.5-0.6 3.1 0 4.4 2.4 0.7-1.1 1.9-1.7 1.3-0.7 2.7-0.7 2.7 0 4.1 1.6 1.4 1.6 1.4 4.6v7.5h-3.5v-7.2q0-1.7-0.7-2.6-0.6-1-2-1-1.4 0-2.3 1.1-0.8 1-0.8 2.8v6.9h-3.5v-7.2q0-1.7-0.6-2.6-0.7-1-2.1-1-1.4 0-2.2 1.1-0.9 1-0.9 2.8v6.9z"/>
			</g>
		</g>
	</g>
	<g>
		<g>
			<g>
				<path fill-rule="evenodd" class="s1" d="m673.3 46.1q-2.1 0-3.6-0.9-1.6-0.9-2.5-2.4-0.9-1.6-0.9-3.7 0-2 0.9-3.7 0.9-1.6 2.4-2.5 1.6-0.9 3.7-0.9 2 0 3.5 0.9 1.5 0.8 2.3 2.3 0.9 1.5 0.9 3.4 0 0.3 0 0.6-0.1 0.3-0.1 0.7h-10.2q0.2 1.5 1.1 2.4 1 0.9 2.4 0.9 1.1 0 1.8-0.5 0.7-0.4 1.1-1.2h3.5q-0.4 1.3-1.3 2.3-0.9 1.1-2.1 1.7-1.3 0.6-2.9 0.6zm0-11.3q-1.3 0-2.3 0.7-0.9 0.7-1.2 2.2h6.7q-0.1-1.3-1-2.1-0.9-0.8-2.2-0.8z"/>
			</g>
		</g>
	</g>
	<g>
		<g>
			<g>
				<path class="s1" d="m682.9 45.7v-13.4h3.1l0.2 2.3q0.6-1.2 1.8-1.9 1.2-0.7 2.8-0.7 2.5 0 3.8 1.6 1.4 1.6 1.4 4.6v7.5h-3.4v-7.2q0-1.7-0.7-2.6-0.7-1-2.2-1-1.5 0-2.4 1.1-0.9 1-0.9 2.8v6.9z"/>
			</g>
		</g>
	</g>
	<g>
		<g>
			<g>
				<path class="s1" d="m705.3 45.7q-2.1 0-3.4-1-1.3-1-1.3-3.6v-5.9h-2.3v-2.9h2.3l0.4-3.6h3.1v3.6h3.6v2.9h-3.6v5.9q0 1 0.4 1.3 0.4 0.4 1.5 0.4h1.6v2.9z"/>
			</g>
		</g>
	</g>
	<g>
		<g>
			<g>
				<path fill-rule="evenodd" class="s1" d="m717.1 46.1q-1.9 0-3.5-0.9-1.5-0.9-2.5-2.5-0.8-1.6-0.8-3.7 0-2 0.9-3.6 0.9-1.6 2.4-2.5 1.6-0.9 3.5-0.9 2 0 3.5 0.9 1.6 0.9 2.5 2.5 0.9 1.6 0.9 3.6 0 2.1-0.9 3.7-0.9 1.6-2.5 2.5-1.6 0.9-3.5 0.9zm0-3q1.4 0 2.4-1.1 1-1 1-3 0-2-1-3-1-1-2.4-1-1.3 0-2.3 1-1 1-1 3 0 2 1 3 1 1.1 2.3 1.1z"/>
			</g>
		</g>
	</g>
	<g>
		<g>
			<g>
			</g>
		</g>
	</g>
	<g>
		<g>
			<g>
				<path fill-rule="evenodd" class="s1" d="m739.6 46.1q-1.9 0-3.4-1-1.4-0.9-2.3-2.5-0.9-1.6-0.9-3.6 0-2 0.9-3.6 0.9-1.6 2.3-2.5 1.5-0.9 3.4-0.9 1.5 0 2.7 0.6 1.1 0.6 1.8 1.6v-7.9h3.5v19.4h-3.1l-0.4-1.9q-0.6 0.9-1.7 1.6-1.1 0.7-2.8 0.7zm0.8-3.1q1.6 0 2.7-1.1 1.1-1.1 1.1-2.9 0-1.7-1.1-2.8-1.1-1.2-2.7-1.2-1.7 0-2.8 1.2-1.1 1-1.1 2.8 0 1.8 1.1 2.9 1.1 1.1 2.8 1.1z"/>
			</g>
		</g>
	</g>
	<g>
		<g>
			<g>
				<path fill-rule="evenodd" class="s1" d="m757.6 46.1q-2 0-3.6-0.9-1.6-0.9-2.5-2.4-0.9-1.6-0.9-3.7 0-2 0.9-3.7 0.9-1.6 2.4-2.5 1.6-0.9 3.7-0.9 2 0 3.5 0.9 1.5 0.8 2.3 2.3 0.9 1.5 0.9 3.4 0 0.3 0 0.6 0 0.3 0 0.7h-10.2q0.1 1.5 1.1 2.4 0.9 0.9 2.4 0.9 1 0 1.7-0.5 0.7-0.4 1.1-1.2h3.5q-0.4 1.3-1.3 2.3-0.8 1.1-2.1 1.7-1.3 0.6-2.9 0.6zm0-11.3q-1.3 0-2.2 0.7-1 0.7-1.3 2.2h6.7q-0.1-1.3-1-2.1-0.9-0.8-2.2-0.8z"/>
			</g>
		</g>
	</g>
	<g>
		<g>
			<g>
			</g>
		</g>
	</g>
	<g>
		<g>
			<g>
				<path fill-rule="evenodd" class="s1" d="m773.7 45.7v-18.9h7q2.2 0 3.7 0.8 1.5 0.8 2.2 2.1 0.7 1.3 0.7 2.9 0 1.7-0.9 3.1-0.9 1.5-2.8 2.1l3.9 7.9h-4l-3.5-7.4h-2.8v7.4zm3.4-10h3.3q1.7 0 2.5-0.8 0.8-0.8 0.9-2.2 0-1.4-0.8-2.2-0.8-0.8-2.6-0.8h-3.3z"/>
			</g>
		</g>
	</g>
	<g>
		<g>
			<g>
				<path fill-rule="evenodd" class="s1" d="m797 46.1q-2.1 0-3.6-0.9-1.6-0.9-2.5-2.4-0.9-1.6-0.9-3.7 0-2 0.9-3.7 0.9-1.6 2.4-2.5 1.6-0.9 3.7-0.9 2 0 3.5 0.9 1.5 0.8 2.3 2.3 0.9 1.5 0.9 3.4 0 0.3 0 0.6 0 0.3 0 0.7h-10.2q0.1 1.5 1.1 2.4 0.9 0.9 2.3 0.9 1.1 0 1.8-0.5 0.7-0.4 1.1-1.2h3.5q-0.4 1.3-1.3 2.3-0.8 1.1-2.1 1.7-1.3 0.6-2.9 0.6zm0-11.3q-1.3 0-2.2 0.7-1 0.7-1.3 2.2h6.7q-0.1-1.3-1-2.1-0.9-0.8-2.2-0.8z"/>
			</g>
		</g>
	</g>
	<g>
		<g>
			<g>
				<path fill-rule="evenodd" class="s1" d="m817.2 51.7v-7.9q-0.6 0.9-1.7 1.6-1 0.7-2.7 0.7-1.9 0-3.4-1-1.5-0.9-2.4-2.5-0.8-1.6-0.8-3.6 0-2 0.8-3.6 0.9-1.6 2.4-2.5 1.5-0.9 3.4-0.9 1.5 0 2.6 0.6 1.1 0.6 1.8 1.6l0.4-1.9h3.1v19.4zm-3.7-8.7q1.6 0 2.7-1.1 1.1-1.1 1.1-2.9 0-1.7-1.1-2.8-1.1-1.2-2.7-1.2-1.7 0-2.8 1.2-1.1 1-1.1 2.8 0 1.8 1.1 2.9 1.1 1.1 2.8 1.1z"/>
			</g>
		</g>
	</g>
	<g>
		<g>
			<g>
				<path class="s1" d="m829.2 46.1q-2.5 0-3.8-1.6-1.4-1.6-1.4-4.6v-7.6h3.4v7.3q0 1.7 0.7 2.6 0.7 0.9 2.3 0.9 1.4 0 2.3-1 0.9-1 0.9-2.9v-6.9h3.5v13.4h-3.1l-0.2-2.2q-0.7 1.2-1.8 1.9-1.2 0.7-2.8 0.7z"/>
			</g>
		</g>
	</g>
	<g>
		<g>
			<g>
				<path class="s1" d="m842.5 30.3q-1 0-1.6-0.6-0.6-0.6-0.6-1.4 0-0.9 0.6-1.4 0.6-0.6 1.6-0.6 0.9 0 1.6 0.6 0.6 0.5 0.6 1.4 0 0.8-0.6 1.4-0.7 0.6-1.6 0.6zm-1.7 15.4v-13.4h3.4v13.4z"/>
			</g>
		</g>
		<g>
			<g>
				<path class="s1" d="m853.4 46.1q-1.8 0-3.2-0.6-1.3-0.6-2.1-1.6-0.8-1.1-1-2.4h3.5q0.2 0.8 0.9 1.3 0.7 0.6 1.8 0.6 1.2 0 1.7-0.5 0.5-0.4 0.5-1 0-0.9-0.8-1.2-0.7-0.3-2-0.6-0.9-0.2-1.8-0.5-0.9-0.2-1.6-0.7-0.8-0.4-1.2-1-0.5-0.7-0.5-1.7 0-1.8 1.4-3 1.4-1.2 4-1.2 2.4 0 3.8 1.1 1.4 1.1 1.7 3.1h-3.3q-0.3-1.5-2.2-1.5-1 0-1.5 0.4-0.6 0.3-0.6 0.9 0 0.6 0.8 1 0.8 0.3 2.1 0.6 1.4 0.3 2.6 0.7 1.2 0.4 1.9 1.2 0.7 0.7 0.7 2.2 0 1.2-0.7 2.2-0.7 1-1.9 1.6-1.3 0.6-3 0.6z"/>
			</g>
		</g>
	</g>
	<g>
		<g>
			<g>
				<path class="s1" d="m863.9 30.3q-1 0-1.6-0.6-0.6-0.6-0.6-1.4 0-0.9 0.6-1.4 0.6-0.6 1.6-0.6 0.9 0 1.5 0.6 0.6 0.5 0.6 1.4 0 0.8-0.6 1.4-0.6 0.6-1.5 0.6zm-1.7 15.4v-13.4h3.4v13.4z"/>
			</g>
		</g>
		<g>
			<g>
				<path class="s1" d="m875.2 45.7q-2.1 0-3.4-1-1.2-1-1.2-3.6v-5.9h-2.3v-2.9h2.3l0.4-3.6h3v3.6h3.6v2.9h-3.6v5.9q0 1 0.4 1.3 0.4 0.4 1.5 0.4h1.7v2.9z"/>
			</g>
		</g>
	</g>
	<g>
		<g>
			<g>
				<path fill-rule="evenodd" class="s1" d="m887 46.1q-1.9 0-3.5-0.9-1.5-0.9-2.4-2.5-0.9-1.6-0.9-3.7 0-2 0.9-3.6 0.9-1.6 2.4-2.5 1.6-0.9 3.5-0.9 2 0 3.5 0.9 1.6 0.9 2.5 2.5 0.9 1.6 0.9 3.6 0 2.1-0.9 3.7-0.9 1.6-2.5 2.5-1.6 0.9-3.5 0.9zm0-3q1.4 0 2.4-1.1 1-1 1-3 0-2-1-3-1-1-2.4-1-1.3 0-2.3 1-1 1-1 3 0 2 1 3 1 1.1 2.3 1.1z"/>
			</g>
		</g>
	</g>
	<g>
		<g>
			<g>
				<path class="s1" d="m898.9 39.8l-0.1-4.4h1.2q1.4 0 2.5-0.2 1.2-0.3 1.9-1 0.6-0.7 0.6-2 0-1.3-0.8-2.1-0.7-0.7-2-0.7-1.4 0-2.1 0.7-0.8 0.8-0.8 2h-3.3q0-1.6 0.7-2.9 0.8-1.2 2.2-2 1.3-0.7 3.3-0.7 1.8 0 3.2 0.7 1.4 0.7 2.2 1.9 0.8 1.3 0.8 3.1 0 1.8-0.9 3.1-0.8 1.2-2.2 1.8-1.4 0.6-3.3 0.6v2.1zm1.5 6.1q-1 0-1.6-0.6-0.6-0.6-0.6-1.4 0-0.9 0.6-1.5 0.6-0.6 1.6-0.6 0.9 0 1.5 0.6 0.6 0.6 0.6 1.5 0 0.8-0.6 1.4-0.6 0.6-1.5 0.6z"/>
			</g>
		</g>
	</g>
	<g>
		<g>
			<g>
				<path class="s2" d="m975.4 119.3l2-19.7h20.2v4.7h-15.9l-1.2 10.7q2.9-1.7 6.6-1.7 5.4 0 8.5 3.6 3.2 3.5 3.2 9.6 0 6.1-3.3 9.6-3.3 3.5-9.2 3.5-5.2 0-8.5-2.9-3.3-2.9-3.8-8h4.8q0.4 3.3 2.4 5.1 1.9 1.7 5.1 1.7 3.5 0 5.5-2.4 2-2.4 2-6.6 0-3.9-2.2-6.3-2.1-2.4-5.7-2.4-3.3 0-5.1 1.4l-1.4 1.1z"/>
			</g>
		</g>
	</g>
	<g>
		<g>
			<g>
				<path class="s1" d="m46.8 220.6q-1.6 0-2.5 1.3-0.9 1.2-0.9 3.3 0 4.6 3.4 4.6 1.4 0 3.5-0.8v2.4q-1.7 0.7-3.8 0.7-2.9 0-4.5-1.7-1.5-1.8-1.5-5.2 0-2.1 0.7-3.7 0.8-1.6 2.2-2.4 1.5-0.8 3.4-0.8 2 0 4 0.9l-1 2.3q-0.7-0.3-1.5-0.6-0.8-0.3-1.5-0.3z"/>
			</g>
		</g>
	</g>
	<g>
		<g>
			<g>
				<path fill-rule="evenodd" class="s1" d="m59.5 232l-0.6-1.5q-0.8 0.9-1.5 1.3-0.8 0.3-2 0.3-1.5 0-2.3-0.8-0.9-0.9-0.9-2.4 0-1.7 1.2-2.5 1.1-0.7 3.5-0.8l1.7-0.1v-0.4q0-1.6-1.6-1.6-1.2 0-2.9 0.8l-0.9-2q1.8-0.9 3.9-0.9 2.1 0 3.2 0.9 1.1 0.9 1.1 2.8v6.9zm-0.8-4.8h-1.1q-1.2 0-1.8 0.4-0.6 0.4-0.6 1.3 0 1.2 1.4 1.2 0.9 0 1.5-0.6 0.6-0.5 0.6-1.5z"/>
			</g>
		</g>
	</g>
	<g>
		<g>
			<g>
				<path fill-rule="evenodd" class="s1" d="m67.6 232.1q-1.8 0-2.9-1.4-1-1.4-1-3.9 0-2.5 1.1-4 1-1.4 2.9-1.4 1.9 0 3 1.5h0.1q-0.3-1.1-0.3-2v-3.3h2.9v14.4h-2.2l-0.5-1.4h-0.2q-0.9 1.5-2.9 1.5zm1-2.2q1.1 0 1.6-0.6 0.5-0.7 0.5-2.2v-0.3q0-1.6-0.5-2.4-0.5-0.7-1.6-0.7-1 0-1.5 0.8-0.5 0.8-0.5 2.3 0 1.6 0.5 2.3 0.5 0.8 1.5 0.8z"/>
			</g>
		</g>
	</g>
	<g>
		<g>
			<g>
				<path fill-rule="evenodd" class="s1" d="m82.9 232l-0.6-1.5q-0.8 0.9-1.5 1.3-0.8 0.3-2 0.3-1.5 0-2.3-0.8-0.9-0.9-0.9-2.4 0-1.7 1.2-2.5 1.1-0.7 3.5-0.8l1.7-0.1v-0.4q0-1.6-1.6-1.6-1.2 0-2.9 0.8l-0.9-2q1.8-0.9 3.9-0.9 2.1 0 3.2 0.9 1.1 0.9 1.1 2.8v6.9zm-0.8-4.8h-1.1q-1.2 0-1.8 0.4-0.6 0.4-0.6 1.3 0 1.2 1.4 1.2 0.9 0 1.5-0.6 0.6-0.5 0.6-1.5z"/>
			</g>
		</g>
	</g>
	<g>
		<g>
			<g>
				<path class="s1" d="m95 228.9q0 1.6-1.2 2.4-1.1 0.8-3.3 0.8-1.1 0-1.9-0.1-0.8-0.2-1.5-0.5v-2.3q0.8 0.4 1.8 0.6 1 0.3 1.7 0.3 1.6 0 1.6-0.9 0-0.3-0.2-0.5-0.2-0.3-0.7-0.5-0.5-0.3-1.4-0.6-1.2-0.5-1.7-1-0.6-0.4-0.8-0.9-0.3-0.6-0.3-1.4 0-1.4 1.1-2.1 1-0.8 3-0.8 1.9 0 3.6 0.9l-0.8 2q-0.8-0.4-1.5-0.6-0.6-0.2-1.3-0.2-1.3 0-1.3 0.7 0 0.4 0.4 0.7 0.4 0.2 1.8 0.8 1.2 0.5 1.7 0.9 0.6 0.4 0.9 1 0.3 0.5 0.3 1.3z"/>
			</g>
		</g>
	</g>
	<g>
		<g>
			<g>
				<path class="s1" d="m101.5 229.9q0.7 0 1.8-0.3v2.1q-1.1 0.4-2.6 0.4-1.7 0-2.5-0.8-0.7-0.9-0.7-2.6v-5h-1.4v-1.2l1.6-0.9 0.8-2.2h1.8v2.2h2.9v2.1h-2.9v5q0 0.6 0.3 0.9 0.3 0.3 0.9 0.3z"/>
			</g>
		</g>
	</g>
	<g>
		<g>
			<g>
				<path class="s1" d="m111.1 221.4q0.6 0 1 0.1l-0.2 2.7q-0.4-0.1-0.9-0.1-1.3 0-2.1 0.7-0.7 0.7-0.7 1.9v5.3h-2.8v-10.4h2.1l0.4 1.8h0.2q0.4-0.9 1.2-1.4 0.9-0.6 1.8-0.6z"/>
			</g>
		</g>
	</g>
	<g>
		<g>
			<g>
				<path fill-rule="evenodd" class="s1" d="m118.6 232.1q-2.5 0-3.9-1.3-1.4-1.4-1.4-3.9 0-2.6 1.3-4.1 1.3-1.4 3.6-1.4 2.2 0 3.4 1.3 1.2 1.2 1.2 3.4v1.4h-6.6q0 1.2 0.7 1.9 0.7 0.6 1.9 0.6 0.9 0 1.7-0.1 0.9-0.2 1.8-0.7v2.2q-0.8 0.4-1.6 0.6-0.9 0.1-2.1 0.1zm-0.4-8.7q-0.9 0-1.4 0.6-0.5 0.6-0.6 1.6h4q0-1-0.6-1.6-0.5-0.6-1.4-0.6z"/>
			</g>
		</g>
	</g>
	<g>
		<g>
			<g>
				<path class="s1" d="m124.2 228v-2.3h5v2.3z"/>
			</g>
		</g>
	</g>
	<g>
		<g>
			<g>
				<path class="s1" d="m138.4 228.9q0 1.6-1.1 2.4-1.1 0.8-3.3 0.8-1.1 0-1.9-0.1-0.8-0.2-1.5-0.5v-2.3q0.8 0.4 1.8 0.6 1 0.3 1.7 0.3 1.6 0 1.6-0.9-0.1-0.3-0.3-0.5-0.2-0.3-0.7-0.5-0.5-0.3-1.3-0.6-1.2-0.5-1.7-1-0.6-0.4-0.9-0.9-0.2-0.6-0.2-1.4 0-1.4 1.1-2.1 1-0.8 3-0.8 1.9 0 3.6 0.9l-0.8 2q-0.8-0.4-1.5-0.6-0.7-0.2-1.4-0.2-1.2 0-1.2 0.7 0 0.4 0.4 0.7 0.4 0.2 1.8 0.8 1.2 0.5 1.7 0.9 0.6 0.4 0.9 1 0.2 0.5 0.2 1.3z"/>
			</g>
		</g>
	</g>
	<g>
		<g>
			<g>
				<path fill-rule="evenodd" class="s1" d="m145.3 232.1q-2.5 0-3.9-1.3-1.4-1.4-1.4-3.9 0-2.6 1.3-4.1 1.3-1.4 3.6-1.4 2.2 0 3.4 1.3 1.2 1.2 1.2 3.4v1.4h-6.6q0 1.2 0.7 1.9 0.6 0.6 1.8 0.6 1 0 1.8-0.1 0.8-0.2 1.7-0.7v2.2q-0.7 0.4-1.5 0.6-0.9 0.1-2.1 0.1zm-0.4-8.7q-0.9 0-1.4 0.6-0.5 0.6-0.6 1.6h4q0-1-0.6-1.6-0.5-0.6-1.4-0.6z"/>
			</g>
		</g>
	</g>
	<g>
		<g>
			<g>
				<path class="s1" d="m217.6 220.6q-1.6 0-2.5 1.3-0.9 1.2-0.9 3.3 0 4.6 3.4 4.6 1.5 0 3.5-0.8v2.4q-1.7 0.7-3.7 0.7-3 0-4.5-1.7-1.6-1.8-1.6-5.2 0-2.1 0.8-3.7 0.7-1.6 2.2-2.4 1.4-0.8 3.3-0.8 2 0 4 0.9l-0.9 2.3q-0.8-0.3-1.6-0.6-0.7-0.3-1.5-0.3z"/>
			</g>
		</g>
	</g>
	<g>
		<g>
			<g>
				<path class="s1" d="m229.5 221.4q0.6 0 0.9 0.1l-0.2 2.7q-0.3-0.1-0.8-0.1-1.3 0-2.1 0.7-0.7 0.7-0.7 1.9v5.3h-2.9v-10.4h2.2l0.4 1.8h0.1q0.5-0.9 1.3-1.4 0.8-0.6 1.8-0.6z"/>
			</g>
		</g>
	</g>
	<g>
		<g>
			<g>
				<path class="s1" d="m232.2 219q0-1.4 1.5-1.4 1.6 0 1.6 1.4 0 0.6-0.4 1-0.4 0.3-1.2 0.3-1.5 0-1.5-1.3zm2.9 13h-2.8v-10.4h2.8z"/>
			</g>
		</g>
	</g>
	<g>
		<g>
			<g>
				<path fill-rule="evenodd" class="s1" d="m242.8 232.1q-2.5 0-3.9-1.3-1.4-1.4-1.4-3.9 0-2.6 1.3-4.1 1.3-1.4 3.6-1.4 2.1 0 3.4 1.3 1.2 1.2 1.2 3.4v1.4h-6.7q0.1 1.2 0.7 1.9 0.7 0.6 1.9 0.6 0.9 0 1.8-0.1 0.8-0.2 1.7-0.7v2.2q-0.7 0.4-1.6 0.6-0.8 0.1-2 0.1zm-0.4-8.7q-0.9 0-1.4 0.6-0.5 0.6-0.6 1.6h3.9q0-1-0.5-1.6-0.5-0.6-1.4-0.6z"/>
			</g>
		</g>
	</g>
	<g>
		<g>
			<g>
			</g>
		</g>
	</g>
	<g>
		<g>
			<g>
				<path class="s1" d="m261.5 232l-0.4-1.4h-0.1q-0.5 0.8-1.3 1.2-0.8 0.3-1.9 0.3-1.8 0-2.7-0.9-1-1-1-2.8v-6.8h2.9v6.1q0 1.1 0.3 1.6 0.4 0.6 1.3 0.6 1.2 0 1.7-0.8 0.6-0.8 0.6-2.6v-4.9h2.8v10.4z"/>
			</g>
		</g>
	</g>
	<g>
		<g>
			<g>
				<path class="s1" d="m275.9 232h-2.8v-6.1q0-1.1-0.4-1.6-0.4-0.6-1.2-0.6-1.1 0-1.6 0.8-0.4 0.8-0.4 2.6v4.9h-2.9v-10.4h2.2l0.4 1.3h0.1q0.4-0.7 1.2-1.1 0.8-0.4 1.8-0.4 2.3 0 3.2 1.5h0.2q0.4-0.7 1.2-1.1 0.8-0.4 1.9-0.4 1.7 0 2.6 0.9 0.9 0.9 0.9 2.9v6.8h-2.8v-6.1q0-1.1-0.4-1.6-0.4-0.6-1.2-0.6-1 0-1.5 0.7-0.5 0.8-0.5 2.4z"/>
			</g>
		</g>
	</g>
	<g>
		<g>
			<g>
			</g>
		</g>
	</g>
	<g>
		<g>
			<g>
				<path fill-rule="evenodd" class="s1" d="m301.6 225.1q0 3.3-1.9 5.1-1.9 1.8-5.5 1.8h-3.8v-13.5h4.2q3.3 0 5.1 1.7 1.9 1.7 1.9 4.9zm-3 0q0-4.3-3.9-4.3h-1.5v8.8h1.2q4.2 0 4.2-4.5z"/>
			</g>
		</g>
	</g>
	<g>
		<g>
			<g>
				<path fill-rule="evenodd" class="s1" d="m313.5 226.8q0 2.5-1.3 3.9-1.3 1.4-3.7 1.4-1.5 0-2.6-0.6-1.2-0.7-1.8-1.9-0.6-1.2-0.6-2.8 0-2.6 1.3-4 1.4-1.4 3.7-1.4 1.5 0 2.7 0.7 1.1 0.6 1.7 1.8 0.6 1.2 0.6 2.9zm-7.1 0q0 1.5 0.5 2.3 0.5 0.8 1.6 0.8 1.2 0 1.6-0.8 0.5-0.8 0.5-2.3 0-1.6-0.5-2.3-0.5-0.8-1.6-0.8-1.1 0-1.6 0.8-0.5 0.7-0.5 2.3z"/>
			</g>
		</g>
	</g>
	<g>
		<g>
			<g>
				<path class="s1" d="m320 232.1q-4.8 0-4.8-5.3 0-2.6 1.3-4 1.3-1.4 3.8-1.4 1.8 0 3.2 0.7l-0.8 2.2q-0.7-0.2-1.3-0.4-0.5-0.2-1.1-0.2-2.2 0-2.2 3.1 0 3.1 2.2 3.1 0.8 0 1.5-0.3 0.7-0.2 1.4-0.6v2.4q-0.7 0.4-1.4 0.6-0.7 0.1-1.8 0.1z"/>
			</g>
		</g>
	</g>
	<g>
		<g>
			<g>
				<path class="s1" d="m332.9 232l-0.4-1.4h-0.1q-0.5 0.8-1.3 1.2-0.8 0.3-1.9 0.3-1.8 0-2.8-0.9-0.9-1-0.9-2.8v-6.8h2.8v6.1q0 1.1 0.4 1.6 0.4 0.6 1.3 0.6 1.2 0 1.7-0.8 0.5-0.8 0.5-2.6v-4.9h2.9v10.4z"/>
			</g>
		</g>
	</g>
	<g>
		<g>
			<g>
				<path class="s1" d="m347.3 232h-2.9v-6.1q0-1.1-0.3-1.6-0.4-0.6-1.2-0.6-1.1 0-1.6 0.8-0.5 0.8-0.5 2.6v4.9h-2.8v-10.4h2.2l0.4 1.3h0.1q0.4-0.7 1.2-1.1 0.8-0.4 1.8-0.4 2.3 0 3.1 1.5h0.3q0.4-0.7 1.2-1.1 0.8-0.4 1.8-0.4 1.8 0 2.7 0.9 0.9 0.9 0.9 2.9v6.8h-2.8v-6.1q0-1.1-0.4-1.6-0.4-0.6-1.2-0.6-1 0-1.5 0.7-0.5 0.8-0.5 2.4z"/>
			</g>
		</g>
	</g>
	<g>
		<g>
			<g>
				<path fill-rule="evenodd" class="s1" d="m361.3 232.1q-2.5 0-3.9-1.3-1.4-1.4-1.4-3.9 0-2.6 1.3-4.1 1.3-1.4 3.6-1.4 2.1 0 3.4 1.3 1.2 1.2 1.2 3.4v1.4h-6.7q0.1 1.2 0.7 1.9 0.7 0.6 1.9 0.6 0.9 0 1.8-0.1 0.8-0.2 1.7-0.7v2.2q-0.7 0.4-1.6 0.6-0.8 0.1-2 0.1zm-0.4-8.7q-0.9 0-1.4 0.6-0.5 0.6-0.6 1.6h3.9q0-1-0.5-1.6-0.5-0.6-1.4-0.6z"/>
			</g>
		</g>
	</g>
	<g>
		<g>
			<g>
				<path class="s1" d="m377.3 232h-2.8v-6.1q0-1.1-0.4-1.6-0.4-0.6-1.3-0.6-1.2 0-1.7 0.8-0.5 0.8-0.5 2.6v4.9h-2.8v-10.4h2.1l0.4 1.3h0.2q0.4-0.7 1.3-1.1 0.8-0.4 1.8-0.4 1.8 0 2.8 1 0.9 1 0.9 2.8z"/>
			</g>
		</g>
	</g>
	<g>
		<g>
			<g>
				<path class="s1" d="m384.6 229.9q0.7 0 1.7-0.3v2.1q-1 0.4-2.6 0.4-1.6 0-2.4-0.8-0.8-0.9-0.8-2.6v-5h-1.3v-1.2l1.5-0.9 0.8-2.2h1.8v2.2h2.9v2.1h-2.9v5q0 0.6 0.4 0.9 0.3 0.3 0.9 0.3z"/>
			</g>
		</g>
	</g>
	<g>
		<g>
			<g>
				<path fill-rule="evenodd" class="s1" d="m397.8 226.8q0 2.5-1.3 3.9-1.4 1.4-3.7 1.4-1.5 0-2.7-0.6-1.1-0.7-1.7-1.9-0.6-1.2-0.6-2.8 0-2.6 1.3-4 1.3-1.4 3.7-1.4 1.5 0 2.6 0.7 1.2 0.6 1.8 1.8 0.6 1.2 0.6 2.9zm-7.1 0q0 1.5 0.5 2.3 0.5 0.8 1.6 0.8 1.1 0 1.6-0.8 0.5-0.8 0.5-2.3 0-1.6-0.5-2.3-0.5-0.8-1.6-0.8-1.1 0-1.6 0.8-0.5 0.7-0.5 2.3z"/>
			</g>
		</g>
	</g>
	<g>
		<g>
			<g>
				<path class="s1" d="m449.7 232h-7.7v-13.5h7.7v2.3h-4.9v3h4.6v2.3h-4.6v3.5h4.9z"/>
			</g>
		</g>
	</g>
	<g>
		<g>
			<g>
				<path class="s1" d="m459.5 228.9q0 1.6-1.1 2.4-1.1 0.8-3.3 0.8-1.1 0-1.9-0.1-0.8-0.2-1.5-0.5v-2.3q0.8 0.4 1.8 0.6 1 0.3 1.7 0.3 1.6 0 1.6-0.9 0-0.3-0.2-0.5-0.2-0.3-0.7-0.5-0.6-0.3-1.4-0.6-1.2-0.5-1.7-1-0.6-0.4-0.9-0.9-0.2-0.6-0.2-1.4 0-1.4 1.1-2.1 1-0.8 3-0.8 1.9 0 3.6 0.9l-0.8 2q-0.8-0.4-1.5-0.6-0.7-0.2-1.4-0.2-1.2 0-1.2 0.7 0 0.4 0.4 0.7 0.4 0.2 1.8 0.8 1.2 0.5 1.7 0.9 0.6 0.4 0.9 1 0.2 0.5 0.2 1.3z"/>
			</g>
		</g>
	</g>
	<g>
		<g>
			<g>
				<path class="s1" d="m465.9 232.1q-4.8 0-4.8-5.3 0-2.6 1.3-4 1.3-1.4 3.8-1.4 1.8 0 3.2 0.7l-0.8 2.2q-0.7-0.2-1.3-0.4-0.5-0.2-1.1-0.2-2.2 0-2.2 3.1 0 3.1 2.2 3.1 0.8 0 1.5-0.3 0.7-0.2 1.4-0.6v2.4q-0.7 0.4-1.4 0.6-0.7 0.1-1.8 0.1z"/>
			</g>
		</g>
	</g>
	<g>
		<g>
			<g>
				<path fill-rule="evenodd" class="s1" d="m480.8 226.8q0 2.5-1.3 3.9-1.3 1.4-3.7 1.4-1.5 0-2.6-0.6-1.2-0.7-1.8-1.9-0.6-1.2-0.6-2.8 0-2.6 1.4-4 1.3-1.4 3.7-1.4 1.5 0 2.6 0.7 1.1 0.6 1.7 1.8 0.6 1.2 0.6 2.9zm-7.1 0q0 1.5 0.5 2.3 0.5 0.8 1.6 0.8 1.2 0 1.7-0.8 0.5-0.8 0.5-2.3 0-1.6-0.5-2.3-0.5-0.8-1.7-0.8-1.1 0-1.6 0.8-0.5 0.7-0.5 2.3z"/>
			</g>
		</g>
	</g>
	<g>
		<g>
			<g>
				<path class="s1" d="m486 232h-2.8v-14.4h2.8z"/>
			</g>
		</g>
	</g>
	<g>
		<g>
			<g>
				<path class="s1" d="m498.5 232h-2.8v-6.1q0-2.2-1.7-2.2-1.2 0-1.7 0.8-0.5 0.8-0.5 2.6v4.9h-2.8v-14.4h2.8v2.9q0 0.3-0.1 1.6l-0.1 0.8h0.2q0.9-1.5 3-1.5 1.8 0 2.7 1 1 1 1 2.8z"/>
			</g>
		</g>
	</g>
	<g>
		<g>
			<g>
				<path fill-rule="evenodd" class="s1" d="m507.9 232l-0.5-1.5h-0.1q-0.7 0.9-1.4 1.3-0.8 0.3-2 0.3-1.5 0-2.3-0.8-0.9-0.9-0.9-2.4 0-1.7 1.1-2.5 1.2-0.7 3.5-0.8l1.8-0.1v-0.4q0-1.6-1.6-1.6-1.2 0-2.9 0.8l-0.9-2q1.7-0.9 3.9-0.9 2.1 0 3.2 0.9 1.1 0.9 1.1 2.8v6.9zm-0.8-4.8h-1.1q-1.2 0-1.8 0.4-0.6 0.4-0.6 1.3 0 1.2 1.3 1.2 1 0 1.6-0.6 0.6-0.5 0.6-1.5z"/>
			</g>
		</g>
	</g>
	<g>
		<g>
			<g>
			</g>
		</g>
	</g>
	<g>
		<g>
			<g>
				<path class="s1" d="m525.1 232l-0.4-1.4h-0.2q-0.4 0.8-1.3 1.2-0.8 0.3-1.9 0.3-1.8 0-2.7-0.9-0.9-1-0.9-2.8v-6.8h2.8v6.1q0 1.1 0.4 1.6 0.4 0.6 1.3 0.6 1.1 0 1.7-0.8 0.5-0.8 0.5-2.6v-4.9h2.8v10.4z"/>
			</g>
		</g>
	</g>
	<g>
		<g>
			<g>
				<path class="s1" d="m539.4 232h-2.8v-6.1q0-1.1-0.4-1.6-0.4-0.6-1.1-0.6-1.1 0-1.6 0.8-0.5 0.8-0.5 2.6v4.9h-2.8v-10.4h2.1l0.4 1.3h0.2q0.4-0.7 1.2-1.1 0.7-0.4 1.8-0.4 2.3 0 3.1 1.5h0.3q0.4-0.7 1.2-1.1 0.8-0.4 1.8-0.4 1.7 0 2.7 0.9 0.9 0.9 0.9 2.9v6.8h-2.9v-6.1q0-1.1-0.3-1.6-0.4-0.6-1.2-0.6-1.1 0-1.6 0.7-0.5 0.8-0.5 2.4z"/>
			</g>
		</g>
	</g>
	<g>
		<g>
			<g>
			</g>
		</g>
	</g>
	<g>
		<g>
			<g>
				<path class="s1" d="m559.6 232l-3.2-10.6h-0.1q0.2 3.2 0.2 4.3v6.3h-2.6v-13.5h3.9l3.2 10.3 3.4-10.3h3.9v13.5h-2.6v-6.4q0-0.5 0-1.1 0-0.6 0.1-3.1h-0.1l-3.5 10.6z"/>
			</g>
		</g>
	</g>
	<g>
		<g>
			<g>
				<path fill-rule="evenodd" class="s1" d="m580.9 226.8q0 2.5-1.3 3.9-1.4 1.4-3.7 1.4-1.5 0-2.7-0.6-1.1-0.7-1.7-1.9-0.6-1.2-0.6-2.8 0-2.6 1.3-4 1.3-1.4 3.7-1.4 1.5 0 2.6 0.7 1.2 0.6 1.8 1.8 0.6 1.2 0.6 2.9zm-7.2 0q0 1.5 0.5 2.3 0.6 0.8 1.7 0.8 1.1 0 1.6-0.8 0.5-0.8 0.5-2.3 0-1.6-0.5-2.3-0.5-0.8-1.6-0.8-1.2 0-1.7 0.8-0.5 0.7-0.5 2.3z"/>
			</g>
		</g>
	</g>
	<g>
		<g>
			<g>
				<path fill-rule="evenodd" class="s1" d="m586.5 232.1q-1.8 0-2.9-1.4-1-1.4-1-3.9 0-2.5 1-4 1.1-1.4 3-1.4 1.9 0 2.9 1.5h0.1q-0.2-1.1-0.2-2v-3.3h2.8v14.4h-2.1l-0.6-1.4h-0.1q-0.9 1.5-2.9 1.5zm1-2.2q1.1 0 1.6-0.6 0.5-0.7 0.5-2.2v-0.3q0-1.6-0.5-2.4-0.5-0.7-1.7-0.7-0.9 0-1.4 0.8-0.6 0.8-0.6 2.3 0 1.6 0.6 2.3 0.5 0.8 1.5 0.8z"/>
			</g>
		</g>
	</g>
	<g>
		<g>
			<g>
				<path fill-rule="evenodd" class="s1" d="m599.9 232.1q-2.5 0-3.9-1.3-1.4-1.4-1.4-3.9 0-2.6 1.3-4.1 1.3-1.4 3.6-1.4 2.1 0 3.4 1.3 1.2 1.2 1.2 3.4v1.4h-6.7q0.1 1.2 0.7 1.9 0.7 0.6 1.9 0.6 0.9 0 1.8-0.1 0.8-0.2 1.7-0.7v2.2q-0.7 0.4-1.6 0.6-0.8 0.1-2 0.1zm-0.4-8.7q-0.9 0-1.4 0.6-0.5 0.6-0.6 1.6h3.9q0-1-0.5-1.6-0.5-0.6-1.4-0.6z"/>
			</g>
		</g>
	</g>
	<g>
		<g>
			<g>
				<path class="s1" d="m609.2 232h-2.8v-14.4h2.8z"/>
			</g>
		</g>
	</g>
	<g>
		<g>
			<g>
				<path fill-rule="evenodd" class="s1" d="m621.5 226.8q0 2.5-1.3 3.9-1.3 1.4-3.7 1.4-1.5 0-2.6-0.6-1.2-0.7-1.8-1.9-0.6-1.2-0.6-2.8 0-2.6 1.3-4 1.4-1.4 3.8-1.4 1.4 0 2.6 0.7 1.1 0.6 1.7 1.8 0.6 1.2 0.6 2.9zm-7.1 0q0 1.5 0.5 2.3 0.5 0.8 1.6 0.8 1.2 0 1.7-0.8 0.5-0.8 0.5-2.3 0-1.6-0.5-2.3-0.5-0.8-1.7-0.8-1.1 0-1.6 0.8-0.5 0.7-0.5 2.3z"/>
			</g>
		</g>
	</g>
	<g>
		<g>
			<g>
				<path class="s1" d="m679.1 232h-7.8v-13.5h7.8v2.3h-4.9v3h4.6v2.3h-4.6v3.5h4.9z"/>
			</g>
		</g>
	</g>
	<g>
		<g>
			<g>
				<path fill-rule="evenodd" class="s1" d="m685 232.1q-1.9 0-2.9-1.4-1-1.4-1-3.9 0-2.5 1-4 1.1-1.4 3-1.4 1.9 0 2.9 1.5h0.1q-0.2-1.1-0.2-2v-3.3h2.8v14.4h-2.1l-0.6-1.4h-0.1q-1 1.5-2.9 1.5zm1-2.2q1 0 1.5-0.6 0.6-0.7 0.6-2.2v-0.3q0-1.6-0.5-2.4-0.5-0.7-1.7-0.7-0.9 0-1.5 0.8-0.5 0.8-0.5 2.3 0 1.6 0.6 2.3 0.5 0.8 1.5 0.8z"/>
			</g>
		</g>
	</g>
	<g>
		<g>
			<g>
				<path class="s1" d="m693.6 219q0-1.4 1.5-1.4 1.5 0 1.5 1.4 0 0.6-0.4 1-0.3 0.3-1.1 0.3-1.5 0-1.5-1.3zm2.9 13h-2.8v-10.4h2.8z"/>
			</g>
		</g>
	</g>
	<g>
		<g>
			<g>
				<path class="s1" d="m703.8 229.9q0.7 0 1.8-0.3v2.1q-1.1 0.4-2.6 0.4-1.7 0-2.5-0.8-0.7-0.9-0.7-2.6v-5h-1.4v-1.2l1.6-0.9 0.8-2.2h1.8v2.2h2.9v2.1h-2.9v5q0 0.6 0.3 0.9 0.3 0.3 0.9 0.3z"/>
			</g>
		</g>
	</g>
	<g>
		<g>
			<g>
				<path fill-rule="evenodd" class="s1" d="m712.3 232.1q-2.5 0-3.9-1.3-1.4-1.4-1.4-3.9 0-2.6 1.3-4.1 1.3-1.4 3.6-1.4 2.2 0 3.4 1.3 1.2 1.2 1.2 3.4v1.4h-6.6q0 1.2 0.7 1.9 0.7 0.6 1.9 0.6 0.9 0 1.7-0.1 0.9-0.2 1.8-0.7v2.2q-0.8 0.4-1.6 0.6-0.9 0.1-2.1 0.1zm-0.4-8.7q-0.9 0-1.4 0.6-0.5 0.6-0.5 1.6h3.9q0-1-0.5-1.6-0.6-0.6-1.5-0.6z"/>
			</g>
		</g>
	</g>
	<g>
		<g>
			<g>
			</g>
		</g>
	</g>
	<g>
		<g>
			<g>
				<path class="s1" d="m731 228.9q0 1.6-1.1 2.4-1.1 0.8-3.3 0.8-1.2 0-2-0.1-0.8-0.2-1.4-0.5v-2.3q0.7 0.4 1.7 0.6 1 0.3 1.8 0.3 1.5 0 1.5-0.9 0-0.3-0.2-0.5-0.2-0.3-0.7-0.5-0.5-0.3-1.3-0.6-1.3-0.5-1.8-1-0.6-0.4-0.8-0.9-0.3-0.6-0.3-1.4 0-1.4 1.1-2.1 1.1-0.8 3-0.8 1.9 0 3.7 0.9l-0.9 2q-0.8-0.4-1.5-0.6-0.6-0.2-1.3-0.2-1.3 0-1.3 0.7 0 0.4 0.4 0.7 0.4 0.2 1.8 0.8 1.2 0.5 1.8 0.9 0.5 0.4 0.8 1 0.3 0.5 0.3 1.3z"/>
			</g>
		</g>
	</g>
	<g>
		<g>
			<g>
				<path fill-rule="evenodd" class="s1" d="m737.8 232.1q-2.5 0-3.9-1.3-1.4-1.4-1.4-3.9 0-2.6 1.3-4.1 1.3-1.4 3.6-1.4 2.2 0 3.4 1.3 1.2 1.2 1.2 3.4v1.4h-6.6q0 1.2 0.7 1.9 0.7 0.6 1.9 0.6 0.9 0 1.7-0.1 0.9-0.2 1.8-0.7v2.2q-0.8 0.4-1.6 0.6-0.9 0.1-2.1 0.1zm-0.4-8.7q-0.9 0-1.4 0.6-0.5 0.6-0.5 1.6h3.9q0-1-0.5-1.6-0.6-0.6-1.5-0.6z"/>
			</g>
		</g>
	</g>
	<g>
		<g>
			<g>
				<path class="s1" d="m751.7 232l-0.4-1.4h-0.2q-0.4 0.8-1.3 1.2-0.8 0.3-1.8 0.3-1.9 0-2.8-0.9-0.9-1-0.9-2.8v-6.8h2.8v6.1q0 1.1 0.4 1.6 0.4 0.6 1.3 0.6 1.2 0 1.7-0.8 0.5-0.8 0.5-2.6v-4.9h2.8v10.4z"/>
			</g>
		</g>
	</g>
	<g>
		<g>
			<g>
			</g>
		</g>
	</g>
	<g>
		<g>
			<g>
				<path fill-rule="evenodd" class="s1" d="m768.2 232l-0.5-1.5h-0.1q-0.7 0.9-1.4 1.3-0.8 0.3-2 0.3-1.5 0-2.3-0.8-0.9-0.9-0.9-2.4 0-1.7 1.2-2.5 1.1-0.7 3.4-0.8l1.8-0.1v-0.4q0-1.6-1.6-1.6-1.2 0-2.9 0.8l-0.9-2q1.7-0.9 3.9-0.9 2.1 0 3.2 0.9 1.1 0.9 1.1 2.8v6.9zm-0.8-4.8h-1.1q-1.2 0-1.8 0.4-0.6 0.4-0.6 1.3 0 1.2 1.3 1.2 1 0 1.6-0.6 0.6-0.5 0.6-1.5z"/>
			</g>
		</g>
	</g>
	<g>
		<g>
			<g>
				<path class="s1" d="m778.9 221.4q0.6 0 0.9 0.1l-0.2 2.7q-0.3-0.1-0.8-0.1-1.4 0-2.1 0.7-0.8 0.7-0.8 1.9v5.3h-2.8v-10.4h2.2l0.4 1.8h0.1q0.5-0.9 1.3-1.4 0.8-0.6 1.8-0.6z"/>
			</g>
		</g>
	</g>
	<g>
		<g>
			<g>
				<path fill-rule="evenodd" class="s1" d="m785 232.1q-1.8 0-2.9-1.4-1-1.4-1-3.9 0-2.5 1-3.9 1.1-1.5 2.9-1.5 1 0 1.8 0.4 0.7 0.4 1.2 1.1h0.1l0.3-1.3h2.3v14.9h-2.8v-4.3q0-0.6 0.1-1.6h-0.1q-0.4 0.8-1.2 1.2-0.7 0.3-1.7 0.3zm1-2.2q1.1 0 1.6-0.6 0.5-0.6 0.5-2.1v-0.4q0-1.6-0.5-2.4-0.5-0.7-1.7-0.7-1.9 0-1.9 3.1 0 1.6 0.5 2.4 0.5 0.7 1.5 0.7z"/>
			</g>
		</g>
	</g>
	<g>
		<g>
			<g>
				<path class="s1" d="m801 232l-0.4-1.4h-0.1q-0.5 0.8-1.3 1.2-0.8 0.3-1.9 0.3-1.8 0-2.7-0.9-1-1-1-2.8v-6.8h2.8v6.1q0 1.1 0.4 1.6 0.4 0.6 1.3 0.6 1.2 0 1.7-0.8 0.5-0.8 0.6-2.6v-4.9h2.8v10.4z"/>
			</g>
		</g>
	</g>
	<g>
		<g>
			<g>
				<path class="s1" d="m806 219q0-1.4 1.5-1.4 1.6 0 1.6 1.4 0 0.6-0.4 1-0.4 0.3-1.2 0.3-1.5 0-1.5-1.3zm2.9 13h-2.8v-10.4h2.8z"/>
			</g>
		</g>
	</g>
	<g>
		<g>
			<g>
				<path class="s1" d="m814.4 232l-4-10.4h3l2 5.9q0.3 1.1 0.4 2.1 0.1-0.9 0.4-2.1l2-5.9h3l-4 10.4z"/>
			</g>
		</g>
	</g>
	<g>
		<g>
			<g>
				<path fill-rule="evenodd" class="s1" d="m832 226.8q0 2.5-1.3 3.9-1.3 1.4-3.7 1.4-1.5 0-2.6-0.6-1.2-0.7-1.8-1.9-0.6-1.2-0.6-2.8 0-2.6 1.4-4 1.3-1.4 3.7-1.4 1.5 0 2.6 0.7 1.1 0.6 1.7 1.8 0.6 1.2 0.6 2.9zm-7.1 0q0 1.5 0.5 2.3 0.5 0.8 1.6 0.8 1.2 0 1.7-0.8 0.5-0.8 0.5-2.3 0-1.6-0.5-2.3-0.5-0.8-1.7-0.8-1.1 0-1.6 0.8-0.5 0.7-0.5 2.3z"/>
			</g>
		</g>
	</g>
	<g>
		<g>
			<g>
				<path fill-rule="evenodd" class="s1" d="m883.3 218.5h4.2q2.9 0 4.2 0.8 1.3 0.8 1.3 2.6 0 1.2-0.6 2-0.6 0.7-1.5 0.9v0.1q1.3 0.3 1.9 1.1 0.5 0.7 0.5 2 0 1.9-1.3 2.9-1.3 1.1-3.6 1.1h-5.1zm2.9 5.3h1.6q1.2 0 1.7-0.4 0.5-0.3 0.5-1.1 0-0.8-0.5-1.2-0.6-0.3-1.8-0.3h-1.5zm0 2.3v3.5h1.8q1.2 0 1.8-0.5 0.5-0.4 0.5-1.3 0-1.7-2.3-1.7z"/>
			</g>
		</g>
	</g>
	<g>
		<g>
			<g>
				<path fill-rule="evenodd" class="s1" d="m902.4 232l-0.6-1.5h-0.1q-0.7 0.9-1.4 1.3-0.8 0.3-2 0.3-1.5 0-2.3-0.8-0.9-0.9-0.9-2.4 0-1.7 1.2-2.5 1.1-0.7 3.4-0.8l1.8-0.1v-0.4q0-1.6-1.6-1.6-1.2 0-2.9 0.8l-0.9-2q1.8-0.9 3.9-0.9 2.1 0 3.2 0.9 1.1 0.9 1.1 2.8v6.9zm-0.8-4.8h-1.1q-1.2 0-1.8 0.4-0.6 0.4-0.6 1.3 0 1.2 1.3 1.2 1 0 1.6-0.6 0.6-0.5 0.6-1.5z"/>
			</g>
		</g>
	</g>
	<g>
		<g>
			<g>
				<path class="s1" d="m907.1 219q0-1.4 1.5-1.4 1.6 0 1.6 1.4 0 0.6-0.4 1-0.4 0.3-1.2 0.3-1.5 0-1.5-1.3zm3 13h-2.9v-10.4h2.9z"/>
			</g>
		</g>
	</g>
	<g>
		<g>
			<g>
				<path class="s1" d="m915.1 226.7l-3.3-5.1h3.2l2 3.3 2-3.3h3.2l-3.3 5.1 3.5 5.3h-3.2l-2.2-3.6-2.2 3.6h-3.2z"/>
			</g>
		</g>
	</g>
	<g>
		<g>
			<g>
				<path fill-rule="evenodd" class="s1" d="m928.6 232.1q-2.5 0-3.9-1.3-1.4-1.4-1.4-3.9 0-2.6 1.3-4.1 1.3-1.4 3.6-1.4 2.2 0 3.4 1.3 1.2 1.2 1.2 3.4v1.4h-6.6q0 1.2 0.7 1.9 0.6 0.6 1.8 0.6 1 0 1.8-0.1 0.8-0.2 1.7-0.7v2.2q-0.7 0.4-1.5 0.6-0.9 0.1-2.1 0.1zm-0.4-8.7q-0.9 0-1.4 0.6-0.5 0.6-0.6 1.6h4q0-1-0.6-1.6-0.5-0.6-1.4-0.6z"/>
			</g>
		</g>
	</g>
	<g>
		<g>
			<g>
			</g>
		</g>
	</g>
	<g>
		<g>
			<g>
				<path fill-rule="evenodd" class="s1" d="m949.4 226.8q0 2.5-1.3 3.9-1.3 1.4-3.7 1.4-1.5 0-2.6-0.6-1.2-0.7-1.8-1.9-0.6-1.2-0.6-2.8 0-2.6 1.3-4 1.4-1.4 3.8-1.4 1.4 0 2.6 0.7 1.1 0.6 1.7 1.8 0.6 1.2 0.6 2.9zm-7.1 0q0 1.5 0.5 2.3 0.5 0.8 1.6 0.8 1.2 0 1.6-0.8 0.5-0.8 0.5-2.3 0-1.6-0.5-2.3-0.5-0.8-1.6-0.8-1.1 0-1.6 0.8-0.5 0.7-0.5 2.3z"/>
			</g>
		</g>
	</g>
	<g>
		<g>
			<g>
			</g>
		</g>
	</g>
	<g>
		<g>
			<g>
				<path class="s1" d="m963.9 228.9q0 1.6-1.1 2.4-1.1 0.8-3.3 0.8-1.2 0-1.9-0.1-0.8-0.2-1.5-0.5v-2.3q0.7 0.4 1.7 0.6 1 0.3 1.8 0.3 1.5 0 1.5-0.9 0-0.3-0.2-0.5-0.2-0.3-0.7-0.5-0.5-0.3-1.3-0.6-1.2-0.5-1.8-1-0.6-0.4-0.8-0.9-0.3-0.6-0.3-1.4 0-1.4 1.1-2.1 1.1-0.8 3-0.8 1.9 0 3.7 0.9l-0.9 2q-0.8-0.4-1.4-0.6-0.7-0.2-1.4-0.2-1.3 0-1.3 0.7 0 0.4 0.4 0.7 0.4 0.2 1.8 0.8 1.2 0.5 1.8 0.9 0.5 0.4 0.8 1 0.3 0.5 0.3 1.3z"/>
			</g>
		</g>
	</g>
	<g>
		<g>
			<g>
				<path fill-rule="evenodd" class="s1" d="m970.8 232.1q-2.5 0-4-1.3-1.4-1.4-1.4-3.9 0-2.6 1.3-4.1 1.3-1.4 3.6-1.4 2.2 0 3.4 1.3 1.3 1.2 1.3 3.4v1.4h-6.7q0 1.2 0.7 1.9 0.7 0.6 1.9 0.6 0.9 0 1.7-0.1 0.9-0.2 1.8-0.7v2.2q-0.8 0.4-1.6 0.6-0.8 0.1-2 0.1zm-0.5-8.7q-0.8 0-1.4 0.6-0.5 0.6-0.5 1.6h3.9q0-1-0.5-1.6-0.5-0.6-1.5-0.6z"/>
			</g>
		</g>
	</g>
	<g>
		<g>
			<g>
				<path class="s1" d="m984.6 232l-0.4-1.4h-0.2q-0.4 0.8-1.2 1.2-0.9 0.3-1.9 0.3-1.9 0-2.8-0.9-0.9-1-0.9-2.8v-6.8h2.8v6.1q0 1.1 0.4 1.6 0.4 0.6 1.3 0.6 1.2 0 1.7-0.8 0.5-0.8 0.5-2.6v-4.9h2.8v10.4z"/>
			</g>
		</g>
	</g>
	<g>
		<g>
			<g>
			</g>
		</g>
	</g>
	<g>
		<g>
			<g>
				<path class="s1" d="m999 229.9q0.7 0 1.7-0.3v2.1q-1 0.4-2.6 0.4-1.6 0-2.4-0.8-0.8-0.9-0.8-2.6v-5h-1.3v-1.2l1.5-0.9 0.8-2.2h1.8v2.2h2.9v2.1h-2.9v5q0 0.6 0.4 0.9 0.3 0.3 0.9 0.3z"/>
			</g>
		</g>
	</g>
	<g>
		<g>
			<g>
				<path class="s1" d="m1008.6 221.4q0.6 0 0.9 0.1l-0.2 2.7q-0.3-0.1-0.8-0.1-1.4 0-2.1 0.7-0.8 0.7-0.8 1.9v5.3h-2.8v-10.4h2.2l0.4 1.8h0.1q0.5-0.9 1.3-1.4 0.8-0.6 1.8-0.6z"/>
			</g>
		</g>
	</g>
	<g>
		<g>
			<g>
				<path fill-rule="evenodd" class="s1" d="m1018 232l-0.6-1.5q-0.8 0.9-1.5 1.3-0.8 0.3-2 0.3-1.5 0-2.3-0.8-0.9-0.9-0.9-2.4 0-1.7 1.2-2.5 1.1-0.7 3.5-0.8l1.7-0.1v-0.4q0-1.6-1.6-1.6-1.2 0-2.9 0.8l-0.9-2q1.8-0.9 3.9-0.9 2.1 0 3.2 0.9 1.1 0.9 1.1 2.8v6.9zm-0.8-4.8h-1.1q-1.2 0-1.8 0.4-0.6 0.4-0.6 1.3 0 1.2 1.3 1.2 1 0 1.6-0.6 0.6-0.5 0.6-1.5z"/>
			</g>
		</g>
	</g>
	<g>
		<g>
			<g>
				<path fill-rule="evenodd" class="s1" d="m1028.6 221.4q1.8 0 2.8 1.5 1.1 1.4 1.1 3.9 0 2.5-1.1 3.9-1.1 1.4-2.9 1.4-1.8 0-2.8-1.3h-0.2l-0.5 1.2h-2.2v-14.4h2.9v3.3q0 0.7-0.1 2.1h0.1q0.9-1.6 2.9-1.6zm-0.9 2.3q-1.1 0-1.5 0.6-0.5 0.7-0.5 2.2v0.3q0 1.6 0.4 2.3 0.5 0.8 1.6 0.8 0.9 0 1.4-0.8 0.5-0.8 0.5-2.4 0-1.5-0.5-2.2-0.5-0.8-1.4-0.8z"/>
			</g>
		</g>
	</g>
	<g>
		<g>
			<g>
				<path fill-rule="evenodd" class="s1" d="m1041.4 232l-0.6-1.5q-0.8 0.9-1.5 1.3-0.8 0.3-2 0.3-1.5 0-2.3-0.8-0.9-0.9-0.9-2.4 0-1.7 1.2-2.5 1.1-0.7 3.5-0.8l1.7-0.1v-0.4q0-1.6-1.6-1.6-1.2 0-2.9 0.8l-0.9-2q1.8-0.9 3.9-0.9 2.1 0 3.2 0.9 1.1 0.9 1.1 2.8v6.9zm-0.8-4.8h-1.1q-1.2 0-1.8 0.4-0.6 0.4-0.6 1.3 0 1.2 1.4 1.2 0.9 0 1.5-0.6 0.6-0.5 0.6-1.5z"/>
			</g>
		</g>
	</g>
	<g>
		<g>
			<g>
				<path class="s1" d="m1049.1 232h-2.9v-14.4h2.9z"/>
			</g>
		</g>
	</g>
	<g>
		<g>
			<g>
				<path class="s1" d="m1061.6 232h-2.9v-6.1q0-2.2-1.6-2.2-1.2 0-1.7 0.8-0.6 0.8-0.6 2.6v4.9h-2.8v-14.4h2.8v2.9q0 0.3 0 1.6l-0.1 0.8h0.2q0.9-1.5 3-1.5 1.8 0 2.7 1 1 1 1 2.8z"/>
			</g>
		</g>
	</g>
	<g>
		<g>
			<g>
				<path fill-rule="evenodd" class="s1" d="m1073.8 226.8q0 2.5-1.3 3.9-1.3 1.4-3.7 1.4-1.5 0-2.6-0.6-1.2-0.7-1.8-1.9-0.6-1.2-0.6-2.8 0-2.6 1.3-4 1.4-1.4 3.8-1.4 1.4 0 2.6 0.7 1.1 0.6 1.7 1.8 0.6 1.2 0.6 2.9zm-7.1 0q0 1.5 0.5 2.3 0.5 0.8 1.6 0.8 1.2 0 1.7-0.8 0.5-0.8 0.5-2.3 0-1.6-0.5-2.3-0.5-0.8-1.7-0.8-1.1 0-1.6 0.8-0.5 0.7-0.5 2.3z"/>
			</g>
		</g>
	</g>
	<g id="Clip-Path" clip-path="url(#cp2)">
		<g>
			<g id="Clip-Path" clip-path="url(#cp3)">
				<g>
					<path class="s3" d="m39.4 87.5h105.7v92.4h-105.7z"/>
				</g>
			</g>
		</g>
	</g>
	<g>
		<g>
			<g>
				<path class="s2" d="m95.9 139h-5v-33.4l-10.1 3.7v-4.5l14.3-5.4h0.8z"/>
			</g>
		</g>
	</g>
	<g id="Clip-Path" clip-path="url(#cp4)">
		<g>
			<g id="Clip-Path" clip-path="url(#cp5)">
				<g>
					<path class="s0" d="m262.8 87.5h105.7v92.4h-105.7z"/>
				</g>
			</g>
		</g>
	</g>
	<g>
		<g>
			<g>
				<path class="s2" d="m328.7 139h-25.8v-3.6l13.6-15.1q3.1-3.5 4.2-5.6 1.2-2.2 1.2-4.5 0-3-1.9-5-1.9-2-5-2-3.7 0-5.8 2.1-2.1 2.2-2.1 5.9h-5q0-5.4 3.5-8.7 3.5-3.4 9.4-3.4 5.5 0 8.7 2.9 3.2 2.9 3.2 7.7 0 5.8-7.4 13.8l-10.6 11.5h19.8z"/>
			</g>
		</g>
	</g>
	<g id="Clip-Path" clip-path="url(#cp6)">
		<g>
			<g id="Clip-Path" clip-path="url(#cp7)">
				<g>
					<path class="s4" d="m486.2 87.5h105.7v92.4h-105.7z"/>
				</g>
			</g>
		</g>
	</g>
	<g>
		<g>
			<g>
				<path class="s2" d="m533.6 116.9h3.7q3.6-0.1 5.6-1.9 2-1.8 2-4.9 0-6.9-6.9-6.9-3.2 0-5.1 1.9-2 1.8-2 4.9h-5q0-4.7 3.4-7.8 3.5-3.1 8.7-3.1 5.6 0 8.8 2.9 3.2 3 3.2 8.2 0 2.6-1.7 5-1.7 2.4-4.5 3.6 3.2 1 5 3.4 1.7 2.4 1.7 5.8 0 5.3-3.4 8.5-3.5 3.1-9 3.1-5.6 0-9.1-3-3.4-3-3.4-8h5q0 3.1 2 5 2.1 1.9 5.5 1.9 3.6 0 5.5-1.9 1.9-1.9 1.9-5.4 0-3.5-2.1-5.3-2.1-1.9-6.1-1.9h-3.7z"/>
			</g>
		</g>
	</g>
	<g id="Clip-Path" clip-path="url(#cp8)">
		<g>
			<g id="Clip-Path" clip-path="url(#cp9)">
				<g>
					<path class="s5" d="m709.6 87.5h105.8v92.4h-105.8z"/>
				</g>
			</g>
		</g>
	</g>
	<g>
		<g>
			<g>
				<path fill-rule="evenodd" class="s2" d="m770.9 125.8h5.4v4.1h-5.4v9.1h-5.1v-9.1h-17.9v-3l17.6-27.3h5.4zm-17.3 0h12.2v-19.3l-0.6 1.1z"/>
			</g>
		</g>
	</g>
	<g id="Clip-Path" clip-path="url(#cp10)">
		<g>
			<g id="Clip-Path" clip-path="url(#cp11)">
				<g>
					<path class="s6" d="m933 87.5h105.8v92.4h-105.8z"/>
				</g>
			</g>
		</g>
	</g>
	<g>
		<g>
			<g>
				<path class="s2" d="m975.4 119.3l2-19.7h20.2v4.7h-15.9l-1.2 10.7q2.9-1.7 6.6-1.7 5.4 0 8.5 3.6 3.2 3.5 3.2 9.6 0 6.1-3.3 9.6-3.3 3.5-9.2 3.5-5.2 0-8.5-2.9-3.3-2.9-3.8-8h4.8q0.4 3.3 2.4 5.1 1.9 1.7 5.1 1.7 3.5 0 5.5-2.4 2-2.4 2-6.6 0-3.9-2.2-6.3-2.1-2.4-5.7-2.4-3.3 0-5.1 1.4l-1.4 1.1z"/>
			</g>
		</g>
	</g>
</svg>