<svg xmlns="http://www.w3.org/2000/svg" xmlns:xlink="http://www.w3.org/1999/xlink" width="144" zoomAndPan="magnify" viewBox="0 0 108 110.999996" height="148" preserveAspectRatio="xMidYMid meet" version="1.0"><defs><g/><clipPath id="1bdeefe077"><path d="M 0 16.328125 L 108 16.328125 L 108 110.699219 L 0 110.699219 Z M 0 16.328125 " clip-rule="nonzero"/></clipPath><clipPath id="40a61f745d"><path d="M 53.925781 110.699219 L 107.855469 16.328125 L 0 16.328125 Z M 53.925781 110.699219 " clip-rule="nonzero"/></clipPath></defs><g clip-path="url(#1bdeefe077)"><g clip-path="url(#40a61f745d)"><path fill="#007cf9" d="M 0 16.328125 L 108.011719 16.328125 L 108.011719 110.699219 L 0 110.699219 Z M 0 16.328125 " fill-opacity="1" fill-rule="nonzero"/></g></g><g fill="#ffffff" fill-opacity="1"><g transform="translate(37.618659, 68.951897)"><g><path d="M 29.703125 0 L 3.34375 0 L 3.34375 -3.671875 L 17.265625 -19.15625 C 19.328125 -21.488281 20.75 -23.382812 21.53125 -24.84375 C 22.320312 -26.3125 22.71875 -27.832031 22.71875 -29.40625 C 22.71875 -31.5 22.082031 -33.21875 20.8125 -34.5625 C 19.539062 -35.914062 17.84375 -36.59375 15.71875 -36.59375 C 13.175781 -36.59375 11.203125 -35.867188 9.796875 -34.421875 C 8.390625 -32.972656 7.6875 -30.957031 7.6875 -28.375 L 2.5625 -28.375 C 2.5625 -32.082031 3.753906 -35.078125 6.140625 -37.359375 C 8.535156 -39.640625 11.726562 -40.78125 15.71875 -40.78125 C 19.457031 -40.78125 22.414062 -39.800781 24.59375 -37.84375 C 26.769531 -35.882812 27.859375 -33.273438 27.859375 -30.015625 C 27.859375 -26.046875 25.332031 -21.328125 20.28125 -15.859375 L 9.5 -4.171875 L 29.703125 -4.171875 Z M 29.703125 0 "/></g></g></g></svg>