<svg version="1.2" xmlns="http://www.w3.org/2000/svg" viewBox="0 0 147 150" width="147" height="150">
	<title>T2-svg</title>
	<defs>
		<clipPath clipPathUnits="userSpaceOnUse" id="cp1">
			<path d="m22.21 36.22h105.74v92.39h-105.74z"/>
		</clipPath>
		<clipPath clipPathUnits="userSpaceOnUse" id="cp2">
			<path d="m75 128.61l52.79-92.39h-105.58z"/>
		</clipPath>
	</defs>
	<style>
		.s0 { fill: #042c5c } 
		.s1 { fill: #ffffff } 
	</style>
	<g id="Clip-Path" clip-path="url(#cp1)">
		<g>
			<g id="Clip-Path" clip-path="url(#cp2)">
				<g>
					<path class="s0" d="m22.2 36.2h105.7v92.4h-105.7z"/>
				</g>
			</g>
		</g>
	</g>
	<g>
		<g>
			<g>
				<path class="s1" d="m88.1 87.7h-25.8v-3.6l13.6-15.2q3.1-3.4 4.2-5.5 1.2-2.2 1.2-4.5 0-3.1-1.9-5.1-1.9-1.9-5-1.9-3.7 0-5.8 2.1-2.1 2.1-2.1 5.9h-5q0-5.4 3.5-8.8 3.5-3.4 9.4-3.4 5.5 0 8.7 2.9 3.2 2.9 3.2 7.7 0 5.8-7.4 13.9l-10.6 11.4h19.8z"/>
			</g>
		</g>
	</g>
</svg>