<svg xmlns="http://www.w3.org/2000/svg" xmlns:xlink="http://www.w3.org/1999/xlink" width="144" zoomAndPan="magnify" viewBox="0 0 108 110.999996" height="148" preserveAspectRatio="xMidYMid meet" version="1.0"><defs><g/><clipPath id="3e41bc8e2d"><path d="M 0 16.328125 L 108 16.328125 L 108 110.699219 L 0 110.699219 Z M 0 16.328125 " clip-rule="nonzero"/></clipPath><clipPath id="5a4ead98c4"><path d="M 53.925781 110.699219 L 107.855469 16.328125 L 0 16.328125 Z M 53.925781 110.699219 " clip-rule="nonzero"/></clipPath></defs><g clip-path="url(#3e41bc8e2d)"><g clip-path="url(#5a4ead98c4)"><path fill="#0367cc" d="M 0 16.328125 L 108.011719 16.328125 L 108.011719 110.699219 L 0 110.699219 Z M 0 16.328125 " fill-opacity="1" fill-rule="nonzero"/></g></g><g fill="#ffffff" fill-opacity="1"><g transform="translate(37.618659, 68.951897)"><g><path d="M 10.78125 -22.609375 L 14.625 -22.609375 C 17.03125 -22.640625 18.925781 -23.269531 20.3125 -24.5 C 21.695312 -25.738281 22.390625 -27.410156 22.390625 -29.515625 C 22.390625 -34.234375 20.039062 -36.59375 15.34375 -36.59375 C 13.125 -36.59375 11.351562 -35.957031 10.03125 -34.6875 C 8.71875 -33.425781 8.0625 -31.753906 8.0625 -29.671875 L 2.953125 -29.671875 C 2.953125 -32.859375 4.117188 -35.503906 6.453125 -37.609375 C 8.785156 -39.722656 11.75 -40.78125 15.34375 -40.78125 C 19.132812 -40.78125 22.109375 -39.773438 24.265625 -37.765625 C 26.421875 -35.765625 27.5 -32.976562 27.5 -29.40625 C 27.5 -27.65625 26.929688 -25.957031 25.796875 -24.3125 C 24.660156 -22.675781 23.117188 -21.453125 21.171875 -20.640625 C 23.378906 -19.941406 25.085938 -18.78125 26.296875 -17.15625 C 27.503906 -15.539062 28.109375 -13.5625 28.109375 -11.21875 C 28.109375 -7.601562 26.925781 -4.738281 24.5625 -2.625 C 22.207031 -0.507812 19.140625 0.546875 15.359375 0.546875 C 11.585938 0.546875 8.515625 -0.472656 6.140625 -2.515625 C 3.773438 -4.554688 2.59375 -7.253906 2.59375 -10.609375 L 7.734375 -10.609375 C 7.734375 -8.492188 8.421875 -6.800781 9.796875 -5.53125 C 11.179688 -4.257812 13.035156 -3.625 15.359375 -3.625 C 17.828125 -3.625 19.710938 -4.265625 21.015625 -5.546875 C 22.328125 -6.835938 22.984375 -8.691406 22.984375 -11.109375 C 22.984375 -13.453125 22.265625 -15.25 20.828125 -16.5 C 19.398438 -17.75 17.332031 -18.394531 14.625 -18.4375 L 10.78125 -18.4375 Z M 10.78125 -22.609375 "/></g></g></g></svg>