<svg xmlns="http://www.w3.org/2000/svg" xmlns:xlink="http://www.w3.org/1999/xlink" width="144" zoomAndPan="magnify" viewBox="0 0 108 110.999996" height="148" preserveAspectRatio="xMidYMid meet" version="1.0"><defs><g/><clipPath id="25c311c5e7"><path d="M 0 16.328125 L 108 16.328125 L 108 110.699219 L 0 110.699219 Z M 0 16.328125 " clip-rule="nonzero"/></clipPath><clipPath id="07405de56a"><path d="M 53.925781 110.699219 L 107.855469 16.328125 L 0 16.328125 Z M 53.925781 110.699219 " clip-rule="nonzero"/></clipPath></defs><g clip-path="url(#25c311c5e7)"><g clip-path="url(#07405de56a)"><path fill="#0251a0" d="M 0 16.328125 L 108.011719 16.328125 L 108.011719 110.699219 L 0 110.699219 Z M 0 16.328125 " fill-opacity="1" fill-rule="nonzero"/></g></g><g fill="#ffffff" fill-opacity="1"><g transform="translate(37.618659, 68.951897)"><g><path d="M 24.921875 -13.515625 L 30.5 -13.515625 L 30.5 -9.34375 L 24.921875 -9.34375 L 24.921875 0 L 19.78125 0 L 19.78125 -9.34375 L 1.46875 -9.34375 L 1.46875 -12.359375 L 19.484375 -40.234375 L 24.921875 -40.234375 Z M 7.265625 -13.515625 L 19.78125 -13.515625 L 19.78125 -33.25 L 19.171875 -32.140625 Z M 7.265625 -13.515625 "/></g></g></g></svg>