<svg xmlns="http://www.w3.org/2000/svg" xmlns:xlink="http://www.w3.org/1999/xlink" width="144" zoomAndPan="magnify" viewBox="0 0 108 110.999996" height="148" preserveAspectRatio="xMidYMid meet" version="1.0"><defs><g/><clipPath id="6674769bbe"><path d="M 0 16.328125 L 108 16.328125 L 108 110.699219 L 0 110.699219 Z M 0 16.328125 " clip-rule="nonzero"/></clipPath><clipPath id="3cc0aabd71"><path d="M 53.925781 110.699219 L 107.855469 16.328125 L 0 16.328125 Z M 53.925781 110.699219 " clip-rule="nonzero"/></clipPath></defs><g fill="#ffffff" fill-opacity="1"><g transform="translate(37.618659, 68.951897)"><g><path d="M 5.6875 -20.171875 L 7.734375 -40.234375 L 28.359375 -40.234375 L 28.359375 -35.515625 L 12.078125 -35.515625 L 10.859375 -24.53125 C 12.828125 -25.695312 15.066406 -26.28125 17.578125 -26.28125 C 21.242188 -26.28125 24.15625 -25.066406 26.3125 -22.640625 C 28.46875 -20.222656 29.546875 -16.953125 29.546875 -12.828125 C 29.546875 -8.679688 28.425781 -5.414062 26.1875 -3.03125 C 23.945312 -0.644531 20.816406 0.546875 16.796875 0.546875 C 13.242188 0.546875 10.34375 -0.4375 8.09375 -2.40625 C 5.84375 -4.375 4.5625 -7.097656 4.25 -10.578125 L 9.09375 -10.578125 C 9.40625 -8.273438 10.222656 -6.539062 11.546875 -5.375 C 12.878906 -4.207031 14.628906 -3.625 16.796875 -3.625 C 19.171875 -3.625 21.035156 -4.429688 22.390625 -6.046875 C 23.742188 -7.671875 24.421875 -9.910156 24.421875 -12.765625 C 24.421875 -15.453125 23.6875 -17.609375 22.21875 -19.234375 C 20.757812 -20.867188 18.816406 -21.6875 16.390625 -21.6875 C 14.160156 -21.6875 12.410156 -21.203125 11.140625 -20.234375 L 9.78125 -19.125 Z M 5.6875 -20.171875 "/></g></g></g><g clip-path="url(#6674769bbe)"><g clip-path="url(#3cc0aabd71)"><path fill="#042c5c" d="M 0 16.328125 L 108.011719 16.328125 L 108.011719 110.699219 L 0 110.699219 Z M 0 16.328125 " fill-opacity="1" fill-rule="nonzero"/></g></g><g fill="#ffffff" fill-opacity="1"><g transform="translate(37.618659, 68.951897)"><g><path d="M 5.6875 -20.171875 L 7.734375 -40.234375 L 28.359375 -40.234375 L 28.359375 -35.515625 L 12.078125 -35.515625 L 10.859375 -24.53125 C 12.828125 -25.695312 15.066406 -26.28125 17.578125 -26.28125 C 21.242188 -26.28125 24.15625 -25.066406 26.3125 -22.640625 C 28.46875 -20.222656 29.546875 -16.953125 29.546875 -12.828125 C 29.546875 -8.679688 28.425781 -5.414062 26.1875 -3.03125 C 23.945312 -0.644531 20.816406 0.546875 16.796875 0.546875 C 13.242188 0.546875 10.34375 -0.4375 8.09375 -2.40625 C 5.84375 -4.375 4.5625 -7.097656 4.25 -10.578125 L 9.09375 -10.578125 C 9.40625 -8.273438 10.222656 -6.539062 11.546875 -5.375 C 12.878906 -4.207031 14.628906 -3.625 16.796875 -3.625 C 19.171875 -3.625 21.035156 -4.429688 22.390625 -6.046875 C 23.742188 -7.671875 24.421875 -9.910156 24.421875 -12.765625 C 24.421875 -15.453125 23.6875 -17.609375 22.21875 -19.234375 C 20.757812 -20.867188 18.816406 -21.6875 16.390625 -21.6875 C 14.160156 -21.6875 12.410156 -21.203125 11.140625 -20.234375 L 9.78125 -19.125 Z M 5.6875 -20.171875 "/></g></g></g></svg>