<svg xmlns="http://www.w3.org/2000/svg" xmlns:xlink="http://www.w3.org/1999/xlink" width="144" zoomAndPan="magnify" viewBox="0 0 108 110.999996" height="148" preserveAspectRatio="xMidYMid meet" version="1.0"><defs><g/><clipPath id="4b2f0622b0"><path d="M 0 16.273438 L 108 16.273438 L 108 110.644531 L 0 110.644531 Z M 0 16.273438 " clip-rule="nonzero"/></clipPath><clipPath id="e7920ac270"><path d="M 53.925781 110.644531 L 107.855469 16.273438 L 0 16.273438 Z M 53.925781 110.644531 " clip-rule="nonzero"/></clipPath></defs><g clip-path="url(#4b2f0622b0)"><g clip-path="url(#e7920ac270)"><path fill="#011830" d="M 0 16.273438 L 108.011719 16.273438 L 108.011719 110.644531 L 0 110.644531 Z M 0 16.273438 " fill-opacity="1" fill-rule="nonzero"/></g></g><g fill="#ffffff" fill-opacity="1"><g transform="translate(38.038362, 68.951897)"><g><path d="M 23.40625 -40.265625 L 23.40625 -35.921875 L 22.46875 -35.921875 C 18.488281 -35.847656 15.316406 -34.664062 12.953125 -32.375 C 10.597656 -30.09375 9.238281 -26.882812 8.875 -22.75 C 10.988281 -25.175781 13.878906 -26.390625 17.546875 -26.390625 C 21.046875 -26.390625 23.84375 -25.15625 25.9375 -22.6875 C 28.03125 -20.21875 29.078125 -17.03125 29.078125 -13.125 C 29.078125 -8.976562 27.945312 -5.660156 25.6875 -3.171875 C 23.425781 -0.691406 20.398438 0.546875 16.609375 0.546875 C 12.753906 0.546875 9.628906 -0.925781 7.234375 -3.875 C 4.835938 -6.832031 3.640625 -10.644531 3.640625 -15.3125 L 3.640625 -17.265625 C 3.640625 -24.671875 5.21875 -30.332031 8.375 -34.25 C 11.539062 -38.164062 16.25 -40.171875 22.5 -40.265625 Z M 16.6875 -22.140625 C 14.9375 -22.140625 13.320312 -21.613281 11.84375 -20.5625 C 10.375 -19.507812 9.351562 -18.191406 8.78125 -16.609375 L 8.78125 -14.734375 C 8.78125 -11.410156 9.523438 -8.734375 11.015625 -6.703125 C 12.515625 -4.679688 14.378906 -3.671875 16.609375 -3.671875 C 18.910156 -3.671875 20.71875 -4.519531 22.03125 -6.21875 C 23.351562 -7.914062 24.015625 -10.132812 24.015625 -12.875 C 24.015625 -15.632812 23.34375 -17.867188 22 -19.578125 C 20.664062 -21.285156 18.894531 -22.140625 16.6875 -22.140625 Z M 16.6875 -22.140625 "/></g></g></g></svg>