<svg xmlns="http://www.w3.org/2000/svg" xmlns:xlink="http://www.w3.org/1999/xlink" width="1760" zoomAndPan="magnify" viewBox="0 0 1320 177.000001" height="236" preserveAspectRatio="xMidYMid meet" version="1.0"><defs><g/><clipPath id="29fd61c061"><path d="M 9.726562 18.546875 L 117 18.546875 L 117 112.390625 L 9.726562 112.390625 Z M 9.726562 18.546875 " clip-rule="nonzero"/></clipPath><clipPath id="26b81c840a"><path d="M 63.351562 112.390625 L 116.976562 18.546875 L 9.726562 18.546875 Z M 63.351562 112.390625 " clip-rule="nonzero"/></clipPath><clipPath id="aa5af1eb6d"><path d="M 236.65625 18.546875 L 344 18.546875 L 344 112.390625 L 236.65625 112.390625 Z M 236.65625 18.546875 " clip-rule="nonzero"/></clipPath><clipPath id="a3f0f51d4f"><path d="M 290.28125 112.390625 L 343.90625 18.546875 L 236.65625 18.546875 Z M 290.28125 112.390625 " clip-rule="nonzero"/></clipPath><clipPath id="741f4f186b"><path d="M 463.589844 18.546875 L 570.996094 18.546875 L 570.996094 112.390625 L 463.589844 112.390625 Z M 463.589844 18.546875 " clip-rule="nonzero"/></clipPath><clipPath id="c7cc370765"><path d="M 517.214844 112.390625 L 570.839844 18.546875 L 463.589844 18.546875 Z M 517.214844 112.390625 " clip-rule="nonzero"/></clipPath><clipPath id="432fb1bbf2"><path d="M 690.519531 18.546875 L 797.925781 18.546875 L 797.925781 112.390625 L 690.519531 112.390625 Z M 690.519531 18.546875 " clip-rule="nonzero"/></clipPath><clipPath id="d3bed402fe"><path d="M 744.144531 112.390625 L 797.769531 18.546875 L 690.519531 18.546875 Z M 744.144531 112.390625 " clip-rule="nonzero"/></clipPath><clipPath id="2d2e788e62"><path d="M 917.453125 18.546875 L 1024.859375 18.546875 L 1024.859375 112.390625 L 917.453125 112.390625 Z M 917.453125 18.546875 " clip-rule="nonzero"/></clipPath><clipPath id="eed6dd5743"><path d="M 971.074219 112.390625 L 1024.699219 18.546875 L 917.453125 18.546875 Z M 971.074219 112.390625 " clip-rule="nonzero"/></clipPath><clipPath id="d452f670ff"><path d="M 1158.519531 18.546875 L 1265.925781 18.546875 L 1265.925781 112.390625 L 1158.519531 112.390625 Z M 1158.519531 18.546875 " clip-rule="nonzero"/></clipPath><clipPath id="53bb0621fb"><path d="M 1212.140625 112.390625 L 1265.765625 18.546875 L 1158.519531 18.546875 Z M 1212.140625 112.390625 " clip-rule="nonzero"/></clipPath></defs><path fill="#007cf9" d="M 84.285156 62.421875 L 93.425781 62.433594 L 93.421875 65.480469 L 84.28125 65.46875 M 96.472656 62.4375 L 105.617188 62.449219 L 105.613281 65.496094 L 96.46875 65.484375 M 108.664062 62.453125 L 117.804688 62.464844 L 117.800781 65.515625 L 108.660156 65.5 M 120.851562 62.472656 L 129.992188 62.484375 L 129.988281 65.53125 L 120.847656 65.519531 M 133.039062 62.488281 L 142.183594 62.5 L 142.179688 65.546875 L 133.035156 65.535156 M 145.230469 62.503906 L 154.371094 62.515625 L 154.367188 65.5625 L 145.226562 65.550781 M 157.417969 62.519531 L 166.558594 62.535156 L 166.554688 65.582031 L 157.414062 65.570312 M 169.609375 62.539062 L 178.75 62.550781 L 178.746094 65.597656 L 169.601562 65.585938 M 181.796875 62.554688 L 190.9375 62.566406 L 190.933594 65.613281 L 181.792969 65.601562 M 193.984375 62.570312 L 203.128906 62.585938 L 203.121094 65.632812 L 193.980469 65.621094 M 206.175781 62.589844 L 215.316406 62.601562 L 215.3125 65.648438 L 206.171875 65.636719 M 218.363281 62.605469 L 227.503906 62.617188 L 227.5 65.664062 L 218.359375 65.652344 M 230.550781 62.621094 L 239.695312 62.636719 L 239.6875 65.683594 L 230.546875 65.667969 M 242.742188 62.640625 L 251.882812 62.652344 L 251.878906 65.699219 L 242.738281 65.6875 M 254.929688 62.65625 L 264.070312 62.667969 L 264.066406 65.714844 L 254.925781 65.703125 M 267.117188 62.671875 L 276.261719 62.6875 L 276.257812 65.734375 L 267.113281 65.71875 M 279.308594 62.691406 L 288.449219 62.703125 L 288.445312 65.75 L 279.304688 65.738281 M 291.496094 62.707031 L 300.636719 62.71875 L 300.632812 65.765625 L 291.492188 65.753906 M 303.683594 62.722656 L 312.828125 62.738281 L 312.824219 65.785156 L 303.679688 65.769531 M 315.875 62.742188 L 325.015625 62.753906 L 325.011719 65.800781 L 315.871094 65.789062 M 328.0625 62.757812 L 337.203125 62.769531 L 337.199219 65.816406 L 328.058594 65.804688 M 340.253906 62.773438 L 349.394531 62.785156 L 349.390625 65.835938 L 340.246094 65.820312 M 352.441406 62.792969 L 361.582031 62.804688 L 361.578125 65.851562 L 352.4375 65.839844 M 364.628906 62.808594 L 373.769531 62.820312 L 373.765625 65.867188 L 364.625 65.855469 M 376.820312 62.824219 L 385.960938 62.835938 L 385.957031 65.886719 L 376.816406 65.871094 M 389.007812 62.84375 L 398.148438 62.855469 L 398.144531 65.902344 L 389.003906 65.890625 M 401.195312 62.859375 L 410.339844 62.871094 L 410.332031 65.917969 L 401.191406 65.90625 M 413.386719 62.875 L 422.527344 62.886719 L 422.523438 65.933594 L 413.382812 65.921875 M 425.574219 62.890625 L 434.714844 62.90625 L 434.710938 65.953125 L 425.570312 65.941406 M 437.761719 62.910156 L 446.90625 62.921875 L 446.902344 65.96875 L 437.757812 65.957031 M 449.953125 62.925781 L 459.09375 62.9375 L 459.089844 65.984375 L 449.949219 65.972656 M 462.140625 62.941406 L 471.28125 62.957031 L 471.277344 66.003906 L 462.136719 65.992188 M 474.328125 62.960938 L 483.472656 62.972656 L 483.46875 66.019531 L 474.324219 66.007812 M 486.519531 62.976562 L 495.660156 62.988281 L 495.65625 66.035156 L 486.515625 66.023438 M 498.707031 62.992188 L 507.847656 63.007812 L 507.84375 66.054688 L 498.703125 66.039062 M 510.894531 63.011719 L 520.039062 63.023438 L 520.035156 66.070312 L 510.890625 66.058594 M 523.085938 63.027344 L 532.226562 63.039062 L 532.222656 66.085938 L 523.082031 66.074219 M 535.273438 63.042969 L 544.414062 63.058594 L 544.410156 66.105469 L 535.269531 66.089844 M 547.464844 63.0625 L 556.605469 63.074219 L 556.601562 66.121094 L 547.457031 66.109375 M 559.652344 63.078125 L 568.792969 63.089844 L 568.789062 66.136719 L 559.648438 66.125 M 571.839844 63.09375 L 580.984375 63.109375 L 580.976562 66.15625 L 571.835938 66.140625 M 584.03125 63.113281 L 593.171875 63.125 L 593.167969 66.171875 L 584.027344 66.160156 M 596.21875 63.128906 L 605.359375 63.140625 L 605.355469 66.1875 L 596.214844 66.175781 M 608.40625 63.144531 L 617.550781 63.15625 L 617.546875 66.207031 L 608.402344 66.191406 M 620.597656 63.164062 L 629.738281 63.175781 L 629.734375 66.222656 L 620.59375 66.210938 M 632.785156 63.179688 L 641.925781 63.191406 L 641.921875 66.238281 L 632.78125 66.226562 M 644.972656 63.195312 L 654.117188 63.207031 L 654.113281 66.257812 L 644.96875 66.242188 M 657.164062 63.214844 L 666.304688 63.226562 L 666.300781 66.273438 L 657.160156 66.261719 M 669.351562 63.230469 L 678.492188 63.242188 L 678.488281 66.289062 L 669.347656 66.277344 M 681.539062 63.246094 L 690.683594 63.257812 L 690.679688 66.304688 L 681.535156 66.292969 M 693.730469 63.261719 L 702.871094 63.277344 L 702.867188 66.324219 L 693.726562 66.3125 M 705.917969 63.28125 L 715.058594 63.292969 L 715.054688 66.339844 L 705.914062 66.328125 M 718.109375 63.296875 L 727.25 63.308594 L 727.246094 66.355469 L 718.101562 66.34375 M 730.296875 63.3125 L 739.4375 63.328125 L 739.433594 66.375 L 730.292969 66.363281 M 742.484375 63.332031 L 751.628906 63.34375 L 751.621094 66.390625 L 742.480469 66.378906 M 754.675781 63.347656 L 763.816406 63.359375 L 763.8125 66.40625 L 754.671875 66.394531 M 766.863281 63.363281 L 776.003906 63.378906 L 776 66.425781 L 766.859375 66.410156 M 779.050781 63.382812 L 788.195312 63.394531 L 788.191406 66.441406 L 779.046875 66.429688 M 791.242188 63.398438 L 800.382812 63.410156 L 800.378906 66.457031 L 791.238281 66.445312 M 803.429688 63.414062 L 812.570312 63.429688 L 812.566406 66.476562 L 803.425781 66.460938 M 815.617188 63.433594 L 824.761719 63.445312 L 824.757812 66.492188 L 815.613281 66.480469 M 827.808594 63.449219 L 836.949219 63.460938 L 836.945312 66.507812 L 827.804688 66.496094 M 839.996094 63.464844 L 849.136719 63.480469 L 849.132812 66.527344 L 839.992188 66.511719 M 852.183594 63.484375 L 861.328125 63.496094 L 861.324219 66.542969 L 852.179688 66.53125 M 864.375 63.5 L 873.515625 63.511719 L 873.511719 66.558594 L 864.371094 66.546875 M 876.5625 63.515625 L 885.703125 63.527344 L 885.699219 66.578125 L 876.558594 66.5625 M 888.753906 63.535156 L 897.894531 63.546875 L 897.890625 66.59375 L 888.746094 66.582031 M 900.941406 63.550781 L 910.082031 63.5625 L 910.078125 66.609375 L 900.9375 66.597656 M 913.128906 63.566406 L 922.273438 63.578125 L 922.265625 66.628906 L 913.125 66.613281 M 925.320312 63.585938 L 934.460938 63.597656 L 934.457031 66.644531 L 925.316406 66.632812 M 937.507812 63.601562 L 946.648438 63.613281 L 946.644531 66.660156 L 937.503906 66.648438 M 949.695312 63.617188 L 958.839844 63.628906 L 958.835938 66.675781 L 949.691406 66.664062 M 961.886719 63.632812 L 971.027344 63.648438 L 971.023438 66.695312 L 961.882812 66.683594 M 974.074219 63.652344 L 983.214844 63.664062 L 983.210938 66.710938 L 974.070312 66.699219 M 986.261719 63.667969 L 995.40625 63.679688 L 995.402344 66.726562 L 986.257812 66.714844 M 998.453125 63.683594 L 1007.59375 63.699219 L 1007.589844 66.746094 L 998.449219 66.734375 M 1010.640625 63.703125 L 1019.78125 63.714844 L 1019.777344 66.761719 L 1010.636719 66.75 M 1022.828125 63.71875 L 1031.972656 63.730469 L 1031.96875 66.777344 L 1022.824219 66.765625 M 1035.019531 63.734375 L 1044.160156 63.75 L 1044.15625 66.796875 L 1035.015625 66.78125 M 1047.207031 63.753906 L 1056.347656 63.765625 L 1056.34375 66.8125 L 1047.203125 66.800781 M 1059.398438 63.769531 L 1068.539062 63.78125 L 1068.535156 66.828125 L 1059.390625 66.816406 M 1071.585938 63.785156 L 1080.726562 63.800781 L 1080.722656 66.847656 L 1071.582031 66.832031 M 1083.773438 63.804688 L 1092.917969 63.816406 L 1092.910156 66.863281 L 1083.769531 66.851562 M 1095.964844 63.820312 L 1105.105469 63.832031 L 1105.101562 66.878906 L 1095.960938 66.867188 M 1108.152344 63.835938 L 1117.292969 63.851562 L 1117.289062 66.898438 L 1108.148438 66.882812 M 1120.339844 63.855469 L 1129.484375 63.867188 L 1129.476562 66.914062 L 1120.335938 66.902344 M 1132.53125 63.871094 L 1141.671875 63.882812 L 1141.667969 66.929688 L 1132.527344 66.917969 M 1144.71875 63.886719 L 1153.859375 63.898438 L 1153.855469 66.949219 L 1144.714844 66.933594 M 1156.90625 63.90625 L 1166.050781 63.917969 L 1166.046875 66.964844 L 1156.902344 66.953125 M 1169.097656 63.921875 L 1178.238281 63.933594 L 1178.234375 66.980469 L 1169.09375 66.96875 M 1181.285156 63.9375 L 1185.332031 63.945312 L 1185.328125 66.992188 L 1181.28125 66.984375 " fill-opacity="1" fill-rule="nonzero"/><g fill="#ffffff" fill-opacity="1"><g transform="translate(954.858773, 70.875797)"><g><path d="M 5.65625 -20.0625 L 7.6875 -40 L 28.1875 -40 L 28.1875 -35.296875 L 12 -35.296875 L 10.796875 -24.390625 C 12.753906 -25.546875 14.976562 -26.125 17.46875 -26.125 C 21.113281 -26.125 24.007812 -24.921875 26.15625 -22.515625 C 28.300781 -20.109375 29.375 -16.851562 29.375 -12.75 C 29.375 -8.625 28.257812 -5.375 26.03125 -3 C 23.800781 -0.632812 20.691406 0.546875 16.703125 0.546875 C 13.171875 0.546875 10.285156 -0.429688 8.046875 -2.390625 C 5.816406 -4.347656 4.546875 -7.054688 4.234375 -10.515625 L 9.03125 -10.515625 C 9.34375 -8.234375 10.160156 -6.507812 11.484375 -5.34375 C 12.804688 -4.175781 14.546875 -3.59375 16.703125 -3.59375 C 19.066406 -3.59375 20.921875 -4.398438 22.265625 -6.015625 C 23.609375 -7.628906 24.28125 -9.851562 24.28125 -12.6875 C 24.28125 -15.363281 23.550781 -17.507812 22.09375 -19.125 C 20.644531 -20.75 18.710938 -21.5625 16.296875 -21.5625 C 14.078125 -21.5625 12.335938 -21.078125 11.078125 -20.109375 L 9.71875 -19.015625 Z M 5.65625 -20.0625 "/></g></g></g><g fill="#000000" fill-opacity="1"><g transform="translate(9.726615, 165.262717)"><g><path d="M 7.546875 -11.5 C 6.453125 -11.5 5.601562 -11.085938 5 -10.265625 C 4.40625 -9.441406 4.109375 -8.296875 4.109375 -6.828125 C 4.109375 -3.765625 5.253906 -2.234375 7.546875 -2.234375 C 8.515625 -2.234375 9.679688 -2.472656 11.046875 -2.953125 L 11.046875 -0.515625 C 9.921875 -0.046875 8.664062 0.1875 7.28125 0.1875 C 5.28125 0.1875 3.75 -0.414062 2.6875 -1.625 C 1.632812 -2.832031 1.109375 -4.570312 1.109375 -6.84375 C 1.109375 -8.269531 1.367188 -9.519531 1.890625 -10.59375 C 2.410156 -11.664062 3.15625 -12.488281 4.125 -13.0625 C 5.101562 -13.632812 6.242188 -13.921875 7.546875 -13.921875 C 8.878906 -13.921875 10.222656 -13.597656 11.578125 -12.953125 L 10.625 -10.578125 C 10.113281 -10.828125 9.597656 -11.039062 9.078125 -11.21875 C 8.566406 -11.40625 8.054688 -11.5 7.546875 -11.5 Z M 7.546875 -11.5 "/></g></g></g><g fill="#000000" fill-opacity="1"><g transform="translate(21.973439, 165.262717)"><g><path d="M 8.171875 0 L 7.609375 -1.421875 L 7.53125 -1.421875 C 7.050781 -0.816406 6.554688 -0.394531 6.046875 -0.15625 C 5.535156 0.0703125 4.867188 0.1875 4.046875 0.1875 C 3.046875 0.1875 2.253906 -0.0976562 1.671875 -0.671875 C 1.097656 -1.242188 0.8125 -2.066406 0.8125 -3.140625 C 0.8125 -4.253906 1.195312 -5.070312 1.96875 -5.59375 C 2.75 -6.125 3.925781 -6.414062 5.5 -6.46875 L 7.3125 -6.53125 L 7.3125 -6.984375 C 7.3125 -8.054688 6.769531 -8.59375 5.6875 -8.59375 C 4.84375 -8.59375 3.859375 -8.335938 2.734375 -7.828125 L 1.78125 -9.765625 C 2.988281 -10.390625 4.328125 -10.703125 5.796875 -10.703125 C 7.203125 -10.703125 8.28125 -10.394531 9.03125 -9.78125 C 9.78125 -9.175781 10.15625 -8.242188 10.15625 -6.984375 L 10.15625 0 Z M 7.3125 -4.859375 L 6.21875 -4.828125 C 5.382812 -4.796875 4.765625 -4.640625 4.359375 -4.359375 C 3.953125 -4.085938 3.75 -3.671875 3.75 -3.109375 C 3.75 -2.304688 4.210938 -1.90625 5.140625 -1.90625 C 5.796875 -1.90625 6.320312 -2.09375 6.71875 -2.46875 C 7.113281 -2.851562 7.3125 -3.363281 7.3125 -4 Z M 7.3125 -4.859375 "/></g></g></g><g fill="#000000" fill-opacity="1"><g transform="translate(33.582115, 165.262717)"><g><path d="M 4.828125 0.1875 C 3.585938 0.1875 2.613281 -0.289062 1.90625 -1.25 C 1.207031 -2.207031 0.859375 -3.535156 0.859375 -5.234375 C 0.859375 -6.953125 1.21875 -8.289062 1.9375 -9.25 C 2.65625 -10.207031 3.644531 -10.6875 4.90625 -10.6875 C 6.21875 -10.6875 7.222656 -10.175781 7.921875 -9.15625 L 8.015625 -9.15625 C 7.867188 -9.9375 7.796875 -10.632812 7.796875 -11.25 L 7.796875 -14.609375 L 10.671875 -14.609375 L 10.671875 0 L 8.46875 0 L 7.921875 -1.359375 L 7.796875 -1.359375 C 7.148438 -0.328125 6.160156 0.1875 4.828125 0.1875 Z M 5.828125 -2.09375 C 6.554688 -2.09375 7.09375 -2.304688 7.4375 -2.734375 C 7.78125 -3.160156 7.96875 -3.882812 8 -4.90625 L 8 -5.203125 C 8 -6.328125 7.820312 -7.132812 7.46875 -7.625 C 7.125 -8.113281 6.5625 -8.359375 5.78125 -8.359375 C 5.144531 -8.359375 4.648438 -8.085938 4.296875 -7.546875 C 3.941406 -7.003906 3.765625 -6.21875 3.765625 -5.1875 C 3.765625 -4.15625 3.941406 -3.378906 4.296875 -2.859375 C 4.648438 -2.347656 5.160156 -2.09375 5.828125 -2.09375 Z M 5.828125 -2.09375 "/></g></g></g><g fill="#000000" fill-opacity="1"><g transform="translate(45.744476, 165.262717)"><g><path d="M 8.171875 0 L 7.609375 -1.421875 L 7.53125 -1.421875 C 7.050781 -0.816406 6.554688 -0.394531 6.046875 -0.15625 C 5.535156 0.0703125 4.867188 0.1875 4.046875 0.1875 C 3.046875 0.1875 2.253906 -0.0976562 1.671875 -0.671875 C 1.097656 -1.242188 0.8125 -2.066406 0.8125 -3.140625 C 0.8125 -4.253906 1.195312 -5.070312 1.96875 -5.59375 C 2.75 -6.125 3.925781 -6.414062 5.5 -6.46875 L 7.3125 -6.53125 L 7.3125 -6.984375 C 7.3125 -8.054688 6.769531 -8.59375 5.6875 -8.59375 C 4.84375 -8.59375 3.859375 -8.335938 2.734375 -7.828125 L 1.78125 -9.765625 C 2.988281 -10.390625 4.328125 -10.703125 5.796875 -10.703125 C 7.203125 -10.703125 8.28125 -10.394531 9.03125 -9.78125 C 9.78125 -9.175781 10.15625 -8.242188 10.15625 -6.984375 L 10.15625 0 Z M 7.3125 -4.859375 L 6.21875 -4.828125 C 5.382812 -4.796875 4.765625 -4.640625 4.359375 -4.359375 C 3.953125 -4.085938 3.75 -3.671875 3.75 -3.109375 C 3.75 -2.304688 4.210938 -1.90625 5.140625 -1.90625 C 5.796875 -1.90625 6.320312 -2.09375 6.71875 -2.46875 C 7.113281 -2.851562 7.3125 -3.363281 7.3125 -4 Z M 7.3125 -4.859375 "/></g></g></g><g fill="#000000" fill-opacity="1"><g transform="translate(57.353152, 165.262717)"><g><path d="M 8.828125 -3.109375 C 8.828125 -2.035156 8.453125 -1.21875 7.703125 -0.65625 C 6.953125 -0.09375 5.832031 0.1875 4.34375 0.1875 C 3.582031 0.1875 2.929688 0.132812 2.390625 0.03125 C 1.847656 -0.0703125 1.34375 -0.222656 0.875 -0.421875 L 0.875 -2.78125 C 1.414062 -2.53125 2.015625 -2.320312 2.671875 -2.15625 C 3.335938 -1.988281 3.925781 -1.90625 4.4375 -1.90625 C 5.476562 -1.90625 6 -2.207031 6 -2.8125 C 6 -3.03125 5.925781 -3.207031 5.78125 -3.34375 C 5.644531 -3.488281 5.40625 -3.648438 5.0625 -3.828125 C 4.726562 -4.003906 4.28125 -4.210938 3.71875 -4.453125 C 2.914062 -4.796875 2.320312 -5.109375 1.9375 -5.390625 C 1.5625 -5.679688 1.285156 -6.007812 1.109375 -6.375 C 0.941406 -6.75 0.859375 -7.210938 0.859375 -7.765625 C 0.859375 -8.691406 1.21875 -9.410156 1.9375 -9.921875 C 2.664062 -10.429688 3.691406 -10.6875 5.015625 -10.6875 C 6.285156 -10.6875 7.515625 -10.410156 8.703125 -9.859375 L 7.84375 -7.796875 C 7.320312 -8.023438 6.832031 -8.207031 6.375 -8.34375 C 5.914062 -8.488281 5.445312 -8.5625 4.96875 -8.5625 C 4.125 -8.5625 3.703125 -8.332031 3.703125 -7.875 C 3.703125 -7.625 3.835938 -7.40625 4.109375 -7.21875 C 4.378906 -7.03125 4.976562 -6.75 5.90625 -6.375 C 6.71875 -6.050781 7.316406 -5.742188 7.703125 -5.453125 C 8.085938 -5.160156 8.367188 -4.828125 8.546875 -4.453125 C 8.734375 -4.078125 8.828125 -3.628906 8.828125 -3.109375 Z M 8.828125 -3.109375 "/></g></g></g><g fill="#000000" fill-opacity="1"><g transform="translate(66.906611, 165.262717)"><g><path d="M 5.921875 -2.09375 C 6.421875 -2.09375 7.019531 -2.203125 7.71875 -2.421875 L 7.71875 -0.296875 C 7.007812 0.0234375 6.132812 0.1875 5.09375 0.1875 C 3.945312 0.1875 3.113281 -0.0976562 2.59375 -0.671875 C 2.070312 -1.253906 1.8125 -2.125 1.8125 -3.28125 L 1.8125 -8.34375 L 0.4375 -8.34375 L 0.4375 -9.546875 L 2.015625 -10.515625 L 2.84375 -12.71875 L 4.671875 -12.71875 L 4.671875 -10.484375 L 7.609375 -10.484375 L 7.609375 -8.34375 L 4.671875 -8.34375 L 4.671875 -3.28125 C 4.671875 -2.875 4.785156 -2.570312 5.015625 -2.375 C 5.242188 -2.1875 5.546875 -2.09375 5.921875 -2.09375 Z M 5.921875 -2.09375 "/></g></g></g><g fill="#000000" fill-opacity="1"><g transform="translate(75.249468, 165.262717)"><g><path d="M 7.359375 -10.6875 C 7.742188 -10.6875 8.066406 -10.660156 8.328125 -10.609375 L 8.109375 -7.921875 C 7.878906 -7.984375 7.597656 -8.015625 7.265625 -8.015625 C 6.347656 -8.015625 5.632812 -7.78125 5.125 -7.3125 C 4.613281 -6.84375 4.359375 -6.1875 4.359375 -5.34375 L 4.359375 0 L 1.5 0 L 1.5 -10.484375 L 3.671875 -10.484375 L 4.09375 -8.734375 L 4.234375 -8.734375 C 4.554688 -9.316406 4.992188 -9.785156 5.546875 -10.140625 C 6.097656 -10.503906 6.703125 -10.6875 7.359375 -10.6875 Z M 7.359375 -10.6875 "/></g></g></g><g fill="#000000" fill-opacity="1"><g transform="translate(83.977088, 165.262717)"><g><path d="M 5.84375 -8.65625 C 5.238281 -8.65625 4.765625 -8.460938 4.421875 -8.078125 C 4.078125 -7.691406 3.878906 -7.144531 3.828125 -6.4375 L 7.84375 -6.4375 C 7.832031 -7.144531 7.644531 -7.691406 7.28125 -8.078125 C 6.925781 -8.460938 6.445312 -8.65625 5.84375 -8.65625 Z M 6.25 0.1875 C 4.5625 0.1875 3.238281 -0.273438 2.28125 -1.203125 C 1.332031 -2.140625 0.859375 -3.460938 0.859375 -5.171875 C 0.859375 -6.929688 1.296875 -8.289062 2.171875 -9.25 C 3.054688 -10.207031 4.273438 -10.6875 5.828125 -10.6875 C 7.304688 -10.6875 8.457031 -10.265625 9.28125 -9.421875 C 10.113281 -8.578125 10.53125 -7.410156 10.53125 -5.921875 L 10.53125 -4.53125 L 3.765625 -4.53125 C 3.796875 -3.71875 4.035156 -3.082031 4.484375 -2.625 C 4.929688 -2.164062 5.5625 -1.9375 6.375 -1.9375 C 7.007812 -1.9375 7.609375 -2.003906 8.171875 -2.140625 C 8.734375 -2.273438 9.320312 -2.484375 9.9375 -2.765625 L 9.9375 -0.546875 C 9.4375 -0.296875 8.898438 -0.113281 8.328125 0 C 7.765625 0.125 7.070312 0.1875 6.25 0.1875 Z M 6.25 0.1875 "/></g></g></g><g fill="#000000" fill-opacity="1"><g transform="translate(95.332383, 165.262717)"><g><path d="M 0.578125 -3.984375 L 0.578125 -6.328125 L 5.609375 -6.328125 L 5.609375 -3.984375 Z M 0.578125 -3.984375 "/></g></g></g><g fill="#000000" fill-opacity="1"><g transform="translate(101.516796, 165.262717)"><g><path d="M 8.828125 -3.109375 C 8.828125 -2.035156 8.453125 -1.21875 7.703125 -0.65625 C 6.953125 -0.09375 5.832031 0.1875 4.34375 0.1875 C 3.582031 0.1875 2.929688 0.132812 2.390625 0.03125 C 1.847656 -0.0703125 1.34375 -0.222656 0.875 -0.421875 L 0.875 -2.78125 C 1.414062 -2.53125 2.015625 -2.320312 2.671875 -2.15625 C 3.335938 -1.988281 3.925781 -1.90625 4.4375 -1.90625 C 5.476562 -1.90625 6 -2.207031 6 -2.8125 C 6 -3.03125 5.925781 -3.207031 5.78125 -3.34375 C 5.644531 -3.488281 5.40625 -3.648438 5.0625 -3.828125 C 4.726562 -4.003906 4.28125 -4.210938 3.71875 -4.453125 C 2.914062 -4.796875 2.320312 -5.109375 1.9375 -5.390625 C 1.5625 -5.679688 1.285156 -6.007812 1.109375 -6.375 C 0.941406 -6.75 0.859375 -7.210938 0.859375 -7.765625 C 0.859375 -8.691406 1.21875 -9.410156 1.9375 -9.921875 C 2.664062 -10.429688 3.691406 -10.6875 5.015625 -10.6875 C 6.285156 -10.6875 7.515625 -10.410156 8.703125 -9.859375 L 7.84375 -7.796875 C 7.320312 -8.023438 6.832031 -8.207031 6.375 -8.34375 C 5.914062 -8.488281 5.445312 -8.5625 4.96875 -8.5625 C 4.125 -8.5625 3.703125 -8.332031 3.703125 -7.875 C 3.703125 -7.625 3.835938 -7.40625 4.109375 -7.21875 C 4.378906 -7.03125 4.976562 -6.75 5.90625 -6.375 C 6.71875 -6.050781 7.316406 -5.742188 7.703125 -5.453125 C 8.085938 -5.160156 8.367188 -4.828125 8.546875 -4.453125 C 8.734375 -4.078125 8.828125 -3.628906 8.828125 -3.109375 Z M 8.828125 -3.109375 "/></g></g></g><g fill="#000000" fill-opacity="1"><g transform="translate(111.070252, 165.262717)"><g><path d="M 5.84375 -8.65625 C 5.238281 -8.65625 4.765625 -8.460938 4.421875 -8.078125 C 4.078125 -7.691406 3.878906 -7.144531 3.828125 -6.4375 L 7.84375 -6.4375 C 7.832031 -7.144531 7.644531 -7.691406 7.28125 -8.078125 C 6.925781 -8.460938 6.445312 -8.65625 5.84375 -8.65625 Z M 6.25 0.1875 C 4.5625 0.1875 3.238281 -0.273438 2.28125 -1.203125 C 1.332031 -2.140625 0.859375 -3.460938 0.859375 -5.171875 C 0.859375 -6.929688 1.296875 -8.289062 2.171875 -9.25 C 3.054688 -10.207031 4.273438 -10.6875 5.828125 -10.6875 C 7.304688 -10.6875 8.457031 -10.265625 9.28125 -9.421875 C 10.113281 -8.578125 10.53125 -7.410156 10.53125 -5.921875 L 10.53125 -4.53125 L 3.765625 -4.53125 C 3.796875 -3.71875 4.035156 -3.082031 4.484375 -2.625 C 4.929688 -2.164062 5.5625 -1.9375 6.375 -1.9375 C 7.007812 -1.9375 7.609375 -2.003906 8.171875 -2.140625 C 8.734375 -2.273438 9.320312 -2.484375 9.9375 -2.765625 L 9.9375 -0.546875 C 9.4375 -0.296875 8.898438 -0.113281 8.328125 0 C 7.765625 0.125 7.070312 0.1875 6.25 0.1875 Z M 6.25 0.1875 "/></g></g></g><g fill="#000000" fill-opacity="1"><g transform="translate(204.030759, 165.262717)"><g><path d="M 7.546875 -11.5 C 6.453125 -11.5 5.601562 -11.085938 5 -10.265625 C 4.40625 -9.441406 4.109375 -8.296875 4.109375 -6.828125 C 4.109375 -3.765625 5.253906 -2.234375 7.546875 -2.234375 C 8.515625 -2.234375 9.679688 -2.472656 11.046875 -2.953125 L 11.046875 -0.515625 C 9.921875 -0.046875 8.664062 0.1875 7.28125 0.1875 C 5.28125 0.1875 3.75 -0.414062 2.6875 -1.625 C 1.632812 -2.832031 1.109375 -4.570312 1.109375 -6.84375 C 1.109375 -8.269531 1.367188 -9.519531 1.890625 -10.59375 C 2.410156 -11.664062 3.15625 -12.488281 4.125 -13.0625 C 5.101562 -13.632812 6.242188 -13.921875 7.546875 -13.921875 C 8.878906 -13.921875 10.222656 -13.597656 11.578125 -12.953125 L 10.625 -10.578125 C 10.113281 -10.828125 9.597656 -11.039062 9.078125 -11.21875 C 8.566406 -11.40625 8.054688 -11.5 7.546875 -11.5 Z M 7.546875 -11.5 "/></g></g></g><g fill="#000000" fill-opacity="1"><g transform="translate(216.277583, 165.262717)"><g><path d="M 7.359375 -10.6875 C 7.742188 -10.6875 8.066406 -10.660156 8.328125 -10.609375 L 8.109375 -7.921875 C 7.878906 -7.984375 7.597656 -8.015625 7.265625 -8.015625 C 6.347656 -8.015625 5.632812 -7.78125 5.125 -7.3125 C 4.613281 -6.84375 4.359375 -6.1875 4.359375 -5.34375 L 4.359375 0 L 1.5 0 L 1.5 -10.484375 L 3.671875 -10.484375 L 4.09375 -8.734375 L 4.234375 -8.734375 C 4.554688 -9.316406 4.992188 -9.785156 5.546875 -10.140625 C 6.097656 -10.503906 6.703125 -10.6875 7.359375 -10.6875 Z M 7.359375 -10.6875 "/></g></g></g><g fill="#000000" fill-opacity="1"><g transform="translate(225.005204, 165.262717)"><g><path d="M 1.375 -13.203125 C 1.375 -14.140625 1.894531 -14.609375 2.9375 -14.609375 C 3.976562 -14.609375 4.5 -14.140625 4.5 -13.203125 C 4.5 -12.753906 4.367188 -12.40625 4.109375 -12.15625 C 3.847656 -11.914062 3.457031 -11.796875 2.9375 -11.796875 C 1.894531 -11.796875 1.375 -12.265625 1.375 -13.203125 Z M 4.359375 0 L 1.5 0 L 1.5 -10.484375 L 4.359375 -10.484375 Z M 4.359375 0 "/></g></g></g><g fill="#000000" fill-opacity="1"><g transform="translate(230.870542, 165.262717)"><g><path d="M 5.84375 -8.65625 C 5.238281 -8.65625 4.765625 -8.460938 4.421875 -8.078125 C 4.078125 -7.691406 3.878906 -7.144531 3.828125 -6.4375 L 7.84375 -6.4375 C 7.832031 -7.144531 7.644531 -7.691406 7.28125 -8.078125 C 6.925781 -8.460938 6.445312 -8.65625 5.84375 -8.65625 Z M 6.25 0.1875 C 4.5625 0.1875 3.238281 -0.273438 2.28125 -1.203125 C 1.332031 -2.140625 0.859375 -3.460938 0.859375 -5.171875 C 0.859375 -6.929688 1.296875 -8.289062 2.171875 -9.25 C 3.054688 -10.207031 4.273438 -10.6875 5.828125 -10.6875 C 7.304688 -10.6875 8.457031 -10.265625 9.28125 -9.421875 C 10.113281 -8.578125 10.53125 -7.410156 10.53125 -5.921875 L 10.53125 -4.53125 L 3.765625 -4.53125 C 3.796875 -3.71875 4.035156 -3.082031 4.484375 -2.625 C 4.929688 -2.164062 5.5625 -1.9375 6.375 -1.9375 C 7.007812 -1.9375 7.609375 -2.003906 8.171875 -2.140625 C 8.734375 -2.273438 9.320312 -2.484375 9.9375 -2.765625 L 9.9375 -0.546875 C 9.4375 -0.296875 8.898438 -0.113281 8.328125 0 C 7.765625 0.125 7.070312 0.1875 6.25 0.1875 Z M 6.25 0.1875 "/></g></g></g><g fill="#000000" fill-opacity="1"><g transform="translate(242.225833, 165.262717)"><g/></g></g><g fill="#000000" fill-opacity="1"><g transform="translate(247.218407, 165.262717)"><g><path d="M 8.9375 0 L 8.546875 -1.34375 L 8.40625 -1.34375 C 8.09375 -0.851562 7.65625 -0.472656 7.09375 -0.203125 C 6.53125 0.0546875 5.890625 0.1875 5.171875 0.1875 C 3.941406 0.1875 3.007812 -0.140625 2.375 -0.796875 C 1.75 -1.460938 1.4375 -2.414062 1.4375 -3.65625 L 1.4375 -10.484375 L 4.3125 -10.484375 L 4.3125 -4.359375 C 4.3125 -3.609375 4.441406 -3.039062 4.703125 -2.65625 C 4.972656 -2.28125 5.40625 -2.09375 6 -2.09375 C 6.800781 -2.09375 7.378906 -2.359375 7.734375 -2.890625 C 8.085938 -3.429688 8.265625 -4.320312 8.265625 -5.5625 L 8.265625 -10.484375 L 11.125 -10.484375 L 11.125 0 Z M 8.9375 0 "/></g></g></g><g fill="#000000" fill-opacity="1"><g transform="translate(259.849995, 165.262717)"><g><path d="M 10.890625 0 L 8.03125 0 L 8.03125 -6.125 C 8.03125 -6.882812 7.898438 -7.453125 7.640625 -7.828125 C 7.390625 -8.210938 6.992188 -8.40625 6.453125 -8.40625 C 5.722656 -8.40625 5.191406 -8.132812 4.859375 -7.59375 C 4.523438 -7.050781 4.359375 -6.164062 4.359375 -4.9375 L 4.359375 0 L 1.5 0 L 1.5 -10.484375 L 3.6875 -10.484375 L 4.078125 -9.15625 L 4.234375 -9.15625 C 4.515625 -9.632812 4.921875 -10.007812 5.453125 -10.28125 C 5.984375 -10.550781 6.59375 -10.6875 7.28125 -10.6875 C 8.851562 -10.6875 9.914062 -10.175781 10.46875 -9.15625 L 10.71875 -9.15625 C 11 -9.632812 11.414062 -10.007812 11.96875 -10.28125 C 12.519531 -10.550781 13.140625 -10.6875 13.828125 -10.6875 C 15.015625 -10.6875 15.910156 -10.378906 16.515625 -9.765625 C 17.128906 -9.160156 17.4375 -8.1875 17.4375 -6.84375 L 17.4375 0 L 14.5625 0 L 14.5625 -6.125 C 14.5625 -6.882812 14.429688 -7.453125 14.171875 -7.828125 C 13.921875 -8.210938 13.523438 -8.40625 12.984375 -8.40625 C 12.285156 -8.40625 11.757812 -8.148438 11.40625 -7.640625 C 11.0625 -7.140625 10.890625 -6.347656 10.890625 -5.265625 Z M 10.890625 0 "/></g></g></g><g fill="#000000" fill-opacity="1"><g transform="translate(278.722307, 165.262717)"><g/></g></g><g fill="#000000" fill-opacity="1"><g transform="translate(283.714882, 165.262717)"><g><path d="M 4.640625 -7.265625 L 5.59375 -7.265625 C 6.488281 -7.265625 7.15625 -7.441406 7.59375 -7.796875 C 8.039062 -8.148438 8.265625 -8.664062 8.265625 -9.34375 C 8.265625 -10.019531 8.078125 -10.519531 7.703125 -10.84375 C 7.335938 -11.175781 6.753906 -11.34375 5.953125 -11.34375 L 4.640625 -11.34375 Z M 11.203125 -9.4375 C 11.203125 -7.957031 10.738281 -6.828125 9.8125 -6.046875 C 8.894531 -5.265625 7.585938 -4.875 5.890625 -4.875 L 4.640625 -4.875 L 4.640625 0 L 1.734375 0 L 1.734375 -13.71875 L 6.109375 -13.71875 C 7.773438 -13.71875 9.039062 -13.359375 9.90625 -12.640625 C 10.769531 -11.929688 11.203125 -10.863281 11.203125 -9.4375 Z M 11.203125 -9.4375 "/></g></g></g><g fill="#000000" fill-opacity="1"><g transform="translate(295.783393, 165.262717)"><g><path d="M 7.359375 -10.6875 C 7.742188 -10.6875 8.066406 -10.660156 8.328125 -10.609375 L 8.109375 -7.921875 C 7.878906 -7.984375 7.597656 -8.015625 7.265625 -8.015625 C 6.347656 -8.015625 5.632812 -7.78125 5.125 -7.3125 C 4.613281 -6.84375 4.359375 -6.1875 4.359375 -5.34375 L 4.359375 0 L 1.5 0 L 1.5 -10.484375 L 3.671875 -10.484375 L 4.09375 -8.734375 L 4.234375 -8.734375 C 4.554688 -9.316406 4.992188 -9.785156 5.546875 -10.140625 C 6.097656 -10.503906 6.703125 -10.6875 7.359375 -10.6875 Z M 7.359375 -10.6875 "/></g></g></g><g fill="#000000" fill-opacity="1"><g transform="translate(304.51101, 165.262717)"><g><path d="M 3.78125 -5.265625 C 3.78125 -4.222656 3.953125 -3.4375 4.296875 -2.90625 C 4.640625 -2.375 5.191406 -2.109375 5.953125 -2.109375 C 6.722656 -2.109375 7.273438 -2.375 7.609375 -2.90625 C 7.941406 -3.4375 8.109375 -4.222656 8.109375 -5.265625 C 8.109375 -6.304688 7.9375 -7.082031 7.59375 -7.59375 C 7.257812 -8.113281 6.707031 -8.375 5.9375 -8.375 C 5.175781 -8.375 4.625 -8.113281 4.28125 -7.59375 C 3.945312 -7.082031 3.78125 -6.304688 3.78125 -5.265625 Z M 11.03125 -5.265625 C 11.03125 -3.554688 10.578125 -2.21875 9.671875 -1.25 C 8.773438 -0.289062 7.523438 0.1875 5.921875 0.1875 C 4.910156 0.1875 4.019531 -0.03125 3.25 -0.46875 C 2.488281 -0.914062 1.898438 -1.550781 1.484375 -2.375 C 1.066406 -3.195312 0.859375 -4.160156 0.859375 -5.265625 C 0.859375 -6.972656 1.304688 -8.300781 2.203125 -9.25 C 3.097656 -10.207031 4.359375 -10.6875 5.984375 -10.6875 C 6.984375 -10.6875 7.867188 -10.46875 8.640625 -10.03125 C 9.410156 -9.59375 10 -8.960938 10.40625 -8.140625 C 10.820312 -7.328125 11.03125 -6.367188 11.03125 -5.265625 Z M 11.03125 -5.265625 "/></g></g></g><g fill="#000000" fill-opacity="1"><g transform="translate(316.410604, 165.262717)"><g><path d="M 0.65625 4.609375 C -0.0703125 4.609375 -0.703125 4.53125 -1.234375 4.375 L -1.234375 2.125 C -0.796875 2.25 -0.347656 2.3125 0.109375 2.3125 C 0.585938 2.3125 0.9375 2.175781 1.15625 1.90625 C 1.382812 1.632812 1.5 1.238281 1.5 0.71875 L 1.5 -10.484375 L 4.359375 -10.484375 L 4.359375 1.140625 C 4.359375 2.253906 4.035156 3.109375 3.390625 3.703125 C 2.753906 4.304688 1.84375 4.609375 0.65625 4.609375 Z M 1.375 -13.203125 C 1.375 -14.140625 1.894531 -14.609375 2.9375 -14.609375 C 3.976562 -14.609375 4.5 -14.140625 4.5 -13.203125 C 4.5 -12.753906 4.367188 -12.40625 4.109375 -12.15625 C 3.847656 -11.914062 3.457031 -11.796875 2.9375 -11.796875 C 1.894531 -11.796875 1.375 -12.265625 1.375 -13.203125 Z M 1.375 -13.203125 "/></g></g></g><g fill="#000000" fill-opacity="1"><g transform="translate(322.275938, 165.262717)"><g><path d="M 5.84375 -8.65625 C 5.238281 -8.65625 4.765625 -8.460938 4.421875 -8.078125 C 4.078125 -7.691406 3.878906 -7.144531 3.828125 -6.4375 L 7.84375 -6.4375 C 7.832031 -7.144531 7.644531 -7.691406 7.28125 -8.078125 C 6.925781 -8.460938 6.445312 -8.65625 5.84375 -8.65625 Z M 6.25 0.1875 C 4.5625 0.1875 3.238281 -0.273438 2.28125 -1.203125 C 1.332031 -2.140625 0.859375 -3.460938 0.859375 -5.171875 C 0.859375 -6.929688 1.296875 -8.289062 2.171875 -9.25 C 3.054688 -10.207031 4.273438 -10.6875 5.828125 -10.6875 C 7.304688 -10.6875 8.457031 -10.265625 9.28125 -9.421875 C 10.113281 -8.578125 10.53125 -7.410156 10.53125 -5.921875 L 10.53125 -4.53125 L 3.765625 -4.53125 C 3.796875 -3.71875 4.035156 -3.082031 4.484375 -2.625 C 4.929688 -2.164062 5.5625 -1.9375 6.375 -1.9375 C 7.007812 -1.9375 7.609375 -2.003906 8.171875 -2.140625 C 8.734375 -2.273438 9.320312 -2.484375 9.9375 -2.765625 L 9.9375 -0.546875 C 9.4375 -0.296875 8.898438 -0.113281 8.328125 0 C 7.765625 0.125 7.070312 0.1875 6.25 0.1875 Z M 6.25 0.1875 "/></g></g></g><g fill="#000000" fill-opacity="1"><g transform="translate(333.631225, 165.262717)"><g><path d="M 5.921875 -2.09375 C 6.421875 -2.09375 7.019531 -2.203125 7.71875 -2.421875 L 7.71875 -0.296875 C 7.007812 0.0234375 6.132812 0.1875 5.09375 0.1875 C 3.945312 0.1875 3.113281 -0.0976562 2.59375 -0.671875 C 2.070312 -1.253906 1.8125 -2.125 1.8125 -3.28125 L 1.8125 -8.34375 L 0.4375 -8.34375 L 0.4375 -9.546875 L 2.015625 -10.515625 L 2.84375 -12.71875 L 4.671875 -12.71875 L 4.671875 -10.484375 L 7.609375 -10.484375 L 7.609375 -8.34375 L 4.671875 -8.34375 L 4.671875 -3.28125 C 4.671875 -2.875 4.785156 -2.570312 5.015625 -2.375 C 5.242188 -2.1875 5.546875 -2.09375 5.921875 -2.09375 Z M 5.921875 -2.09375 "/></g></g></g><g fill="#000000" fill-opacity="1"><g transform="translate(341.974085, 165.262717)"><g><path d="M 3.78125 -5.265625 C 3.78125 -4.222656 3.953125 -3.4375 4.296875 -2.90625 C 4.640625 -2.375 5.191406 -2.109375 5.953125 -2.109375 C 6.722656 -2.109375 7.273438 -2.375 7.609375 -2.90625 C 7.941406 -3.4375 8.109375 -4.222656 8.109375 -5.265625 C 8.109375 -6.304688 7.9375 -7.082031 7.59375 -7.59375 C 7.257812 -8.113281 6.707031 -8.375 5.9375 -8.375 C 5.175781 -8.375 4.625 -8.113281 4.28125 -7.59375 C 3.945312 -7.082031 3.78125 -6.304688 3.78125 -5.265625 Z M 11.03125 -5.265625 C 11.03125 -3.554688 10.578125 -2.21875 9.671875 -1.25 C 8.773438 -0.289062 7.523438 0.1875 5.921875 0.1875 C 4.910156 0.1875 4.019531 -0.03125 3.25 -0.46875 C 2.488281 -0.914062 1.898438 -1.550781 1.484375 -2.375 C 1.066406 -3.195312 0.859375 -4.160156 0.859375 -5.265625 C 0.859375 -6.972656 1.304688 -8.300781 2.203125 -9.25 C 3.097656 -10.207031 4.359375 -10.6875 5.984375 -10.6875 C 6.984375 -10.6875 7.867188 -10.46875 8.640625 -10.03125 C 9.410156 -9.59375 10 -8.960938 10.40625 -8.140625 C 10.820312 -7.328125 11.03125 -6.367188 11.03125 -5.265625 Z M 11.03125 -5.265625 "/></g></g></g><g fill="#000000" fill-opacity="1"><g transform="translate(413.700249, 165.262717)"><g><path d="M 7.546875 -11.5 C 6.453125 -11.5 5.601562 -11.085938 5 -10.265625 C 4.40625 -9.441406 4.109375 -8.296875 4.109375 -6.828125 C 4.109375 -3.765625 5.253906 -2.234375 7.546875 -2.234375 C 8.515625 -2.234375 9.679688 -2.472656 11.046875 -2.953125 L 11.046875 -0.515625 C 9.921875 -0.046875 8.664062 0.1875 7.28125 0.1875 C 5.28125 0.1875 3.75 -0.414062 2.6875 -1.625 C 1.632812 -2.832031 1.109375 -4.570312 1.109375 -6.84375 C 1.109375 -8.269531 1.367188 -9.519531 1.890625 -10.59375 C 2.410156 -11.664062 3.15625 -12.488281 4.125 -13.0625 C 5.101562 -13.632812 6.242188 -13.921875 7.546875 -13.921875 C 8.878906 -13.921875 10.222656 -13.597656 11.578125 -12.953125 L 10.625 -10.578125 C 10.113281 -10.828125 9.597656 -11.039062 9.078125 -11.21875 C 8.566406 -11.40625 8.054688 -11.5 7.546875 -11.5 Z M 7.546875 -11.5 "/></g></g></g><g fill="#000000" fill-opacity="1"><g transform="translate(425.947074, 165.262717)"><g><path d="M 7.359375 -10.6875 C 7.742188 -10.6875 8.066406 -10.660156 8.328125 -10.609375 L 8.109375 -7.921875 C 7.878906 -7.984375 7.597656 -8.015625 7.265625 -8.015625 C 6.347656 -8.015625 5.632812 -7.78125 5.125 -7.3125 C 4.613281 -6.84375 4.359375 -6.1875 4.359375 -5.34375 L 4.359375 0 L 1.5 0 L 1.5 -10.484375 L 3.671875 -10.484375 L 4.09375 -8.734375 L 4.234375 -8.734375 C 4.554688 -9.316406 4.992188 -9.785156 5.546875 -10.140625 C 6.097656 -10.503906 6.703125 -10.6875 7.359375 -10.6875 Z M 7.359375 -10.6875 "/></g></g></g><g fill="#000000" fill-opacity="1"><g transform="translate(434.674694, 165.262717)"><g><path d="M 1.375 -13.203125 C 1.375 -14.140625 1.894531 -14.609375 2.9375 -14.609375 C 3.976562 -14.609375 4.5 -14.140625 4.5 -13.203125 C 4.5 -12.753906 4.367188 -12.40625 4.109375 -12.15625 C 3.847656 -11.914062 3.457031 -11.796875 2.9375 -11.796875 C 1.894531 -11.796875 1.375 -12.265625 1.375 -13.203125 Z M 4.359375 0 L 1.5 0 L 1.5 -10.484375 L 4.359375 -10.484375 Z M 4.359375 0 "/></g></g></g><g fill="#000000" fill-opacity="1"><g transform="translate(440.540032, 165.262717)"><g><path d="M 5.84375 -8.65625 C 5.238281 -8.65625 4.765625 -8.460938 4.421875 -8.078125 C 4.078125 -7.691406 3.878906 -7.144531 3.828125 -6.4375 L 7.84375 -6.4375 C 7.832031 -7.144531 7.644531 -7.691406 7.28125 -8.078125 C 6.925781 -8.460938 6.445312 -8.65625 5.84375 -8.65625 Z M 6.25 0.1875 C 4.5625 0.1875 3.238281 -0.273438 2.28125 -1.203125 C 1.332031 -2.140625 0.859375 -3.460938 0.859375 -5.171875 C 0.859375 -6.929688 1.296875 -8.289062 2.171875 -9.25 C 3.054688 -10.207031 4.273438 -10.6875 5.828125 -10.6875 C 7.304688 -10.6875 8.457031 -10.265625 9.28125 -9.421875 C 10.113281 -8.578125 10.53125 -7.410156 10.53125 -5.921875 L 10.53125 -4.53125 L 3.765625 -4.53125 C 3.796875 -3.71875 4.035156 -3.082031 4.484375 -2.625 C 4.929688 -2.164062 5.5625 -1.9375 6.375 -1.9375 C 7.007812 -1.9375 7.609375 -2.003906 8.171875 -2.140625 C 8.734375 -2.273438 9.320312 -2.484375 9.9375 -2.765625 L 9.9375 -0.546875 C 9.4375 -0.296875 8.898438 -0.113281 8.328125 0 C 7.765625 0.125 7.070312 0.1875 6.25 0.1875 Z M 6.25 0.1875 "/></g></g></g><g fill="#000000" fill-opacity="1"><g transform="translate(451.895323, 165.262717)"><g/></g></g><g fill="#000000" fill-opacity="1"><g transform="translate(456.887897, 165.262717)"><g><path d="M 8.9375 0 L 8.546875 -1.34375 L 8.40625 -1.34375 C 8.09375 -0.851562 7.65625 -0.472656 7.09375 -0.203125 C 6.53125 0.0546875 5.890625 0.1875 5.171875 0.1875 C 3.941406 0.1875 3.007812 -0.140625 2.375 -0.796875 C 1.75 -1.460938 1.4375 -2.414062 1.4375 -3.65625 L 1.4375 -10.484375 L 4.3125 -10.484375 L 4.3125 -4.359375 C 4.3125 -3.609375 4.441406 -3.039062 4.703125 -2.65625 C 4.972656 -2.28125 5.40625 -2.09375 6 -2.09375 C 6.800781 -2.09375 7.378906 -2.359375 7.734375 -2.890625 C 8.085938 -3.429688 8.265625 -4.320312 8.265625 -5.5625 L 8.265625 -10.484375 L 11.125 -10.484375 L 11.125 0 Z M 8.9375 0 "/></g></g></g><g fill="#000000" fill-opacity="1"><g transform="translate(469.519485, 165.262717)"><g><path d="M 10.890625 0 L 8.03125 0 L 8.03125 -6.125 C 8.03125 -6.882812 7.898438 -7.453125 7.640625 -7.828125 C 7.390625 -8.210938 6.992188 -8.40625 6.453125 -8.40625 C 5.722656 -8.40625 5.191406 -8.132812 4.859375 -7.59375 C 4.523438 -7.050781 4.359375 -6.164062 4.359375 -4.9375 L 4.359375 0 L 1.5 0 L 1.5 -10.484375 L 3.6875 -10.484375 L 4.078125 -9.15625 L 4.234375 -9.15625 C 4.515625 -9.632812 4.921875 -10.007812 5.453125 -10.28125 C 5.984375 -10.550781 6.59375 -10.6875 7.28125 -10.6875 C 8.851562 -10.6875 9.914062 -10.175781 10.46875 -9.15625 L 10.71875 -9.15625 C 11 -9.632812 11.414062 -10.007812 11.96875 -10.28125 C 12.519531 -10.550781 13.140625 -10.6875 13.828125 -10.6875 C 15.015625 -10.6875 15.910156 -10.378906 16.515625 -9.765625 C 17.128906 -9.160156 17.4375 -8.1875 17.4375 -6.84375 L 17.4375 0 L 14.5625 0 L 14.5625 -6.125 C 14.5625 -6.882812 14.429688 -7.453125 14.171875 -7.828125 C 13.921875 -8.210938 13.523438 -8.40625 12.984375 -8.40625 C 12.285156 -8.40625 11.757812 -8.148438 11.40625 -7.640625 C 11.0625 -7.140625 10.890625 -6.347656 10.890625 -5.265625 Z M 10.890625 0 "/></g></g></g><g fill="#000000" fill-opacity="1"><g transform="translate(488.391798, 165.262717)"><g/></g></g><g fill="#000000" fill-opacity="1"><g transform="translate(493.384372, 165.262717)"><g><path d="M 13.109375 -6.984375 C 13.109375 -4.734375 12.460938 -3.003906 11.171875 -1.796875 C 9.890625 -0.597656 8.035156 0 5.609375 0 L 1.734375 0 L 1.734375 -13.71875 L 6.03125 -13.71875 C 8.269531 -13.71875 10.007812 -13.125 11.25 -11.9375 C 12.488281 -10.757812 13.109375 -9.109375 13.109375 -6.984375 Z M 10.09375 -6.921875 C 10.09375 -9.867188 8.789062 -11.34375 6.1875 -11.34375 L 4.640625 -11.34375 L 4.640625 -2.40625 L 5.890625 -2.40625 C 8.691406 -2.40625 10.09375 -3.910156 10.09375 -6.921875 Z M 10.09375 -6.921875 "/></g></g></g><g fill="#000000" fill-opacity="1"><g transform="translate(507.611331, 165.262717)"><g><path d="M 3.78125 -5.265625 C 3.78125 -4.222656 3.953125 -3.4375 4.296875 -2.90625 C 4.640625 -2.375 5.191406 -2.109375 5.953125 -2.109375 C 6.722656 -2.109375 7.273438 -2.375 7.609375 -2.90625 C 7.941406 -3.4375 8.109375 -4.222656 8.109375 -5.265625 C 8.109375 -6.304688 7.9375 -7.082031 7.59375 -7.59375 C 7.257812 -8.113281 6.707031 -8.375 5.9375 -8.375 C 5.175781 -8.375 4.625 -8.113281 4.28125 -7.59375 C 3.945312 -7.082031 3.78125 -6.304688 3.78125 -5.265625 Z M 11.03125 -5.265625 C 11.03125 -3.554688 10.578125 -2.21875 9.671875 -1.25 C 8.773438 -0.289062 7.523438 0.1875 5.921875 0.1875 C 4.910156 0.1875 4.019531 -0.03125 3.25 -0.46875 C 2.488281 -0.914062 1.898438 -1.550781 1.484375 -2.375 C 1.066406 -3.195312 0.859375 -4.160156 0.859375 -5.265625 C 0.859375 -6.972656 1.304688 -8.300781 2.203125 -9.25 C 3.097656 -10.207031 4.359375 -10.6875 5.984375 -10.6875 C 6.984375 -10.6875 7.867188 -10.46875 8.640625 -10.03125 C 9.410156 -9.59375 10 -8.960938 10.40625 -8.140625 C 10.820312 -7.328125 11.03125 -6.367188 11.03125 -5.265625 Z M 11.03125 -5.265625 "/></g></g></g><g fill="#000000" fill-opacity="1"><g transform="translate(519.510926, 165.262717)"><g><path d="M 5.765625 0.1875 C 2.492188 0.1875 0.859375 -1.601562 0.859375 -5.1875 C 0.859375 -6.96875 1.300781 -8.328125 2.1875 -9.265625 C 3.082031 -10.210938 4.359375 -10.6875 6.015625 -10.6875 C 7.222656 -10.6875 8.3125 -10.445312 9.28125 -9.96875 L 8.4375 -7.765625 C 7.988281 -7.941406 7.566406 -8.085938 7.171875 -8.203125 C 6.785156 -8.316406 6.398438 -8.375 6.015625 -8.375 C 4.523438 -8.375 3.78125 -7.316406 3.78125 -5.203125 C 3.78125 -3.148438 4.523438 -2.125 6.015625 -2.125 C 6.566406 -2.125 7.078125 -2.195312 7.546875 -2.34375 C 8.015625 -2.5 8.484375 -2.734375 8.953125 -3.046875 L 8.953125 -0.59375 C 8.492188 -0.300781 8.023438 -0.0976562 7.546875 0.015625 C 7.078125 0.128906 6.484375 0.1875 5.765625 0.1875 Z M 5.765625 0.1875 "/></g></g></g><g fill="#000000" fill-opacity="1"><g transform="translate(529.39285, 165.262717)"><g><path d="M 8.9375 0 L 8.546875 -1.34375 L 8.40625 -1.34375 C 8.09375 -0.851562 7.65625 -0.472656 7.09375 -0.203125 C 6.53125 0.0546875 5.890625 0.1875 5.171875 0.1875 C 3.941406 0.1875 3.007812 -0.140625 2.375 -0.796875 C 1.75 -1.460938 1.4375 -2.414062 1.4375 -3.65625 L 1.4375 -10.484375 L 4.3125 -10.484375 L 4.3125 -4.359375 C 4.3125 -3.609375 4.441406 -3.039062 4.703125 -2.65625 C 4.972656 -2.28125 5.40625 -2.09375 6 -2.09375 C 6.800781 -2.09375 7.378906 -2.359375 7.734375 -2.890625 C 8.085938 -3.429688 8.265625 -4.320312 8.265625 -5.5625 L 8.265625 -10.484375 L 11.125 -10.484375 L 11.125 0 Z M 8.9375 0 "/></g></g></g><g fill="#000000" fill-opacity="1"><g transform="translate(542.024434, 165.262717)"><g><path d="M 10.890625 0 L 8.03125 0 L 8.03125 -6.125 C 8.03125 -6.882812 7.898438 -7.453125 7.640625 -7.828125 C 7.390625 -8.210938 6.992188 -8.40625 6.453125 -8.40625 C 5.722656 -8.40625 5.191406 -8.132812 4.859375 -7.59375 C 4.523438 -7.050781 4.359375 -6.164062 4.359375 -4.9375 L 4.359375 0 L 1.5 0 L 1.5 -10.484375 L 3.6875 -10.484375 L 4.078125 -9.15625 L 4.234375 -9.15625 C 4.515625 -9.632812 4.921875 -10.007812 5.453125 -10.28125 C 5.984375 -10.550781 6.59375 -10.6875 7.28125 -10.6875 C 8.851562 -10.6875 9.914062 -10.175781 10.46875 -9.15625 L 10.71875 -9.15625 C 11 -9.632812 11.414062 -10.007812 11.96875 -10.28125 C 12.519531 -10.550781 13.140625 -10.6875 13.828125 -10.6875 C 15.015625 -10.6875 15.910156 -10.378906 16.515625 -9.765625 C 17.128906 -9.160156 17.4375 -8.1875 17.4375 -6.84375 L 17.4375 0 L 14.5625 0 L 14.5625 -6.125 C 14.5625 -6.882812 14.429688 -7.453125 14.171875 -7.828125 C 13.921875 -8.210938 13.523438 -8.40625 12.984375 -8.40625 C 12.285156 -8.40625 11.757812 -8.148438 11.40625 -7.640625 C 11.0625 -7.140625 10.890625 -6.347656 10.890625 -5.265625 Z M 10.890625 0 "/></g></g></g><g fill="#000000" fill-opacity="1"><g transform="translate(560.896742, 165.262717)"><g><path d="M 5.84375 -8.65625 C 5.238281 -8.65625 4.765625 -8.460938 4.421875 -8.078125 C 4.078125 -7.691406 3.878906 -7.144531 3.828125 -6.4375 L 7.84375 -6.4375 C 7.832031 -7.144531 7.644531 -7.691406 7.28125 -8.078125 C 6.925781 -8.460938 6.445312 -8.65625 5.84375 -8.65625 Z M 6.25 0.1875 C 4.5625 0.1875 3.238281 -0.273438 2.28125 -1.203125 C 1.332031 -2.140625 0.859375 -3.460938 0.859375 -5.171875 C 0.859375 -6.929688 1.296875 -8.289062 2.171875 -9.25 C 3.054688 -10.207031 4.273438 -10.6875 5.828125 -10.6875 C 7.304688 -10.6875 8.457031 -10.265625 9.28125 -9.421875 C 10.113281 -8.578125 10.53125 -7.410156 10.53125 -5.921875 L 10.53125 -4.53125 L 3.765625 -4.53125 C 3.796875 -3.71875 4.035156 -3.082031 4.484375 -2.625 C 4.929688 -2.164062 5.5625 -1.9375 6.375 -1.9375 C 7.007812 -1.9375 7.609375 -2.003906 8.171875 -2.140625 C 8.734375 -2.273438 9.320312 -2.484375 9.9375 -2.765625 L 9.9375 -0.546875 C 9.4375 -0.296875 8.898438 -0.113281 8.328125 0 C 7.765625 0.125 7.070312 0.1875 6.25 0.1875 Z M 6.25 0.1875 "/></g></g></g><g fill="#000000" fill-opacity="1"><g transform="translate(572.252029, 165.262717)"><g><path d="M 11.1875 0 L 8.328125 0 L 8.328125 -6.125 C 8.328125 -6.882812 8.191406 -7.453125 7.921875 -7.828125 C 7.648438 -8.210938 7.222656 -8.40625 6.640625 -8.40625 C 5.835938 -8.40625 5.253906 -8.132812 4.890625 -7.59375 C 4.535156 -7.0625 4.359375 -6.175781 4.359375 -4.9375 L 4.359375 0 L 1.5 0 L 1.5 -10.484375 L 3.6875 -10.484375 L 4.078125 -9.15625 L 4.234375 -9.15625 C 4.546875 -9.65625 4.984375 -10.035156 5.546875 -10.296875 C 6.109375 -10.554688 6.742188 -10.6875 7.453125 -10.6875 C 8.679688 -10.6875 9.609375 -10.351562 10.234375 -9.6875 C 10.867188 -9.03125 11.1875 -8.082031 11.1875 -6.84375 Z M 11.1875 0 "/></g></g></g><g fill="#000000" fill-opacity="1"><g transform="translate(584.883613, 165.262717)"><g><path d="M 5.921875 -2.09375 C 6.421875 -2.09375 7.019531 -2.203125 7.71875 -2.421875 L 7.71875 -0.296875 C 7.007812 0.0234375 6.132812 0.1875 5.09375 0.1875 C 3.945312 0.1875 3.113281 -0.0976562 2.59375 -0.671875 C 2.070312 -1.253906 1.8125 -2.125 1.8125 -3.28125 L 1.8125 -8.34375 L 0.4375 -8.34375 L 0.4375 -9.546875 L 2.015625 -10.515625 L 2.84375 -12.71875 L 4.671875 -12.71875 L 4.671875 -10.484375 L 7.609375 -10.484375 L 7.609375 -8.34375 L 4.671875 -8.34375 L 4.671875 -3.28125 C 4.671875 -2.875 4.785156 -2.570312 5.015625 -2.375 C 5.242188 -2.1875 5.546875 -2.09375 5.921875 -2.09375 Z M 5.921875 -2.09375 "/></g></g></g><g fill="#000000" fill-opacity="1"><g transform="translate(593.226473, 165.262717)"><g><path d="M 3.78125 -5.265625 C 3.78125 -4.222656 3.953125 -3.4375 4.296875 -2.90625 C 4.640625 -2.375 5.191406 -2.109375 5.953125 -2.109375 C 6.722656 -2.109375 7.273438 -2.375 7.609375 -2.90625 C 7.941406 -3.4375 8.109375 -4.222656 8.109375 -5.265625 C 8.109375 -6.304688 7.9375 -7.082031 7.59375 -7.59375 C 7.257812 -8.113281 6.707031 -8.375 5.9375 -8.375 C 5.175781 -8.375 4.625 -8.113281 4.28125 -7.59375 C 3.945312 -7.082031 3.78125 -6.304688 3.78125 -5.265625 Z M 11.03125 -5.265625 C 11.03125 -3.554688 10.578125 -2.21875 9.671875 -1.25 C 8.773438 -0.289062 7.523438 0.1875 5.921875 0.1875 C 4.910156 0.1875 4.019531 -0.03125 3.25 -0.46875 C 2.488281 -0.914062 1.898438 -1.550781 1.484375 -2.375 C 1.066406 -3.195312 0.859375 -4.160156 0.859375 -5.265625 C 0.859375 -6.972656 1.304688 -8.300781 2.203125 -9.25 C 3.097656 -10.207031 4.359375 -10.6875 5.984375 -10.6875 C 6.984375 -10.6875 7.867188 -10.46875 8.640625 -10.03125 C 9.410156 -9.59375 10 -8.960938 10.40625 -8.140625 C 10.820312 -7.328125 11.03125 -6.367188 11.03125 -5.265625 Z M 11.03125 -5.265625 "/></g></g></g><g fill="#000000" fill-opacity="1"><g transform="translate(639.940655, 165.262717)"><g><path d="M 9.625 0 L 1.734375 0 L 1.734375 -13.71875 L 9.625 -13.71875 L 9.625 -11.34375 L 4.640625 -11.34375 L 4.640625 -8.328125 L 9.28125 -8.328125 L 9.28125 -5.9375 L 4.640625 -5.9375 L 4.640625 -2.40625 L 9.625 -2.40625 Z M 9.625 0 "/></g></g></g><g fill="#000000" fill-opacity="1"><g transform="translate(650.704722, 165.262717)"><g><path d="M 8.828125 -3.109375 C 8.828125 -2.035156 8.453125 -1.21875 7.703125 -0.65625 C 6.953125 -0.09375 5.832031 0.1875 4.34375 0.1875 C 3.582031 0.1875 2.929688 0.132812 2.390625 0.03125 C 1.847656 -0.0703125 1.34375 -0.222656 0.875 -0.421875 L 0.875 -2.78125 C 1.414062 -2.53125 2.015625 -2.320312 2.671875 -2.15625 C 3.335938 -1.988281 3.925781 -1.90625 4.4375 -1.90625 C 5.476562 -1.90625 6 -2.207031 6 -2.8125 C 6 -3.03125 5.925781 -3.207031 5.78125 -3.34375 C 5.644531 -3.488281 5.40625 -3.648438 5.0625 -3.828125 C 4.726562 -4.003906 4.28125 -4.210938 3.71875 -4.453125 C 2.914062 -4.796875 2.320312 -5.109375 1.9375 -5.390625 C 1.5625 -5.679688 1.285156 -6.007812 1.109375 -6.375 C 0.941406 -6.75 0.859375 -7.210938 0.859375 -7.765625 C 0.859375 -8.691406 1.21875 -9.410156 1.9375 -9.921875 C 2.664062 -10.429688 3.691406 -10.6875 5.015625 -10.6875 C 6.285156 -10.6875 7.515625 -10.410156 8.703125 -9.859375 L 7.84375 -7.796875 C 7.320312 -8.023438 6.832031 -8.207031 6.375 -8.34375 C 5.914062 -8.488281 5.445312 -8.5625 4.96875 -8.5625 C 4.125 -8.5625 3.703125 -8.332031 3.703125 -7.875 C 3.703125 -7.625 3.835938 -7.40625 4.109375 -7.21875 C 4.378906 -7.03125 4.976562 -6.75 5.90625 -6.375 C 6.71875 -6.050781 7.316406 -5.742188 7.703125 -5.453125 C 8.085938 -5.160156 8.367188 -4.828125 8.546875 -4.453125 C 8.734375 -4.078125 8.828125 -3.628906 8.828125 -3.109375 Z M 8.828125 -3.109375 "/></g></g></g><g fill="#000000" fill-opacity="1"><g transform="translate(660.258182, 165.262717)"><g><path d="M 5.765625 0.1875 C 2.492188 0.1875 0.859375 -1.601562 0.859375 -5.1875 C 0.859375 -6.96875 1.300781 -8.328125 2.1875 -9.265625 C 3.082031 -10.210938 4.359375 -10.6875 6.015625 -10.6875 C 7.222656 -10.6875 8.3125 -10.445312 9.28125 -9.96875 L 8.4375 -7.765625 C 7.988281 -7.941406 7.566406 -8.085938 7.171875 -8.203125 C 6.785156 -8.316406 6.398438 -8.375 6.015625 -8.375 C 4.523438 -8.375 3.78125 -7.316406 3.78125 -5.203125 C 3.78125 -3.148438 4.523438 -2.125 6.015625 -2.125 C 6.566406 -2.125 7.078125 -2.195312 7.546875 -2.34375 C 8.015625 -2.5 8.484375 -2.734375 8.953125 -3.046875 L 8.953125 -0.59375 C 8.492188 -0.300781 8.023438 -0.0976562 7.546875 0.015625 C 7.078125 0.128906 6.484375 0.1875 5.765625 0.1875 Z M 5.765625 0.1875 "/></g></g></g><g fill="#000000" fill-opacity="1"><g transform="translate(670.140102, 165.262717)"><g><path d="M 3.78125 -5.265625 C 3.78125 -4.222656 3.953125 -3.4375 4.296875 -2.90625 C 4.640625 -2.375 5.191406 -2.109375 5.953125 -2.109375 C 6.722656 -2.109375 7.273438 -2.375 7.609375 -2.90625 C 7.941406 -3.4375 8.109375 -4.222656 8.109375 -5.265625 C 8.109375 -6.304688 7.9375 -7.082031 7.59375 -7.59375 C 7.257812 -8.113281 6.707031 -8.375 5.9375 -8.375 C 5.175781 -8.375 4.625 -8.113281 4.28125 -7.59375 C 3.945312 -7.082031 3.78125 -6.304688 3.78125 -5.265625 Z M 11.03125 -5.265625 C 11.03125 -3.554688 10.578125 -2.21875 9.671875 -1.25 C 8.773438 -0.289062 7.523438 0.1875 5.921875 0.1875 C 4.910156 0.1875 4.019531 -0.03125 3.25 -0.46875 C 2.488281 -0.914062 1.898438 -1.550781 1.484375 -2.375 C 1.066406 -3.195312 0.859375 -4.160156 0.859375 -5.265625 C 0.859375 -6.972656 1.304688 -8.300781 2.203125 -9.25 C 3.097656 -10.207031 4.359375 -10.6875 5.984375 -10.6875 C 6.984375 -10.6875 7.867188 -10.46875 8.640625 -10.03125 C 9.410156 -9.59375 10 -8.960938 10.40625 -8.140625 C 10.820312 -7.328125 11.03125 -6.367188 11.03125 -5.265625 Z M 11.03125 -5.265625 "/></g></g></g><g fill="#000000" fill-opacity="1"><g transform="translate(682.039697, 165.262717)"><g><path d="M 4.359375 0 L 1.5 0 L 1.5 -14.609375 L 4.359375 -14.609375 Z M 4.359375 0 "/></g></g></g><g fill="#000000" fill-opacity="1"><g transform="translate(687.905035, 165.262717)"><g><path d="M 11.1875 0 L 8.328125 0 L 8.328125 -6.125 C 8.328125 -7.644531 7.765625 -8.40625 6.640625 -8.40625 C 5.835938 -8.40625 5.253906 -8.128906 4.890625 -7.578125 C 4.535156 -7.035156 4.359375 -6.15625 4.359375 -4.9375 L 4.359375 0 L 1.5 0 L 1.5 -14.609375 L 4.359375 -14.609375 L 4.359375 -11.625 C 4.359375 -11.394531 4.335938 -10.851562 4.296875 -10 L 4.234375 -9.15625 L 4.375 -9.15625 C 5.019531 -10.175781 6.035156 -10.6875 7.421875 -10.6875 C 8.648438 -10.6875 9.582031 -10.351562 10.21875 -9.6875 C 10.863281 -9.03125 11.1875 -8.082031 11.1875 -6.84375 Z M 11.1875 0 "/></g></g></g><g fill="#000000" fill-opacity="1"><g transform="translate(700.536623, 165.262717)"><g><path d="M 8.171875 0 L 7.609375 -1.421875 L 7.53125 -1.421875 C 7.050781 -0.816406 6.554688 -0.394531 6.046875 -0.15625 C 5.535156 0.0703125 4.867188 0.1875 4.046875 0.1875 C 3.046875 0.1875 2.253906 -0.0976562 1.671875 -0.671875 C 1.097656 -1.242188 0.8125 -2.066406 0.8125 -3.140625 C 0.8125 -4.253906 1.195312 -5.070312 1.96875 -5.59375 C 2.75 -6.125 3.925781 -6.414062 5.5 -6.46875 L 7.3125 -6.53125 L 7.3125 -6.984375 C 7.3125 -8.054688 6.769531 -8.59375 5.6875 -8.59375 C 4.84375 -8.59375 3.859375 -8.335938 2.734375 -7.828125 L 1.78125 -9.765625 C 2.988281 -10.390625 4.328125 -10.703125 5.796875 -10.703125 C 7.203125 -10.703125 8.28125 -10.394531 9.03125 -9.78125 C 9.78125 -9.175781 10.15625 -8.242188 10.15625 -6.984375 L 10.15625 0 Z M 7.3125 -4.859375 L 6.21875 -4.828125 C 5.382812 -4.796875 4.765625 -4.640625 4.359375 -4.359375 C 3.953125 -4.085938 3.75 -3.671875 3.75 -3.109375 C 3.75 -2.304688 4.210938 -1.90625 5.140625 -1.90625 C 5.796875 -1.90625 6.320312 -2.09375 6.71875 -2.46875 C 7.113281 -2.851562 7.3125 -3.363281 7.3125 -4 Z M 7.3125 -4.859375 "/></g></g></g><g fill="#000000" fill-opacity="1"><g transform="translate(712.145294, 165.262717)"><g/></g></g><g fill="#000000" fill-opacity="1"><g transform="translate(717.137869, 165.262717)"><g><path d="M 8.9375 0 L 8.546875 -1.34375 L 8.40625 -1.34375 C 8.09375 -0.851562 7.65625 -0.472656 7.09375 -0.203125 C 6.53125 0.0546875 5.890625 0.1875 5.171875 0.1875 C 3.941406 0.1875 3.007812 -0.140625 2.375 -0.796875 C 1.75 -1.460938 1.4375 -2.414062 1.4375 -3.65625 L 1.4375 -10.484375 L 4.3125 -10.484375 L 4.3125 -4.359375 C 4.3125 -3.609375 4.441406 -3.039062 4.703125 -2.65625 C 4.972656 -2.28125 5.40625 -2.09375 6 -2.09375 C 6.800781 -2.09375 7.378906 -2.359375 7.734375 -2.890625 C 8.085938 -3.429688 8.265625 -4.320312 8.265625 -5.5625 L 8.265625 -10.484375 L 11.125 -10.484375 L 11.125 0 Z M 8.9375 0 "/></g></g></g><g fill="#000000" fill-opacity="1"><g transform="translate(729.769461, 165.262717)"><g><path d="M 10.890625 0 L 8.03125 0 L 8.03125 -6.125 C 8.03125 -6.882812 7.898438 -7.453125 7.640625 -7.828125 C 7.390625 -8.210938 6.992188 -8.40625 6.453125 -8.40625 C 5.722656 -8.40625 5.191406 -8.132812 4.859375 -7.59375 C 4.523438 -7.050781 4.359375 -6.164062 4.359375 -4.9375 L 4.359375 0 L 1.5 0 L 1.5 -10.484375 L 3.6875 -10.484375 L 4.078125 -9.15625 L 4.234375 -9.15625 C 4.515625 -9.632812 4.921875 -10.007812 5.453125 -10.28125 C 5.984375 -10.550781 6.59375 -10.6875 7.28125 -10.6875 C 8.851562 -10.6875 9.914062 -10.175781 10.46875 -9.15625 L 10.71875 -9.15625 C 11 -9.632812 11.414062 -10.007812 11.96875 -10.28125 C 12.519531 -10.550781 13.140625 -10.6875 13.828125 -10.6875 C 15.015625 -10.6875 15.910156 -10.378906 16.515625 -9.765625 C 17.128906 -9.160156 17.4375 -8.1875 17.4375 -6.84375 L 17.4375 0 L 14.5625 0 L 14.5625 -6.125 C 14.5625 -6.882812 14.429688 -7.453125 14.171875 -7.828125 C 13.921875 -8.210938 13.523438 -8.40625 12.984375 -8.40625 C 12.285156 -8.40625 11.757812 -8.148438 11.40625 -7.640625 C 11.0625 -7.140625 10.890625 -6.347656 10.890625 -5.265625 Z M 10.890625 0 "/></g></g></g><g fill="#000000" fill-opacity="1"><g transform="translate(748.641769, 165.262717)"><g/></g></g><g fill="#000000" fill-opacity="1"><g transform="translate(753.634344, 165.262717)"><g><path d="M 10.890625 0 L 8.03125 0 L 8.03125 -6.125 C 8.03125 -6.882812 7.898438 -7.453125 7.640625 -7.828125 C 7.390625 -8.210938 6.992188 -8.40625 6.453125 -8.40625 C 5.722656 -8.40625 5.191406 -8.132812 4.859375 -7.59375 C 4.523438 -7.050781 4.359375 -6.164062 4.359375 -4.9375 L 4.359375 0 L 1.5 0 L 1.5 -10.484375 L 3.6875 -10.484375 L 4.078125 -9.15625 L 4.234375 -9.15625 C 4.515625 -9.632812 4.921875 -10.007812 5.453125 -10.28125 C 5.984375 -10.550781 6.59375 -10.6875 7.28125 -10.6875 C 8.851562 -10.6875 9.914062 -10.175781 10.46875 -9.15625 L 10.71875 -9.15625 C 11 -9.632812 11.414062 -10.007812 11.96875 -10.28125 C 12.519531 -10.550781 13.140625 -10.6875 13.828125 -10.6875 C 15.015625 -10.6875 15.910156 -10.378906 16.515625 -9.765625 C 17.128906 -9.160156 17.4375 -8.1875 17.4375 -6.84375 L 17.4375 0 L 14.5625 0 L 14.5625 -6.125 C 14.5625 -6.882812 14.429688 -7.453125 14.171875 -7.828125 C 13.921875 -8.210938 13.523438 -8.40625 12.984375 -8.40625 C 12.285156 -8.40625 11.757812 -8.148438 11.40625 -7.640625 C 11.0625 -7.140625 10.890625 -6.347656 10.890625 -5.265625 Z M 10.890625 0 "/></g></g></g><g fill="#000000" fill-opacity="1"><g transform="translate(772.506652, 165.262717)"><g><path d="M 3.78125 -5.265625 C 3.78125 -4.222656 3.953125 -3.4375 4.296875 -2.90625 C 4.640625 -2.375 5.191406 -2.109375 5.953125 -2.109375 C 6.722656 -2.109375 7.273438 -2.375 7.609375 -2.90625 C 7.941406 -3.4375 8.109375 -4.222656 8.109375 -5.265625 C 8.109375 -6.304688 7.9375 -7.082031 7.59375 -7.59375 C 7.257812 -8.113281 6.707031 -8.375 5.9375 -8.375 C 5.175781 -8.375 4.625 -8.113281 4.28125 -7.59375 C 3.945312 -7.082031 3.78125 -6.304688 3.78125 -5.265625 Z M 11.03125 -5.265625 C 11.03125 -3.554688 10.578125 -2.21875 9.671875 -1.25 C 8.773438 -0.289062 7.523438 0.1875 5.921875 0.1875 C 4.910156 0.1875 4.019531 -0.03125 3.25 -0.46875 C 2.488281 -0.914062 1.898438 -1.550781 1.484375 -2.375 C 1.066406 -3.195312 0.859375 -4.160156 0.859375 -5.265625 C 0.859375 -6.972656 1.304688 -8.300781 2.203125 -9.25 C 3.097656 -10.207031 4.359375 -10.6875 5.984375 -10.6875 C 6.984375 -10.6875 7.867188 -10.46875 8.640625 -10.03125 C 9.410156 -9.59375 10 -8.960938 10.40625 -8.140625 C 10.820312 -7.328125 11.03125 -6.367188 11.03125 -5.265625 Z M 11.03125 -5.265625 "/></g></g></g><g fill="#000000" fill-opacity="1"><g transform="translate(784.406246, 165.262717)"><g><path d="M 4.828125 0.1875 C 3.585938 0.1875 2.613281 -0.289062 1.90625 -1.25 C 1.207031 -2.207031 0.859375 -3.535156 0.859375 -5.234375 C 0.859375 -6.953125 1.21875 -8.289062 1.9375 -9.25 C 2.65625 -10.207031 3.644531 -10.6875 4.90625 -10.6875 C 6.21875 -10.6875 7.222656 -10.175781 7.921875 -9.15625 L 8.015625 -9.15625 C 7.867188 -9.9375 7.796875 -10.632812 7.796875 -11.25 L 7.796875 -14.609375 L 10.671875 -14.609375 L 10.671875 0 L 8.46875 0 L 7.921875 -1.359375 L 7.796875 -1.359375 C 7.148438 -0.328125 6.160156 0.1875 4.828125 0.1875 Z M 5.828125 -2.09375 C 6.554688 -2.09375 7.09375 -2.304688 7.4375 -2.734375 C 7.78125 -3.160156 7.96875 -3.882812 8 -4.90625 L 8 -5.203125 C 8 -6.328125 7.820312 -7.132812 7.46875 -7.625 C 7.125 -8.113281 6.5625 -8.359375 5.78125 -8.359375 C 5.144531 -8.359375 4.648438 -8.085938 4.296875 -7.546875 C 3.941406 -7.003906 3.765625 -6.21875 3.765625 -5.1875 C 3.765625 -4.15625 3.941406 -3.378906 4.296875 -2.859375 C 4.648438 -2.347656 5.160156 -2.09375 5.828125 -2.09375 Z M 5.828125 -2.09375 "/></g></g></g><g fill="#000000" fill-opacity="1"><g transform="translate(796.568607, 165.262717)"><g><path d="M 5.84375 -8.65625 C 5.238281 -8.65625 4.765625 -8.460938 4.421875 -8.078125 C 4.078125 -7.691406 3.878906 -7.144531 3.828125 -6.4375 L 7.84375 -6.4375 C 7.832031 -7.144531 7.644531 -7.691406 7.28125 -8.078125 C 6.925781 -8.460938 6.445312 -8.65625 5.84375 -8.65625 Z M 6.25 0.1875 C 4.5625 0.1875 3.238281 -0.273438 2.28125 -1.203125 C 1.332031 -2.140625 0.859375 -3.460938 0.859375 -5.171875 C 0.859375 -6.929688 1.296875 -8.289062 2.171875 -9.25 C 3.054688 -10.207031 4.273438 -10.6875 5.828125 -10.6875 C 7.304688 -10.6875 8.457031 -10.265625 9.28125 -9.421875 C 10.113281 -8.578125 10.53125 -7.410156 10.53125 -5.921875 L 10.53125 -4.53125 L 3.765625 -4.53125 C 3.796875 -3.71875 4.035156 -3.082031 4.484375 -2.625 C 4.929688 -2.164062 5.5625 -1.9375 6.375 -1.9375 C 7.007812 -1.9375 7.609375 -2.003906 8.171875 -2.140625 C 8.734375 -2.273438 9.320312 -2.484375 9.9375 -2.765625 L 9.9375 -0.546875 C 9.4375 -0.296875 8.898438 -0.113281 8.328125 0 C 7.765625 0.125 7.070312 0.1875 6.25 0.1875 Z M 6.25 0.1875 "/></g></g></g><g fill="#000000" fill-opacity="1"><g transform="translate(807.923894, 165.262717)"><g><path d="M 4.359375 0 L 1.5 0 L 1.5 -14.609375 L 4.359375 -14.609375 Z M 4.359375 0 "/></g></g></g><g fill="#000000" fill-opacity="1"><g transform="translate(813.789236, 165.262717)"><g><path d="M 3.78125 -5.265625 C 3.78125 -4.222656 3.953125 -3.4375 4.296875 -2.90625 C 4.640625 -2.375 5.191406 -2.109375 5.953125 -2.109375 C 6.722656 -2.109375 7.273438 -2.375 7.609375 -2.90625 C 7.941406 -3.4375 8.109375 -4.222656 8.109375 -5.265625 C 8.109375 -6.304688 7.9375 -7.082031 7.59375 -7.59375 C 7.257812 -8.113281 6.707031 -8.375 5.9375 -8.375 C 5.175781 -8.375 4.625 -8.113281 4.28125 -7.59375 C 3.945312 -7.082031 3.78125 -6.304688 3.78125 -5.265625 Z M 11.03125 -5.265625 C 11.03125 -3.554688 10.578125 -2.21875 9.671875 -1.25 C 8.773438 -0.289062 7.523438 0.1875 5.921875 0.1875 C 4.910156 0.1875 4.019531 -0.03125 3.25 -0.46875 C 2.488281 -0.914062 1.898438 -1.550781 1.484375 -2.375 C 1.066406 -3.195312 0.859375 -4.160156 0.859375 -5.265625 C 0.859375 -6.972656 1.304688 -8.300781 2.203125 -9.25 C 3.097656 -10.207031 4.359375 -10.6875 5.984375 -10.6875 C 6.984375 -10.6875 7.867188 -10.46875 8.640625 -10.03125 C 9.410156 -9.59375 10 -8.960938 10.40625 -8.140625 C 10.820312 -7.328125 11.03125 -6.367188 11.03125 -5.265625 Z M 11.03125 -5.265625 "/></g></g></g><g clip-path="url(#29fd61c061)"><g clip-path="url(#26b81c840a)"><path fill="#4fa6ff" d="M 9.726562 18.546875 L 117.132812 18.546875 L 117.132812 112.390625 L 9.726562 112.390625 Z M 9.726562 18.546875 " fill-opacity="1" fill-rule="nonzero"/></g></g><g fill="#ffffff" fill-opacity="1"><g transform="translate(123.502686, 68.504266)"><g><path d="M 20.03125 0 L 14.921875 0 L 14.921875 -33.890625 L 4.671875 -30.125 L 4.671875 -34.734375 L 19.234375 -40.203125 L 20.03125 -40.203125 Z M 20.03125 0 "/></g></g></g><g clip-path="url(#aa5af1eb6d)"><g clip-path="url(#a3f0f51d4f)"><path fill="#007cf9" d="M 236.65625 18.546875 L 344.0625 18.546875 L 344.0625 112.390625 L 236.65625 112.390625 Z M 236.65625 18.546875 " fill-opacity="1" fill-rule="nonzero"/></g></g><g fill="#ffffff" fill-opacity="1"><g transform="translate(274.065137, 70.875797)"><g><path d="M 29.53125 0 L 3.328125 0 L 3.328125 -3.65625 L 17.171875 -19.046875 C 19.222656 -21.367188 20.632812 -23.253906 21.40625 -24.703125 C 22.1875 -26.160156 22.578125 -27.671875 22.578125 -29.234375 C 22.578125 -31.316406 21.945312 -33.023438 20.6875 -34.359375 C 19.425781 -35.703125 17.738281 -36.375 15.625 -36.375 C 13.101562 -36.375 11.140625 -35.65625 9.734375 -34.21875 C 8.335938 -32.78125 7.640625 -30.78125 7.640625 -28.21875 L 2.5625 -28.21875 C 2.5625 -31.894531 3.742188 -34.867188 6.109375 -37.140625 C 8.484375 -39.410156 11.65625 -40.546875 15.625 -40.546875 C 19.34375 -40.546875 22.28125 -39.570312 24.4375 -37.625 C 26.601562 -35.675781 27.6875 -33.082031 27.6875 -29.84375 C 27.6875 -25.894531 25.179688 -21.203125 20.171875 -15.765625 L 9.453125 -4.15625 L 29.53125 -4.15625 Z M 29.53125 0 "/></g></g></g><g clip-path="url(#741f4f186b)"><g clip-path="url(#c7cc370765)"><path fill="#0367cc" d="M 463.589844 18.546875 L 570.996094 18.546875 L 570.996094 112.390625 L 463.589844 112.390625 Z M 463.589844 18.546875 " fill-opacity="1" fill-rule="nonzero"/></g></g><g fill="#ffffff" fill-opacity="1"><g transform="translate(500.99636, 70.875797)"><g><path d="M 10.71875 -22.46875 L 14.53125 -22.46875 C 16.925781 -22.507812 18.8125 -23.140625 20.1875 -24.359375 C 21.5625 -25.585938 22.25 -27.25 22.25 -29.34375 C 22.25 -34.03125 19.914062 -36.375 15.25 -36.375 C 13.050781 -36.375 11.296875 -35.742188 9.984375 -34.484375 C 8.671875 -33.234375 8.015625 -31.570312 8.015625 -29.5 L 2.9375 -29.5 C 2.9375 -32.675781 4.09375 -35.3125 6.40625 -37.40625 C 8.726562 -39.5 11.675781 -40.546875 15.25 -40.546875 C 19.019531 -40.546875 21.976562 -39.546875 24.125 -37.546875 C 26.269531 -35.554688 27.34375 -32.785156 27.34375 -29.234375 C 27.34375 -27.492188 26.773438 -25.804688 25.640625 -24.171875 C 24.515625 -22.546875 22.984375 -21.328125 21.046875 -20.515625 C 23.242188 -19.828125 24.941406 -18.675781 26.140625 -17.0625 C 27.335938 -15.445312 27.9375 -13.476562 27.9375 -11.15625 C 27.9375 -7.5625 26.765625 -4.710938 24.421875 -2.609375 C 22.078125 -0.503906 19.023438 0.546875 15.265625 0.546875 C 11.515625 0.546875 8.460938 -0.46875 6.109375 -2.5 C 3.753906 -4.53125 2.578125 -7.210938 2.578125 -10.546875 L 7.6875 -10.546875 C 7.6875 -8.441406 8.375 -6.753906 9.75 -5.484375 C 11.125 -4.222656 12.96875 -3.59375 15.28125 -3.59375 C 17.726562 -3.59375 19.601562 -4.234375 20.90625 -5.515625 C 22.207031 -6.796875 22.859375 -8.640625 22.859375 -11.046875 C 22.859375 -13.367188 22.144531 -15.148438 20.71875 -16.390625 C 19.289062 -17.640625 17.226562 -18.285156 14.53125 -18.328125 L 10.71875 -18.328125 Z M 10.71875 -22.46875 "/></g></g></g><g clip-path="url(#432fb1bbf2)"><g clip-path="url(#d3bed402fe)"><path fill="#0251a0" d="M 690.519531 18.546875 L 797.925781 18.546875 L 797.925781 112.390625 L 690.519531 112.390625 Z M 690.519531 18.546875 " fill-opacity="1" fill-rule="nonzero"/></g></g><g fill="#ffffff" fill-opacity="1"><g transform="translate(727.927614, 70.875797)"><g><path d="M 24.78125 -13.4375 L 30.328125 -13.4375 L 30.328125 -9.28125 L 24.78125 -9.28125 L 24.78125 0 L 19.671875 0 L 19.671875 -9.28125 L 1.453125 -9.28125 L 1.453125 -12.28125 L 19.375 -40 L 24.78125 -40 Z M 7.21875 -13.4375 L 19.671875 -13.4375 L 19.671875 -33.046875 L 19.0625 -31.953125 Z M 7.21875 -13.4375 "/></g></g></g><g clip-path="url(#2d2e788e62)"><g clip-path="url(#eed6dd5743)"><path fill="#042c5c" d="M 917.453125 18.546875 L 1024.859375 18.546875 L 1024.859375 112.390625 L 917.453125 112.390625 Z M 917.453125 18.546875 " fill-opacity="1" fill-rule="nonzero"/></g></g><g fill="#ffffff" fill-opacity="1"><g transform="translate(954.858773, 70.875797)"><g><path d="M 5.65625 -20.0625 L 7.6875 -40 L 28.1875 -40 L 28.1875 -35.296875 L 12 -35.296875 L 10.796875 -24.390625 C 12.753906 -25.546875 14.976562 -26.125 17.46875 -26.125 C 21.113281 -26.125 24.007812 -24.921875 26.15625 -22.515625 C 28.300781 -20.109375 29.375 -16.851562 29.375 -12.75 C 29.375 -8.625 28.257812 -5.375 26.03125 -3 C 23.800781 -0.632812 20.691406 0.546875 16.703125 0.546875 C 13.171875 0.546875 10.285156 -0.429688 8.046875 -2.390625 C 5.816406 -4.347656 4.546875 -7.054688 4.234375 -10.515625 L 9.03125 -10.515625 C 9.34375 -8.234375 10.160156 -6.507812 11.484375 -5.34375 C 12.804688 -4.175781 14.546875 -3.59375 16.703125 -3.59375 C 19.066406 -3.59375 20.921875 -4.398438 22.265625 -6.015625 C 23.609375 -7.628906 24.28125 -9.851562 24.28125 -12.6875 C 24.28125 -15.363281 23.550781 -17.507812 22.09375 -19.125 C 20.644531 -20.75 18.710938 -21.5625 16.296875 -21.5625 C 14.078125 -21.5625 12.335938 -21.078125 11.078125 -20.109375 L 9.71875 -19.015625 Z M 5.65625 -20.0625 "/></g></g></g><g fill="#000000" fill-opacity="1"><g transform="translate(1114.082447, 165.262717)"><g><path d="M 1.734375 -13.71875 L 6 -13.71875 C 7.945312 -13.71875 9.359375 -13.441406 10.234375 -12.890625 C 11.109375 -12.335938 11.546875 -11.457031 11.546875 -10.25 C 11.546875 -9.425781 11.351562 -8.75 10.96875 -8.21875 C 10.582031 -7.695312 10.070312 -7.382812 9.4375 -7.28125 L 9.4375 -7.1875 C 10.3125 -6.988281 10.941406 -6.625 11.328125 -6.09375 C 11.710938 -5.5625 11.90625 -4.859375 11.90625 -3.984375 C 11.90625 -2.734375 11.453125 -1.753906 10.546875 -1.046875 C 9.640625 -0.347656 8.410156 0 6.859375 0 L 1.734375 0 Z M 4.640625 -8.28125 L 6.328125 -8.28125 C 7.109375 -8.28125 7.675781 -8.398438 8.03125 -8.640625 C 8.382812 -8.890625 8.5625 -9.296875 8.5625 -9.859375 C 8.5625 -10.390625 8.367188 -10.769531 7.984375 -11 C 7.597656 -11.226562 6.992188 -11.34375 6.171875 -11.34375 L 4.640625 -11.34375 Z M 4.640625 -5.984375 L 4.640625 -2.40625 L 6.53125 -2.40625 C 7.332031 -2.40625 7.921875 -2.554688 8.296875 -2.859375 C 8.679688 -3.171875 8.875 -3.640625 8.875 -4.265625 C 8.875 -5.410156 8.0625 -5.984375 6.4375 -5.984375 Z M 4.640625 -5.984375 "/></g></g></g><g fill="#000000" fill-opacity="1"><g transform="translate(1126.995571, 165.262717)"><g><path d="M 8.171875 0 L 7.609375 -1.421875 L 7.53125 -1.421875 C 7.050781 -0.816406 6.554688 -0.394531 6.046875 -0.15625 C 5.535156 0.0703125 4.867188 0.1875 4.046875 0.1875 C 3.046875 0.1875 2.253906 -0.0976562 1.671875 -0.671875 C 1.097656 -1.242188 0.8125 -2.066406 0.8125 -3.140625 C 0.8125 -4.253906 1.195312 -5.070312 1.96875 -5.59375 C 2.75 -6.125 3.925781 -6.414062 5.5 -6.46875 L 7.3125 -6.53125 L 7.3125 -6.984375 C 7.3125 -8.054688 6.769531 -8.59375 5.6875 -8.59375 C 4.84375 -8.59375 3.859375 -8.335938 2.734375 -7.828125 L 1.78125 -9.765625 C 2.988281 -10.390625 4.328125 -10.703125 5.796875 -10.703125 C 7.203125 -10.703125 8.28125 -10.394531 9.03125 -9.78125 C 9.78125 -9.175781 10.15625 -8.242188 10.15625 -6.984375 L 10.15625 0 Z M 7.3125 -4.859375 L 6.21875 -4.828125 C 5.382812 -4.796875 4.765625 -4.640625 4.359375 -4.359375 C 3.953125 -4.085938 3.75 -3.671875 3.75 -3.109375 C 3.75 -2.304688 4.210938 -1.90625 5.140625 -1.90625 C 5.796875 -1.90625 6.320312 -2.09375 6.71875 -2.46875 C 7.113281 -2.851562 7.3125 -3.363281 7.3125 -4 Z M 7.3125 -4.859375 "/></g></g></g><g fill="#000000" fill-opacity="1"><g transform="translate(1138.604246, 165.262717)"><g><path d="M 1.375 -13.203125 C 1.375 -14.140625 1.894531 -14.609375 2.9375 -14.609375 C 3.976562 -14.609375 4.5 -14.140625 4.5 -13.203125 C 4.5 -12.753906 4.367188 -12.40625 4.109375 -12.15625 C 3.847656 -11.914062 3.457031 -11.796875 2.9375 -11.796875 C 1.894531 -11.796875 1.375 -12.265625 1.375 -13.203125 Z M 4.359375 0 L 1.5 0 L 1.5 -10.484375 L 4.359375 -10.484375 Z M 4.359375 0 "/></g></g></g><g fill="#000000" fill-opacity="1"><g transform="translate(1144.469585, 165.262717)"><g><path d="M 3.65625 -5.359375 L 0.265625 -10.484375 L 3.515625 -10.484375 L 5.5625 -7.15625 L 7.609375 -10.484375 L 10.859375 -10.484375 L 7.4375 -5.359375 L 11.015625 0 L 7.765625 0 L 5.5625 -3.59375 L 3.34375 0 L 0.09375 0 Z M 3.65625 -5.359375 "/></g></g></g><g fill="#000000" fill-opacity="1"><g transform="translate(1155.580878, 165.262717)"><g><path d="M 5.84375 -8.65625 C 5.238281 -8.65625 4.765625 -8.460938 4.421875 -8.078125 C 4.078125 -7.691406 3.878906 -7.144531 3.828125 -6.4375 L 7.84375 -6.4375 C 7.832031 -7.144531 7.644531 -7.691406 7.28125 -8.078125 C 6.925781 -8.460938 6.445312 -8.65625 5.84375 -8.65625 Z M 6.25 0.1875 C 4.5625 0.1875 3.238281 -0.273438 2.28125 -1.203125 C 1.332031 -2.140625 0.859375 -3.460938 0.859375 -5.171875 C 0.859375 -6.929688 1.296875 -8.289062 2.171875 -9.25 C 3.054688 -10.207031 4.273438 -10.6875 5.828125 -10.6875 C 7.304688 -10.6875 8.457031 -10.265625 9.28125 -9.421875 C 10.113281 -8.578125 10.53125 -7.410156 10.53125 -5.921875 L 10.53125 -4.53125 L 3.765625 -4.53125 C 3.796875 -3.71875 4.035156 -3.082031 4.484375 -2.625 C 4.929688 -2.164062 5.5625 -1.9375 6.375 -1.9375 C 7.007812 -1.9375 7.609375 -2.003906 8.171875 -2.140625 C 8.734375 -2.273438 9.320312 -2.484375 9.9375 -2.765625 L 9.9375 -0.546875 C 9.4375 -0.296875 8.898438 -0.113281 8.328125 0 C 7.765625 0.125 7.070312 0.1875 6.25 0.1875 Z M 6.25 0.1875 "/></g></g></g><g fill="#000000" fill-opacity="1"><g transform="translate(1166.936168, 165.262717)"><g/></g></g><g fill="#000000" fill-opacity="1"><g transform="translate(1171.928743, 165.262717)"><g><path d="M 3.78125 -5.265625 C 3.78125 -4.222656 3.953125 -3.4375 4.296875 -2.90625 C 4.640625 -2.375 5.191406 -2.109375 5.953125 -2.109375 C 6.722656 -2.109375 7.273438 -2.375 7.609375 -2.90625 C 7.941406 -3.4375 8.109375 -4.222656 8.109375 -5.265625 C 8.109375 -6.304688 7.9375 -7.082031 7.59375 -7.59375 C 7.257812 -8.113281 6.707031 -8.375 5.9375 -8.375 C 5.175781 -8.375 4.625 -8.113281 4.28125 -7.59375 C 3.945312 -7.082031 3.78125 -6.304688 3.78125 -5.265625 Z M 11.03125 -5.265625 C 11.03125 -3.554688 10.578125 -2.21875 9.671875 -1.25 C 8.773438 -0.289062 7.523438 0.1875 5.921875 0.1875 C 4.910156 0.1875 4.019531 -0.03125 3.25 -0.46875 C 2.488281 -0.914062 1.898438 -1.550781 1.484375 -2.375 C 1.066406 -3.195312 0.859375 -4.160156 0.859375 -5.265625 C 0.859375 -6.972656 1.304688 -8.300781 2.203125 -9.25 C 3.097656 -10.207031 4.359375 -10.6875 5.984375 -10.6875 C 6.984375 -10.6875 7.867188 -10.46875 8.640625 -10.03125 C 9.410156 -9.59375 10 -8.960938 10.40625 -8.140625 C 10.820312 -7.328125 11.03125 -6.367188 11.03125 -5.265625 Z M 11.03125 -5.265625 "/></g></g></g><g fill="#000000" fill-opacity="1"><g transform="translate(1183.828337, 165.262717)"><g/></g></g><g fill="#000000" fill-opacity="1"><g transform="translate(1188.820915, 165.262717)"><g><path d="M 8.828125 -3.109375 C 8.828125 -2.035156 8.453125 -1.21875 7.703125 -0.65625 C 6.953125 -0.09375 5.832031 0.1875 4.34375 0.1875 C 3.582031 0.1875 2.929688 0.132812 2.390625 0.03125 C 1.847656 -0.0703125 1.34375 -0.222656 0.875 -0.421875 L 0.875 -2.78125 C 1.414062 -2.53125 2.015625 -2.320312 2.671875 -2.15625 C 3.335938 -1.988281 3.925781 -1.90625 4.4375 -1.90625 C 5.476562 -1.90625 6 -2.207031 6 -2.8125 C 6 -3.03125 5.925781 -3.207031 5.78125 -3.34375 C 5.644531 -3.488281 5.40625 -3.648438 5.0625 -3.828125 C 4.726562 -4.003906 4.28125 -4.210938 3.71875 -4.453125 C 2.914062 -4.796875 2.320312 -5.109375 1.9375 -5.390625 C 1.5625 -5.679688 1.285156 -6.007812 1.109375 -6.375 C 0.941406 -6.75 0.859375 -7.210938 0.859375 -7.765625 C 0.859375 -8.691406 1.21875 -9.410156 1.9375 -9.921875 C 2.664062 -10.429688 3.691406 -10.6875 5.015625 -10.6875 C 6.285156 -10.6875 7.515625 -10.410156 8.703125 -9.859375 L 7.84375 -7.796875 C 7.320312 -8.023438 6.832031 -8.207031 6.375 -8.34375 C 5.914062 -8.488281 5.445312 -8.5625 4.96875 -8.5625 C 4.125 -8.5625 3.703125 -8.332031 3.703125 -7.875 C 3.703125 -7.625 3.835938 -7.40625 4.109375 -7.21875 C 4.378906 -7.03125 4.976562 -6.75 5.90625 -6.375 C 6.71875 -6.050781 7.316406 -5.742188 7.703125 -5.453125 C 8.085938 -5.160156 8.367188 -4.828125 8.546875 -4.453125 C 8.734375 -4.078125 8.828125 -3.628906 8.828125 -3.109375 Z M 8.828125 -3.109375 "/></g></g></g><g fill="#000000" fill-opacity="1"><g transform="translate(1198.374371, 165.262717)"><g><path d="M 5.84375 -8.65625 C 5.238281 -8.65625 4.765625 -8.460938 4.421875 -8.078125 C 4.078125 -7.691406 3.878906 -7.144531 3.828125 -6.4375 L 7.84375 -6.4375 C 7.832031 -7.144531 7.644531 -7.691406 7.28125 -8.078125 C 6.925781 -8.460938 6.445312 -8.65625 5.84375 -8.65625 Z M 6.25 0.1875 C 4.5625 0.1875 3.238281 -0.273438 2.28125 -1.203125 C 1.332031 -2.140625 0.859375 -3.460938 0.859375 -5.171875 C 0.859375 -6.929688 1.296875 -8.289062 2.171875 -9.25 C 3.054688 -10.207031 4.273438 -10.6875 5.828125 -10.6875 C 7.304688 -10.6875 8.457031 -10.265625 9.28125 -9.421875 C 10.113281 -8.578125 10.53125 -7.410156 10.53125 -5.921875 L 10.53125 -4.53125 L 3.765625 -4.53125 C 3.796875 -3.71875 4.035156 -3.082031 4.484375 -2.625 C 4.929688 -2.164062 5.5625 -1.9375 6.375 -1.9375 C 7.007812 -1.9375 7.609375 -2.003906 8.171875 -2.140625 C 8.734375 -2.273438 9.320312 -2.484375 9.9375 -2.765625 L 9.9375 -0.546875 C 9.4375 -0.296875 8.898438 -0.113281 8.328125 0 C 7.765625 0.125 7.070312 0.1875 6.25 0.1875 Z M 6.25 0.1875 "/></g></g></g><g fill="#000000" fill-opacity="1"><g transform="translate(1209.729658, 165.262717)"><g><path d="M 8.9375 0 L 8.546875 -1.34375 L 8.40625 -1.34375 C 8.09375 -0.851562 7.65625 -0.472656 7.09375 -0.203125 C 6.53125 0.0546875 5.890625 0.1875 5.171875 0.1875 C 3.941406 0.1875 3.007812 -0.140625 2.375 -0.796875 C 1.75 -1.460938 1.4375 -2.414062 1.4375 -3.65625 L 1.4375 -10.484375 L 4.3125 -10.484375 L 4.3125 -4.359375 C 4.3125 -3.609375 4.441406 -3.039062 4.703125 -2.65625 C 4.972656 -2.28125 5.40625 -2.09375 6 -2.09375 C 6.800781 -2.09375 7.378906 -2.359375 7.734375 -2.890625 C 8.085938 -3.429688 8.265625 -4.320312 8.265625 -5.5625 L 8.265625 -10.484375 L 11.125 -10.484375 L 11.125 0 Z M 8.9375 0 "/></g></g></g><g fill="#000000" fill-opacity="1"><g transform="translate(1222.361241, 165.262717)"><g/></g></g><g fill="#000000" fill-opacity="1"><g transform="translate(1227.353816, 165.262717)"><g><path d="M 5.921875 -2.09375 C 6.421875 -2.09375 7.019531 -2.203125 7.71875 -2.421875 L 7.71875 -0.296875 C 7.007812 0.0234375 6.132812 0.1875 5.09375 0.1875 C 3.945312 0.1875 3.113281 -0.0976562 2.59375 -0.671875 C 2.070312 -1.253906 1.8125 -2.125 1.8125 -3.28125 L 1.8125 -8.34375 L 0.4375 -8.34375 L 0.4375 -9.546875 L 2.015625 -10.515625 L 2.84375 -12.71875 L 4.671875 -12.71875 L 4.671875 -10.484375 L 7.609375 -10.484375 L 7.609375 -8.34375 L 4.671875 -8.34375 L 4.671875 -3.28125 C 4.671875 -2.875 4.785156 -2.570312 5.015625 -2.375 C 5.242188 -2.1875 5.546875 -2.09375 5.921875 -2.09375 Z M 5.921875 -2.09375 "/></g></g></g><g fill="#000000" fill-opacity="1"><g transform="translate(1235.696668, 165.262717)"><g><path d="M 7.359375 -10.6875 C 7.742188 -10.6875 8.066406 -10.660156 8.328125 -10.609375 L 8.109375 -7.921875 C 7.878906 -7.984375 7.597656 -8.015625 7.265625 -8.015625 C 6.347656 -8.015625 5.632812 -7.78125 5.125 -7.3125 C 4.613281 -6.84375 4.359375 -6.1875 4.359375 -5.34375 L 4.359375 0 L 1.5 0 L 1.5 -10.484375 L 3.671875 -10.484375 L 4.09375 -8.734375 L 4.234375 -8.734375 C 4.554688 -9.316406 4.992188 -9.785156 5.546875 -10.140625 C 6.097656 -10.503906 6.703125 -10.6875 7.359375 -10.6875 Z M 7.359375 -10.6875 "/></g></g></g><g fill="#000000" fill-opacity="1"><g transform="translate(1244.424284, 165.262717)"><g><path d="M 8.171875 0 L 7.609375 -1.421875 L 7.53125 -1.421875 C 7.050781 -0.816406 6.554688 -0.394531 6.046875 -0.15625 C 5.535156 0.0703125 4.867188 0.1875 4.046875 0.1875 C 3.046875 0.1875 2.253906 -0.0976562 1.671875 -0.671875 C 1.097656 -1.242188 0.8125 -2.066406 0.8125 -3.140625 C 0.8125 -4.253906 1.195312 -5.070312 1.96875 -5.59375 C 2.75 -6.125 3.925781 -6.414062 5.5 -6.46875 L 7.3125 -6.53125 L 7.3125 -6.984375 C 7.3125 -8.054688 6.769531 -8.59375 5.6875 -8.59375 C 4.84375 -8.59375 3.859375 -8.335938 2.734375 -7.828125 L 1.78125 -9.765625 C 2.988281 -10.390625 4.328125 -10.703125 5.796875 -10.703125 C 7.203125 -10.703125 8.28125 -10.394531 9.03125 -9.78125 C 9.78125 -9.175781 10.15625 -8.242188 10.15625 -6.984375 L 10.15625 0 Z M 7.3125 -4.859375 L 6.21875 -4.828125 C 5.382812 -4.796875 4.765625 -4.640625 4.359375 -4.359375 C 3.953125 -4.085938 3.75 -3.671875 3.75 -3.109375 C 3.75 -2.304688 4.210938 -1.90625 5.140625 -1.90625 C 5.796875 -1.90625 6.320312 -2.09375 6.71875 -2.46875 C 7.113281 -2.851562 7.3125 -3.363281 7.3125 -4 Z M 7.3125 -4.859375 "/></g></g></g><g fill="#000000" fill-opacity="1"><g transform="translate(1256.032956, 165.262717)"><g><path d="M 7.34375 -10.6875 C 8.582031 -10.6875 9.550781 -10.203125 10.25 -9.234375 C 10.945312 -8.265625 11.296875 -6.941406 11.296875 -5.265625 C 11.296875 -3.535156 10.929688 -2.191406 10.203125 -1.234375 C 9.484375 -0.285156 8.503906 0.1875 7.265625 0.1875 C 6.035156 0.1875 5.066406 -0.257812 4.359375 -1.15625 L 4.171875 -1.15625 L 3.6875 0 L 1.5 0 L 1.5 -14.609375 L 4.359375 -14.609375 L 4.359375 -11.203125 C 4.359375 -10.773438 4.320312 -10.082031 4.25 -9.125 L 4.359375 -9.125 C 5.035156 -10.164062 6.03125 -10.6875 7.34375 -10.6875 Z M 6.421875 -8.40625 C 5.710938 -8.40625 5.191406 -8.1875 4.859375 -7.75 C 4.535156 -7.3125 4.367188 -6.59375 4.359375 -5.59375 L 4.359375 -5.28125 C 4.359375 -4.15625 4.523438 -3.347656 4.859375 -2.859375 C 5.203125 -2.367188 5.734375 -2.125 6.453125 -2.125 C 7.046875 -2.125 7.515625 -2.394531 7.859375 -2.9375 C 8.203125 -3.476562 8.375 -4.265625 8.375 -5.296875 C 8.375 -6.328125 8.195312 -7.101562 7.84375 -7.625 C 7.5 -8.144531 7.023438 -8.40625 6.421875 -8.40625 Z M 6.421875 -8.40625 "/></g></g></g><g fill="#000000" fill-opacity="1"><g transform="translate(1268.195317, 165.262717)"><g><path d="M 8.171875 0 L 7.609375 -1.421875 L 7.53125 -1.421875 C 7.050781 -0.816406 6.554688 -0.394531 6.046875 -0.15625 C 5.535156 0.0703125 4.867188 0.1875 4.046875 0.1875 C 3.046875 0.1875 2.253906 -0.0976562 1.671875 -0.671875 C 1.097656 -1.242188 0.8125 -2.066406 0.8125 -3.140625 C 0.8125 -4.253906 1.195312 -5.070312 1.96875 -5.59375 C 2.75 -6.125 3.925781 -6.414062 5.5 -6.46875 L 7.3125 -6.53125 L 7.3125 -6.984375 C 7.3125 -8.054688 6.769531 -8.59375 5.6875 -8.59375 C 4.84375 -8.59375 3.859375 -8.335938 2.734375 -7.828125 L 1.78125 -9.765625 C 2.988281 -10.390625 4.328125 -10.703125 5.796875 -10.703125 C 7.203125 -10.703125 8.28125 -10.394531 9.03125 -9.78125 C 9.78125 -9.175781 10.15625 -8.242188 10.15625 -6.984375 L 10.15625 0 Z M 7.3125 -4.859375 L 6.21875 -4.828125 C 5.382812 -4.796875 4.765625 -4.640625 4.359375 -4.359375 C 3.953125 -4.085938 3.75 -3.671875 3.75 -3.109375 C 3.75 -2.304688 4.210938 -1.90625 5.140625 -1.90625 C 5.796875 -1.90625 6.320312 -2.09375 6.71875 -2.46875 C 7.113281 -2.851562 7.3125 -3.363281 7.3125 -4 Z M 7.3125 -4.859375 "/></g></g></g><g fill="#000000" fill-opacity="1"><g transform="translate(1279.803988, 165.262717)"><g><path d="M 4.359375 0 L 1.5 0 L 1.5 -14.609375 L 4.359375 -14.609375 Z M 4.359375 0 "/></g></g></g><g fill="#000000" fill-opacity="1"><g transform="translate(1285.669331, 165.262717)"><g><path d="M 11.1875 0 L 8.328125 0 L 8.328125 -6.125 C 8.328125 -7.644531 7.765625 -8.40625 6.640625 -8.40625 C 5.835938 -8.40625 5.253906 -8.128906 4.890625 -7.578125 C 4.535156 -7.035156 4.359375 -6.15625 4.359375 -4.9375 L 4.359375 0 L 1.5 0 L 1.5 -14.609375 L 4.359375 -14.609375 L 4.359375 -11.625 C 4.359375 -11.394531 4.335938 -10.851562 4.296875 -10 L 4.234375 -9.15625 L 4.375 -9.15625 C 5.019531 -10.175781 6.035156 -10.6875 7.421875 -10.6875 C 8.648438 -10.6875 9.582031 -10.351562 10.21875 -9.6875 C 10.863281 -9.03125 11.1875 -8.082031 11.1875 -6.84375 Z M 11.1875 0 "/></g></g></g><g fill="#000000" fill-opacity="1"><g transform="translate(1298.300915, 165.262717)"><g><path d="M 3.78125 -5.265625 C 3.78125 -4.222656 3.953125 -3.4375 4.296875 -2.90625 C 4.640625 -2.375 5.191406 -2.109375 5.953125 -2.109375 C 6.722656 -2.109375 7.273438 -2.375 7.609375 -2.90625 C 7.941406 -3.4375 8.109375 -4.222656 8.109375 -5.265625 C 8.109375 -6.304688 7.9375 -7.082031 7.59375 -7.59375 C 7.257812 -8.113281 6.707031 -8.375 5.9375 -8.375 C 5.175781 -8.375 4.625 -8.113281 4.28125 -7.59375 C 3.945312 -7.082031 3.78125 -6.304688 3.78125 -5.265625 Z M 11.03125 -5.265625 C 11.03125 -3.554688 10.578125 -2.21875 9.671875 -1.25 C 8.773438 -0.289062 7.523438 0.1875 5.921875 0.1875 C 4.910156 0.1875 4.019531 -0.03125 3.25 -0.46875 C 2.488281 -0.914062 1.898438 -1.550781 1.484375 -2.375 C 1.066406 -3.195312 0.859375 -4.160156 0.859375 -5.265625 C 0.859375 -6.972656 1.304688 -8.300781 2.203125 -9.25 C 3.097656 -10.207031 4.359375 -10.6875 5.984375 -10.6875 C 6.984375 -10.6875 7.867188 -10.46875 8.640625 -10.03125 C 9.410156 -9.59375 10 -8.960938 10.40625 -8.140625 C 10.820312 -7.328125 11.03125 -6.367188 11.03125 -5.265625 Z M 11.03125 -5.265625 "/></g></g></g><g clip-path="url(#d452f670ff)"><g clip-path="url(#53bb0621fb)"><path fill="#011830" d="M 1158.519531 18.546875 L 1265.925781 18.546875 L 1265.925781 112.390625 L 1158.519531 112.390625 Z M 1158.519531 18.546875 " fill-opacity="1" fill-rule="nonzero"/></g></g><g fill="#ffffff" fill-opacity="1"><g transform="translate(47.548382, 70.815531)"><g><path d="M 20.03125 0 L 14.921875 0 L 14.921875 -33.890625 L 4.671875 -30.125 L 4.671875 -34.734375 L 19.234375 -40.203125 L 20.03125 -40.203125 Z M 20.03125 0 "/></g></g></g><g fill="#ffffff" fill-opacity="1"><g transform="translate(1196.342458, 70.928698)"><g><path d="M 23.265625 -40.03125 L 23.265625 -35.71875 L 22.328125 -35.71875 C 18.378906 -35.644531 15.234375 -34.472656 12.890625 -32.203125 C 10.546875 -29.929688 9.1875 -26.734375 8.8125 -22.609375 C 10.925781 -25.023438 13.804688 -26.234375 17.453125 -26.234375 C 20.929688 -26.234375 23.707031 -25.003906 25.78125 -22.546875 C 27.863281 -20.097656 28.90625 -16.929688 28.90625 -13.046875 C 28.90625 -8.929688 27.78125 -5.632812 25.53125 -3.15625 C 23.289062 -0.6875 20.285156 0.546875 16.515625 0.546875 C 12.679688 0.546875 9.570312 -0.921875 7.1875 -3.859375 C 4.8125 -6.796875 3.625 -10.582031 3.625 -15.21875 L 3.625 -17.171875 C 3.625 -24.535156 5.191406 -30.160156 8.328125 -34.046875 C 11.472656 -37.941406 16.148438 -39.9375 22.359375 -40.03125 Z M 16.59375 -22 C 14.851562 -22 13.25 -21.476562 11.78125 -20.4375 C 10.320312 -19.394531 9.304688 -18.085938 8.734375 -16.515625 L 8.734375 -14.640625 C 8.734375 -11.347656 9.472656 -8.691406 10.953125 -6.671875 C 12.441406 -4.660156 14.296875 -3.65625 16.515625 -3.65625 C 18.804688 -3.65625 20.601562 -4.492188 21.90625 -6.171875 C 23.21875 -7.859375 23.875 -10.066406 23.875 -12.796875 C 23.875 -15.546875 23.207031 -17.765625 21.875 -19.453125 C 20.550781 -21.148438 18.789062 -22 16.59375 -22 Z M 16.59375 -22 "/></g></g></g><g fill="#000000" fill-opacity="1"><g transform="translate(887.735483, 165.262717)"><g><path d="M 9.625 0 L 1.734375 0 L 1.734375 -13.71875 L 9.625 -13.71875 L 9.625 -11.34375 L 4.640625 -11.34375 L 4.640625 -8.328125 L 9.28125 -8.328125 L 9.28125 -5.9375 L 4.640625 -5.9375 L 4.640625 -2.40625 L 9.625 -2.40625 Z M 9.625 0 "/></g></g></g><g fill="#000000" fill-opacity="1"><g transform="translate(898.49955, 165.262717)"><g><path d="M 4.828125 0.1875 C 3.585938 0.1875 2.613281 -0.289062 1.90625 -1.25 C 1.207031 -2.207031 0.859375 -3.535156 0.859375 -5.234375 C 0.859375 -6.953125 1.21875 -8.289062 1.9375 -9.25 C 2.65625 -10.207031 3.644531 -10.6875 4.90625 -10.6875 C 6.21875 -10.6875 7.222656 -10.175781 7.921875 -9.15625 L 8.015625 -9.15625 C 7.867188 -9.9375 7.796875 -10.632812 7.796875 -11.25 L 7.796875 -14.609375 L 10.671875 -14.609375 L 10.671875 0 L 8.46875 0 L 7.921875 -1.359375 L 7.796875 -1.359375 C 7.148438 -0.328125 6.160156 0.1875 4.828125 0.1875 Z M 5.828125 -2.09375 C 6.554688 -2.09375 7.09375 -2.304688 7.4375 -2.734375 C 7.78125 -3.160156 7.96875 -3.882812 8 -4.90625 L 8 -5.203125 C 8 -6.328125 7.820312 -7.132812 7.46875 -7.625 C 7.125 -8.113281 6.5625 -8.359375 5.78125 -8.359375 C 5.144531 -8.359375 4.648438 -8.085938 4.296875 -7.546875 C 3.941406 -7.003906 3.765625 -6.21875 3.765625 -5.1875 C 3.765625 -4.15625 3.941406 -3.378906 4.296875 -2.859375 C 4.648438 -2.347656 5.160156 -2.09375 5.828125 -2.09375 Z M 5.828125 -2.09375 "/></g></g></g><g fill="#000000" fill-opacity="1"><g transform="translate(910.661912, 165.262717)"><g><path d="M 1.375 -13.203125 C 1.375 -14.140625 1.894531 -14.609375 2.9375 -14.609375 C 3.976562 -14.609375 4.5 -14.140625 4.5 -13.203125 C 4.5 -12.753906 4.367188 -12.40625 4.109375 -12.15625 C 3.847656 -11.914062 3.457031 -11.796875 2.9375 -11.796875 C 1.894531 -11.796875 1.375 -12.265625 1.375 -13.203125 Z M 4.359375 0 L 1.5 0 L 1.5 -10.484375 L 4.359375 -10.484375 Z M 4.359375 0 "/></g></g></g><g fill="#000000" fill-opacity="1"><g transform="translate(916.52725, 165.262717)"><g><path d="M 5.921875 -2.09375 C 6.421875 -2.09375 7.019531 -2.203125 7.71875 -2.421875 L 7.71875 -0.296875 C 7.007812 0.0234375 6.132812 0.1875 5.09375 0.1875 C 3.945312 0.1875 3.113281 -0.0976562 2.59375 -0.671875 C 2.070312 -1.253906 1.8125 -2.125 1.8125 -3.28125 L 1.8125 -8.34375 L 0.4375 -8.34375 L 0.4375 -9.546875 L 2.015625 -10.515625 L 2.84375 -12.71875 L 4.671875 -12.71875 L 4.671875 -10.484375 L 7.609375 -10.484375 L 7.609375 -8.34375 L 4.671875 -8.34375 L 4.671875 -3.28125 C 4.671875 -2.875 4.785156 -2.570312 5.015625 -2.375 C 5.242188 -2.1875 5.546875 -2.09375 5.921875 -2.09375 Z M 5.921875 -2.09375 "/></g></g></g><g fill="#000000" fill-opacity="1"><g transform="translate(924.870106, 165.262717)"><g><path d="M 5.84375 -8.65625 C 5.238281 -8.65625 4.765625 -8.460938 4.421875 -8.078125 C 4.078125 -7.691406 3.878906 -7.144531 3.828125 -6.4375 L 7.84375 -6.4375 C 7.832031 -7.144531 7.644531 -7.691406 7.28125 -8.078125 C 6.925781 -8.460938 6.445312 -8.65625 5.84375 -8.65625 Z M 6.25 0.1875 C 4.5625 0.1875 3.238281 -0.273438 2.28125 -1.203125 C 1.332031 -2.140625 0.859375 -3.460938 0.859375 -5.171875 C 0.859375 -6.929688 1.296875 -8.289062 2.171875 -9.25 C 3.054688 -10.207031 4.273438 -10.6875 5.828125 -10.6875 C 7.304688 -10.6875 8.457031 -10.265625 9.28125 -9.421875 C 10.113281 -8.578125 10.53125 -7.410156 10.53125 -5.921875 L 10.53125 -4.53125 L 3.765625 -4.53125 C 3.796875 -3.71875 4.035156 -3.082031 4.484375 -2.625 C 4.929688 -2.164062 5.5625 -1.9375 6.375 -1.9375 C 7.007812 -1.9375 7.609375 -2.003906 8.171875 -2.140625 C 8.734375 -2.273438 9.320312 -2.484375 9.9375 -2.765625 L 9.9375 -0.546875 C 9.4375 -0.296875 8.898438 -0.113281 8.328125 0 C 7.765625 0.125 7.070312 0.1875 6.25 0.1875 Z M 6.25 0.1875 "/></g></g></g><g fill="#000000" fill-opacity="1"><g transform="translate(936.225397, 165.262717)"><g/></g></g><g fill="#000000" fill-opacity="1"><g transform="translate(941.217971, 165.262717)"><g><path d="M 8.828125 -3.109375 C 8.828125 -2.035156 8.453125 -1.21875 7.703125 -0.65625 C 6.953125 -0.09375 5.832031 0.1875 4.34375 0.1875 C 3.582031 0.1875 2.929688 0.132812 2.390625 0.03125 C 1.847656 -0.0703125 1.34375 -0.222656 0.875 -0.421875 L 0.875 -2.78125 C 1.414062 -2.53125 2.015625 -2.320312 2.671875 -2.15625 C 3.335938 -1.988281 3.925781 -1.90625 4.4375 -1.90625 C 5.476562 -1.90625 6 -2.207031 6 -2.8125 C 6 -3.03125 5.925781 -3.207031 5.78125 -3.34375 C 5.644531 -3.488281 5.40625 -3.648438 5.0625 -3.828125 C 4.726562 -4.003906 4.28125 -4.210938 3.71875 -4.453125 C 2.914062 -4.796875 2.320312 -5.109375 1.9375 -5.390625 C 1.5625 -5.679688 1.285156 -6.007812 1.109375 -6.375 C 0.941406 -6.75 0.859375 -7.210938 0.859375 -7.765625 C 0.859375 -8.691406 1.21875 -9.410156 1.9375 -9.921875 C 2.664062 -10.429688 3.691406 -10.6875 5.015625 -10.6875 C 6.285156 -10.6875 7.515625 -10.410156 8.703125 -9.859375 L 7.84375 -7.796875 C 7.320312 -8.023438 6.832031 -8.207031 6.375 -8.34375 C 5.914062 -8.488281 5.445312 -8.5625 4.96875 -8.5625 C 4.125 -8.5625 3.703125 -8.332031 3.703125 -7.875 C 3.703125 -7.625 3.835938 -7.40625 4.109375 -7.21875 C 4.378906 -7.03125 4.976562 -6.75 5.90625 -6.375 C 6.71875 -6.050781 7.316406 -5.742188 7.703125 -5.453125 C 8.085938 -5.160156 8.367188 -4.828125 8.546875 -4.453125 C 8.734375 -4.078125 8.828125 -3.628906 8.828125 -3.109375 Z M 8.828125 -3.109375 "/></g></g></g><g fill="#000000" fill-opacity="1"><g transform="translate(950.771431, 165.262717)"><g><path d="M 5.84375 -8.65625 C 5.238281 -8.65625 4.765625 -8.460938 4.421875 -8.078125 C 4.078125 -7.691406 3.878906 -7.144531 3.828125 -6.4375 L 7.84375 -6.4375 C 7.832031 -7.144531 7.644531 -7.691406 7.28125 -8.078125 C 6.925781 -8.460938 6.445312 -8.65625 5.84375 -8.65625 Z M 6.25 0.1875 C 4.5625 0.1875 3.238281 -0.273438 2.28125 -1.203125 C 1.332031 -2.140625 0.859375 -3.460938 0.859375 -5.171875 C 0.859375 -6.929688 1.296875 -8.289062 2.171875 -9.25 C 3.054688 -10.207031 4.273438 -10.6875 5.828125 -10.6875 C 7.304688 -10.6875 8.457031 -10.265625 9.28125 -9.421875 C 10.113281 -8.578125 10.53125 -7.410156 10.53125 -5.921875 L 10.53125 -4.53125 L 3.765625 -4.53125 C 3.796875 -3.71875 4.035156 -3.082031 4.484375 -2.625 C 4.929688 -2.164062 5.5625 -1.9375 6.375 -1.9375 C 7.007812 -1.9375 7.609375 -2.003906 8.171875 -2.140625 C 8.734375 -2.273438 9.320312 -2.484375 9.9375 -2.765625 L 9.9375 -0.546875 C 9.4375 -0.296875 8.898438 -0.113281 8.328125 0 C 7.765625 0.125 7.070312 0.1875 6.25 0.1875 Z M 6.25 0.1875 "/></g></g></g><g fill="#000000" fill-opacity="1"><g transform="translate(962.126726, 165.262717)"><g><path d="M 8.9375 0 L 8.546875 -1.34375 L 8.40625 -1.34375 C 8.09375 -0.851562 7.65625 -0.472656 7.09375 -0.203125 C 6.53125 0.0546875 5.890625 0.1875 5.171875 0.1875 C 3.941406 0.1875 3.007812 -0.140625 2.375 -0.796875 C 1.75 -1.460938 1.4375 -2.414062 1.4375 -3.65625 L 1.4375 -10.484375 L 4.3125 -10.484375 L 4.3125 -4.359375 C 4.3125 -3.609375 4.441406 -3.039062 4.703125 -2.65625 C 4.972656 -2.28125 5.40625 -2.09375 6 -2.09375 C 6.800781 -2.09375 7.378906 -2.359375 7.734375 -2.890625 C 8.085938 -3.429688 8.265625 -4.320312 8.265625 -5.5625 L 8.265625 -10.484375 L 11.125 -10.484375 L 11.125 0 Z M 8.9375 0 "/></g></g></g><g fill="#000000" fill-opacity="1"><g transform="translate(974.75831, 165.262717)"><g/></g></g><g fill="#000000" fill-opacity="1"><g transform="translate(979.750884, 165.262717)"><g><path d="M 8.171875 0 L 7.609375 -1.421875 L 7.53125 -1.421875 C 7.050781 -0.816406 6.554688 -0.394531 6.046875 -0.15625 C 5.535156 0.0703125 4.867188 0.1875 4.046875 0.1875 C 3.046875 0.1875 2.253906 -0.0976562 1.671875 -0.671875 C 1.097656 -1.242188 0.8125 -2.066406 0.8125 -3.140625 C 0.8125 -4.253906 1.195312 -5.070312 1.96875 -5.59375 C 2.75 -6.125 3.925781 -6.414062 5.5 -6.46875 L 7.3125 -6.53125 L 7.3125 -6.984375 C 7.3125 -8.054688 6.769531 -8.59375 5.6875 -8.59375 C 4.84375 -8.59375 3.859375 -8.335938 2.734375 -7.828125 L 1.78125 -9.765625 C 2.988281 -10.390625 4.328125 -10.703125 5.796875 -10.703125 C 7.203125 -10.703125 8.28125 -10.394531 9.03125 -9.78125 C 9.78125 -9.175781 10.15625 -8.242188 10.15625 -6.984375 L 10.15625 0 Z M 7.3125 -4.859375 L 6.21875 -4.828125 C 5.382812 -4.796875 4.765625 -4.640625 4.359375 -4.359375 C 3.953125 -4.085938 3.75 -3.671875 3.75 -3.109375 C 3.75 -2.304688 4.210938 -1.90625 5.140625 -1.90625 C 5.796875 -1.90625 6.320312 -2.09375 6.71875 -2.46875 C 7.113281 -2.851562 7.3125 -3.363281 7.3125 -4 Z M 7.3125 -4.859375 "/></g></g></g><g fill="#000000" fill-opacity="1"><g transform="translate(991.359564, 165.262717)"><g><path d="M 7.359375 -10.6875 C 7.742188 -10.6875 8.066406 -10.660156 8.328125 -10.609375 L 8.109375 -7.921875 C 7.878906 -7.984375 7.597656 -8.015625 7.265625 -8.015625 C 6.347656 -8.015625 5.632812 -7.78125 5.125 -7.3125 C 4.613281 -6.84375 4.359375 -6.1875 4.359375 -5.34375 L 4.359375 0 L 1.5 0 L 1.5 -10.484375 L 3.671875 -10.484375 L 4.09375 -8.734375 L 4.234375 -8.734375 C 4.554688 -9.316406 4.992188 -9.785156 5.546875 -10.140625 C 6.097656 -10.503906 6.703125 -10.6875 7.359375 -10.6875 Z M 7.359375 -10.6875 "/></g></g></g><g fill="#000000" fill-opacity="1"><g transform="translate(1000.08718, 165.262717)"><g><path d="M 5.84375 -2.0625 C 6.570312 -2.0625 7.101562 -2.265625 7.4375 -2.671875 C 7.78125 -3.085938 7.96875 -3.816406 8 -4.859375 L 8 -5.203125 C 8 -6.328125 7.820312 -7.132812 7.46875 -7.625 C 7.125 -8.113281 6.566406 -8.359375 5.796875 -8.359375 C 4.453125 -8.359375 3.78125 -7.300781 3.78125 -5.1875 C 3.78125 -4.132812 3.945312 -3.347656 4.28125 -2.828125 C 4.613281 -2.316406 5.132812 -2.0625 5.84375 -2.0625 Z M 4.828125 0.1875 C 3.585938 0.1875 2.613281 -0.285156 1.90625 -1.234375 C 1.207031 -2.191406 0.859375 -3.523438 0.859375 -5.234375 C 0.859375 -6.941406 1.21875 -8.273438 1.9375 -9.234375 C 2.65625 -10.203125 3.632812 -10.6875 4.875 -10.6875 C 5.539062 -10.6875 6.117188 -10.5625 6.609375 -10.3125 C 7.109375 -10.0625 7.546875 -9.675781 7.921875 -9.15625 L 8 -9.15625 L 8.25 -10.484375 L 10.671875 -10.484375 L 10.671875 4.609375 L 7.796875 4.609375 L 7.796875 0.21875 C 7.796875 -0.164062 7.835938 -0.691406 7.921875 -1.359375 L 7.796875 -1.359375 C 7.492188 -0.847656 7.085938 -0.460938 6.578125 -0.203125 C 6.066406 0.0546875 5.484375 0.1875 4.828125 0.1875 Z M 4.828125 0.1875 "/></g></g></g><g fill="#000000" fill-opacity="1"><g transform="translate(1012.249542, 165.262717)"><g><path d="M 8.9375 0 L 8.546875 -1.34375 L 8.40625 -1.34375 C 8.09375 -0.851562 7.65625 -0.472656 7.09375 -0.203125 C 6.53125 0.0546875 5.890625 0.1875 5.171875 0.1875 C 3.941406 0.1875 3.007812 -0.140625 2.375 -0.796875 C 1.75 -1.460938 1.4375 -2.414062 1.4375 -3.65625 L 1.4375 -10.484375 L 4.3125 -10.484375 L 4.3125 -4.359375 C 4.3125 -3.609375 4.441406 -3.039062 4.703125 -2.65625 C 4.972656 -2.28125 5.40625 -2.09375 6 -2.09375 C 6.800781 -2.09375 7.378906 -2.359375 7.734375 -2.890625 C 8.085938 -3.429688 8.265625 -4.320312 8.265625 -5.5625 L 8.265625 -10.484375 L 11.125 -10.484375 L 11.125 0 Z M 8.9375 0 "/></g></g></g><g fill="#000000" fill-opacity="1"><g transform="translate(1024.881125, 165.262717)"><g><path d="M 1.375 -13.203125 C 1.375 -14.140625 1.894531 -14.609375 2.9375 -14.609375 C 3.976562 -14.609375 4.5 -14.140625 4.5 -13.203125 C 4.5 -12.753906 4.367188 -12.40625 4.109375 -12.15625 C 3.847656 -11.914062 3.457031 -11.796875 2.9375 -11.796875 C 1.894531 -11.796875 1.375 -12.265625 1.375 -13.203125 Z M 4.359375 0 L 1.5 0 L 1.5 -10.484375 L 4.359375 -10.484375 Z M 4.359375 0 "/></g></g></g><g fill="#000000" fill-opacity="1"><g transform="translate(1030.746468, 165.262717)"><g><path d="M 4 0 L 0 -10.484375 L 3 -10.484375 L 5.015625 -4.515625 C 5.242188 -3.753906 5.382812 -3.035156 5.4375 -2.359375 L 5.5 -2.359375 C 5.53125 -2.960938 5.671875 -3.679688 5.921875 -4.515625 L 7.9375 -10.484375 L 10.9375 -10.484375 L 6.9375 0 Z M 4 0 "/></g></g></g><g fill="#000000" fill-opacity="1"><g transform="translate(1041.679453, 165.262717)"><g><path d="M 3.78125 -5.265625 C 3.78125 -4.222656 3.953125 -3.4375 4.296875 -2.90625 C 4.640625 -2.375 5.191406 -2.109375 5.953125 -2.109375 C 6.722656 -2.109375 7.273438 -2.375 7.609375 -2.90625 C 7.941406 -3.4375 8.109375 -4.222656 8.109375 -5.265625 C 8.109375 -6.304688 7.9375 -7.082031 7.59375 -7.59375 C 7.257812 -8.113281 6.707031 -8.375 5.9375 -8.375 C 5.175781 -8.375 4.625 -8.113281 4.28125 -7.59375 C 3.945312 -7.082031 3.78125 -6.304688 3.78125 -5.265625 Z M 11.03125 -5.265625 C 11.03125 -3.554688 10.578125 -2.21875 9.671875 -1.25 C 8.773438 -0.289062 7.523438 0.1875 5.921875 0.1875 C 4.910156 0.1875 4.019531 -0.03125 3.25 -0.46875 C 2.488281 -0.914062 1.898438 -1.550781 1.484375 -2.375 C 1.066406 -3.195312 0.859375 -4.160156 0.859375 -5.265625 C 0.859375 -6.972656 1.304688 -8.300781 2.203125 -9.25 C 3.097656 -10.207031 4.359375 -10.6875 5.984375 -10.6875 C 6.984375 -10.6875 7.867188 -10.46875 8.640625 -10.03125 C 9.410156 -9.59375 10 -8.960938 10.40625 -8.140625 C 10.820312 -7.328125 11.03125 -6.367188 11.03125 -5.265625 Z M 11.03125 -5.265625 "/></g></g></g></svg>