<svg version="1.2" xmlns="http://www.w3.org/2000/svg" viewBox="0 0 324 441" width="324" height="441">
	<title>Tutorial (1)-svg</title>
	<defs>
		<clipPath clipPathUnits="userSpaceOnUse" id="cp1">
			<path d="m284.52 21.2h243v243h-243z"/>
		</clipPath>
		<clipPath clipPathUnits="userSpaceOnUse" id="cp2">
			<path d="m162 46h163.44v275h-163.44z"/>
		</clipPath>
		<clipPath clipPathUnits="userSpaceOnUse" id="cp3">
			<path d="m16 227h248v218.03h-248z"/>
		</clipPath>
		<clipPath clipPathUnits="userSpaceOnUse" id="cp4">
			<path d="m182 86h143.44v301h-143.44z"/>
		</clipPath>
		<clipPath clipPathUnits="userSpaceOnUse" id="cp5">
			<path d="m68 0.59h257.44v444.44h-257.44z"/>
		</clipPath>
		<clipPath clipPathUnits="userSpaceOnUse" id="cp6">
			<path d="m0.69 304h226.31v141.03h-226.31z"/>
		</clipPath>
		<clipPath clipPathUnits="userSpaceOnUse" id="cp7">
			<path d="m169 275h156.44v170.03h-156.44z"/>
		</clipPath>
	</defs>
	<style>
		.s0 { fill: #68bbe4 } 
		.s1 { fill: #ffcc54 } 
		.s2 { fill: #00617d } 
		.s3 { fill: #fff0aa } 
		.s4 { fill: #003060 } 
	</style>
	<g id="Clip-Path" clip-path="url(#cp1)">
		<g>
		</g>
	</g>
	<g id="Clip-Path" clip-path="url(#cp2)">
		<g>
			<path class="s0" d="m325.4 320.9l-162.5-93.8 104.1-180.4 58.4 33.7z"/>
		</g>
	</g>
	<g id="Clip-Path" clip-path="url(#cp3)">
		<g>
			<path class="s1" d="m142.3 227.1l121.1 69.9-85.6 148.3h-161.4z"/>
		</g>
	</g>
	<g id="Clip-Path" clip-path="url(#cp4)">
		<g>
			<path class="s2" d="m325.4 295.6l-52.7 91.3-90.6-52.3 143.3-248.1z"/>
		</g>
	</g>
	<g id="Clip-Path" clip-path="url(#cp5)">
		<g>
			<path class="s3" d="m103.4 445.3h-35l257-445v60.5z"/>
		</g>
	</g>
	<g id="Clip-Path" clip-path="url(#cp6)">
		<g>
			<path class="s0" d="m81.8 304.7l144.7 83.6-33 57h-192.9z"/>
		</g>
	</g>
	<g id="Clip-Path" clip-path="url(#cp7)">
		<g>
			<path class="s4" d="m267.7 275.9l57.7 33.3v136.1h-155.5z"/>
		</g>
	</g>
</svg>