<svg version="1.2" xmlns="http://www.w3.org/2000/svg" viewBox="0 0 324 426" width="324" height="426">
	<title>Tutorial (3)-svg</title>
	<defs>
		<clipPath clipPathUnits="userSpaceOnUse" id="cp1">
			<path d="m325.52-23.8h243v243h-243z"/>
		</clipPath>
		<clipPath clipPathUnits="userSpaceOnUse" id="cp2">
			<path d="m162 121h163.5v275h-163.5z"/>
		</clipPath>
		<clipPath clipPathUnits="userSpaceOnUse" id="cp3">
			<path d="m16-3.02h248v218.02h-248z"/>
		</clipPath>
		<clipPath clipPathUnits="userSpaceOnUse" id="cp4">
			<path d="m182 55h143.5v301h-143.5z"/>
		</clipPath>
		<clipPath clipPathUnits="userSpaceOnUse" id="cp5">
			<path d="m68-3.02h257.5v444.75h-257.5z"/>
		</clipPath>
		<clipPath clipPathUnits="userSpaceOnUse" id="cp6">
			<path d="m0.75-3.02h226.25v141.02h-226.25z"/>
		</clipPath>
		<clipPath clipPathUnits="userSpaceOnUse" id="cp7">
			<path d="m169-3.02h156.5v170.02h-156.5z"/>
		</clipPath>
	</defs>
	<style>
		.s0 { fill: #ffffff } 
		.s1 { fill: #68bbe4 } 
		.s2 { fill: #ffcc54 } 
		.s3 { fill: #00617d } 
		.s4 { fill: #fff0aa } 
		.s5 { fill: #003060 } 
	</style>
	<g id="Clip-Path" clip-path="url(#cp1)">
		<g>
			<path class="s0" d="m741.5 18.2h243v243h-243z"/>
		</g>
	</g>
	<g id="Clip-Path" clip-path="url(#cp2)">
		<g>
			<path class="s1" d="m325.4 121.1l-162.4 93.8 104.1 180.4 58.3-33.7z"/>
		</g>
	</g>
	<g id="Clip-Path" clip-path="url(#cp3)">
		<g>
			<path class="s2" d="m142.4 214.9l121.1-69.9-85.7-148.3h-161.4z"/>
		</g>
	</g>
	<g id="Clip-Path" clip-path="url(#cp4)">
		<g>
			<path class="s3" d="m325.4 146.4l-52.6-91.3-90.6 52.3 143.2 248.1z"/>
		</g>
	</g>
	<g id="Clip-Path" clip-path="url(#cp5)">
		<g>
			<path class="s4" d="m103.4-3.3h-34.9l256.9 445v-60.5z"/>
		</g>
	</g>
	<g id="Clip-Path" clip-path="url(#cp6)">
		<g>
			<path class="s1" d="m81.8 137.3l144.7-83.6-32.9-57h-192.9z"/>
		</g>
	</g>
	<g id="Clip-Path" clip-path="url(#cp7)">
		<g>
			<path class="s5" d="m267.8 166.1l57.6-33.3v-136.1h-155.4z"/>
		</g>
	</g>
</svg>