<svg version="1.2" xmlns="http://www.w3.org/2000/svg" viewBox="0 0 322 433" width="322" height="433">
	<title>Tutorial (2)-svg</title>
	<defs>
		<clipPath clipPathUnits="userSpaceOnUse" id="cp1">
			<path d="m323.52-20.8h243v243h-243z"/>
		</clipPath>
		<clipPath clipPathUnits="userSpaceOnUse" id="cp2">
			<path d="m-1.25 124h163.25v275h-163.25z"/>
		</clipPath>
		<clipPath clipPathUnits="userSpaceOnUse" id="cp3">
			<path d="m60-0.02h248v218.02h-248z"/>
		</clipPath>
		<clipPath clipPathUnits="userSpaceOnUse" id="cp4">
			<path d="m-1.25 58h143.25v301h-143.25z"/>
		</clipPath>
		<clipPath clipPathUnits="userSpaceOnUse" id="cp5">
			<path d="m-1.25-0.02h257.25v444.75h-257.25z"/>
		</clipPath>
		<clipPath clipPathUnits="userSpaceOnUse" id="cp6">
			<path d="m97-0.02h226.36v141.02h-226.36z"/>
		</clipPath>
		<clipPath clipPathUnits="userSpaceOnUse" id="cp7">
			<path d="m-1.25-0.02h156.25v170.02h-156.25z"/>
		</clipPath>
	</defs>
	<style>
		.s0 { fill: #68bbe4 } 
		.s1 { fill: #ffcc54 } 
		.s2 { fill: #00617d } 
		.s3 { fill: #fff0aa } 
		.s4 { fill: #003060 } 
	</style>
	<g id="Clip-Path" clip-path="url(#cp1)">
		<g>
		</g>
	</g>
	<g id="Clip-Path" clip-path="url(#cp2)">
		<g>
			<path class="s0" d="m-1.3 124.1l162.5 93.8-104.2 180.4-58.3-33.7z"/>
		</g>
	</g>
	<g id="Clip-Path" clip-path="url(#cp3)">
		<g>
			<path class="s1" d="m181.7 217.9l-121-69.9 85.6-148.3h161.4z"/>
		</g>
	</g>
	<g id="Clip-Path" clip-path="url(#cp4)">
		<g>
			<path class="s2" d="m-1.3 149.4l52.7-91.3 90.5 52.3-143.2 248.1z"/>
		</g>
	</g>
	<g id="Clip-Path" clip-path="url(#cp5)">
		<g>
			<path class="s3" d="m220.7-0.3h34.9l-256.9 445v-60.5z"/>
		</g>
	</g>
	<g id="Clip-Path" clip-path="url(#cp6)">
		<g>
			<path class="s0" d="m242.3 140.3l-144.7-83.6 32.9-57h193z"/>
		</g>
	</g>
	<g id="Clip-Path" clip-path="url(#cp7)">
		<g>
			<path class="s4" d="m56.4 169.1l-57.7-33.3v-136.1h155.4z"/>
		</g>
	</g>
</svg>