<svg xmlns="http://www.w3.org/2000/svg" xmlns:xlink="http://www.w3.org/1999/xlink" width="1920" zoomAndPan="magnify" viewBox="0 0 1440 809.999993" height="1080" preserveAspectRatio="xMidYMid meet" version="1.0"><defs><g/><clipPath id="bbfa66045c"><path d="M 608.046875 228.582031 L 871.007812 228.582031 L 871.007812 496.523438 L 608.046875 496.523438 Z M 608.046875 228.582031 " clip-rule="nonzero"/></clipPath><clipPath id="57c84d4157"><path d="M 625.296875 228.582031 L 854.078125 228.582031 C 858.652344 228.582031 863.042969 230.398438 866.277344 233.632812 C 869.511719 236.867188 871.328125 241.253906 871.328125 245.832031 L 871.328125 479.675781 C 871.328125 484.25 869.511719 488.636719 866.277344 491.871094 C 863.042969 495.105469 858.652344 496.925781 854.078125 496.925781 L 625.296875 496.925781 C 620.722656 496.925781 616.332031 495.105469 613.097656 491.871094 C 609.863281 488.636719 608.046875 484.25 608.046875 479.675781 L 608.046875 245.832031 C 608.046875 241.253906 609.863281 236.867188 613.097656 233.632812 C 616.332031 230.398438 620.722656 228.582031 625.296875 228.582031 Z M 625.296875 228.582031 " clip-rule="nonzero"/></clipPath><clipPath id="9ea82fbf77"><path d="M 641 306 L 658 306 L 658 326 L 641 326 Z M 641 306 " clip-rule="nonzero"/></clipPath><clipPath id="90adfd8510"><path d="M 629.066406 300.65625 L 670.984375 275.394531 L 687.683594 303.105469 L 645.761719 328.367188 Z M 629.066406 300.65625 " clip-rule="nonzero"/></clipPath><clipPath id="15a1f691e4"><path d="M 629.066406 300.65625 L 670.984375 275.394531 L 687.683594 303.105469 L 645.761719 328.367188 Z M 629.066406 300.65625 " clip-rule="nonzero"/></clipPath><clipPath id="dd070b0965"><path d="M 637.785156 315.125 L 656.027344 304.136719 L 663.914062 317.226562 L 645.671875 328.21875 Z M 637.785156 315.125 " clip-rule="nonzero"/></clipPath><clipPath id="91f54f161d"><path d="M 631 279 L 685 279 L 685 311 L 631 311 Z M 631 279 " clip-rule="nonzero"/></clipPath><clipPath id="7c2c73097c"><path d="M 629.066406 300.65625 L 670.984375 275.394531 L 687.683594 303.105469 L 645.761719 328.367188 Z M 629.066406 300.65625 " clip-rule="nonzero"/></clipPath><clipPath id="2f5c11e0f5"><path d="M 629.066406 300.65625 L 670.984375 275.394531 L 687.683594 303.105469 L 645.761719 328.367188 Z M 629.066406 300.65625 " clip-rule="nonzero"/></clipPath><clipPath id="714e630259"><path d="M 629.078125 300.675781 L 671.28125 275.25 L 685.753906 299.269531 L 643.550781 324.699219 Z M 629.078125 300.675781 " clip-rule="nonzero"/></clipPath><clipPath id="20dc37547b"><path d="M 688 251.148438 L 802 251.148438 L 802 405.441406 L 688 405.441406 Z M 688 251.148438 " clip-rule="nonzero"/></clipPath><clipPath id="d0c61a32ab"><path d="M 832 410 L 847 410 L 847 432 L 832 432 Z M 832 410 " clip-rule="nonzero"/></clipPath><clipPath id="42dced4692"><path d="M 829.328125 376.300781 L 862.335938 412.4375 L 838.449219 434.257812 L 805.441406 398.121094 Z M 829.328125 376.300781 " clip-rule="nonzero"/></clipPath><clipPath id="65d468db36"><path d="M 862.5625 412.6875 L 829.554688 376.550781 L 805.667969 398.371094 L 838.675781 434.507812 Z M 862.5625 412.6875 " clip-rule="nonzero"/></clipPath><clipPath id="32e6c62f26"><path d="M 850.089844 424.082031 L 835.722656 408.355469 L 824.441406 418.664062 L 838.804688 434.390625 Z M 850.089844 424.082031 " clip-rule="nonzero"/></clipPath><clipPath id="855db20995"><path d="M 809 380 L 860 380 L 860 420 L 809 420 Z M 809 380 " clip-rule="nonzero"/></clipPath><clipPath id="2e811cd835"><path d="M 829.328125 376.300781 L 862.335938 412.4375 L 838.449219 434.257812 L 805.441406 398.121094 Z M 829.328125 376.300781 " clip-rule="nonzero"/></clipPath><clipPath id="0832eacac3"><path d="M 862.5625 412.6875 L 829.554688 376.550781 L 805.667969 398.371094 L 838.675781 434.507812 Z M 862.5625 412.6875 " clip-rule="nonzero"/></clipPath><clipPath id="8004e8691d"><path d="M 862.542969 412.703125 L 829.3125 376.324219 L 808.605469 395.242188 L 841.835938 431.621094 Z M 862.542969 412.703125 " clip-rule="nonzero"/></clipPath></defs><g clip-path="url(#bbfa66045c)"><g clip-path="url(#57c84d4157)"><path fill="#ffffff" d="M 646.296875 225.582031 L 664.296875 225.582031 L 664.296875 231.582031 L 646.296875 231.582031 Z M 667.296875 225.582031 L 685.296875 225.582031 L 685.296875 231.582031 L 667.296875 231.582031 Z M 688.296875 225.582031 L 706.296875 225.582031 L 706.296875 231.582031 L 688.296875 231.582031 Z M 709.296875 225.582031 L 727.296875 225.582031 L 727.296875 231.582031 L 709.296875 231.582031 Z M 730.296875 225.582031 L 748.296875 225.582031 L 748.296875 231.582031 L 730.296875 231.582031 Z M 751.296875 225.582031 L 769.296875 225.582031 L 769.296875 231.582031 L 751.296875 231.582031 Z M 772.296875 225.582031 L 790.296875 225.582031 L 790.296875 231.582031 L 772.296875 231.582031 Z M 793.296875 225.582031 L 811.296875 225.582031 L 811.296875 231.582031 L 793.296875 231.582031 Z M 814.296875 225.582031 L 832.296875 225.582031 L 832.296875 231.582031 L 814.296875 231.582031 Z M 835.296875 225.582031 L 853.296875 225.582031 L 853.296875 231.582031 L 835.296875 231.582031 Z M 856.683594 225.75 C 861.242188 226.339844 865.148438 228.261719 868.398438 231.511719 C 870.292969 233.410156 871.757812 235.597656 872.785156 238.074219 L 867.242188 240.371094 C 866.519531 238.628906 865.488281 237.089844 864.15625 235.753906 C 861.867188 233.46875 859.121094 232.117188 855.914062 231.699219 Z M 873.84375 241.433594 C 874.167969 242.878906 874.328125 244.347656 874.328125 245.832031 L 874.328125 260.0625 L 868.328125 260.0625 L 868.328125 245.832031 C 868.328125 244.785156 868.214844 243.753906 867.988281 242.734375 Z M 874.328125 263.0625 L 874.328125 281.0625 L 868.328125 281.0625 L 868.328125 263.0625 Z M 874.328125 284.0625 L 874.328125 302.0625 L 868.328125 302.0625 L 868.328125 284.0625 Z M 874.328125 305.0625 L 874.328125 323.0625 L 868.328125 323.0625 L 868.328125 305.0625 Z M 874.328125 326.0625 L 874.328125 344.0625 L 868.328125 344.0625 L 868.328125 326.0625 Z M 874.328125 347.0625 L 874.328125 365.0625 L 868.328125 365.0625 L 868.328125 347.0625 Z M 874.328125 368.0625 L 874.328125 386.0625 L 868.328125 386.0625 L 868.328125 368.0625 Z M 874.328125 389.0625 L 874.328125 407.0625 L 868.328125 407.0625 L 868.328125 389.0625 Z M 874.328125 410.0625 L 874.328125 428.0625 L 868.328125 428.0625 L 868.328125 410.0625 Z M 874.328125 431.0625 L 874.328125 449.0625 L 868.328125 449.0625 L 868.328125 431.0625 Z M 874.328125 452.0625 L 874.328125 470.0625 L 868.328125 470.0625 L 868.328125 452.0625 Z M 874.328125 473.0625 L 874.328125 479.675781 C 874.328125 484.3125 872.90625 488.457031 870.058594 492.113281 L 865.324219 488.429688 C 867.328125 485.855469 868.328125 482.9375 868.328125 479.675781 L 868.328125 473.0625 Z M 867.625 494.726562 C 863.773438 498.191406 859.257812 499.925781 854.078125 499.925781 L 848.679688 499.925781 L 848.679688 493.925781 L 854.078125 493.925781 C 857.722656 493.925781 860.902344 492.707031 863.609375 490.265625 Z M 845.679688 499.925781 L 827.679688 499.925781 L 827.679688 493.925781 L 845.679688 493.925781 Z M 824.679688 499.925781 L 806.679688 499.925781 L 806.679688 493.925781 L 824.679688 493.925781 Z M 803.679688 499.925781 L 785.679688 499.925781 L 785.679688 493.925781 L 803.679688 493.925781 Z M 782.679688 499.925781 L 764.679688 499.925781 L 764.679688 493.925781 L 782.679688 493.925781 Z M 761.679688 499.925781 L 743.679688 499.925781 L 743.679688 493.925781 L 761.679688 493.925781 Z M 740.679688 499.925781 L 722.679688 499.925781 L 722.679688 493.925781 L 740.679688 493.925781 Z M 719.679688 499.925781 L 701.679688 499.925781 L 701.679688 493.925781 L 719.679688 493.925781 Z M 698.679688 499.925781 L 680.679688 499.925781 L 680.679688 493.925781 L 698.679688 493.925781 Z M 677.679688 499.925781 L 659.679688 499.925781 L 659.679688 493.925781 L 677.679688 493.925781 Z M 656.679688 499.925781 L 638.679688 499.925781 L 638.679688 493.925781 L 656.679688 493.925781 Z M 635.679688 499.925781 L 625.296875 499.925781 C 622.261719 499.925781 619.375 499.273438 616.632812 497.976562 L 619.199219 492.554688 C 621.128906 493.46875 623.160156 493.925781 625.296875 493.925781 L 635.679688 493.925781 Z M 613.585938 496.195312 C 612.65625 495.535156 611.785156 494.800781 610.976562 493.992188 C 607.023438 490.039062 605.046875 485.265625 605.046875 479.675781 L 605.046875 478.046875 L 611.046875 478.046875 L 611.046875 479.675781 C 611.046875 483.609375 612.4375 486.96875 615.21875 489.75 C 615.789062 490.320312 616.402344 490.835938 617.054688 491.300781 Z M 605.046875 475.046875 L 605.046875 457.046875 L 611.046875 457.046875 L 611.046875 475.046875 Z M 605.046875 454.046875 L 605.046875 436.046875 L 611.046875 436.046875 L 611.046875 454.046875 Z M 605.046875 433.046875 L 605.046875 415.046875 L 611.046875 415.046875 L 611.046875 433.046875 Z M 605.046875 412.046875 L 605.046875 394.046875 L 611.046875 394.046875 L 611.046875 412.046875 Z M 605.046875 391.046875 L 605.046875 373.046875 L 611.046875 373.046875 L 611.046875 391.046875 Z M 605.046875 370.046875 L 605.046875 352.046875 L 611.046875 352.046875 L 611.046875 370.046875 Z M 605.046875 349.046875 L 605.046875 331.046875 L 611.046875 331.046875 L 611.046875 349.046875 Z M 605.046875 328.046875 L 605.046875 310.046875 L 611.046875 310.046875 L 611.046875 328.046875 Z M 605.046875 307.046875 L 605.046875 289.046875 L 611.046875 289.046875 L 611.046875 307.046875 Z M 605.046875 286.046875 L 605.046875 268.046875 L 611.046875 268.046875 L 611.046875 286.046875 Z M 605.046875 265.046875 L 605.046875 247.046875 L 611.046875 247.046875 L 611.046875 265.046875 Z M 605.15625 243.730469 C 605.652344 238.96875 607.59375 234.898438 610.976562 231.511719 C 612.75 229.738281 614.78125 228.34375 617.074219 227.324219 L 619.511719 232.808594 C 617.898438 233.523438 616.46875 234.507812 615.21875 235.753906 C 612.839844 238.136719 611.472656 241 611.125 244.351562 Z M 620.402344 226.179688 C 622.007812 225.78125 623.640625 225.582031 625.296875 225.582031 L 643.296875 225.582031 L 643.296875 231.582031 L 625.296875 231.582031 C 624.128906 231.582031 622.984375 231.722656 621.851562 232.003906 Z M 620.402344 226.179688 " fill-opacity="1" fill-rule="nonzero"/></g></g><g clip-path="url(#9ea82fbf77)"><g clip-path="url(#90adfd8510)"><g clip-path="url(#15a1f691e4)"><g clip-path="url(#dd070b0965)"><path fill="#ffffff" d="M 644.570312 320.65625 C 643.4375 318.800781 644.046875 316.316406 645.910156 315.199219 C 647.78125 314.070312 650.21875 314.648438 651.332031 316.484375 C 652.476562 318.371094 651.863281 320.90625 650.003906 321.996094 C 648.144531 323.085938 645.6875 322.480469 644.570312 320.65625 Z M 655.042969 318.90625 C 655.113281 317.488281 654.84375 316.121094 654.441406 314.777344 C 653.917969 313.050781 654.015625 311.433594 655.101562 309.914062 C 655.871094 308.832031 656.613281 307.734375 657.351562 306.628906 L 651.160156 307.070312 C 650.496094 308.113281 649.742188 309.265625 649.128906 310.179688 C 648.898438 310.527344 648.484375 310.621094 648.136719 310.792969 C 646.804688 311.460938 645.414062 312.011719 644.164062 312.835938 C 641.210938 314.78125 640.277344 317.863281 641.59375 321.265625 C 642.722656 324.183594 645.914062 325.96875 649.117188 325.472656 C 652.554688 324.941406 654.859375 322.386719 655.042969 318.90625 " fill-opacity="1" fill-rule="nonzero"/></g></g></g></g><g clip-path="url(#91f54f161d)"><g clip-path="url(#7c2c73097c)"><g clip-path="url(#2f5c11e0f5)"><g clip-path="url(#714e630259)"><path fill="#ffffff" d="M 635.25 305.183594 C 634.160156 303.34375 634.773438 300.890625 636.605469 299.753906 C 638.433594 298.617188 640.964844 299.265625 642.097656 301.15625 C 643.199219 303 642.570312 305.421875 640.699219 306.550781 C 638.839844 307.675781 636.359375 307.054688 635.25 305.183594 Z M 658.574219 301.671875 C 658.574219 301.671875 658.574219 301.671875 658.574219 301.675781 C 659.125 302.589844 658.832031 303.773438 657.917969 304.324219 C 657.003906 304.875 655.820312 304.582031 655.269531 303.667969 C 655.269531 303.667969 655.265625 303.664062 655.265625 303.664062 C 654.714844 302.753906 655.011719 301.566406 655.925781 301.015625 C 656.835938 300.464844 658.023438 300.757812 658.574219 301.671875 Z M 646.640625 306.050781 C 648.4375 305.859375 652.121094 305.546875 652.105469 305.574219 L 658.992188 304.878906 C 664.996094 304.242188 671.003906 303.621094 676.957031 302.582031 C 678.671875 302.285156 680.394531 302.007812 682.003906 301.316406 C 682.867188 300.945312 683.671875 300.46875 684.292969 299.746094 C 684.84375 299.101562 685.066406 298.386719 684.707031 297.554688 C 684.550781 297.195312 684.339844 297.066406 683.925781 297.113281 C 679.453125 297.632812 674.984375 298.125 670.515625 298.625 C 667.949219 298.914062 662.179688 299.511719 662.191406 299.496094 C 662.171875 299.496094 665.394531 294.675781 666.847656 292.542969 C 669.378906 288.824219 671.90625 285.101562 674.453125 281.394531 C 674.6875 281.046875 674.671875 280.800781 674.429688 280.496094 C 673.863281 279.789062 673.125 279.652344 672.296875 279.835938 C 671.367188 280.046875 670.570312 280.539062 669.839844 281.125 C 668.472656 282.226562 667.425781 283.625 666.363281 284.996094 C 662.664062 289.777344 659.308594 294.796875 655.9375 299.808594 C 655.742188 300.101562 655.535156 300.25 655.171875 300.285156 C 653.332031 300.46875 651.496094 300.648438 649.667969 300.894531 C 647.816406 301.144531 646.339844 300.472656 645.058594 299.207031 C 644.058594 298.21875 642.976562 297.34375 641.691406 296.746094 C 638.527344 295.277344 635.191406 296.121094 633.113281 298.914062 C 631.179688 301.515625 631.265625 305.171875 633.320312 307.535156 C 635.710938 310.289062 638.871094 310.902344 641.972656 309.199219 C 643.285156 308.476562 644.421875 307.507812 645.632812 306.640625 C 645.949219 306.414062 646.226562 306.09375 646.640625 306.050781 " fill-opacity="1" fill-rule="nonzero"/></g></g></g></g><path fill="#ffffff" d="M 721.40625 320.984375 C 720.519531 320.273438 719.101562 320.449219 718.214844 321.335938 L 710.769531 330.554688 L 708.464844 328.425781 C 707.578125 327.539062 706.160156 327.539062 705.273438 328.425781 C 704.390625 329.3125 704.390625 330.730469 705.273438 331.617188 C 705.273438 331.617188 709.527344 335.515625 709.527344 335.515625 C 710.59375 336.402344 712.1875 336.046875 712.71875 335.339844 L 721.582031 324.171875 C 722.46875 323.109375 722.824219 322.046875 721.40625 320.984375 Z M 721.40625 320.984375 " fill-opacity="1" fill-rule="nonzero"/><g clip-path="url(#20dc37547b)"><path fill="#ffffff" d="M 799.746094 342.253906 C 798.507812 342.253906 797.621094 343.316406 797.621094 344.378906 L 797.621094 400.921875 L 692.511719 400.921875 L 692.511719 255.578125 L 765.714844 255.578125 L 765.714844 285.003906 C 765.714844 286.242188 766.601562 287.304688 767.84375 287.304688 L 797.265625 287.304688 L 797.265625 290.140625 C 797.265625 291.382812 798.328125 292.269531 799.390625 292.269531 C 800.457031 292.269531 801.519531 291.207031 801.519531 290.140625 L 801.519531 285.003906 C 801.519531 284.46875 801.34375 283.9375 800.808594 283.40625 L 769.617188 251.855469 C 769.261719 251.324219 768.550781 251.148438 768.019531 251.148438 L 690.386719 251.148438 C 689.144531 251.148438 688.257812 252.210938 688.257812 253.273438 L 688.257812 403.226562 C 688.257812 404.464844 689.324219 405.351562 690.386719 405.351562 L 799.746094 405.351562 C 800.988281 405.351562 801.875 404.289062 801.875 403.226562 L 801.875 344.378906 C 801.875 343.136719 800.988281 342.253906 799.746094 342.253906 Z M 799.746094 342.253906 " fill-opacity="1" fill-rule="nonzero"/></g><path fill="#ffffff" d="M 786.277344 297.054688 C 786.277344 295.8125 785.214844 294.929688 784.148438 294.929688 L 731.332031 294.929688 C 730.089844 294.929688 729.203125 295.992188 729.203125 297.054688 C 729.203125 298.117188 730.265625 299.179688 731.332031 299.179688 L 784.148438 299.179688 C 785.390625 299.359375 786.277344 298.296875 786.277344 297.054688 Z M 786.277344 297.054688 " fill-opacity="1" fill-rule="nonzero"/><path fill="#ffffff" d="M 731.332031 306.269531 C 730.089844 306.269531 729.203125 307.335938 729.203125 308.398438 C 729.203125 309.460938 730.265625 310.523438 731.332031 310.523438 L 769.261719 310.523438 C 770.5 310.523438 771.386719 309.460938 771.386719 308.398438 C 771.386719 307.335938 770.5 306.269531 769.261719 306.269531 Z M 731.332031 306.269531 " fill-opacity="1" fill-rule="nonzero"/><path fill="#ffffff" d="M 721.40625 291.738281 C 720.519531 291.027344 719.101562 291.207031 718.214844 292.09375 L 710.769531 301.308594 L 708.464844 299.179688 C 707.578125 298.296875 706.160156 298.296875 705.273438 299.179688 C 704.390625 300.066406 704.390625 301.484375 705.273438 302.371094 C 705.273438 302.371094 709.527344 306.269531 709.527344 306.269531 C 710.59375 307.15625 712.1875 306.804688 712.71875 306.09375 L 721.582031 294.929688 C 722.46875 293.863281 722.644531 292.800781 721.40625 291.738281 Z M 721.40625 291.738281 " fill-opacity="1" fill-rule="nonzero"/><path fill="#ffffff" d="M 721.40625 349.164062 C 720.519531 348.457031 719.101562 348.632812 718.214844 349.519531 L 710.769531 358.734375 L 708.464844 356.609375 C 707.578125 355.722656 706.160156 355.722656 705.273438 356.609375 C 704.390625 357.496094 704.390625 358.914062 705.273438 359.800781 C 705.273438 359.800781 709.527344 363.699219 709.527344 363.699219 C 710.59375 364.585938 712.1875 364.230469 712.71875 363.523438 L 721.582031 352.355469 C 722.46875 351.46875 722.644531 350.226562 721.40625 349.164062 Z M 721.40625 349.164062 " fill-opacity="1" fill-rule="nonzero"/><path fill="#ffffff" d="M 840.511719 291.382812 L 834.132812 286.421875 L 838.386719 280.925781 C 839.273438 279.863281 840.160156 278.089844 838.210938 276.496094 L 828.992188 269.226562 C 827.574219 267.988281 825.269531 267.988281 824.03125 269.582031 L 819.777344 275.078125 C 819.421875 274.898438 818.890625 274.722656 818.535156 274.898438 C 818.003906 274.898438 817.472656 275.253906 817.117188 275.785156 L 809.671875 285.355469 C 809.140625 286.242188 809.140625 287.304688 809.671875 288.015625 L 781.667969 323.640625 L 731.332031 323.640625 C 730.089844 323.640625 729.203125 324.703125 729.203125 325.769531 C 729.203125 326.832031 730.265625 327.894531 731.332031 327.894531 L 778.125 327.894531 L 772.804688 334.808594 L 731.332031 334.808594 C 730.089844 334.808594 729.203125 335.871094 729.203125 336.933594 C 729.203125 338 730.265625 339.0625 731.332031 339.0625 L 769.4375 339.0625 L 759.335938 352.355469 L 731.332031 352.355469 C 730.089844 352.355469 729.203125 353.417969 729.203125 354.480469 C 729.203125 355.546875 730.265625 356.609375 731.332031 356.609375 L 755.789062 356.609375 L 751.359375 362.28125 C 751.359375 362.28125 751.183594 362.8125 751.003906 363.523438 L 731.332031 363.523438 C 730.089844 363.523438 729.203125 364.585938 729.203125 365.648438 C 729.203125 366.710938 730.265625 367.777344 731.332031 367.777344 L 749.585938 367.777344 C 747.8125 373.449219 745.511719 381.421875 745.511719 381.421875 C 745.15625 382.308594 745.511719 383.375 746.21875 383.90625 C 746.929688 384.4375 747.992188 384.4375 748.699219 384.082031 C 748.699219 384.082031 765.539062 373.980469 765.894531 373.625 L 823.851562 299.003906 C 824.207031 299.179688 824.5625 299.359375 825.09375 299.359375 C 825.800781 299.359375 826.511719 299.003906 826.867188 298.472656 L 832.890625 290.671875 L 836.082031 293.15625 L 818.003906 316.730469 C 817.292969 317.792969 817.472656 319.03125 818.359375 319.917969 C 819.242188 320.804688 820.660156 320.449219 821.546875 319.566406 L 841.046875 294.574219 C 841.753906 293.511719 841.398438 292.09375 840.511719 291.382812 Z M 751.359375 377.523438 L 754.550781 366.890625 C 755.789062 367.597656 756.855469 368.308594 757.917969 369.015625 C 758.980469 369.902344 760.042969 370.789062 760.929688 371.675781 Z M 824.738281 294.394531 L 814.28125 286.242188 L 818.710938 280.570312 L 829.167969 288.722656 Z M 824.738281 294.394531 " fill-opacity="1" fill-rule="nonzero"/><path stroke-linecap="butt" transform="matrix(0.771067, 0, 0, 0.771067, 677.781596, 388.154943)" fill="none" stroke-linejoin="miter" d="M 5.572189 87.43132 L 5.678576 87.43132 C 5.678576 88.677565 5.678576 89.918743 5.678576 91.164988 C 5.678576 92.390968 5.678576 93.627081 5.678576 94.868259 C 5.678576 96.099306 5.643114 97.350616 5.572189 98.627257 C 5.501265 99.908964 5.465802 101.160274 5.465802 102.391321 L 5.465802 109.934646 C 5.465802 111.180891 5.501265 112.422069 5.572189 113.668314 C 5.643114 114.894294 5.678576 116.130406 5.678576 117.371585 C 5.678576 117.731273 5.714038 117.979509 5.784963 118.121358 C 5.784963 118.638093 5.926812 118.926857 6.21051 118.997782 C 6.443547 119.068706 6.646189 119.068706 6.8235 118.997782 C 7.005877 118.926857 7.208518 118.891395 7.43649 118.891395 L 16.611079 118.891395 C 16.894777 118.891395 17.178474 118.891395 17.462172 118.891395 C 17.766134 118.891395 18.059964 118.855933 18.343662 118.785008 C 19.002247 118.785008 19.367001 118.526641 19.437926 118.014971 L 19.544313 117.239868 C 19.544313 115.942963 19.524048 114.620728 19.488586 113.268097 C 19.453124 111.915466 19.437926 110.583098 19.437926 109.265929 L 19.437926 101.297057 C 19.437926 100.000152 19.437926 98.672851 19.437926 97.325286 C 19.437926 95.972655 19.437926 94.640288 19.437926 93.323119 C 19.437926 93.110345 19.453124 92.91277 19.488586 92.735459 C 19.524048 92.558147 19.579775 92.355506 19.650699 92.122468 C 19.792548 91.322035 20.192765 90.886356 20.85135 90.815431 C 21.43901 90.673583 21.83416 90.602658 22.052 90.602658 L 28.820222 90.602658 C 29.995542 90.602658 31.140466 90.622922 32.260059 90.658384 C 33.399917 90.693847 34.509379 90.709045 35.59351 90.709045 L 35.806284 90.709045 C 36.18117 90.709045 36.591519 90.63812 37.032264 90.496271 C 37.391952 90.425347 37.640188 90.202441 37.782037 89.832621 C 37.852962 89.690772 37.86816 89.548923 37.832698 89.402008 C 37.797235 89.260159 37.782037 89.153772 37.782037 89.082848 L 37.782037 78.819062 C 37.782037 78.662014 37.761773 78.489769 37.726311 78.312458 C 37.690849 78.135147 37.67565 77.973034 37.67565 77.831185 C 37.533801 77.319515 37.321028 77.025685 37.032264 76.954761 C 36.733368 76.812912 36.475 76.741987 36.262227 76.741987 L 28.926609 76.741987 C 27.771553 76.741987 26.591167 76.77745 25.380384 76.848374 C 24.189866 76.919299 22.974018 76.954761 21.727774 76.954761 C 21.585925 76.954761 21.418745 76.899034 21.22117 76.792648 C 21.043859 76.686261 20.886812 76.595072 20.744963 76.524148 C 20.243425 76.453223 19.883737 76.164459 19.650699 75.647724 C 19.579775 75.43495 19.524048 75.237375 19.488586 75.060064 C 19.453124 74.862489 19.437926 74.659847 19.437926 74.447074 C 19.437926 73.129905 19.417662 71.843132 19.382199 70.581689 C 19.346737 69.299983 19.331539 68.003078 19.331539 66.685909 L 19.331539 58.92981 C 19.331539 58.787961 19.331539 58.61065 19.331539 58.397876 C 19.331539 58.164838 19.331539 57.977395 19.331539 57.835546 C 19.402464 57.247886 19.909067 56.812207 20.85135 56.528509 L 22.158386 56.528509 C 23.257716 56.528509 24.367178 56.493047 25.491837 56.422123 C 26.626629 56.351198 27.736091 56.315736 28.820222 56.315736 C 29.995542 56.315736 31.140466 56.336 32.260059 56.371462 C 33.399917 56.406924 34.509379 56.422123 35.59351 56.422123 C 35.664435 56.422123 35.720161 56.406924 35.755623 56.371462 C 35.791086 56.336 35.806284 56.315736 35.806284 56.315736 C 36.039321 56.38666 36.262227 56.406924 36.475 56.371462 C 36.687774 56.336 36.875217 56.315736 37.032264 56.315736 C 37.533801 56.173887 37.817499 55.915519 37.888424 55.540633 L 37.888424 54.902312 C 37.888424 53.144398 37.903622 51.411814 37.939084 49.704561 C 37.974546 47.997307 37.994811 46.274855 37.994811 44.532139 C 37.994811 44.299102 37.923886 43.96981 37.782037 43.544263 C 37.782037 43.098452 37.533801 42.809688 37.032264 42.662773 C 36.804292 42.591848 36.475 42.556386 36.049453 42.556386 L 28.926609 42.556386 C 27.771553 42.556386 26.611431 42.57665 25.436111 42.612112 C 24.281055 42.647574 23.115867 42.662773 21.945613 42.662773 C 20.785491 42.662773 19.625369 42.62731 18.450049 42.556386 C 17.294993 42.485461 16.094343 42.449999 14.853165 42.449999 C 13.698109 42.449999 12.532921 42.485461 11.357601 42.556386 C 10.187347 42.62731 8.986696 42.662773 7.760716 42.662773 C 7.689792 42.662773 7.588471 42.647574 7.466886 42.612112 C 7.360499 42.57665 7.233849 42.591848 7.092 42.662773 C 7.021075 42.662773 6.894424 42.62731 6.717113 42.556386 C 6.539802 42.485461 6.372623 42.485461 6.21051 42.556386 C 6.068661 42.62731 5.962274 42.753961 5.891349 42.931272 C 5.820425 43.108584 5.7495 43.275763 5.678576 43.437876 C 5.678576 43.721574 5.643114 43.96981 5.572189 44.182583 C 5.572189 44.253507 5.556991 44.354828 5.521529 44.476413 C 5.486067 44.5828 5.465802 44.709451 5.465802 44.8513 C 5.465802 45.935431 5.486067 47.00943 5.521529 48.078364 C 5.556991 49.127033 5.572189 50.155438 5.572189 51.168645 C 5.643114 52.27304 5.663378 53.357172 5.627916 54.421039 C 5.592453 55.469708 5.607651 56.503179 5.678576 57.516386 C 5.678576 58.762631 5.643114 60.024073 5.572189 61.300714 C 5.501265 62.562157 5.465802 63.818533 5.465802 65.059712 C 5.465802 66.214767 5.501265 67.435682 5.572189 68.712323 C 5.643114 69.978831 5.678576 71.230142 5.678576 72.47132 C 5.678576 73.717565 5.69884 74.963809 5.734302 76.204988 C 5.769765 77.430968 5.784963 78.66708 5.784963 79.913325 C 5.784963 81.139305 5.7495 82.390616 5.678576 83.672323 C 5.607651 84.954029 5.572189 86.20534 5.572189 87.43132 Z M 5.572189 87.43132 " stroke="#003060" stroke-width="8.1909" stroke-opacity="1" stroke-miterlimit="4"/><g fill="#ffffff" fill-opacity="1"><g transform="translate(677.781596, 479.911867)"><g><path d="M 4.296875 -24.328125 L 4.375 -24.328125 C 4.375 -23.378906 4.375 -22.425781 4.375 -21.46875 C 4.375 -20.519531 4.375 -19.566406 4.375 -18.609375 C 4.375 -17.648438 4.34375 -16.679688 4.28125 -15.703125 C 4.226562 -14.722656 4.203125 -13.753906 4.203125 -12.796875 L 4.203125 -6.984375 C 4.203125 -6.035156 4.226562 -5.082031 4.28125 -4.125 C 4.34375 -3.164062 4.375 -2.210938 4.375 -1.265625 C 4.375 -0.984375 4.40625 -0.785156 4.46875 -0.671875 C 4.46875 -0.273438 4.578125 -0.0507812 4.796875 0 C 4.960938 0.0507812 5.113281 0.0507812 5.25 0 C 5.394531 -0.0507812 5.550781 -0.078125 5.71875 -0.078125 L 12.796875 -0.078125 C 13.023438 -0.078125 13.25 -0.078125 13.46875 -0.078125 C 13.695312 -0.078125 13.921875 -0.109375 14.140625 -0.171875 C 14.648438 -0.171875 14.929688 -0.367188 14.984375 -0.765625 L 15.078125 -1.34375 C 15.078125 -2.351562 15.0625 -3.378906 15.03125 -4.421875 C 15 -5.460938 14.984375 -6.488281 14.984375 -7.5 L 14.984375 -13.640625 C 14.984375 -14.648438 14.984375 -15.671875 14.984375 -16.703125 C 14.984375 -17.742188 14.984375 -18.769531 14.984375 -19.78125 C 14.984375 -19.957031 15 -20.113281 15.03125 -20.25 C 15.0625 -20.394531 15.101562 -20.550781 15.15625 -20.71875 C 15.269531 -21.332031 15.578125 -21.664062 16.078125 -21.71875 C 16.523438 -21.832031 16.835938 -21.890625 17.015625 -21.890625 L 22.234375 -21.890625 C 23.128906 -21.890625 24.007812 -21.875 24.875 -21.84375 C 25.75 -21.820312 26.609375 -21.8125 27.453125 -21.8125 L 27.625 -21.8125 C 27.90625 -21.8125 28.210938 -21.867188 28.546875 -21.984375 C 28.828125 -22.035156 29.023438 -22.203125 29.140625 -22.484375 C 29.191406 -22.597656 29.203125 -22.707031 29.171875 -22.8125 C 29.148438 -22.925781 29.140625 -23.015625 29.140625 -23.078125 L 29.140625 -30.984375 C 29.140625 -31.097656 29.125 -31.222656 29.09375 -31.359375 C 29.0625 -31.503906 29.046875 -31.632812 29.046875 -31.75 C 28.929688 -32.132812 28.765625 -32.359375 28.546875 -32.421875 C 28.316406 -32.535156 28.117188 -32.59375 27.953125 -32.59375 L 22.3125 -32.59375 C 21.414062 -32.59375 20.503906 -32.5625 19.578125 -32.5 C 18.648438 -32.445312 17.707031 -32.421875 16.75 -32.421875 C 16.644531 -32.421875 16.519531 -32.460938 16.375 -32.546875 C 16.238281 -32.628906 16.113281 -32.695312 16 -32.75 C 15.601562 -32.8125 15.320312 -33.035156 15.15625 -33.421875 C 15.101562 -33.597656 15.0625 -33.753906 15.03125 -33.890625 C 15 -34.035156 14.984375 -34.191406 14.984375 -34.359375 C 14.984375 -35.367188 14.96875 -36.363281 14.9375 -37.34375 C 14.914062 -38.320312 14.90625 -39.316406 14.90625 -40.328125 L 14.90625 -46.3125 C 14.90625 -46.425781 14.90625 -46.566406 14.90625 -46.734375 C 14.90625 -46.898438 14.90625 -47.039062 14.90625 -47.15625 C 14.957031 -47.601562 15.347656 -47.941406 16.078125 -48.171875 L 17.09375 -48.171875 C 17.9375 -48.171875 18.789062 -48.195312 19.65625 -48.25 C 20.53125 -48.300781 21.390625 -48.328125 22.234375 -48.328125 C 23.128906 -48.328125 24.007812 -48.3125 24.875 -48.28125 C 25.75 -48.257812 26.609375 -48.25 27.453125 -48.25 C 27.503906 -48.25 27.546875 -48.257812 27.578125 -48.28125 C 27.609375 -48.3125 27.625 -48.328125 27.625 -48.328125 C 27.789062 -48.273438 27.957031 -48.257812 28.125 -48.28125 C 28.289062 -48.3125 28.429688 -48.328125 28.546875 -48.328125 C 28.941406 -48.441406 29.164062 -48.640625 29.21875 -48.921875 L 29.21875 -49.421875 C 29.21875 -50.773438 29.226562 -52.109375 29.25 -53.421875 C 29.28125 -54.742188 29.296875 -56.078125 29.296875 -57.421875 C 29.296875 -57.585938 29.242188 -57.84375 29.140625 -58.1875 C 29.140625 -58.519531 28.941406 -58.742188 28.546875 -58.859375 C 28.378906 -58.910156 28.125 -58.9375 27.78125 -58.9375 L 22.3125 -58.9375 C 21.414062 -58.9375 20.515625 -58.921875 19.609375 -58.890625 C 18.710938 -58.867188 17.816406 -58.859375 16.921875 -58.859375 C 16.023438 -58.859375 15.128906 -58.882812 14.234375 -58.9375 C 13.335938 -59 12.410156 -59.03125 11.453125 -59.03125 C 10.554688 -59.03125 9.65625 -59 8.75 -58.9375 C 7.851562 -58.882812 6.929688 -58.859375 5.984375 -58.859375 C 5.921875 -58.859375 5.847656 -58.867188 5.765625 -58.890625 C 5.679688 -58.921875 5.582031 -58.910156 5.46875 -58.859375 C 5.414062 -58.859375 5.316406 -58.882812 5.171875 -58.9375 C 5.035156 -59 4.910156 -59 4.796875 -58.9375 C 4.679688 -58.882812 4.597656 -58.785156 4.546875 -58.640625 C 4.492188 -58.503906 4.4375 -58.378906 4.375 -58.265625 C 4.375 -58.046875 4.347656 -57.847656 4.296875 -57.671875 C 4.296875 -57.617188 4.28125 -57.550781 4.25 -57.46875 C 4.21875 -57.382812 4.203125 -57.285156 4.203125 -57.171875 C 4.203125 -56.328125 4.21875 -55.5 4.25 -54.6875 C 4.28125 -53.875 4.296875 -53.078125 4.296875 -52.296875 C 4.347656 -51.453125 4.359375 -50.617188 4.328125 -49.796875 C 4.304688 -48.984375 4.320312 -48.1875 4.375 -47.40625 C 4.375 -46.445312 4.34375 -45.476562 4.28125 -44.5 C 4.226562 -43.519531 4.203125 -42.550781 4.203125 -41.59375 C 4.203125 -40.695312 4.226562 -39.753906 4.28125 -38.765625 C 4.34375 -37.785156 4.375 -36.820312 4.375 -35.875 C 4.375 -34.914062 4.390625 -33.957031 4.421875 -33 C 4.453125 -32.050781 4.46875 -31.097656 4.46875 -30.140625 C 4.46875 -29.191406 4.4375 -28.222656 4.375 -27.234375 C 4.320312 -26.253906 4.296875 -25.285156 4.296875 -24.328125 Z M 4.296875 -24.328125 "/></g></g></g><path stroke-linecap="butt" transform="matrix(0.771067, 0, 0, 0.771067, 711.303714, 388.154943)" fill="none" stroke-linejoin="miter" d="M 11.359312 80.658032 L 11.359312 83.940823 C 11.359312 85.536623 11.323849 87.122292 11.252925 88.682631 C 11.182 90.248036 11.146538 91.793176 11.146538 93.323119 C 11.146538 94.939184 11.111076 96.529918 11.040151 98.095323 C 10.969227 99.660728 10.933765 101.205868 10.933765 102.735811 C 10.933765 104.265753 10.969227 105.79063 11.040151 107.320572 C 11.111076 108.850515 11.146538 110.380457 11.146538 111.905334 C 11.146538 112.335946 11.13134 112.807088 11.095878 113.318757 C 11.060416 113.835493 11.040151 114.377558 11.040151 114.944954 C 11.040151 115.603539 11.111076 116.211463 11.252925 116.758595 C 11.394774 117.310792 11.724066 117.766736 12.240802 118.121358 C 12.757537 118.420254 13.335065 118.557037 13.973385 118.521575 C 14.63197 118.486112 15.255092 118.501311 15.842752 118.572235 C 17.509478 118.64316 19.130609 118.698886 20.690947 118.734348 C 22.256352 118.76981 23.847087 118.785008 25.468218 118.785008 C 27.064019 118.714084 28.649688 118.627961 30.210026 118.521575 C 31.775431 118.394924 33.356034 118.192282 34.956901 117.908585 C 37.804012 117.25 40.529539 116.262123 43.143613 114.944954 C 44.460782 114.377558 45.712092 113.693644 46.90261 112.89321 C 48.113393 112.092777 49.303911 111.216353 50.474165 110.253806 C 51.629221 109.311524 52.713352 108.354043 53.726559 107.376299 C 54.76003 106.37829 55.712444 105.30429 56.578736 104.149235 C 57.521019 102.973915 58.412641 101.813793 59.248537 100.653671 C 60.084432 99.483417 60.793677 98.247304 61.381337 96.950399 C 62.039922 95.562306 62.597185 94.179278 63.058195 92.791185 C 63.539468 91.403091 63.929553 90.020064 64.233515 88.631971 C 64.800911 85.805123 65.013684 82.897219 64.871835 79.913325 C 64.871835 78.454307 64.765448 76.995289 64.552675 75.541337 C 64.339901 74.082319 64.046071 72.658763 63.671185 71.275736 C 63.387487 69.816718 63.007534 68.393162 62.526261 67.010135 C 62.065252 65.622041 61.502922 64.279542 60.849404 62.982637 C 60.119895 61.665468 59.309329 60.44962 58.422773 59.330026 C 57.551415 58.190169 56.609133 57.080707 55.595926 55.996576 C 54.653643 54.89218 53.630304 53.853643 52.525909 52.875898 C 51.441777 51.898154 50.317118 51.011598 49.141798 50.211164 C 47.986742 49.319542 46.786092 48.47858 45.544913 47.678147 C 44.313867 46.877713 43.011896 46.229261 41.623802 45.73279 C 40.306633 45.14513 38.959068 44.689186 37.570975 44.370026 C 36.182881 44.035668 34.764391 43.721574 33.305373 43.437876 C 30.974998 43.062989 28.725678 42.84515 26.557415 42.769159 C 25.387161 42.769159 24.247304 42.733697 23.147974 42.662773 C 22.063843 42.591848 20.944249 42.556386 19.784127 42.556386 C 18.98876 42.62731 18.142732 42.683037 17.25111 42.718499 C 16.384818 42.753961 15.51346 42.769159 14.642102 42.769159 C 14.196291 42.769159 13.735282 42.789423 13.254008 42.824886 C 12.792999 42.860348 12.382651 43.062989 12.028028 43.437876 C 11.653142 43.792498 11.394774 44.248441 11.252925 44.795573 C 11.111076 45.332573 11.040151 45.889837 11.040151 46.477497 L 11.040151 55.008699 C 11.040151 56.396792 11.040151 57.820348 11.040151 59.2743 C 11.040151 60.713054 11.040151 62.16194 11.040151 63.620958 C 11.040151 65.009051 11.075614 66.412343 11.146538 67.835899 C 11.217463 69.254388 11.252925 70.698208 11.252925 72.15216 C 11.252925 73.540253 11.273189 74.943545 11.308651 76.367101 C 11.344113 77.770392 11.359312 79.20408 11.359312 80.658032 Z M 26.319312 80.658032 L 26.319312 74.127913 C 26.319312 73.023518 26.319312 71.929254 26.319312 70.845123 C 26.319312 69.745794 26.319312 68.65153 26.319312 67.567399 C 26.319312 66.468069 26.354774 65.373806 26.425698 64.289674 C 26.516887 63.185279 26.557415 62.091015 26.557415 61.006884 C 26.557415 60.652261 26.592878 60.297639 26.663802 59.943017 C 26.734727 59.56813 26.912038 59.233772 27.200802 58.92981 C 27.4845 58.575187 27.849254 58.362414 28.289999 58.291489 C 28.73581 58.220565 29.206951 58.220565 29.703423 58.291489 C 32.195912 58.646112 34.485759 59.330026 36.583098 60.343233 C 37.687493 60.859969 38.705766 61.478025 39.648049 62.207534 C 40.590331 62.937043 41.497151 63.737477 42.368509 64.608834 C 43.260131 65.409268 44.121357 66.270494 44.957253 67.192512 C 45.793149 68.099332 46.456799 69.061879 46.953271 70.075086 C 47.540931 71.159217 48.032336 72.268679 48.422421 73.408537 C 48.832769 74.52813 49.15193 75.708516 49.379901 76.954761 C 49.52175 77.46643 49.597741 77.967968 49.597741 78.444175 C 49.597741 78.91025 49.597741 79.361127 49.597741 79.806938 C 49.597741 81.245692 49.481222 82.694578 49.248184 84.153596 C 49.035411 85.32385 48.802373 86.514368 48.554138 87.72515 C 48.305902 88.915668 47.890487 90.060592 47.302827 91.164988 C 46.198431 93.262326 44.74448 95.192485 42.930839 96.950399 C 42.059481 97.821757 41.091869 98.566464 40.022935 99.189587 C 38.974266 99.792445 37.945861 100.390237 36.932654 100.977897 C 35.828259 101.489566 34.708665 101.97084 33.568807 102.416651 C 32.449214 102.842198 31.27896 103.125896 30.052979 103.267745 L 29.384263 103.267745 C 29.100565 103.267745 28.826999 103.252546 28.558499 103.217084 C 28.310263 103.181622 28.041763 103.125896 27.758066 103.054971 C 27.758066 103.054971 27.590886 102.862462 27.251462 102.467311 C 26.932302 102.062028 26.734727 101.783396 26.663802 101.641547 C 26.592878 101.271727 26.577679 100.906972 26.613142 100.547284 C 26.648604 100.177463 26.663802 99.848171 26.663802 99.564473 L 26.663802 93.991835 C 26.663802 92.178195 26.623274 90.364554 26.532085 88.550914 C 26.461161 86.722076 26.425698 84.888171 26.425698 83.059332 C 26.425698 82.70471 26.405434 82.329824 26.369972 81.939739 C 26.33451 81.52939 26.319312 81.103843 26.319312 80.658032 Z M 26.319312 80.658032 " stroke="#003060" stroke-width="8.1909" stroke-opacity="1" stroke-miterlimit="4"/><g fill="#ffffff" fill-opacity="1"><g transform="translate(715.520485, 479.911867)"><g><path d="M 4.546875 -29.5625 L 4.546875 -27.03125 C 4.546875 -25.789062 4.515625 -24.566406 4.453125 -23.359375 C 4.398438 -22.160156 4.375 -20.96875 4.375 -19.78125 C 4.375 -18.550781 4.34375 -17.332031 4.28125 -16.125 C 4.226562 -14.914062 4.203125 -13.722656 4.203125 -12.546875 C 4.203125 -11.367188 4.226562 -10.1875 4.28125 -9 C 4.34375 -7.820312 4.375 -6.644531 4.375 -5.46875 C 4.375 -5.132812 4.359375 -4.769531 4.328125 -4.375 C 4.304688 -3.988281 4.296875 -3.566406 4.296875 -3.109375 C 4.296875 -2.609375 4.347656 -2.144531 4.453125 -1.71875 C 4.566406 -1.300781 4.820312 -0.953125 5.21875 -0.671875 C 5.613281 -0.453125 6.0625 -0.351562 6.5625 -0.375 C 7.070312 -0.40625 7.550781 -0.394531 8 -0.34375 C 9.289062 -0.28125 10.539062 -0.234375 11.75 -0.203125 C 12.957031 -0.179688 14.175781 -0.171875 15.40625 -0.171875 C 16.644531 -0.222656 17.863281 -0.289062 19.0625 -0.375 C 20.269531 -0.457031 21.492188 -0.613281 22.734375 -0.84375 C 24.921875 -1.34375 27.023438 -2.097656 29.046875 -3.109375 C 30.054688 -3.566406 31.023438 -4.101562 31.953125 -4.71875 C 32.878906 -5.332031 33.789062 -6.003906 34.6875 -6.734375 C 35.582031 -7.460938 36.421875 -8.207031 37.203125 -8.96875 C 37.992188 -9.726562 38.726562 -10.554688 39.40625 -11.453125 C 40.132812 -12.347656 40.820312 -13.242188 41.46875 -14.140625 C 42.113281 -15.046875 42.660156 -16.003906 43.109375 -17.015625 C 43.617188 -18.078125 44.054688 -19.140625 44.421875 -20.203125 C 44.785156 -21.273438 45.078125 -22.34375 45.296875 -23.40625 C 45.742188 -25.59375 45.914062 -27.835938 45.8125 -30.140625 C 45.8125 -31.265625 45.722656 -32.390625 45.546875 -33.515625 C 45.378906 -34.640625 45.15625 -35.734375 44.875 -36.796875 C 44.65625 -37.921875 44.363281 -39.015625 44 -40.078125 C 43.632812 -41.148438 43.195312 -42.191406 42.6875 -43.203125 C 42.125 -44.210938 41.503906 -45.148438 40.828125 -46.015625 C 40.160156 -46.890625 39.4375 -47.742188 38.65625 -48.578125 C 37.914062 -49.421875 37.125 -50.222656 36.28125 -50.984375 C 35.445312 -51.742188 34.582031 -52.429688 33.6875 -53.046875 C 32.78125 -53.722656 31.847656 -54.367188 30.890625 -54.984375 C 29.941406 -55.597656 28.9375 -56.101562 27.875 -56.5 C 26.863281 -56.945312 25.820312 -57.296875 24.75 -57.546875 C 23.6875 -57.804688 22.59375 -58.046875 21.46875 -58.265625 C 19.675781 -58.546875 17.9375 -58.71875 16.25 -58.78125 C 15.351562 -58.78125 14.484375 -58.804688 13.640625 -58.859375 C 12.796875 -58.910156 11.925781 -58.9375 11.03125 -58.9375 C 10.414062 -58.882812 9.769531 -58.84375 9.09375 -58.8125 C 8.414062 -58.789062 7.742188 -58.78125 7.078125 -58.78125 C 6.734375 -58.78125 6.378906 -58.765625 6.015625 -58.734375 C 5.648438 -58.703125 5.328125 -58.546875 5.046875 -58.265625 C 4.765625 -57.984375 4.566406 -57.628906 4.453125 -57.203125 C 4.347656 -56.785156 4.296875 -56.351562 4.296875 -55.90625 L 4.296875 -49.34375 C 4.296875 -48.28125 4.296875 -47.1875 4.296875 -46.0625 C 4.296875 -44.9375 4.296875 -43.8125 4.296875 -42.6875 C 4.296875 -41.625 4.320312 -40.546875 4.375 -39.453125 C 4.4375 -38.359375 4.46875 -37.25 4.46875 -36.125 C 4.46875 -35.050781 4.476562 -33.96875 4.5 -32.875 C 4.53125 -31.78125 4.546875 -30.675781 4.546875 -29.5625 Z M 16.078125 -29.5625 L 16.078125 -34.609375 C 16.078125 -35.453125 16.078125 -36.289062 16.078125 -37.125 C 16.078125 -37.96875 16.078125 -38.8125 16.078125 -39.65625 C 16.078125 -40.5 16.101562 -41.34375 16.15625 -42.1875 C 16.21875 -43.03125 16.25 -43.875 16.25 -44.71875 C 16.25 -45 16.273438 -45.273438 16.328125 -45.546875 C 16.390625 -45.828125 16.53125 -46.082031 16.75 -46.3125 C 16.976562 -46.59375 17.257812 -46.757812 17.59375 -46.8125 C 17.9375 -46.875 18.300781 -46.875 18.6875 -46.8125 C 20.601562 -46.53125 22.375 -46 24 -45.21875 C 24.84375 -44.820312 25.628906 -44.34375 26.359375 -43.78125 C 27.085938 -43.21875 27.785156 -42.601562 28.453125 -41.9375 C 29.128906 -41.3125 29.789062 -40.648438 30.4375 -39.953125 C 31.082031 -39.253906 31.601562 -38.507812 32 -37.71875 C 32.445312 -36.875 32.820312 -36.015625 33.125 -35.140625 C 33.4375 -34.273438 33.675781 -33.367188 33.84375 -32.421875 C 33.957031 -32.023438 34.015625 -31.644531 34.015625 -31.28125 C 34.015625 -30.914062 34.015625 -30.566406 34.015625 -30.234375 C 34.015625 -29.109375 33.929688 -27.984375 33.765625 -26.859375 C 33.597656 -25.960938 33.414062 -25.050781 33.21875 -24.125 C 33.019531 -23.195312 32.695312 -22.3125 32.25 -21.46875 C 31.40625 -19.84375 30.28125 -18.359375 28.875 -17.015625 C 28.207031 -16.335938 27.460938 -15.757812 26.640625 -15.28125 C 25.828125 -14.800781 25.03125 -14.335938 24.25 -13.890625 C 23.40625 -13.492188 22.546875 -13.128906 21.671875 -12.796875 C 20.804688 -12.460938 19.898438 -12.238281 18.953125 -12.125 L 18.4375 -12.125 C 18.21875 -12.125 18.007812 -12.132812 17.8125 -12.15625 C 17.613281 -12.1875 17.398438 -12.234375 17.171875 -12.296875 C 17.171875 -12.296875 17.046875 -12.445312 16.796875 -12.75 C 16.546875 -13.0625 16.390625 -13.273438 16.328125 -13.390625 C 16.273438 -13.671875 16.257812 -13.953125 16.28125 -14.234375 C 16.3125 -14.515625 16.328125 -14.765625 16.328125 -14.984375 L 16.328125 -19.28125 C 16.328125 -20.6875 16.300781 -22.085938 16.25 -23.484375 C 16.195312 -24.890625 16.171875 -26.296875 16.171875 -27.703125 C 16.171875 -27.984375 16.15625 -28.273438 16.125 -28.578125 C 16.09375 -28.890625 16.078125 -29.21875 16.078125 -29.5625 Z M 16.078125 -29.5625 "/></g></g></g><path stroke-linecap="butt" transform="matrix(0.771067, 0, 0, 0.771067, 768.076144, 388.154943)" fill="none" stroke-linejoin="miter" d="M 5.570142 80.551645 C 5.570142 82.010663 5.590406 83.469681 5.625868 84.923633 C 5.66133 86.382651 5.681594 87.841669 5.681594 89.295621 L 5.681594 97.90788 C 5.681594 99.366898 5.681594 100.825916 5.681594 102.284934 C 5.681594 103.738886 5.681594 105.197904 5.681594 106.656922 L 5.681594 115.400897 C 5.681594 115.471822 5.641066 115.578209 5.570142 115.720058 C 5.499217 115.861907 5.463755 116.013888 5.463755 116.176001 L 5.787981 117.133481 C 6.071679 117.933915 6.471896 118.379726 6.983565 118.465848 C 7.125414 118.536773 7.287527 118.536773 7.464839 118.465848 C 7.662414 118.379726 7.829593 118.334131 7.971442 118.334131 C 9.714158 118.334131 11.456874 118.359462 13.19959 118.415188 C 14.957504 118.45065 16.745814 118.465848 18.559454 118.465848 C 18.716502 118.465848 18.883681 118.45065 19.066058 118.415188 C 19.243369 118.359462 19.364954 118.334131 19.435878 118.334131 C 19.810765 118.192282 20.033671 118.085896 20.104595 118.014971 C 20.459217 117.802198 20.636529 117.437443 20.636529 116.920708 C 20.707453 116.778859 20.778378 116.63701 20.849302 116.495161 C 20.920227 116.353312 20.955689 116.201331 20.955689 116.039218 C 20.955689 114.884162 20.940491 113.729106 20.905028 112.57405 C 20.869566 111.39873 20.849302 110.228476 20.849302 109.053156 C 20.849302 107.8981 20.869566 106.743044 20.905028 105.587988 C 20.940491 104.417734 20.955689 103.242414 20.955689 102.067094 C 20.955689 100.912038 20.920227 99.756983 20.849302 98.601927 C 20.778378 97.431673 20.778378 96.256353 20.849302 95.086099 C 20.849302 94.640288 20.884764 94.346458 20.955689 94.204609 C 20.955689 94.133684 21.036745 94.027297 21.198858 93.885448 C 21.340707 93.743599 21.497755 93.687873 21.675066 93.723335 C 21.852377 93.758798 21.979028 93.743599 22.049952 93.672675 L 23.488706 93.672675 C 23.985178 93.672675 24.451253 93.652411 24.8768 93.616949 C 25.322611 93.581486 25.763356 93.566288 26.209167 93.566288 C 26.725902 93.566288 27.197043 93.546024 27.62259 93.510562 C 28.068401 93.4751 28.50408 93.454835 28.929627 93.454835 L 29.061344 93.454835 C 29.415967 93.454835 29.755391 93.510562 30.074551 93.616949 C 30.413975 93.723335 30.723004 93.814524 31.006701 93.885448 C 31.14855 93.956373 31.330928 93.991835 31.543701 93.991835 C 31.771673 93.991835 31.959116 94.06276 32.100965 94.204609 C 32.475852 94.346458 32.820342 94.513637 33.139502 94.711212 C 33.478926 94.888523 33.787954 95.121561 34.076718 95.405259 C 34.289492 95.63323 34.466803 95.891598 34.608652 96.175296 C 34.765699 96.458994 34.91768 96.752824 35.059529 97.056786 C 35.201378 97.411409 35.307765 97.811625 35.383755 98.257436 C 35.45468 98.682983 35.525604 99.154124 35.596529 99.67086 C 35.596529 99.954558 35.631991 100.28385 35.702916 100.653671 C 35.77384 101.013359 35.849831 101.378114 35.941019 101.747934 C 35.941019 102.973915 35.915689 104.230291 35.859963 105.506932 C 35.8245 106.788639 35.809302 108.039949 35.809302 109.265929 C 35.809302 110.512174 35.8245 111.773617 35.859963 113.055323 C 35.915689 114.316766 35.941019 115.568077 35.941019 116.814321 C 35.941019 116.885246 35.895425 117.001764 35.809302 117.158811 C 35.738378 117.30066 35.702916 117.442509 35.702916 117.584358 C 35.77384 118.085896 36.174057 118.486112 36.903566 118.785008 C 37.344311 118.926857 37.673603 118.997782 37.886376 118.997782 L 49.031653 118.997782 C 49.102577 118.997782 49.138039 118.997782 49.138039 118.997782 C 49.138039 118.997782 49.173502 118.997782 49.244426 118.997782 C 49.690237 118.997782 50.054992 118.891395 50.33869 118.678622 L 50.68318 118.334131 C 50.830095 118.192282 50.971944 117.908585 51.113793 117.477972 L 51.113793 116.601548 C 51.113793 115.284379 51.113793 113.962144 51.113793 112.629776 C 51.113793 111.277145 51.113793 109.909316 51.113793 108.521222 C 51.113793 107.204053 51.093529 105.881818 51.058066 104.549451 C 51.022604 103.19682 51.007406 101.828991 51.007406 100.440897 L 51.007406 98.47021 C 51.007406 98.257436 51.042868 98.024399 51.113793 97.776163 C 51.184717 97.507663 51.184717 97.26956 51.113793 97.056786 C 51.113793 96.6819 51.042868 96.317145 50.901019 95.962523 C 50.75917 95.592702 50.642652 95.26341 50.551463 94.974646 C 50.480538 94.533901 50.409614 94.11342 50.33869 93.723335 C 50.267765 93.312987 50.161378 92.933034 50.019529 92.578412 C 49.948605 92.345374 49.857416 92.142733 49.751029 91.965421 C 49.644643 91.78811 49.512926 91.590535 49.350813 91.377761 C 49.138039 90.719177 48.854341 90.02513 48.499719 89.295621 C 48.266681 88.925801 48.008314 88.561046 47.724616 88.206424 C 47.440918 87.831537 47.18255 87.466783 46.954578 87.11216 C 46.741805 86.899387 46.488503 86.570094 46.204805 86.124283 C 46.047758 85.91151 46.047758 85.582218 46.204805 85.136407 C 46.204805 84.923633 46.240268 84.746322 46.311192 84.604473 C 46.523965 84.305577 46.741805 83.991483 46.954578 83.672323 C 47.18255 83.353163 47.405455 83.039068 47.618229 82.740172 C 47.760078 82.527399 47.937389 82.329824 48.150163 82.152512 C 48.3832 81.954937 48.570643 81.716833 48.712492 81.433135 C 48.854341 81.220362 48.960728 80.987324 49.031653 80.739089 C 49.102577 80.470589 49.173502 80.232485 49.244426 80.019712 C 49.386275 79.786674 49.512926 79.548571 49.619313 79.300335 C 49.745963 79.052099 49.87768 78.808929 50.019529 78.580958 C 50.161378 78.29726 50.267765 78.008496 50.33869 77.724798 C 50.409614 77.425902 50.480538 77.132072 50.551463 76.848374 C 50.713576 76.473488 50.901019 76.108733 51.113793 75.754111 C 51.326566 75.399488 51.468415 75.034734 51.53934 74.659847 C 51.610264 74.376149 51.645726 74.107649 51.645726 73.859414 C 51.645726 73.59598 51.691321 73.317348 51.777443 73.03365 L 52.096604 70.845123 C 52.096604 70.688076 52.096604 70.556359 52.096604 70.444906 C 52.096604 70.33852 52.096604 70.216935 52.096604 70.075086 C 52.096604 69.862312 52.116868 69.649539 52.15233 69.436765 C 52.187792 69.203728 52.20299 68.980822 52.20299 68.768049 L 52.20299 66.579522 C 52.20299 66.579522 52.223254 66.579522 52.258717 66.579522 C 52.294179 66.579522 52.314443 66.579522 52.314443 66.579522 C 52.314443 66.295824 52.258717 66.047588 52.15233 65.834815 C 52.045943 65.601777 51.990217 65.383938 51.990217 65.166098 C 51.919292 64.796278 51.904094 64.446721 51.939556 64.127561 C 51.975019 63.788137 51.919292 63.479109 51.777443 63.195411 C 51.691321 62.678675 51.503877 62.091015 51.22018 61.437497 C 51.149255 61.077808 51.058066 60.707988 50.95168 60.317903 C 50.845293 59.907554 50.713576 59.51747 50.551463 59.142583 C 50.409614 58.717036 50.267765 58.291489 50.125916 57.860876 C 49.984067 57.420131 49.806756 57.009783 49.593982 56.634896 L 49.457199 56.209349 C 49.315351 55.905387 49.158303 55.631821 48.980992 55.383585 C 48.803681 55.13535 48.606106 54.856718 48.393332 54.557822 C 48.231219 54.274124 48.06404 54.005624 47.886729 53.757388 C 47.709418 53.488889 47.547304 53.250785 47.405455 53.038011 C 47.177484 52.683389 46.919116 52.394625 46.630352 52.181852 C 46.346654 51.95388 46.088286 51.695512 45.860315 51.411814 C 45.647541 51.178777 45.47023 50.940673 45.328381 50.692437 C 45.186532 50.439136 44.999089 50.201032 44.766051 49.973061 C 44.553278 49.826146 44.330372 49.648834 44.102401 49.436061 C 43.884561 49.223287 43.70725 49.035844 43.565401 48.878797 C 43.352628 48.736948 43.129722 48.559637 42.901751 48.341797 C 42.688977 48.129024 42.5066 47.946647 42.364751 47.784534 L 39.968517 46.158336 C 39.897592 46.158336 39.826668 46.173535 39.755743 46.208997 C 39.684819 46.244459 39.613894 46.229261 39.54297 46.158336 C 39.396055 46.087412 39.228876 46.016487 39.036366 45.945563 C 38.853989 45.874639 38.66148 45.803714 38.448706 45.73279 C 38.306857 45.570676 38.119414 45.43896 37.886376 45.332573 C 37.673603 45.226186 37.496292 45.134997 37.354443 45.064073 L 35.809302 44.400422 C 35.383755 44.253507 34.948076 44.111658 34.502265 43.96981 C 34.076718 43.827961 33.641039 43.721574 33.195228 43.650649 C 32.769682 43.5088 32.334003 43.366951 31.888191 43.225102 C 31.44238 43.062989 30.971239 42.951537 30.474768 42.880612 C 30.332919 42.880612 30.039089 42.809688 29.593278 42.662773 L 28.716854 42.662773 C 28.50408 42.662773 28.260911 42.683037 27.997477 42.718499 C 27.749241 42.753961 27.480741 42.769159 27.197043 42.769159 C 26.98427 42.698235 26.082516 42.683037 24.501913 42.718499 C 22.936508 42.753961 20.991151 42.809688 18.665841 42.880612 C 17.292946 42.880612 15.899786 42.824886 14.476231 42.718499 C 13.057741 42.612112 11.613921 42.556386 10.159969 42.556386 C 9.714158 42.556386 9.268347 42.57665 8.827602 42.612112 C 8.396989 42.647574 7.971442 42.698235 7.545895 42.769159 C 7.312858 42.84515 7.110216 42.860348 6.932905 42.824886 C 6.755594 42.789423 6.593481 42.84515 6.451632 42.986999 C 6.005821 43.285895 5.752519 43.615187 5.681594 43.96981 C 5.605604 44.253507 5.570142 44.724649 5.570142 45.383233 C 5.570142 46.558553 5.554944 47.728807 5.519481 48.904127 C 5.484019 50.059183 5.463755 51.214239 5.463755 52.369295 L 5.463755 59.487073 C 5.463755 60.642129 5.499217 61.807317 5.570142 62.982637 C 5.641066 64.137693 5.681594 65.302881 5.681594 66.473135 C 5.681594 67.628191 5.641066 68.793379 5.570142 69.968699 C 5.499217 71.123755 5.463755 72.324405 5.463755 73.565584 C 5.463755 74.740904 5.484019 75.911158 5.519481 77.086478 C 5.554944 78.241534 5.570142 79.396589 5.570142 80.551645 Z M 20.849302 68.205719 L 20.849302 60.687724 C 20.849302 60.388828 20.884764 60.13046 20.955689 59.917686 C 21.046877 59.704913 21.092472 59.446545 21.092472 59.142583 C 21.234321 58.646112 21.482556 58.397876 21.837179 58.397876 C 21.979028 58.397876 22.105679 58.377612 22.212065 58.34215 C 22.33365 58.306687 22.429905 58.291489 22.500829 58.291489 L 26.771497 58.291489 C 26.913346 58.291489 27.090657 58.271225 27.30343 58.235763 C 27.516204 58.200301 27.693515 58.185103 27.835364 58.185103 C 27.997477 58.185103 28.144392 58.220565 28.291307 58.291489 C 28.433156 58.362414 28.539543 58.433338 28.610467 58.504263 C 28.823241 58.504263 29.01575 58.519461 29.193061 58.554923 C 29.390636 58.590385 29.593278 58.646112 29.811117 58.717036 L 31.356258 59.380687 C 31.639956 59.522536 31.888191 59.684649 32.100965 59.86196 C 32.334003 60.039271 32.59237 60.201384 32.876068 60.343233 C 33.088842 60.50028 33.337077 60.652261 33.620775 60.79411 C 33.924737 60.935959 34.147643 61.113271 34.289492 61.33111 L 35.383755 62.633081 C 35.753576 63.220741 36.082868 63.914788 36.366566 64.715221 C 36.508415 65.090108 36.614802 65.459928 36.685726 65.834815 C 36.756651 66.189437 36.827575 66.54406 36.903566 66.903748 C 36.903566 67.202644 36.939028 67.461012 37.009952 67.673785 C 37.096075 67.886559 37.106207 68.144927 37.035283 68.448889 C 37.035283 68.661662 36.989688 68.854171 36.903566 69.036549 C 36.827575 69.21386 36.756651 69.416501 36.685726 69.649539 C 36.685726 69.933237 36.650264 70.227067 36.57934 70.525963 C 36.508415 70.809661 36.402028 71.098425 36.260179 71.382123 C 36.189255 71.681019 36.093 71.959651 35.966349 72.207886 C 35.859963 72.456122 35.738378 72.729688 35.596529 73.03365 C 35.45468 73.317348 35.292567 73.631442 35.115256 73.9658 C 34.937944 74.284961 34.730237 74.55346 34.502265 74.766234 C 34.360416 74.979007 34.198303 75.186715 34.020992 75.379224 C 33.843681 75.556535 33.676502 75.718648 33.514389 75.860497 C 33.301615 76.073271 33.043247 76.24045 32.739285 76.367101 C 32.455587 76.473488 32.171889 76.595072 31.888191 76.741987 C 31.371456 77.025685 30.895249 77.299251 30.449438 77.567751 C 30.023891 77.815987 29.517287 78.008496 28.929627 78.155411 C 28.716854 78.226335 28.473684 78.241534 28.21025 78.206071 C 27.962015 78.170609 27.728977 78.155411 27.516204 78.155411 C 27.090657 78.226335 26.654978 78.241534 26.209167 78.206071 C 25.763356 78.170609 25.327677 78.190873 24.90213 78.261798 L 22.288056 78.261798 C 22.131009 78.261798 21.994226 78.226335 21.887839 78.155411 C 21.781452 78.07942 21.659868 78.008496 21.518019 77.937572 C 21.305245 77.724798 21.163396 77.537355 21.092472 77.380308 C 21.092472 77.309383 21.046877 77.238459 20.955689 77.167534 C 20.884764 77.09661 20.849302 77.025685 20.849302 76.954761 L 20.849302 76.741987 C 20.849302 76.524148 20.869566 76.331639 20.905028 76.154327 C 20.940491 75.956752 20.955689 75.789573 20.955689 75.647724 C 20.955689 74.401479 20.940491 73.165367 20.905028 71.939387 C 20.869566 70.698208 20.849302 69.451964 20.849302 68.205719 Z M 20.849302 68.205719 " stroke="#003060" stroke-width="8.1909" stroke-opacity="1" stroke-miterlimit="4"/><g fill="#ffffff" fill-opacity="1"><g transform="translate(768.076144, 479.911867)"><g><path d="M 4.296875 -29.640625 C 4.296875 -28.515625 4.304688 -27.390625 4.328125 -26.265625 C 4.359375 -25.148438 4.375 -24.03125 4.375 -22.90625 L 4.375 -16.25 C 4.375 -15.125 4.375 -14 4.375 -12.875 C 4.375 -11.757812 4.375 -10.640625 4.375 -9.515625 L 4.375 -2.78125 C 4.375 -2.71875 4.34375 -2.628906 4.28125 -2.515625 C 4.226562 -2.410156 4.203125 -2.300781 4.203125 -2.1875 L 4.46875 -1.4375 C 4.6875 -0.8125 4.992188 -0.472656 5.390625 -0.421875 C 5.503906 -0.367188 5.628906 -0.367188 5.765625 -0.421875 C 5.910156 -0.472656 6.035156 -0.5 6.140625 -0.5 C 7.492188 -0.5 8.84375 -0.484375 10.1875 -0.453125 C 11.53125 -0.429688 12.90625 -0.421875 14.3125 -0.421875 C 14.425781 -0.421875 14.550781 -0.429688 14.6875 -0.453125 C 14.832031 -0.484375 14.929688 -0.5 14.984375 -0.5 C 15.265625 -0.613281 15.4375 -0.703125 15.5 -0.765625 C 15.78125 -0.929688 15.921875 -1.207031 15.921875 -1.59375 C 15.972656 -1.707031 16.023438 -1.820312 16.078125 -1.9375 C 16.140625 -2.050781 16.171875 -2.164062 16.171875 -2.28125 C 16.171875 -3.175781 16.15625 -4.070312 16.125 -4.96875 C 16.09375 -5.863281 16.078125 -6.757812 16.078125 -7.65625 C 16.078125 -8.5625 16.09375 -9.460938 16.125 -10.359375 C 16.15625 -11.253906 16.171875 -12.148438 16.171875 -13.046875 C 16.171875 -13.953125 16.140625 -14.851562 16.078125 -15.75 C 16.023438 -16.644531 16.023438 -17.539062 16.078125 -18.4375 C 16.078125 -18.78125 16.109375 -19.003906 16.171875 -19.109375 C 16.171875 -19.171875 16.222656 -19.253906 16.328125 -19.359375 C 16.441406 -19.472656 16.566406 -19.515625 16.703125 -19.484375 C 16.847656 -19.460938 16.953125 -19.476562 17.015625 -19.53125 L 18.109375 -19.53125 C 18.492188 -19.53125 18.851562 -19.546875 19.1875 -19.578125 C 19.53125 -19.609375 19.867188 -19.625 20.203125 -19.625 C 20.597656 -19.625 20.960938 -19.632812 21.296875 -19.65625 C 21.640625 -19.6875 21.976562 -19.703125 22.3125 -19.703125 L 22.390625 -19.703125 C 22.671875 -19.703125 22.9375 -19.660156 23.1875 -19.578125 C 23.445312 -19.492188 23.6875 -19.421875 23.90625 -19.359375 C 24.019531 -19.304688 24.160156 -19.28125 24.328125 -19.28125 C 24.503906 -19.28125 24.644531 -19.222656 24.75 -19.109375 C 25.03125 -19.003906 25.296875 -18.878906 25.546875 -18.734375 C 25.804688 -18.597656 26.046875 -18.414062 26.265625 -18.1875 C 26.441406 -18.019531 26.582031 -17.820312 26.6875 -17.59375 C 26.800781 -17.375 26.914062 -17.148438 27.03125 -16.921875 C 27.144531 -16.640625 27.226562 -16.332031 27.28125 -16 C 27.332031 -15.664062 27.390625 -15.300781 27.453125 -14.90625 C 27.453125 -14.675781 27.476562 -14.421875 27.53125 -14.140625 C 27.59375 -13.859375 27.648438 -13.578125 27.703125 -13.296875 C 27.703125 -12.347656 27.6875 -11.378906 27.65625 -10.390625 C 27.632812 -9.410156 27.625 -8.445312 27.625 -7.5 C 27.625 -6.539062 27.632812 -5.566406 27.65625 -4.578125 C 27.6875 -3.597656 27.703125 -2.632812 27.703125 -1.6875 C 27.703125 -1.625 27.671875 -1.535156 27.609375 -1.421875 C 27.554688 -1.316406 27.53125 -1.207031 27.53125 -1.09375 C 27.59375 -0.695312 27.898438 -0.390625 28.453125 -0.171875 C 28.796875 -0.0546875 29.050781 0 29.21875 0 L 37.8125 0 C 37.863281 0 37.890625 0 37.890625 0 C 37.890625 0 37.914062 0 37.96875 0 C 38.3125 0 38.59375 -0.0820312 38.8125 -0.25 L 39.0625 -0.5 C 39.175781 -0.613281 39.289062 -0.835938 39.40625 -1.171875 L 39.40625 -1.859375 C 39.40625 -2.867188 39.40625 -3.890625 39.40625 -4.921875 C 39.40625 -5.960938 39.40625 -7.015625 39.40625 -8.078125 C 39.40625 -9.085938 39.390625 -10.113281 39.359375 -11.15625 C 39.335938 -12.195312 39.328125 -13.25 39.328125 -14.3125 L 39.328125 -15.828125 C 39.328125 -15.992188 39.351562 -16.175781 39.40625 -16.375 C 39.457031 -16.570312 39.457031 -16.753906 39.40625 -16.921875 C 39.40625 -17.203125 39.347656 -17.484375 39.234375 -17.765625 C 39.117188 -18.046875 39.035156 -18.300781 38.984375 -18.53125 C 38.929688 -18.863281 38.875 -19.179688 38.8125 -19.484375 C 38.757812 -19.796875 38.675781 -20.09375 38.5625 -20.375 C 38.507812 -20.539062 38.441406 -20.691406 38.359375 -20.828125 C 38.273438 -20.972656 38.175781 -21.128906 38.0625 -21.296875 C 37.894531 -21.804688 37.671875 -22.34375 37.390625 -22.90625 C 37.222656 -23.1875 37.023438 -23.46875 36.796875 -23.75 C 36.566406 -24.03125 36.367188 -24.3125 36.203125 -24.59375 C 36.035156 -24.757812 35.84375 -25.007812 35.625 -25.34375 C 35.507812 -25.507812 35.507812 -25.765625 35.625 -26.109375 C 35.625 -26.273438 35.648438 -26.414062 35.703125 -26.53125 C 35.867188 -26.75 36.035156 -26.984375 36.203125 -27.234375 C 36.367188 -27.492188 36.539062 -27.734375 36.71875 -27.953125 C 36.820312 -28.117188 36.957031 -28.269531 37.125 -28.40625 C 37.300781 -28.550781 37.441406 -28.738281 37.546875 -28.96875 C 37.660156 -29.132812 37.742188 -29.316406 37.796875 -29.515625 C 37.859375 -29.710938 37.914062 -29.894531 37.96875 -30.0625 C 38.082031 -30.226562 38.179688 -30.410156 38.265625 -30.609375 C 38.347656 -30.804688 38.445312 -30.988281 38.5625 -31.15625 C 38.675781 -31.375 38.757812 -31.597656 38.8125 -31.828125 C 38.875 -32.054688 38.929688 -32.28125 38.984375 -32.5 C 39.097656 -32.78125 39.238281 -33.0625 39.40625 -33.34375 C 39.570312 -33.625 39.6875 -33.90625 39.75 -34.1875 C 39.800781 -34.40625 39.828125 -34.613281 39.828125 -34.8125 C 39.828125 -35.007812 39.851562 -35.222656 39.90625 -35.453125 L 40.171875 -37.140625 C 40.171875 -37.242188 40.171875 -37.335938 40.171875 -37.421875 C 40.171875 -37.503906 40.171875 -37.601562 40.171875 -37.71875 C 40.171875 -37.882812 40.179688 -38.050781 40.203125 -38.21875 C 40.234375 -38.394531 40.25 -38.566406 40.25 -38.734375 L 40.25 -40.421875 C 40.25 -40.421875 40.257812 -40.421875 40.28125 -40.421875 C 40.3125 -40.421875 40.328125 -40.421875 40.328125 -40.421875 C 40.328125 -40.640625 40.285156 -40.832031 40.203125 -41 C 40.117188 -41.175781 40.078125 -41.347656 40.078125 -41.515625 C 40.023438 -41.796875 40.007812 -42.0625 40.03125 -42.3125 C 40.0625 -42.5625 40.019531 -42.800781 39.90625 -43.03125 C 39.851562 -43.425781 39.710938 -43.875 39.484375 -44.375 C 39.429688 -44.65625 39.363281 -44.945312 39.28125 -45.25 C 39.195312 -45.5625 39.097656 -45.859375 38.984375 -46.140625 C 38.867188 -46.484375 38.753906 -46.820312 38.640625 -47.15625 C 38.535156 -47.488281 38.398438 -47.796875 38.234375 -48.078125 L 38.140625 -48.421875 C 38.023438 -48.640625 37.894531 -48.847656 37.75 -49.046875 C 37.613281 -49.242188 37.460938 -49.457031 37.296875 -49.6875 C 37.191406 -49.90625 37.066406 -50.113281 36.921875 -50.3125 C 36.785156 -50.507812 36.660156 -50.691406 36.546875 -50.859375 C 36.378906 -51.140625 36.179688 -51.363281 35.953125 -51.53125 C 35.734375 -51.695312 35.535156 -51.894531 35.359375 -52.125 C 35.191406 -52.289062 35.050781 -52.472656 34.9375 -52.671875 C 34.832031 -52.867188 34.691406 -53.050781 34.515625 -53.21875 C 34.347656 -53.332031 34.179688 -53.472656 34.015625 -53.640625 C 33.847656 -53.804688 33.707031 -53.945312 33.59375 -54.0625 C 33.425781 -54.175781 33.257812 -54.316406 33.09375 -54.484375 C 32.925781 -54.648438 32.785156 -54.789062 32.671875 -54.90625 L 30.8125 -56.15625 C 30.757812 -56.15625 30.703125 -56.140625 30.640625 -56.109375 C 30.585938 -56.085938 30.535156 -56.101562 30.484375 -56.15625 C 30.367188 -56.21875 30.238281 -56.273438 30.09375 -56.328125 C 29.957031 -56.390625 29.804688 -56.445312 29.640625 -56.5 C 29.523438 -56.613281 29.382812 -56.710938 29.21875 -56.796875 C 29.050781 -56.878906 28.910156 -56.945312 28.796875 -57 L 27.625 -57.515625 C 27.28125 -57.617188 26.941406 -57.726562 26.609375 -57.84375 C 26.273438 -57.957031 25.9375 -58.039062 25.59375 -58.09375 C 25.257812 -58.207031 24.921875 -58.320312 24.578125 -58.4375 C 24.242188 -58.550781 23.882812 -58.632812 23.5 -58.6875 C 23.382812 -58.6875 23.15625 -58.742188 22.8125 -58.859375 L 22.140625 -58.859375 C 21.972656 -58.859375 21.789062 -58.84375 21.59375 -58.8125 C 21.394531 -58.789062 21.1875 -58.78125 20.96875 -58.78125 C 20.800781 -58.832031 20.113281 -58.84375 18.90625 -58.8125 C 17.695312 -58.789062 16.195312 -58.75 14.40625 -58.6875 C 13.332031 -58.6875 12.25 -58.726562 11.15625 -58.8125 C 10.0625 -58.894531 8.953125 -58.9375 7.828125 -58.9375 C 7.492188 -58.9375 7.15625 -58.921875 6.8125 -58.890625 C 6.476562 -58.867188 6.144531 -58.832031 5.8125 -58.78125 C 5.644531 -58.71875 5.488281 -58.703125 5.34375 -58.734375 C 5.207031 -58.765625 5.082031 -58.722656 4.96875 -58.609375 C 4.632812 -58.378906 4.4375 -58.125 4.375 -57.84375 C 4.320312 -57.625 4.296875 -57.257812 4.296875 -56.75 C 4.296875 -55.851562 4.28125 -54.957031 4.25 -54.0625 C 4.21875 -53.164062 4.203125 -52.265625 4.203125 -51.359375 L 4.203125 -45.890625 C 4.203125 -44.992188 4.226562 -44.09375 4.28125 -43.1875 C 4.34375 -42.289062 4.375 -41.394531 4.375 -40.5 C 4.375 -39.601562 4.34375 -38.703125 4.28125 -37.796875 C 4.226562 -36.898438 4.203125 -35.976562 4.203125 -35.03125 C 4.203125 -34.132812 4.21875 -33.234375 4.25 -32.328125 C 4.28125 -31.429688 4.296875 -30.535156 4.296875 -29.640625 Z M 16.078125 -39.15625 L 16.078125 -44.96875 C 16.078125 -45.1875 16.101562 -45.378906 16.15625 -45.546875 C 16.21875 -45.722656 16.25 -45.921875 16.25 -46.140625 C 16.363281 -46.535156 16.5625 -46.734375 16.84375 -46.734375 C 16.957031 -46.734375 17.054688 -46.742188 17.140625 -46.765625 C 17.222656 -46.796875 17.289062 -46.8125 17.34375 -46.8125 L 20.625 -46.8125 C 20.738281 -46.8125 20.878906 -46.828125 21.046875 -46.859375 C 21.210938 -46.890625 21.351562 -46.90625 21.46875 -46.90625 C 21.582031 -46.90625 21.695312 -46.875 21.8125 -46.8125 C 21.925781 -46.757812 22.007812 -46.707031 22.0625 -46.65625 C 22.226562 -46.65625 22.378906 -46.640625 22.515625 -46.609375 C 22.660156 -46.578125 22.816406 -46.535156 22.984375 -46.484375 L 24.171875 -45.96875 C 24.390625 -45.863281 24.582031 -45.738281 24.75 -45.59375 C 24.925781 -45.457031 25.125 -45.332031 25.34375 -45.21875 C 25.507812 -45.101562 25.703125 -44.988281 25.921875 -44.875 C 26.148438 -44.769531 26.320312 -44.628906 26.4375 -44.453125 L 27.28125 -43.453125 C 27.5625 -43.003906 27.816406 -42.46875 28.046875 -41.84375 C 28.148438 -41.5625 28.226562 -41.28125 28.28125 -41 C 28.34375 -40.726562 28.398438 -40.453125 28.453125 -40.171875 C 28.453125 -39.941406 28.476562 -39.742188 28.53125 -39.578125 C 28.59375 -39.410156 28.597656 -39.210938 28.546875 -38.984375 C 28.546875 -38.816406 28.515625 -38.660156 28.453125 -38.515625 C 28.398438 -38.378906 28.347656 -38.226562 28.296875 -38.0625 C 28.296875 -37.832031 28.265625 -37.601562 28.203125 -37.375 C 28.148438 -37.15625 28.066406 -36.9375 27.953125 -36.71875 C 27.898438 -36.488281 27.832031 -36.273438 27.75 -36.078125 C 27.664062 -35.878906 27.566406 -35.671875 27.453125 -35.453125 C 27.335938 -35.222656 27.207031 -34.984375 27.0625 -34.734375 C 26.925781 -34.484375 26.773438 -34.273438 26.609375 -34.109375 C 26.492188 -33.929688 26.363281 -33.769531 26.21875 -33.625 C 26.082031 -33.488281 25.957031 -33.367188 25.84375 -33.265625 C 25.675781 -33.085938 25.476562 -32.957031 25.25 -32.875 C 25.03125 -32.789062 24.8125 -32.695312 24.59375 -32.59375 C 24.195312 -32.363281 23.828125 -32.148438 23.484375 -31.953125 C 23.148438 -31.753906 22.757812 -31.597656 22.3125 -31.484375 C 22.144531 -31.429688 21.960938 -31.414062 21.765625 -31.4375 C 21.566406 -31.46875 21.382812 -31.484375 21.21875 -31.484375 C 20.882812 -31.429688 20.546875 -31.414062 20.203125 -31.4375 C 19.867188 -31.46875 19.535156 -31.457031 19.203125 -31.40625 L 17.171875 -31.40625 C 17.066406 -31.40625 16.96875 -31.429688 16.875 -31.484375 C 16.789062 -31.546875 16.695312 -31.601562 16.59375 -31.65625 C 16.414062 -31.820312 16.300781 -31.960938 16.25 -32.078125 C 16.25 -32.140625 16.21875 -32.195312 16.15625 -32.25 C 16.101562 -32.300781 16.078125 -32.359375 16.078125 -32.421875 L 16.078125 -32.59375 C 16.078125 -32.757812 16.09375 -32.910156 16.125 -33.046875 C 16.15625 -33.191406 16.171875 -33.316406 16.171875 -33.421875 C 16.171875 -34.378906 16.15625 -35.332031 16.125 -36.28125 C 16.09375 -37.238281 16.078125 -38.195312 16.078125 -39.15625 Z M 16.078125 -39.15625 "/></g></g></g><g clip-path="url(#d0c61a32ab)"><g clip-path="url(#42dced4692)"><g clip-path="url(#65d468db36)"><g clip-path="url(#32e6c62f26)"><path fill="#ffffff" d="M 842.007812 427.453125 C 843.625 426 843.746094 423.445312 842.277344 421.839844 C 840.804688 420.226562 838.304688 420.089844 836.714844 421.53125 C 835.082031 423.015625 834.945312 425.621094 836.417969 427.191406 C 837.890625 428.765625 840.421875 428.882812 842.007812 427.453125 Z M 832.46875 422.796875 C 832.800781 421.417969 833.449219 420.183594 834.21875 419.007812 C 835.210938 417.503906 835.578125 415.925781 834.96875 414.160156 C 834.539062 412.90625 834.136719 411.640625 833.746094 410.371094 L 839.554688 412.554688 C 839.894531 413.742188 840.289062 415.0625 840.617188 416.113281 C 840.742188 416.511719 841.113281 416.71875 841.394531 416.984375 C 842.484375 418 843.660156 418.925781 844.621094 420.070312 C 846.902344 422.777344 846.921875 425.996094 844.691406 428.882812 C 842.777344 431.359375 839.214844 432.164062 836.28125 430.777344 C 833.136719 429.292969 831.652344 426.183594 832.46875 422.796875 " fill-opacity="1" fill-rule="nonzero"/></g></g></g></g><g clip-path="url(#855db20995)"><g clip-path="url(#2e811cd835)"><g clip-path="url(#0832eacac3)"><g clip-path="url(#8004e8691d)"><path fill="#ffffff" d="M 855.347656 415.269531 C 856.914062 413.816406 857.023438 411.289062 855.589844 409.679688 C 854.15625 408.070312 851.550781 407.96875 849.925781 409.464844 C 848.347656 410.914062 848.257812 413.417969 849.730469 415.03125 C 851.195312 416.640625 853.75 416.746094 855.347656 415.269531 Z M 833.980469 405.273438 C 833.191406 405.992188 833.136719 407.214844 833.855469 408 C 834.574219 408.789062 835.796875 408.84375 836.585938 408.125 C 837.375 407.402344 837.429688 406.183594 836.710938 405.394531 C 835.988281 404.609375 834.769531 404.550781 833.980469 405.273438 Z M 844.179688 412.859375 C 842.507812 412.167969 839.066406 410.820312 839.074219 410.851562 L 832.671875 408.226562 C 827.09375 405.90625 821.511719 403.605469 816.097656 400.917969 C 814.542969 400.144531 812.96875 399.390625 811.621094 398.269531 C 810.898438 397.667969 810.261719 396.984375 809.871094 396.109375 C 809.527344 395.339844 809.515625 394.585938 810.097656 393.894531 C 810.351562 393.59375 810.589844 393.53125 810.972656 393.695312 C 815.113281 395.460938 819.257812 397.207031 823.402344 398.957031 C 825.777344 399.960938 831.140625 402.175781 831.132812 402.15625 C 831.152344 402.164062 829.433594 396.625 828.644531 394.167969 C 827.277344 389.882812 825.910156 385.59375 824.527344 381.316406 C 824.398438 380.914062 824.480469 380.683594 824.804688 380.460938 C 825.546875 379.945312 826.292969 380.023438 827.03125 380.4375 C 827.867188 380.902344 828.492188 381.597656 829.023438 382.371094 C 830.019531 383.816406 830.628906 385.449219 831.257812 387.070312 C 833.445312 392.703125 835.234375 398.472656 837.039062 404.234375 C 837.144531 404.570312 837.300781 404.769531 837.640625 404.910156 C 839.347656 405.605469 841.058594 406.304688 842.742188 407.058594 C 844.445312 407.824219 846.050781 407.601562 847.640625 406.75 C 848.878906 406.089844 850.167969 405.554688 851.570312 405.347656 C 855.019531 404.839844 857.976562 406.601562 859.175781 409.867188 C 860.289062 412.910156 859.167969 416.390625 856.527344 418.070312 C 853.449219 420.03125 850.246094 419.722656 847.757812 417.207031 C 846.707031 416.144531 845.890625 414.890625 844.976562 413.714844 C 844.738281 413.40625 844.5625 413.019531 844.179688 412.859375 " fill-opacity="1" fill-rule="nonzero"/></g></g></g></g></svg>